<svg height="460.8" viewBox="0 0 460.8 345.6" width="614.4" xmlns="http://www.w3.org/2000/svg" xmlns:xlink="http://www.w3.org/1999/xlink"><defs><style>*{stroke-linecap:butt;stroke-linejoin:round}</style></defs><g id="figure_1"><path d="M0 345.6h460.8V0H0z" fill="#fff" id="patch_1"/><g id="axes_1"><path d="M57.6 307.584h357.12V41.472H57.6z" fill="#fff" id="patch_2"/><g id="PathCollection_1"><defs><path d="M0 3a3 3 0 1 0 0-6 3 3 0 0 0 0 6z" id="C0_0_22a5711bff"/></defs><g clip-path="url(#p15e5b6f56a)"><use x="181.09" xlink:href="#C0_0_22a5711bff" y="186.649" fill="red" stroke="red"/></g><g clip-path="url(#p15e5b6f56a)"><use x="98.893" xlink:href="#C0_0_22a5711bff" y="116.951" fill="#00f" stroke="#00f"/></g><g clip-path="url(#p15e5b6f56a)"><use x="115.279" xlink:href="#C0_0_22a5711bff" y="218.918" fill="#00f" stroke="#00f"/></g><g clip-path="url(#p15e5b6f56a)"><use x="225.052" xlink:href="#C0_0_22a5711bff" y="235.496" fill="red" stroke="red"/></g><g clip-path="url(#p15e5b6f56a)"><use x="150.438" xlink:href="#C0_0_22a5711bff" y="221.681" fill="red" stroke="red"/></g><g clip-path="url(#p15e5b6f56a)"><use x="227.374" xlink:href="#C0_0_22a5711bff" y="90.168" fill="#00f" stroke="#00f"/></g><g clip-path="url(#p15e5b6f56a)"><use x="202.998" xlink:href="#C0_0_22a5711bff" y="230.264" fill="red" stroke="red"/></g><g clip-path="url(#p15e5b6f56a)"><use x="226.782" xlink:href="#C0_0_22a5711bff" y="208.829" fill="red" stroke="red"/></g><g clip-path="url(#p15e5b6f56a)"><use x="200.098" xlink:href="#C0_0_22a5711bff" y="136.065" fill="red" stroke="red"/></g><g clip-path="url(#p15e5b6f56a)"><use x="165.261" xlink:href="#C0_0_22a5711bff" y="183.966" fill="red" stroke="red"/></g><g clip-path="url(#p15e5b6f56a)"><use x="159.035" xlink:href="#C0_0_22a5711bff" y="190.764" fill="red" stroke="red"/></g><g clip-path="url(#p15e5b6f56a)"><use x="213.278" xlink:href="#C0_0_22a5711bff" y="224.958" fill="red" stroke="red"/></g><g clip-path="url(#p15e5b6f56a)"><use x="184.815" xlink:href="#C0_0_22a5711bff" y="194.04" fill="red" stroke="red"/></g><g clip-path="url(#p15e5b6f56a)"><use x="170.53" xlink:href="#C0_0_22a5711bff" y="233.127" fill="red" stroke="red"/></g><g clip-path="url(#p15e5b6f56a)"><use x="133.072" xlink:href="#C0_0_22a5711bff" y="190.643" fill="#00f" stroke="#00f"/></g><g clip-path="url(#p15e5b6f56a)"><use x="188.15" xlink:href="#C0_0_22a5711bff" y="92.668" fill="#00f" stroke="#00f"/></g><g clip-path="url(#p15e5b6f56a)"><use x="84.62" xlink:href="#C0_0_22a5711bff" y="179.706" fill="#00f" stroke="#00f"/></g><g clip-path="url(#p15e5b6f56a)"><use x="218.721" xlink:href="#C0_0_22a5711bff" y="128.48" fill="red" stroke="red"/></g><g clip-path="url(#p15e5b6f56a)"><use x="225.003" xlink:href="#C0_0_22a5711bff" y="219.019" fill="red" stroke="red"/></g><g clip-path="url(#p15e5b6f56a)"><use x="201.013" xlink:href="#C0_0_22a5711bff" y="162.056" fill="red" stroke="red"/></g><g clip-path="url(#p15e5b6f56a)"><use x="186.026" xlink:href="#C0_0_22a5711bff" y="152.662" fill="red" stroke="red"/></g><g clip-path="url(#p15e5b6f56a)"><use x="111.71" xlink:href="#C0_0_22a5711bff" y="113.216" fill="#00f" stroke="#00f"/></g><g clip-path="url(#p15e5b6f56a)"><use x="271.174" xlink:href="#C0_0_22a5711bff" y="198.128" fill="#00f" stroke="#00f"/></g><g clip-path="url(#p15e5b6f56a)"><use x="230.237" xlink:href="#C0_0_22a5711bff" y="182.366" fill="red" stroke="red"/></g><g clip-path="url(#p15e5b6f56a)"><use x="161.376" xlink:href="#C0_0_22a5711bff" y="180.734" fill="red" stroke="red"/></g><g clip-path="url(#p15e5b6f56a)"><use x="248.834" xlink:href="#C0_0_22a5711bff" y="199.993" fill="red" stroke="red"/></g><g clip-path="url(#p15e5b6f56a)"><use x="183.054" xlink:href="#C0_0_22a5711bff" y="187.397" fill="red" stroke="red"/></g><g clip-path="url(#p15e5b6f56a)"><use x="221.735" xlink:href="#C0_0_22a5711bff" y="131.818" fill="red" stroke="red"/></g><g clip-path="url(#p15e5b6f56a)"><use x="170.672" xlink:href="#C0_0_22a5711bff" y="163.451" fill="red" stroke="red"/></g><g clip-path="url(#p15e5b6f56a)"><use x="211.344" xlink:href="#C0_0_22a5711bff" y="260.693" fill="#00f" stroke="#00f"/></g><g clip-path="url(#p15e5b6f56a)"><use x="180.967" xlink:href="#C0_0_22a5711bff" y="189.774" fill="red" stroke="red"/></g><g clip-path="url(#p15e5b6f56a)"><use x="199.121" xlink:href="#C0_0_22a5711bff" y="170.944" fill="red" stroke="red"/></g><g clip-path="url(#p15e5b6f56a)"><use x="103.477" xlink:href="#C0_0_22a5711bff" y="182.437" fill="#00f" stroke="#00f"/></g><g clip-path="url(#p15e5b6f56a)"><use x="168.617" xlink:href="#C0_0_22a5711bff" y="243.473" fill="#00f" stroke="#00f"/></g><g clip-path="url(#p15e5b6f56a)"><use x="226.076" xlink:href="#C0_0_22a5711bff" y="154.13" fill="red" stroke="red"/></g><g clip-path="url(#p15e5b6f56a)"><use x="169.784" xlink:href="#C0_0_22a5711bff" y="149.727" fill="red" stroke="red"/></g><g clip-path="url(#p15e5b6f56a)"><use x="182.774" xlink:href="#C0_0_22a5711bff" y="181.606" fill="red" stroke="red"/></g><g clip-path="url(#p15e5b6f56a)"><use x="148.488" xlink:href="#C0_0_22a5711bff" y="119.243" fill="#00f" stroke="#00f"/></g><g clip-path="url(#p15e5b6f56a)"><use x="73.88" xlink:href="#C0_0_22a5711bff" y="188.094" fill="#00f" stroke="#00f"/></g><g clip-path="url(#p15e5b6f56a)"><use x="234.242" xlink:href="#C0_0_22a5711bff" y="267.877" fill="#00f" stroke="#00f"/></g><g clip-path="url(#p15e5b6f56a)"><use x="191.955" xlink:href="#C0_0_22a5711bff" y="187.509" fill="red" stroke="red"/></g><g clip-path="url(#p15e5b6f56a)"><use x="240.437" xlink:href="#C0_0_22a5711bff" y="133.058" fill="#00f" stroke="#00f"/></g><g clip-path="url(#p15e5b6f56a)"><use x="181.705" xlink:href="#C0_0_22a5711bff" y="241.216" fill="#00f" stroke="#00f"/></g><g clip-path="url(#p15e5b6f56a)"><use x="266.372" xlink:href="#C0_0_22a5711bff" y="134.304" fill="#00f" stroke="#00f"/></g><g clip-path="url(#p15e5b6f56a)"><use x="178.927" xlink:href="#C0_0_22a5711bff" y="169.922" fill="red" stroke="red"/></g><g clip-path="url(#p15e5b6f56a)"><use x="219.267" xlink:href="#C0_0_22a5711bff" y="161.073" fill="red" stroke="red"/></g><g clip-path="url(#p15e5b6f56a)"><use x="210.775" xlink:href="#C0_0_22a5711bff" y="126.547" fill="#00f" stroke="#00f"/></g><g clip-path="url(#p15e5b6f56a)"><use x="117.931" xlink:href="#C0_0_22a5711bff" y="141.578" fill="#00f" stroke="#00f"/></g><g clip-path="url(#p15e5b6f56a)"><use x="219.201" xlink:href="#C0_0_22a5711bff" y="193.258" fill="red" stroke="red"/></g><g clip-path="url(#p15e5b6f56a)"><use x="257.112" xlink:href="#C0_0_22a5711bff" y="280.618" fill="#00f" stroke="#00f"/></g><g clip-path="url(#p15e5b6f56a)"><use x="256.538" xlink:href="#C0_0_22a5711bff" y="168.476" fill="red" stroke="red"/></g><g clip-path="url(#p15e5b6f56a)"><use x="146.844" xlink:href="#C0_0_22a5711bff" y="166.545" fill="red" stroke="red"/></g><g clip-path="url(#p15e5b6f56a)"><use x="186.476" xlink:href="#C0_0_22a5711bff" y="78.127" fill="#00f" stroke="#00f"/></g><g clip-path="url(#p15e5b6f56a)"><use x="288.749" xlink:href="#C0_0_22a5711bff" y="166.233" fill="#00f" stroke="#00f"/></g><g clip-path="url(#p15e5b6f56a)"><use x="166.629" xlink:href="#C0_0_22a5711bff" y="208.305" fill="red" stroke="red"/></g><g clip-path="url(#p15e5b6f56a)"><use x="185.474" xlink:href="#C0_0_22a5711bff" y="207.353" fill="red" stroke="red"/></g><g clip-path="url(#p15e5b6f56a)"><use x="157.881" xlink:href="#C0_0_22a5711bff" y="208.616" fill="red" stroke="red"/></g><g clip-path="url(#p15e5b6f56a)"><use x="187.81" xlink:href="#C0_0_22a5711bff" y="205.572" fill="red" stroke="red"/></g><g clip-path="url(#p15e5b6f56a)"><use x="167.617" xlink:href="#C0_0_22a5711bff" y="222.498" fill="red" stroke="red"/></g><g clip-path="url(#p15e5b6f56a)"><use x="322.934" xlink:href="#C0_0_22a5711bff" y="244.858" fill="#00f" stroke="#00f"/></g><g clip-path="url(#p15e5b6f56a)"><use x="152.185" xlink:href="#C0_0_22a5711bff" y="166.573" fill="red" stroke="red"/></g><g clip-path="url(#p15e5b6f56a)"><use x="185.544" xlink:href="#C0_0_22a5711bff" y="166.925" fill="red" stroke="red"/></g><g clip-path="url(#p15e5b6f56a)"><use x="239.217" xlink:href="#C0_0_22a5711bff" y="132.466" fill="#00f" stroke="#00f"/></g><g clip-path="url(#p15e5b6f56a)"><use x="236.96" xlink:href="#C0_0_22a5711bff" y="225.163" fill="red" stroke="red"/></g><g clip-path="url(#p15e5b6f56a)"><use x="254.034" xlink:href="#C0_0_22a5711bff" y="256.844" fill="#00f" stroke="#00f"/></g><g clip-path="url(#p15e5b6f56a)"><use x="195.543" xlink:href="#C0_0_22a5711bff" y="204.803" fill="red" stroke="red"/></g><g clip-path="url(#p15e5b6f56a)"><use x="150.302" xlink:href="#C0_0_22a5711bff" y="160.03" fill="red" stroke="red"/></g><g clip-path="url(#p15e5b6f56a)"><use x="192.252" xlink:href="#C0_0_22a5711bff" y="142.439" fill="red" stroke="red"/></g><g clip-path="url(#p15e5b6f56a)"><use x="130.144" xlink:href="#C0_0_22a5711bff" y="149.569" fill="#00f" stroke="#00f"/></g><g clip-path="url(#p15e5b6f56a)"><use x="224.816" xlink:href="#C0_0_22a5711bff" y="179.14" fill="red" stroke="red"/></g><g clip-path="url(#p15e5b6f56a)"><use x="133.187" xlink:href="#C0_0_22a5711bff" y="194.681" fill="#00f" stroke="#00f"/></g><g clip-path="url(#p15e5b6f56a)"><use x="127.075" xlink:href="#C0_0_22a5711bff" y="269.897" fill="#00f" stroke="#00f"/></g><g clip-path="url(#p15e5b6f56a)"><use x="357.798" xlink:href="#C0_0_22a5711bff" y="144.452" fill="#00f" stroke="#00f"/></g><g clip-path="url(#p15e5b6f56a)"><use x="286.706" xlink:href="#C0_0_22a5711bff" y="201.962" fill="#00f" stroke="#00f"/></g><g clip-path="url(#p15e5b6f56a)"><use x="234.294" xlink:href="#C0_0_22a5711bff" y="155.686" fill="red" stroke="red"/></g><g clip-path="url(#p15e5b6f56a)"><use x="229.767" xlink:href="#C0_0_22a5711bff" y="184.187" fill="red" stroke="red"/></g><g clip-path="url(#p15e5b6f56a)"><use x="190.101" xlink:href="#C0_0_22a5711bff" y="269.362" fill="#00f" stroke="#00f"/></g><g clip-path="url(#p15e5b6f56a)"><use x="230.18" xlink:href="#C0_0_22a5711bff" y="166.939" fill="red" stroke="red"/></g><g clip-path="url(#p15e5b6f56a)"><use x="254.452" xlink:href="#C0_0_22a5711bff" y="195.604" fill="red" stroke="red"/></g><g clip-path="url(#p15e5b6f56a)"><use x="284.278" xlink:href="#C0_0_22a5711bff" y="202.722" fill="#00f" stroke="#00f"/></g><g clip-path="url(#p15e5b6f56a)"><use x="140.998" xlink:href="#C0_0_22a5711bff" y="145.795" fill="#00f" stroke="#00f"/></g><g clip-path="url(#p15e5b6f56a)"><use x="178.624" xlink:href="#C0_0_22a5711bff" y="235.884" fill="red" stroke="red"/></g><g clip-path="url(#p15e5b6f56a)"><use x="206.98" xlink:href="#C0_0_22a5711bff" y="153.258" fill="red" stroke="red"/></g><g clip-path="url(#p15e5b6f56a)"><use x="212.554" xlink:href="#C0_0_22a5711bff" y="163.902" fill="red" stroke="red"/></g><g clip-path="url(#p15e5b6f56a)"><use x="397.425" xlink:href="#C0_0_22a5711bff" y="150.604" fill="#00f" stroke="#00f"/></g><g clip-path="url(#p15e5b6f56a)"><use x="274.237" xlink:href="#C0_0_22a5711bff" y="265.92" fill="#00f" stroke="#00f"/></g><g clip-path="url(#p15e5b6f56a)"><use x="218.464" xlink:href="#C0_0_22a5711bff" y="152.536" fill="red" stroke="red"/></g><g clip-path="url(#p15e5b6f56a)"><use x="183.589" xlink:href="#C0_0_22a5711bff" y="220.324" fill="red" stroke="red"/></g><g clip-path="url(#p15e5b6f56a)"><use x="219.968" xlink:href="#C0_0_22a5711bff" y="197.262" fill="red" stroke="red"/></g><g clip-path="url(#p15e5b6f56a)"><use x="172.629" xlink:href="#C0_0_22a5711bff" y="137.113" fill="red" stroke="red"/></g><g clip-path="url(#p15e5b6f56a)"><use x="264.858" xlink:href="#C0_0_22a5711bff" y="171.904" fill="red" stroke="red"/></g><g clip-path="url(#p15e5b6f56a)"><use x="179.299" xlink:href="#C0_0_22a5711bff" y="163.206" fill="red" stroke="red"/></g><g clip-path="url(#p15e5b6f56a)"><use x="240.664" xlink:href="#C0_0_22a5711bff" y="158.43" fill="red" stroke="red"/></g><g clip-path="url(#p15e5b6f56a)"><use x="131.536" xlink:href="#C0_0_22a5711bff" y="198.224" fill="#00f" stroke="#00f"/></g><g clip-path="url(#p15e5b6f56a)"><use x="218.181" xlink:href="#C0_0_22a5711bff" y="158.775" fill="red" stroke="red"/></g><g clip-path="url(#p15e5b6f56a)"><use x="246.942" xlink:href="#C0_0_22a5711bff" y="153.182" fill="red" stroke="red"/></g><g clip-path="url(#p15e5b6f56a)"><use x="146.787" xlink:href="#C0_0_22a5711bff" y="213.4" fill="red" stroke="red"/></g><g clip-path="url(#p15e5b6f56a)"><use x="142.623" xlink:href="#C0_0_22a5711bff" y="110.205" fill="#00f" stroke="#00f"/></g><g clip-path="url(#p15e5b6f56a)"><use x="209.637" xlink:href="#C0_0_22a5711bff" y="161.612" fill="red" stroke="red"/></g><g clip-path="url(#p15e5b6f56a)"><use x="250.396" xlink:href="#C0_0_22a5711bff" y="197.853" fill="red" stroke="red"/></g><g clip-path="url(#p15e5b6f56a)"><use x="145.99" xlink:href="#C0_0_22a5711bff" y="201.86" fill="red" stroke="red"/></g><g clip-path="url(#p15e5b6f56a)"><use x="193.93" xlink:href="#C0_0_22a5711bff" y="122.655" fill="#00f" stroke="#00f"/></g><g clip-path="url(#p15e5b6f56a)"><use x="242.583" xlink:href="#C0_0_22a5711bff" y="228.997" fill="red" stroke="red"/></g><g clip-path="url(#p15e5b6f56a)"><use x="232.765" xlink:href="#C0_0_22a5711bff" y="154.146" fill="red" stroke="red"/></g><g clip-path="url(#p15e5b6f56a)"><use x="150.275" xlink:href="#C0_0_22a5711bff" y="188.795" fill="red" stroke="red"/></g><g clip-path="url(#p15e5b6f56a)"><use x="112.555" xlink:href="#C0_0_22a5711bff" y="170.76" fill="#00f" stroke="#00f"/></g><g clip-path="url(#p15e5b6f56a)"><use x="185.921" xlink:href="#C0_0_22a5711bff" y="239.798" fill="red" stroke="red"/></g><g clip-path="url(#p15e5b6f56a)"><use x="167.637" xlink:href="#C0_0_22a5711bff" y="174.479" fill="red" stroke="red"/></g><g clip-path="url(#p15e5b6f56a)"><use x="174.579" xlink:href="#C0_0_22a5711bff" y="172.032" fill="red" stroke="red"/></g><g clip-path="url(#p15e5b6f56a)"><use x="227.432" xlink:href="#C0_0_22a5711bff" y="218.864" fill="red" stroke="red"/></g><g clip-path="url(#p15e5b6f56a)"><use x="186.085" xlink:href="#C0_0_22a5711bff" y="96.229" fill="#00f" stroke="#00f"/></g><g clip-path="url(#p15e5b6f56a)"><use x="206.802" xlink:href="#C0_0_22a5711bff" y="219.127" fill="red" stroke="red"/></g><g clip-path="url(#p15e5b6f56a)"><use x="203.903" xlink:href="#C0_0_22a5711bff" y="239.329" fill="red" stroke="red"/></g><g clip-path="url(#p15e5b6f56a)"><use x="255.162" xlink:href="#C0_0_22a5711bff" y="169.124" fill="red" stroke="red"/></g><g clip-path="url(#p15e5b6f56a)"><use x="252.919" xlink:href="#C0_0_22a5711bff" y="147.274" fill="red" stroke="red"/></g><g clip-path="url(#p15e5b6f56a)"><use x="219.67" xlink:href="#C0_0_22a5711bff" y="144.261" fill="red" stroke="red"/></g><g clip-path="url(#p15e5b6f56a)"><use x="210.171" xlink:href="#C0_0_22a5711bff" y="211.542" fill="red" stroke="red"/></g><g clip-path="url(#p15e5b6f56a)"><use x="152.084" xlink:href="#C0_0_22a5711bff" y="202.749" fill="red" stroke="red"/></g><g clip-path="url(#p15e5b6f56a)"><use x="81.241" xlink:href="#C0_0_22a5711bff" y="109.321" fill="#00f" stroke="#00f"/></g><g clip-path="url(#p15e5b6f56a)"><use x="119.073" xlink:href="#C0_0_22a5711bff" y="187.486" fill="#00f" stroke="#00f"/></g><g clip-path="url(#p15e5b6f56a)"><use x="138.027" xlink:href="#C0_0_22a5711bff" y="267.553" fill="#00f" stroke="#00f"/></g><g clip-path="url(#p15e5b6f56a)"><use x="197.081" xlink:href="#C0_0_22a5711bff" y="196.854" fill="red" stroke="red"/></g><g clip-path="url(#p15e5b6f56a)"><use x="193.377" xlink:href="#C0_0_22a5711bff" y="161.785" fill="red" stroke="red"/></g><g clip-path="url(#p15e5b6f56a)"><use x="171.452" xlink:href="#C0_0_22a5711bff" y="168.775" fill="red" stroke="red"/></g><g clip-path="url(#p15e5b6f56a)"><use x="225.548" xlink:href="#C0_0_22a5711bff" y="198.093" fill="red" stroke="red"/></g><g clip-path="url(#p15e5b6f56a)"><use x="187.459" xlink:href="#C0_0_22a5711bff" y="162.217" fill="red" stroke="red"/></g><g clip-path="url(#p15e5b6f56a)"><use x="203.749" xlink:href="#C0_0_22a5711bff" y="177.801" fill="red" stroke="red"/></g><g clip-path="url(#p15e5b6f56a)"><use x="87.506" xlink:href="#C0_0_22a5711bff" y="181.933" fill="#00f" stroke="#00f"/></g><g clip-path="url(#p15e5b6f56a)"><use x="219.013" xlink:href="#C0_0_22a5711bff" y="189.903" fill="red" stroke="red"/></g><g clip-path="url(#p15e5b6f56a)"><use x="217.07" xlink:href="#C0_0_22a5711bff" y="106.101" fill="#00f" stroke="#00f"/></g><g clip-path="url(#p15e5b6f56a)"><use x="205.093" xlink:href="#C0_0_22a5711bff" y="157.004" fill="red" stroke="red"/></g><g clip-path="url(#p15e5b6f56a)"><use x="160.379" xlink:href="#C0_0_22a5711bff" y="219.353" fill="red" stroke="red"/></g><g clip-path="url(#p15e5b6f56a)"><use x="178.067" xlink:href="#C0_0_22a5711bff" y="226.227" fill="red" stroke="red"/></g><g clip-path="url(#p15e5b6f56a)"><use x="200.649" xlink:href="#C0_0_22a5711bff" y="222.701" fill="red" stroke="red"/></g><g clip-path="url(#p15e5b6f56a)"><use x="192.647" xlink:href="#C0_0_22a5711bff" y="243.378" fill="#00f" stroke="#00f"/></g><g clip-path="url(#p15e5b6f56a)"><use x="122.03" xlink:href="#C0_0_22a5711bff" y="212.095" fill="#00f" stroke="#00f"/></g><g clip-path="url(#p15e5b6f56a)"><use x="150.002" xlink:href="#C0_0_22a5711bff" y="211.161" fill="red" stroke="red"/></g><g clip-path="url(#p15e5b6f56a)"><use x="171.752" xlink:href="#C0_0_22a5711bff" y="198.768" fill="red" stroke="red"/></g><g clip-path="url(#p15e5b6f56a)"><use x="250.991" xlink:href="#C0_0_22a5711bff" y="128.095" fill="#00f" stroke="#00f"/></g><g clip-path="url(#p15e5b6f56a)"><use x="235.687" xlink:href="#C0_0_22a5711bff" y="199.105" fill="red" stroke="red"/></g><g clip-path="url(#p15e5b6f56a)"><use x="272.573" xlink:href="#C0_0_22a5711bff" y="247.239" fill="#00f" stroke="#00f"/></g><g clip-path="url(#p15e5b6f56a)"><use x="104.287" xlink:href="#C0_0_22a5711bff" y="173.328" fill="#00f" stroke="#00f"/></g><g clip-path="url(#p15e5b6f56a)"><use x="200.907" xlink:href="#C0_0_22a5711bff" y="190.06" fill="red" stroke="red"/></g><g clip-path="url(#p15e5b6f56a)"><use x="202.569" xlink:href="#C0_0_22a5711bff" y="251.735" fill="#00f" stroke="#00f"/></g><g clip-path="url(#p15e5b6f56a)"><use x="145.717" xlink:href="#C0_0_22a5711bff" y="133.64" fill="#00f" stroke="#00f"/></g><g clip-path="url(#p15e5b6f56a)"><use x="250.164" xlink:href="#C0_0_22a5711bff" y="213.994" fill="red" stroke="red"/></g><g clip-path="url(#p15e5b6f56a)"><use x="293.425" xlink:href="#C0_0_22a5711bff" y="228.328" fill="#00f" stroke="#00f"/></g><g clip-path="url(#p15e5b6f56a)"><use x="173.698" xlink:href="#C0_0_22a5711bff" y="172.323" fill="red" stroke="red"/></g><g clip-path="url(#p15e5b6f56a)"><use x="143.887" xlink:href="#C0_0_22a5711bff" y="204.382" fill="red" stroke="red"/></g><g clip-path="url(#p15e5b6f56a)"><use x="192.739" xlink:href="#C0_0_22a5711bff" y="200.579" fill="red" stroke="red"/></g><g clip-path="url(#p15e5b6f56a)"><use x="242.642" xlink:href="#C0_0_22a5711bff" y="159.983" fill="red" stroke="red"/></g><g clip-path="url(#p15e5b6f56a)"><use x="148.462" xlink:href="#C0_0_22a5711bff" y="212.336" fill="red" stroke="red"/></g><g clip-path="url(#p15e5b6f56a)"><use x="209.62" xlink:href="#C0_0_22a5711bff" y="187.087" fill="red" stroke="red"/></g><g clip-path="url(#p15e5b6f56a)"><use x="163.355" xlink:href="#C0_0_22a5711bff" y="166.887" fill="red" stroke="red"/></g><g clip-path="url(#p15e5b6f56a)"><use x="240.206" xlink:href="#C0_0_22a5711bff" y="210.265" fill="red" stroke="red"/></g><g clip-path="url(#p15e5b6f56a)"><use x="238.733" xlink:href="#C0_0_22a5711bff" y="250.959" fill="#00f" stroke="#00f"/></g><g clip-path="url(#p15e5b6f56a)"><use x="124.024" xlink:href="#C0_0_22a5711bff" y="163.798" fill="#00f" stroke="#00f"/></g><g clip-path="url(#p15e5b6f56a)"><use x="161.119" xlink:href="#C0_0_22a5711bff" y="225.295" fill="red" stroke="red"/></g><g clip-path="url(#p15e5b6f56a)"><use x="188.421" xlink:href="#C0_0_22a5711bff" y="212.165" fill="red" stroke="red"/></g><g clip-path="url(#p15e5b6f56a)"><use x="216.648" xlink:href="#C0_0_22a5711bff" y="244.127" fill="#00f" stroke="#00f"/></g><g clip-path="url(#p15e5b6f56a)"><use x="183.252" xlink:href="#C0_0_22a5711bff" y="54.477" fill="#00f" stroke="#00f"/></g><g clip-path="url(#p15e5b6f56a)"><use x="206.269" xlink:href="#C0_0_22a5711bff" y="262.949" fill="#00f" stroke="#00f"/></g><g clip-path="url(#p15e5b6f56a)"><use x="229.686" xlink:href="#C0_0_22a5711bff" y="161.767" fill="red" stroke="red"/></g><g clip-path="url(#p15e5b6f56a)"><use x="267.163" xlink:href="#C0_0_22a5711bff" y="178.243" fill="red" stroke="red"/></g><g clip-path="url(#p15e5b6f56a)"><use x="169.771" xlink:href="#C0_0_22a5711bff" y="126.459" fill="#00f" stroke="#00f"/></g><g clip-path="url(#p15e5b6f56a)"><use x="235.052" xlink:href="#C0_0_22a5711bff" y="258.315" fill="#00f" stroke="#00f"/></g><g clip-path="url(#p15e5b6f56a)"><use x="236.751" xlink:href="#C0_0_22a5711bff" y="193.905" fill="red" stroke="red"/></g><g clip-path="url(#p15e5b6f56a)"><use x="254.106" xlink:href="#C0_0_22a5711bff" y="199.675" fill="red" stroke="red"/></g><g clip-path="url(#p15e5b6f56a)"><use x="238.594" xlink:href="#C0_0_22a5711bff" y="176.36" fill="red" stroke="red"/></g><g clip-path="url(#p15e5b6f56a)"><use x="229.036" xlink:href="#C0_0_22a5711bff" y="185.175" fill="red" stroke="red"/></g><g clip-path="url(#p15e5b6f56a)"><use x="181.202" xlink:href="#C0_0_22a5711bff" y="181.572" fill="red" stroke="red"/></g><g clip-path="url(#p15e5b6f56a)"><use x="231.215" xlink:href="#C0_0_22a5711bff" y="167.181" fill="red" stroke="red"/></g><g clip-path="url(#p15e5b6f56a)"><use x="278.225" xlink:href="#C0_0_22a5711bff" y="166.852" fill="#00f" stroke="#00f"/></g><g clip-path="url(#p15e5b6f56a)"><use x="231.386" xlink:href="#C0_0_22a5711bff" y="97.973" fill="#00f" stroke="#00f"/></g><g clip-path="url(#p15e5b6f56a)"><use x="204.174" xlink:href="#C0_0_22a5711bff" y="162.335" fill="red" stroke="red"/></g><g clip-path="url(#p15e5b6f56a)"><use x="172.18" xlink:href="#C0_0_22a5711bff" y="182.613" fill="red" stroke="red"/></g><g clip-path="url(#p15e5b6f56a)"><use x="279.503" xlink:href="#C0_0_22a5711bff" y="171.532" fill="#00f" stroke="#00f"/></g><g clip-path="url(#p15e5b6f56a)"><use x="270.384" xlink:href="#C0_0_22a5711bff" y="228.087" fill="#00f" stroke="#00f"/></g><g clip-path="url(#p15e5b6f56a)"><use x="134.046" xlink:href="#C0_0_22a5711bff" y="171.703" fill="#00f" stroke="#00f"/></g><g clip-path="url(#p15e5b6f56a)"><use x="135.538" xlink:href="#C0_0_22a5711bff" y="74.634" fill="#00f" stroke="#00f"/></g><g clip-path="url(#p15e5b6f56a)"><use x="260.694" xlink:href="#C0_0_22a5711bff" y="235.514" fill="#00f" stroke="#00f"/></g><g clip-path="url(#p15e5b6f56a)"><use x="193.021" xlink:href="#C0_0_22a5711bff" y="208.026" fill="red" stroke="red"/></g><g clip-path="url(#p15e5b6f56a)"><use x="220.9" xlink:href="#C0_0_22a5711bff" y="186.714" fill="red" stroke="red"/></g><g clip-path="url(#p15e5b6f56a)"><use x="245.561" xlink:href="#C0_0_22a5711bff" y="124.015" fill="#00f" stroke="#00f"/></g><g clip-path="url(#p15e5b6f56a)"><use x="190.432" xlink:href="#C0_0_22a5711bff" y="232.533" fill="red" stroke="red"/></g><g clip-path="url(#p15e5b6f56a)"><use x="227.91" xlink:href="#C0_0_22a5711bff" y="191.096" fill="red" stroke="red"/></g><g clip-path="url(#p15e5b6f56a)"><use x="255.741" xlink:href="#C0_0_22a5711bff" y="190.586" fill="red" stroke="red"/></g><g clip-path="url(#p15e5b6f56a)"><use x="240.68" xlink:href="#C0_0_22a5711bff" y="170.531" fill="red" stroke="red"/></g><g clip-path="url(#p15e5b6f56a)"><use x="191.975" xlink:href="#C0_0_22a5711bff" y="202.797" fill="red" stroke="red"/></g><g clip-path="url(#p15e5b6f56a)"><use x="235.122" xlink:href="#C0_0_22a5711bff" y="80.41" fill="#00f" stroke="#00f"/></g><g clip-path="url(#p15e5b6f56a)"><use x="241.054" xlink:href="#C0_0_22a5711bff" y="189.747" fill="red" stroke="red"/></g><g clip-path="url(#p15e5b6f56a)"><use x="234.838" xlink:href="#C0_0_22a5711bff" y="179.652" fill="red" stroke="red"/></g><g clip-path="url(#p15e5b6f56a)"><use x="139.78" xlink:href="#C0_0_22a5711bff" y="171.608" fill="red" stroke="red"/></g><g clip-path="url(#p15e5b6f56a)"><use x="275.027" xlink:href="#C0_0_22a5711bff" y="197.312" fill="#00f" stroke="#00f"/></g><g clip-path="url(#p15e5b6f56a)"><use x="147.19" xlink:href="#C0_0_22a5711bff" y="164.269" fill="red" stroke="red"/></g><g clip-path="url(#p15e5b6f56a)"><use x="288.539" xlink:href="#C0_0_22a5711bff" y="145.713" fill="#00f" stroke="#00f"/></g><g clip-path="url(#p15e5b6f56a)"><use x="249.711" xlink:href="#C0_0_22a5711bff" y="89.75" fill="#00f" stroke="#00f"/></g><g clip-path="url(#p15e5b6f56a)"><use x="278.508" xlink:href="#C0_0_22a5711bff" y="155.059" fill="#00f" stroke="#00f"/></g><g clip-path="url(#p15e5b6f56a)"><use x="191.036" xlink:href="#C0_0_22a5711bff" y="178.683" fill="red" stroke="red"/></g><g clip-path="url(#p15e5b6f56a)"><use x="196.072" xlink:href="#C0_0_22a5711bff" y="149.485" fill="red" stroke="red"/></g><g clip-path="url(#p15e5b6f56a)"><use x="158.795" xlink:href="#C0_0_22a5711bff" y="120.849" fill="#00f" stroke="#00f"/></g><g clip-path="url(#p15e5b6f56a)"><use x="207.984" xlink:href="#C0_0_22a5711bff" y="200.774" fill="red" stroke="red"/></g><g clip-path="url(#p15e5b6f56a)"><use x="239.983" xlink:href="#C0_0_22a5711bff" y="269.58" fill="#00f" stroke="#00f"/></g><g clip-path="url(#p15e5b6f56a)"><use x="161.123" xlink:href="#C0_0_22a5711bff" y="211.358" fill="red" stroke="red"/></g><g clip-path="url(#p15e5b6f56a)"><use x="240.239" xlink:href="#C0_0_22a5711bff" y="204.433" fill="red" stroke="red"/></g><g clip-path="url(#p15e5b6f56a)"><use x="269.132" xlink:href="#C0_0_22a5711bff" y="202.695" fill="#00f" stroke="#00f"/></g><g clip-path="url(#p15e5b6f56a)"><use x="225.924" xlink:href="#C0_0_22a5711bff" y="213.431" fill="red" stroke="red"/></g><g clip-path="url(#p15e5b6f56a)"><use x="256.252" xlink:href="#C0_0_22a5711bff" y="194.794" fill="red" stroke="red"/></g><g clip-path="url(#p15e5b6f56a)"><use x="225.819" xlink:href="#C0_0_22a5711bff" y="204.591" fill="red" stroke="red"/></g><g clip-path="url(#p15e5b6f56a)"><use x="149.071" xlink:href="#C0_0_22a5711bff" y="193.824" fill="red" stroke="red"/></g><g clip-path="url(#p15e5b6f56a)"><use x="253.502" xlink:href="#C0_0_22a5711bff" y="226.154" fill="#00f" stroke="#00f"/></g><g clip-path="url(#p15e5b6f56a)"><use x="127.901" xlink:href="#C0_0_22a5711bff" y="196.99" fill="#00f" stroke="#00f"/></g><g clip-path="url(#p15e5b6f56a)"><use x="238.336" xlink:href="#C0_0_22a5711bff" y="227.713" fill="red" stroke="red"/></g><g clip-path="url(#p15e5b6f56a)"><use x="175.013" xlink:href="#C0_0_22a5711bff" y="176.766" fill="red" stroke="red"/></g><g clip-path="url(#p15e5b6f56a)"><use x="185.205" xlink:href="#C0_0_22a5711bff" y="172.538" fill="red" stroke="red"/></g><g clip-path="url(#p15e5b6f56a)"><use x="257.877" xlink:href="#C0_0_22a5711bff" y="183.466" fill="red" stroke="red"/></g><g clip-path="url(#p15e5b6f56a)"><use x="197.886" xlink:href="#C0_0_22a5711bff" y="152.863" fill="red" stroke="red"/></g><g clip-path="url(#p15e5b6f56a)"><use x="198.066" xlink:href="#C0_0_22a5711bff" y="223.484" fill="red" stroke="red"/></g><g clip-path="url(#p15e5b6f56a)"><use x="152.517" xlink:href="#C0_0_22a5711bff" y="230.155" fill="#00f" stroke="#00f"/></g><g clip-path="url(#p15e5b6f56a)"><use x="292.443" xlink:href="#C0_0_22a5711bff" y="186.197" fill="#00f" stroke="#00f"/></g><g clip-path="url(#p15e5b6f56a)"><use x="228.591" xlink:href="#C0_0_22a5711bff" y="154.848" fill="red" stroke="red"/></g><g clip-path="url(#p15e5b6f56a)"><use x="156.124" xlink:href="#C0_0_22a5711bff" y="158.506" fill="red" stroke="red"/></g><g clip-path="url(#p15e5b6f56a)"><use x="174.027" xlink:href="#C0_0_22a5711bff" y="270.109" fill="#00f" stroke="#00f"/></g><g clip-path="url(#p15e5b6f56a)"><use x="190.732" xlink:href="#C0_0_22a5711bff" y="228.502" fill="red" stroke="red"/></g><g clip-path="url(#p15e5b6f56a)"><use x="184.856" xlink:href="#C0_0_22a5711bff" y="170.237" fill="red" stroke="red"/></g><g clip-path="url(#p15e5b6f56a)"><use x="310.127" xlink:href="#C0_0_22a5711bff" y="204.705" fill="#00f" stroke="#00f"/></g><g clip-path="url(#p15e5b6f56a)"><use x="193.174" xlink:href="#C0_0_22a5711bff" y="169.07" fill="red" stroke="red"/></g><g clip-path="url(#p15e5b6f56a)"><use x="209.929" xlink:href="#C0_0_22a5711bff" y="190.846" fill="red" stroke="red"/></g><g clip-path="url(#p15e5b6f56a)"><use x="149.244" xlink:href="#C0_0_22a5711bff" y="223.638" fill="#00f" stroke="#00f"/></g><g clip-path="url(#p15e5b6f56a)"><use x="192.246" xlink:href="#C0_0_22a5711bff" y="231.985" fill="red" stroke="red"/></g><g clip-path="url(#p15e5b6f56a)"><use x="169.568" xlink:href="#C0_0_22a5711bff" y="235.75" fill="red" stroke="red"/></g><g clip-path="url(#p15e5b6f56a)"><use x="254.767" xlink:href="#C0_0_22a5711bff" y="245.872" fill="#00f" stroke="#00f"/></g><g clip-path="url(#p15e5b6f56a)"><use x="291.937" xlink:href="#C0_0_22a5711bff" y="208.181" fill="#00f" stroke="#00f"/></g><g clip-path="url(#p15e5b6f56a)"><use x="150.583" xlink:href="#C0_0_22a5711bff" y="232.928" fill="#00f" stroke="#00f"/></g><g clip-path="url(#p15e5b6f56a)"><use x="238.275" xlink:href="#C0_0_22a5711bff" y="142.162" fill="red" stroke="red"/></g><g clip-path="url(#p15e5b6f56a)"><use x="160.443" xlink:href="#C0_0_22a5711bff" y="170.717" fill="red" stroke="red"/></g><g clip-path="url(#p15e5b6f56a)"><use x="193.861" xlink:href="#C0_0_22a5711bff" y="194.297" fill="red" stroke="red"/></g><g clip-path="url(#p15e5b6f56a)"><use x="208.24" xlink:href="#C0_0_22a5711bff" y="152.906" fill="red" stroke="red"/></g><g clip-path="url(#p15e5b6f56a)"><use x="109.39" xlink:href="#C0_0_22a5711bff" y="275.841" fill="#00f" stroke="#00f"/></g><g clip-path="url(#p15e5b6f56a)"><use x="210.893" xlink:href="#C0_0_22a5711bff" y="187.249" fill="red" stroke="red"/></g><g clip-path="url(#p15e5b6f56a)"><use x="233.747" xlink:href="#C0_0_22a5711bff" y="254.487" fill="#00f" stroke="#00f"/></g><g clip-path="url(#p15e5b6f56a)"><use x="153.85" xlink:href="#C0_0_22a5711bff" y="120.925" fill="#00f" stroke="#00f"/></g><g clip-path="url(#p15e5b6f56a)"><use x="138.376" xlink:href="#C0_0_22a5711bff" y="169.406" fill="red" stroke="red"/></g><g clip-path="url(#p15e5b6f56a)"><use x="163.014" xlink:href="#C0_0_22a5711bff" y="200.987" fill="red" stroke="red"/></g><g clip-path="url(#p15e5b6f56a)"><use x="135.15" xlink:href="#C0_0_22a5711bff" y="135.612" fill="#00f" stroke="#00f"/></g><g clip-path="url(#p15e5b6f56a)"><use x="110.002" xlink:href="#C0_0_22a5711bff" y="233.559" fill="#00f" stroke="#00f"/></g><g clip-path="url(#p15e5b6f56a)"><use x="157.508" xlink:href="#C0_0_22a5711bff" y="136.006" fill="#00f" stroke="#00f"/></g><g clip-path="url(#p15e5b6f56a)"><use x="215.316" xlink:href="#C0_0_22a5711bff" y="156.431" fill="red" stroke="red"/></g><g clip-path="url(#p15e5b6f56a)"><use x="200.168" xlink:href="#C0_0_22a5711bff" y="174.64" fill="red" stroke="red"/></g><g clip-path="url(#p15e5b6f56a)"><use x="224.629" xlink:href="#C0_0_22a5711bff" y="120.813" fill="#00f" stroke="#00f"/></g><g clip-path="url(#p15e5b6f56a)"><use x="212.813" xlink:href="#C0_0_22a5711bff" y="244.678" fill="#00f" stroke="#00f"/></g><g clip-path="url(#p15e5b6f56a)"><use x="255.849" xlink:href="#C0_0_22a5711bff" y="180.411" fill="red" stroke="red"/></g><g clip-path="url(#p15e5b6f56a)"><use x="148.072" xlink:href="#C0_0_22a5711bff" y="191.579" fill="red" stroke="red"/></g><g clip-path="url(#p15e5b6f56a)"><use x="154.033" xlink:href="#C0_0_22a5711bff" y="98.611" fill="#00f" stroke="#00f"/></g><g clip-path="url(#p15e5b6f56a)"><use x="184.538" xlink:href="#C0_0_22a5711bff" y="266.587" fill="#00f" stroke="#00f"/></g><g clip-path="url(#p15e5b6f56a)"><use x="215.508" xlink:href="#C0_0_22a5711bff" y="218.43" fill="red" stroke="red"/></g><g clip-path="url(#p15e5b6f56a)"><use x="262.621" xlink:href="#C0_0_22a5711bff" y="178.794" fill="red" stroke="red"/></g><g clip-path="url(#p15e5b6f56a)"><use x="115.988" xlink:href="#C0_0_22a5711bff" y="204.911" fill="#00f" stroke="#00f"/></g><g clip-path="url(#p15e5b6f56a)"><use x="148.994" xlink:href="#C0_0_22a5711bff" y="215.472" fill="red" stroke="red"/></g><g clip-path="url(#p15e5b6f56a)"><use x="170.239" xlink:href="#C0_0_22a5711bff" y="266.863" fill="#00f" stroke="#00f"/></g><g clip-path="url(#p15e5b6f56a)"><use x="210.395" xlink:href="#C0_0_22a5711bff" y="220.321" fill="red" stroke="red"/></g><g clip-path="url(#p15e5b6f56a)"><use x="158.294" xlink:href="#C0_0_22a5711bff" y="153.447" fill="red" stroke="red"/></g><g clip-path="url(#p15e5b6f56a)"><use x="291.694" xlink:href="#C0_0_22a5711bff" y="210.181" fill="#00f" stroke="#00f"/></g><g clip-path="url(#p15e5b6f56a)"><use x="287.638" xlink:href="#C0_0_22a5711bff" y="268.813" fill="#00f" stroke="#00f"/></g><g clip-path="url(#p15e5b6f56a)"><use x="227.912" xlink:href="#C0_0_22a5711bff" y="208.25" fill="red" stroke="red"/></g><g clip-path="url(#p15e5b6f56a)"><use x="197.475" xlink:href="#C0_0_22a5711bff" y="224.865" fill="red" stroke="red"/></g><g clip-path="url(#p15e5b6f56a)"><use x="172.582" xlink:href="#C0_0_22a5711bff" y="197.27" fill="red" stroke="red"/></g><g clip-path="url(#p15e5b6f56a)"><use x="184.427" xlink:href="#C0_0_22a5711bff" y="167.434" fill="red" stroke="red"/></g><g clip-path="url(#p15e5b6f56a)"><use x="312.224" xlink:href="#C0_0_22a5711bff" y="210.386" fill="#00f" stroke="#00f"/></g><g clip-path="url(#p15e5b6f56a)"><use x="193.631" xlink:href="#C0_0_22a5711bff" y="256.202" fill="#00f" stroke="#00f"/></g><g clip-path="url(#p15e5b6f56a)"><use x="80.566" xlink:href="#C0_0_22a5711bff" y="127.185" fill="#00f" stroke="#00f"/></g><g clip-path="url(#p15e5b6f56a)"><use x="137.464" xlink:href="#C0_0_22a5711bff" y="214.968" fill="#00f" stroke="#00f"/></g><g clip-path="url(#p15e5b6f56a)"><use x="202.029" xlink:href="#C0_0_22a5711bff" y="146.915" fill="red" stroke="red"/></g><g clip-path="url(#p15e5b6f56a)"><use x="216.084" xlink:href="#C0_0_22a5711bff" y="107.669" fill="#00f" stroke="#00f"/></g><g clip-path="url(#p15e5b6f56a)"><use x="192.288" xlink:href="#C0_0_22a5711bff" y="259.447" fill="#00f" stroke="#00f"/></g><g clip-path="url(#p15e5b6f56a)"><use x="207.655" xlink:href="#C0_0_22a5711bff" y="179.43" fill="red" stroke="red"/></g><g clip-path="url(#p15e5b6f56a)"><use x="161.866" xlink:href="#C0_0_22a5711bff" y="198.003" fill="red" stroke="red"/></g><g clip-path="url(#p15e5b6f56a)"><use x="172.981" xlink:href="#C0_0_22a5711bff" y="113.079" fill="#00f" stroke="#00f"/></g><g clip-path="url(#p15e5b6f56a)"><use x="171.72" xlink:href="#C0_0_22a5711bff" y="241.583" fill="#00f" stroke="#00f"/></g><g clip-path="url(#p15e5b6f56a)"><use x="214.371" xlink:href="#C0_0_22a5711bff" y="259.199" fill="#00f" stroke="#00f"/></g><g clip-path="url(#p15e5b6f56a)"><use x="221.426" xlink:href="#C0_0_22a5711bff" y="167.617" fill="red" stroke="red"/></g><g clip-path="url(#p15e5b6f56a)"><use x="160.651" xlink:href="#C0_0_22a5711bff" y="207.336" fill="red" stroke="red"/></g><g clip-path="url(#p15e5b6f56a)"><use x="172.305" xlink:href="#C0_0_22a5711bff" y="117.994" fill="#00f" stroke="#00f"/></g><g clip-path="url(#p15e5b6f56a)"><use x="219.893" xlink:href="#C0_0_22a5711bff" y="233.793" fill="red" stroke="red"/></g><g clip-path="url(#p15e5b6f56a)"><use x="141.378" xlink:href="#C0_0_22a5711bff" y="187.523" fill="red" stroke="red"/></g><g clip-path="url(#p15e5b6f56a)"><use x="200.375" xlink:href="#C0_0_22a5711bff" y="215.902" fill="red" stroke="red"/></g><g clip-path="url(#p15e5b6f56a)"><use x="214.935" xlink:href="#C0_0_22a5711bff" y="192.444" fill="red" stroke="red"/></g><g clip-path="url(#p15e5b6f56a)"><use x="252.489" xlink:href="#C0_0_22a5711bff" y="166.367" fill="red" stroke="red"/></g><g clip-path="url(#p15e5b6f56a)"><use x="196.557" xlink:href="#C0_0_22a5711bff" y="178.765" fill="red" stroke="red"/></g><g clip-path="url(#p15e5b6f56a)"><use x="158.815" xlink:href="#C0_0_22a5711bff" y="147.99" fill="red" stroke="red"/></g><g clip-path="url(#p15e5b6f56a)"><use x="219.331" xlink:href="#C0_0_22a5711bff" y="201.468" fill="red" stroke="red"/></g><g clip-path="url(#p15e5b6f56a)"><use x="206.644" xlink:href="#C0_0_22a5711bff" y="206.385" fill="red" stroke="red"/></g><g clip-path="url(#p15e5b6f56a)"><use x="319.91" xlink:href="#C0_0_22a5711bff" y="202.88" fill="#00f" stroke="#00f"/></g><g clip-path="url(#p15e5b6f56a)"><use x="225.815" xlink:href="#C0_0_22a5711bff" y="169.365" fill="red" stroke="red"/></g><g clip-path="url(#p15e5b6f56a)"><use x="162.848" xlink:href="#C0_0_22a5711bff" y="184.105" fill="red" stroke="red"/></g><g clip-path="url(#p15e5b6f56a)"><use x="185.67" xlink:href="#C0_0_22a5711bff" y="174.087" fill="red" stroke="red"/></g><g clip-path="url(#p15e5b6f56a)"><use x="213.265" xlink:href="#C0_0_22a5711bff" y="152.801" fill="red" stroke="red"/></g><g clip-path="url(#p15e5b6f56a)"><use x="238.444" xlink:href="#C0_0_22a5711bff" y="201.06" fill="red" stroke="red"/></g><g clip-path="url(#p15e5b6f56a)"><use x="175.92" xlink:href="#C0_0_22a5711bff" y="208.568" fill="red" stroke="red"/></g><g clip-path="url(#p15e5b6f56a)"><use x="159.78" xlink:href="#C0_0_22a5711bff" y="255.938" fill="#00f" stroke="#00f"/></g></g><g id="matplotlib.axis_1"><g id="xtick_1"><g id="line2d_1"><defs><path d="M0 0v3.5" id="m1caf4a48d2" stroke="#000" stroke-width=".8"/></defs><use x="57.6" xlink:href="#m1caf4a48d2" y="307.584" stroke="#000" stroke-width=".8"/></g><g id="text_1"><defs><path d="M10.594 35.5h62.593v-8.297H10.594z" id="DejaVuSans-2212"/><path d="M40.578 39.313Q47.656 37.797 51.625 33q3.984-4.781 3.984-11.813 0-10.78-7.422-16.703-7.421-5.906-21.093-5.906-4.578 0-9.438.906-4.86.907-10.031 2.72v9.515q4.094-2.39 8.969-3.61 4.89-1.218 10.218-1.218 9.266 0 14.125 3.656 4.86 3.656 4.86 10.64 0 6.454-4.516 10.079-4.515 3.64-12.562 3.64h-8.5v8.11h8.89q7.266 0 11.125 2.906 3.86 2.906 3.86 8.375 0 5.61-3.985 8.61-3.968 3.015-11.39 3.015-4.063 0-8.703-.89-4.641-.876-10.203-2.72v8.782q5.624 1.562 10.53 2.344 4.907.78 9.25.78 11.235 0 17.766-5.109 6.547-5.093 6.547-13.78 0-6.063-3.468-10.235-3.47-4.172-9.86-5.782z" id="DejaVuSans-33"/></defs><g transform="matrix(.1 0 0 -.1 50.229 322.182)"><use xlink:href="#DejaVuSans-2212"/><use x="83.789" xlink:href="#DejaVuSans-33"/></g></g></g><g id="xtick_2"><use x="105.404" xlink:href="#m1caf4a48d2" y="307.584" stroke="#000" stroke-width=".8" id="line2d_2"/><g id="text_2"><defs><path d="M19.188 8.297h34.421V0H7.33v8.297q5.609 5.812 15.296 15.594 9.703 9.797 12.188 12.64 4.734 5.313 6.609 9 1.89 3.688 1.89 7.25 0 5.813-4.078 9.469-4.078 3.672-10.625 3.672-4.64 0-9.797-1.61-5.14-1.609-11-4.89v9.969Q13.767 71.78 18.938 73q5.188 1.219 9.485 1.219 11.328 0 18.062-5.672 6.735-5.656 6.735-15.125 0-4.5-1.688-8.531-1.672-4.016-6.125-9.485-1.218-1.422-7.765-8.187-6.532-6.766-18.453-18.922z" id="DejaVuSans-32"/></defs><g transform="matrix(.1 0 0 -.1 98.033 322.182)"><use xlink:href="#DejaVuSans-2212"/><use x="83.789" xlink:href="#DejaVuSans-32"/></g></g></g><g id="xtick_3"><use x="153.208" xlink:href="#m1caf4a48d2" y="307.584" stroke="#000" stroke-width=".8" id="line2d_3"/><g id="text_3"><defs><path d="M12.406 8.297h16.11v55.625l-17.532-3.516v8.985l17.438 3.515h9.86V8.296H54.39V0H12.406z" id="DejaVuSans-31"/></defs><g transform="matrix(.1 0 0 -.1 145.837 322.182)"><use xlink:href="#DejaVuSans-2212"/><use x="83.789" xlink:href="#DejaVuSans-31"/></g></g></g><g id="xtick_4"><use x="201.013" xlink:href="#m1caf4a48d2" y="307.584" stroke="#000" stroke-width=".8" id="line2d_4"/><g id="text_4"><defs><path d="M31.781 66.406q-7.61 0-11.453-7.5Q16.5 51.422 16.5 36.375q0-14.984 3.828-22.484 3.844-7.5 11.453-7.5 7.672 0 11.5 7.5 3.844 7.5 3.844 22.484 0 15.047-3.844 22.531-3.828 7.5-11.5 7.5zm0 7.813q12.266 0 18.735-9.703 6.468-9.688 6.468-28.141 0-18.406-6.468-28.11-6.47-9.687-18.735-9.687-12.25 0-18.718 9.688-6.47 9.703-6.47 28.109 0 18.453 6.47 28.14Q19.53 74.22 31.78 74.22z" id="DejaVuSans-30"/></defs><use xlink:href="#DejaVuSans-30" transform="matrix(.1 0 0 -.1 197.831 322.182)"/></g></g><g id="xtick_5"><use x="248.817" xlink:href="#m1caf4a48d2" y="307.584" stroke="#000" stroke-width=".8" id="line2d_5"/><use xlink:href="#DejaVuSans-31" transform="matrix(.1 0 0 -.1 245.635 322.182)" id="text_5"/></g><g id="xtick_6"><use x="296.621" xlink:href="#m1caf4a48d2" y="307.584" stroke="#000" stroke-width=".8" id="line2d_6"/><use xlink:href="#DejaVuSans-32" transform="matrix(.1 0 0 -.1 293.44 322.182)" id="text_6"/></g><g id="xtick_7"><use x="344.425" xlink:href="#m1caf4a48d2" y="307.584" stroke="#000" stroke-width=".8" id="line2d_7"/><use xlink:href="#DejaVuSans-33" transform="matrix(.1 0 0 -.1 341.244 322.182)" id="text_7"/></g><g id="xtick_8"><use x="392.229" xlink:href="#m1caf4a48d2" y="307.584" stroke="#000" stroke-width=".8" id="line2d_8"/><g id="text_8"><defs><path d="M37.797 64.313L12.89 25.39h24.906zm-2.594 8.593H47.61V25.391h10.407v-8.203H47.609V0h-9.812v17.188H4.89v9.515z" id="DejaVuSans-34"/></defs><use xlink:href="#DejaVuSans-34" transform="matrix(.1 0 0 -.1 389.048 322.182)"/></g></g></g><g id="matplotlib.axis_2"><g id="ytick_1"><g id="line2d_9"><defs><path d="M0 0h-3.5" id="me71308359d" stroke="#000" stroke-width=".8"/></defs><use x="57.6" xlink:href="#me71308359d" y="307.584" stroke="#000" stroke-width=".8"/></g><g transform="matrix(.1 0 0 -.1 35.858 311.383)" id="text_9"><use xlink:href="#DejaVuSans-2212"/><use x="83.789" xlink:href="#DejaVuSans-33"/></g></g><g id="ytick_2"><use x="57.6" xlink:href="#me71308359d" y="266.502" stroke="#000" stroke-width=".8" id="line2d_10"/><g transform="matrix(.1 0 0 -.1 35.858 270.3)" id="text_10"><use xlink:href="#DejaVuSans-2212"/><use x="83.789" xlink:href="#DejaVuSans-32"/></g></g><g id="ytick_3"><use x="57.6" xlink:href="#me71308359d" y="225.419" stroke="#000" stroke-width=".8" id="line2d_11"/><g transform="matrix(.1 0 0 -.1 35.858 229.219)" id="text_11"><use xlink:href="#DejaVuSans-2212"/><use x="83.789" xlink:href="#DejaVuSans-31"/></g></g><g id="ytick_4"><use x="57.6" xlink:href="#me71308359d" y="184.337" stroke="#000" stroke-width=".8" id="line2d_12"/><use xlink:href="#DejaVuSans-30" transform="matrix(.1 0 0 -.1 44.237 188.136)" id="text_12"/></g><g id="ytick_5"><use x="57.6" xlink:href="#me71308359d" y="143.255" stroke="#000" stroke-width=".8" id="line2d_13"/><use xlink:href="#DejaVuSans-31" transform="matrix(.1 0 0 -.1 44.237 147.054)" id="text_13"/></g><g id="ytick_6"><use x="57.6" xlink:href="#me71308359d" y="102.173" stroke="#000" stroke-width=".8" id="line2d_14"/><use xlink:href="#DejaVuSans-32" transform="matrix(.1 0 0 -.1 44.237 105.972)" id="text_14"/></g><g id="ytick_7"><use x="57.6" xlink:href="#me71308359d" y="61.09" stroke="#000" stroke-width=".8" id="line2d_15"/><use xlink:href="#DejaVuSans-33" transform="matrix(.1 0 0 -.1 44.237 64.89)" id="text_15"/></g></g><path clip-path="url(#p15e5b6f56a)" d="M125.464 164.207l-.365-1.643 4.907-10.271.256-.192 14.82-4.145 64.057-21.258 18.644-8.412 10.517 9.604 44.96 19.884.256 1.232 4.246 25.471-3.57 4.392-10.517 13.06-26.77 44.81-.957.198-74.127 9.024-.53-.411-1.351-1.69-5.906-4.883-22.299-13.582-2.728-10.246-13.543-50.942" fill="none" stroke="#440154" stroke-width="1.5" id="LineCollection_1"/><path d="M57.6 307.584V41.472" fill="none" stroke="#000" stroke-linecap="square" stroke-width=".8" id="patch_3"/><path d="M414.72 307.584V41.472" fill="none" stroke="#000" stroke-linecap="square" stroke-width=".8" id="patch_4"/><path d="M57.6 307.584h357.12" fill="none" stroke="#000" stroke-linecap="square" stroke-width=".8" id="patch_5"/><path d="M57.6 41.472h357.12" fill="none" stroke="#000" stroke-linecap="square" stroke-width=".8" id="patch_6"/></g></g><defs><clipPath id="p15e5b6f56a"><path d="M57.6 41.472h357.12v266.112H57.6z"/></clipPath></defs></svg>