<svg height="57.237" viewBox="-0.165 -0.283 373.216 42.928" width="497.621" xmlns="http://www.w3.org/2000/svg" xmlns:xlink="http://www.w3.org/1999/xlink"><defs><path d="M4.973 17.801c0-.562 0-1.446-.753-2.415a5.244 5.244 0 0 0-1.972-1.518c2.33-1.124 2.725-2.845 2.725-3.527V3.455c0-.741 0-2.271 2.32-3.42.095-.047.095-.07.095-.25 0-.251 0-.263-.263-.263-.167 0-.191 0-.502.143-1.183.586-2.355 1.53-2.606 2.989-.036.24-.036.347-.036 1.148v5.523c0 .37 0 .992-.012 1.124-.107 1.255-.837 2.343-2.2 3.096-.19.108-.203.12-.203.311 0 .203.012.215.18.31.8.443 1.948 1.304 2.187 2.798.048.275.048.3.048.43v7.102c0 1.734 1.196 2.87 2.678 3.575.263.131.287.131.466.131.251 0 .263 0 .263-.263 0-.191-.012-.203-.107-.263-.49-.239-2.033-1.016-2.284-2.737-.024-.168-.024-.3-.024-1.017v-6.12z" id="l"/><path d="M4.973 17.61c0-1.41.718-2.63 2.32-3.49.083-.049.095-.06.095-.252 0-.203-.012-.215-.143-.287-2.152-1.148-2.272-2.905-2.272-3.252V3.228c0-1.734-1.195-2.87-2.678-3.575-.263-.131-.287-.131-.466-.131-.25 0-.263.012-.263.263 0 .18 0 .203.108.263.514.25 2.044 1.028 2.283 2.738.024.167.024.298.024 1.016v6.12c0 .563 0 1.447.753 2.416a5.244 5.244 0 0 0 1.973 1.518C4.376 14.98 3.98 16.701 3.98 17.383v6.886c0 .622 0 1.315-.693 2.188-.538.67-1.124.98-1.638 1.231-.084.048-.084.096-.084.251 0 .251.012.263.263.263.168 0 .191 0 .502-.143 1.184-.586 2.355-1.53 2.606-2.989.036-.24.036-.347.036-1.148V17.61z" id="I"/><path d="M2.331.048c0-.694-.227-1.208-.717-1.208-.383 0-.574.311-.574.574S1.22 0 1.626 0a.531.531 0 0 0 .394-.155c.024-.024.036-.024.048-.024.024 0 .024.167.024.227 0 .394-.072 1.171-.765 1.949-.131.143-.131.167-.131.19 0 .06.06.12.12.12.095 0 1.015-.884 1.015-2.26z" id="A"/><path d="M1.877-.885c-.108.419-.132.538-.968.538-.228 0-.347 0-.347.215C.562 0 .634 0 .872 0h3.79c2.415 0 4.77-2.499 4.77-5.165 0-1.721-1.028-3-2.737-3H2.857c-.227 0-.334 0-.334.227 0 .12.107.12.286.12.73 0 .73.095.73.226 0 .024 0 .096-.048.275L1.877-.885zm2.522-6.467c.108-.443.156-.467.622-.467h1.315c1.124 0 2.152.61 2.152 2.26 0 .598-.239 2.678-1.399 3.993-.334.394-1.243 1.22-2.618 1.22H3.108c-.167 0-.19 0-.263-.013-.131-.012-.143-.036-.143-.131 0-.084.024-.156.048-.263l1.65-6.6z" id="a"/><path d="M8.919-8.309c0-.107-.084-.107-.108-.107s-.072 0-.167.12l-.825.991c-.06-.095-.3-.514-.765-.789-.515-.322-1.029-.322-1.208-.322C3.288-8.416.598-5.81.598-2.99c0 1.973 1.363 3.24 3.156 3.24.86 0 1.949-.287 2.546-1.04.132.454.395.777.479.777.06 0 .071-.036.083-.036.012-.024.108-.442.168-.657l.19-.765c.097-.395.144-.562.228-.921.12-.454.144-.49.801-.502.048 0 .191 0 .191-.227 0-.12-.12-.12-.155-.12-.203 0-.43.024-.646.024h-.645c-.502 0-1.028-.024-1.519-.024-.107 0-.25 0-.25.215 0 .12.095.12.095.132h.299c.944 0 .944.095.944.275 0 .012-.227 1.22-.454 1.578-.454.67-1.399.944-2.104.944-.92 0-2.415-.478-2.415-2.546 0-.801.287-2.63 1.447-3.981.753-.86 1.865-1.447 2.917-1.447 1.41 0 1.913 1.208 1.913 2.308 0 .19-.048.454-.048.621 0 .108.12.108.155.108.132 0 .144-.012.191-.227L8.92-8.31z" id="r"/><path d="M4.4-7.28c.107-.42.131-.539 1.004-.539.263 0 .358 0 .358-.227 0-.12-.131-.12-.167-.12-.215 0-.478.025-.693.025h-1.47c-.24 0-.515-.024-.754-.024-.096 0-.227 0-.227.227 0 .12.095.12.335.12.74 0 .74.095.74.226 0 .084-.023.156-.047.263L1.865-.885c-.108.419-.131.538-1.004.538-.263 0-.37 0-.37.227C.49 0 .61 0 .668 0c.216 0 .479-.024.694-.024h1.47c.24 0 .502.024.742.024.095 0 .239 0 .239-.215 0-.132-.072-.132-.335-.132-.741 0-.741-.095-.741-.239 0-.024 0-.083.048-.275l1.613-6.42z" id="p"/><path d="M10.855-7.293c.108-.406.132-.526.98-.526.228 0 .335 0 .335-.227 0-.12-.083-.12-.31-.12h-1.435c-.299 0-.31.013-.442.204L5.619-1.064l-.897-6.838c-.036-.263-.048-.263-.358-.263H2.88c-.227 0-.335 0-.335.227 0 .12.108.12.287.12.73 0 .73.095.73.226 0 .024 0 .096-.048.275l-1.53 6.098c-.144.573-.419.836-1.22.872-.036 0-.18.012-.18.215C.586 0 .694 0 .742 0c.24 0 .849-.024 1.088-.024h.574c.167 0 .37.024.538.024.084 0 .215 0 .215-.227 0-.108-.12-.12-.167-.12-.395-.012-.777-.083-.777-.514 0-.12 0-.131.048-.299l1.65-6.587h.011l.993 7.424c.035.287.047.323.155.323.131 0 .191-.096.251-.203l4.806-7.604h.012L8.404-.885c-.107.419-.131.538-.968.538-.227 0-.347 0-.347.215 0 .132.108.132.18.132.203 0 .442-.024.645-.024h1.411c.203 0 .454.024.658.024.095 0 .227 0 .227-.227 0-.12-.108-.12-.287-.12-.73 0-.73-.095-.73-.215 0-.012 0-.096.024-.191l1.638-6.54z" id="m"/><path d="M8.847-6.91c.131-.514.323-.873 1.231-.909.036 0 .18-.012.18-.215 0-.131-.108-.131-.156-.131-.239 0-.849.024-1.088.024H8.44c-.167 0-.382-.024-.55-.024-.071 0-.215 0-.215.227 0 .12.096.12.18.12.717.023.765.298.765.513 0 .108-.012.144-.048.311L7.22-1.602l-2.558-6.36c-.084-.191-.096-.203-.36-.203H2.846c-.239 0-.346 0-.346.227 0 .12.083.12.31.12.06 0 .766 0 .766.107 0 .024-.024.12-.036.155l-1.59 6.337c-.144.585-.43.836-1.22.872-.06 0-.18.012-.18.227 0 .12.12.12.156.12.24 0 .85-.024 1.088-.024h.574c.167 0 .37.024.538.024.084 0 .215 0 .215-.227 0-.108-.12-.12-.167-.12-.395-.012-.777-.083-.777-.514 0-.095.024-.203.048-.299l1.614-6.396c.071.12.071.144.12.251l2.844 7.09c.06.143.084.215.192.215.12 0 .131-.036.18-.24l1.673-6.67z" id="q"/><path d="M8.68-5.236c0-1.973-1.292-3.18-2.965-3.18-2.559 0-5.141 2.75-5.141 5.51C.574-1.027 1.817.252 3.55.252c2.51 0 5.128-2.618 5.128-5.487zM3.621-.024c-.98 0-2.02-.717-2.02-2.582 0-1.088.395-2.87 1.375-4.065.873-1.052 1.877-1.482 2.678-1.482 1.052 0 2.068.765 2.068 2.486 0 1.064-.454 2.726-1.255 3.862-.873 1.22-1.96 1.781-2.846 1.781z" id="n"/><path d="M3.539-3.802h2.008c1.65 0 3.3-1.22 3.3-2.582 0-.933-.79-1.781-2.296-1.781H2.857c-.227 0-.334 0-.334.227 0 .12.107.12.286.12.73 0 .73.095.73.226 0 .024 0 .096-.048.275L1.877-.885c-.108.419-.132.538-.968.538-.228 0-.347 0-.347.215C.562 0 .669 0 .742 0c.226 0 .465-.024.693-.024h1.398c.228 0 .479.024.706.024.095 0 .227 0 .227-.227 0-.12-.108-.12-.287-.12-.717 0-.73-.083-.73-.203 0-.06.013-.143.025-.203l.765-3.049zm.86-3.55c.108-.443.156-.467.622-.467h1.184c.896 0 1.638.287 1.638 1.184 0 .31-.156 1.327-.706 1.877-.203.215-.777.67-1.865.67H3.587l.812-3.264z" id="O"/><path d="M4.4-7.352c.107-.443.155-.467.621-.467h.86c1.03 0 1.794.311 1.794 1.244 0 .61-.31 2.367-2.714 2.367h-1.35l.788-3.144zM6.06-4.065c1.483-.323 2.642-1.279 2.642-2.307 0-.933-.944-1.793-2.606-1.793h-3.24c-.239 0-.346 0-.346.227 0 .12.083.12.31.12.718 0 .718.095.718.226 0 .024 0 .096-.048.275L1.877-.885c-.108.419-.132.538-.956.538-.275 0-.36 0-.36.227 0 .12.132.12.168.12.215 0 .467-.024.694-.024h1.41c.216 0 .467.024.682.024.095 0 .227 0 .227-.227 0-.12-.108-.12-.287-.12-.73 0-.73-.095-.73-.215 0-.012 0-.096.025-.191l.8-3.216h1.435c1.136 0 1.351.717 1.351 1.112 0 .179-.12.645-.203.956-.132.55-.167.682-.167.909C5.966-.143 6.659.25 7.46.25c.968 0 1.387-1.184 1.387-1.35 0-.085-.06-.12-.132-.12-.095 0-.12.071-.143.167C8.285-.203 7.795.012 7.496.012s-.49-.132-.49-.67c0-.286.143-1.374.155-1.434.06-.442.06-.49.06-.586 0-.873-.705-1.243-1.16-1.387z" id="f"/><path d="M7.592-8.309c0-.107-.084-.107-.108-.107-.048 0-.06.012-.203.19-.072.085-.562.706-.574.718-.395-.777-1.184-.908-1.686-.908-1.518 0-2.893 1.386-2.893 2.737 0 .897.538 1.423 1.124 1.626.131.048.837.24 1.195.323.61.167.765.215 1.017.478.047.06.286.335.286.897 0 1.112-1.028 2.26-2.223 2.26-.98 0-2.068-.42-2.068-1.758 0-.227.047-.514.083-.634 0-.036.012-.095.012-.12 0-.047-.024-.107-.12-.107-.107 0-.119.024-.167.227L.657-.036c0 .012-.047.168-.047.18C.61.25.705.25.73.25.776.251.788.24.932.06l.55-.718c.286.43.908.91 2.02.91 1.542 0 2.953-1.495 2.953-2.99 0-.502-.12-.944-.574-1.387-.251-.25-.466-.31-1.566-.597-.801-.215-.909-.251-1.124-.443a1.218 1.218 0 0 1-.359-.896c0-1.005 1.017-2.033 2.152-2.033 1.172 0 1.722.718 1.722 1.853 0 .311-.06.634-.06.682 0 .107.096.107.132.107.107 0 .12-.035.167-.227l.646-2.63z" id="J"/><path d="M7.4-6.838c.407-.646.777-.933 1.387-.98.12-.013.215-.013.215-.228 0-.048-.024-.12-.131-.12-.215 0-.73.025-.945.025-.346 0-.705-.024-1.04-.024-.095 0-.215 0-.215.227 0 .107.108.12.155.12.443.035.49.25.49.394 0 .18-.167.454-.179.466L3.383-1.004l-.837-6.444c0-.347.622-.37.754-.37.179 0 .287 0 .287-.228 0-.12-.132-.12-.168-.12-.203 0-.442.025-.645.025h-.67c-.873 0-1.231-.024-1.243-.024-.072 0-.215 0-.215.215 0 .131.083.131.275.131.61 0 .645.108.681.407l.956 7.376c.036.251.036.287.204.287.143 0 .203-.036.322-.227L7.4-6.838z" id="o"/><path d="M3.599-1.423c-.06.204-.06.227-.228.455-.263.334-.789.848-1.35.848-.49 0-.766-.442-.766-1.147 0-.658.37-1.997.598-2.499.407-.837.968-1.267 1.435-1.267.789 0 .944.98.944 1.076 0 .012-.036.167-.048.191L3.6-1.423zm.765-3.06c-.132-.311-.455-.79-1.076-.79-1.351 0-2.81 1.746-2.81 3.516C.478-.574 1.172.12 1.985.12c.657 0 1.219-.515 1.554-.909.12.705.681.909 1.04.909s.645-.216.86-.646c.192-.407.36-1.136.36-1.184 0-.06-.049-.107-.12-.107-.108 0-.12.06-.168.239-.179.705-.406 1.458-.896 1.458-.347 0-.37-.31-.37-.55 0-.274.035-.406.143-.872.083-.3.143-.562.239-.909.442-1.793.55-2.223.55-2.295a.299.299 0 0 0-.311-.3c-.383 0-.478.42-.502.563z" id="d"/><path d="M4.674-4.495c-.227 0-.334 0-.502.143a.635.635 0 0 0-.203.43c0 .24.18.383.407.383.287 0 .61-.239.61-.717 0-.574-.55-1.016-1.376-1.016-1.566 0-3.132 1.71-3.132 3.407C.478-.825 1.124.12 2.343.12c1.626 0 2.654-1.268 2.654-1.423 0-.072-.071-.132-.12-.132-.035 0-.047.012-.155.12C3.957-.3 2.822-.12 2.367-.12c-.825 0-1.088-.717-1.088-1.315 0-.418.203-1.578.634-2.39.31-.563.956-1.208 1.71-1.208.155 0 .812.024 1.051.538z" id="c"/><path d="M6.013-7.998c.012-.048.036-.12.036-.18 0-.119-.12-.119-.143-.119-.012 0-.598.048-.658.06-.203.012-.382.036-.597.048-.3.024-.383.036-.383.25 0 .12.096.12.263.12.586 0 .598.108.598.227a.78.78 0 0 1-.036.204l-.73 2.905c-.13-.311-.454-.79-1.075-.79-1.351 0-2.81 1.746-2.81 3.516C.478-.574 1.172.12 1.985.12c.657 0 1.219-.515 1.554-.909.12.705.681.909 1.04.909s.645-.216.86-.646c.192-.407.36-1.136.36-1.184 0-.06-.049-.107-.12-.107-.108 0-.12.06-.168.239-.179.705-.406 1.458-.896 1.458-.347 0-.37-.31-.37-.55 0-.047 0-.298.083-.633l1.685-6.695zM3.6-1.423c-.06.204-.06.227-.228.455-.263.334-.789.848-1.35.848-.49 0-.766-.442-.766-1.147 0-.658.37-1.997.598-2.499.407-.837.968-1.267 1.435-1.267.789 0 .944.98.944 1.076 0 .012-.036.167-.048.191L3.6-1.423z" id="G"/><path d="M2.14-2.774c.323 0 1.136-.024 1.71-.239.908-.346.992-1.04.992-1.255 0-.526-.454-1.004-1.243-1.004-1.256 0-3.061 1.136-3.061 3.264C.538-.753 1.255.12 2.343.12c1.626 0 2.654-1.268 2.654-1.423 0-.072-.071-.132-.12-.132-.035 0-.047.012-.155.12C3.957-.3 2.822-.12 2.367-.12c-.681 0-1.04-.538-1.04-1.422 0-.168 0-.466.18-1.232h.633zm-.574-.239c.514-1.84 1.65-2.02 2.033-2.02.526 0 .884.31.884.765 0 1.255-1.913 1.255-2.415 1.255h-.502z" id="b"/><path d="M3.36-7.998c.011-.048.035-.12.035-.18 0-.119-.12-.119-.143-.119-.012 0-.598.048-.658.06-.203.012-.382.036-.597.048-.3.024-.383.036-.383.25 0 .12.096.12.263.12.586 0 .598.108.598.227a.78.78 0 0 1-.036.204L.705-.466c-.047.18-.047.203-.047.275 0 .263.203.31.322.31.204 0 .359-.155.419-.286l.538-2.164c.06-.263.131-.514.191-.777.132-.502.132-.514.359-.861s.765-1.064 1.685-1.064c.479 0 .646.359.646.837 0 .67-.466 1.972-.73 2.69-.107.287-.167.442-.167.657 0 .538.37.969.945.969 1.112 0 1.53-1.758 1.53-1.83 0-.06-.048-.107-.12-.107-.107 0-.12.036-.179.239C5.822-.622 5.38-.12 4.902-.12c-.12 0-.311-.012-.311-.394 0-.31.143-.693.191-.825.215-.574.753-1.985.753-2.678 0-.717-.418-1.255-1.327-1.255-.681 0-1.279.323-1.77.944l.921-3.67z" id="K"/><path d="M3.383-1.71c0-.06-.048-.107-.12-.107-.107 0-.119.036-.179.239C2.774-.49 2.284-.12 1.89-.12c-.144 0-.31-.035-.31-.394 0-.323.143-.682.274-1.04l.837-2.224c.036-.095.12-.31.12-.538 0-.502-.36-.956-.945-.956-1.1 0-1.542 1.733-1.542 1.829 0 .048.048.108.131.108.108 0 .12-.048.168-.216.287-1.004.74-1.482 1.207-1.482.108 0 .311.012.311.394 0 .311-.155.706-.251.969l-.837 2.223c-.072.192-.143.383-.143.598 0 .538.37.969.944.969 1.1 0 1.53-1.746 1.53-1.83zm-.095-5.75a.4.4 0 0 0-.407-.395c-.275 0-.586.263-.586.574 0 .3.251.395.395.395.323 0 .598-.311.598-.574z" id="M"/><path d="M3.037-7.998c.012-.048.035-.12.035-.18 0-.119-.12-.119-.143-.119-.012 0-.442.036-.658.06-.203.012-.382.036-.597.048-.287.024-.37.036-.37.25 0 .12.119.12.238.12.61 0 .61.108.61.227 0 .048 0 .072-.06.287L.61-1.375a1.35 1.35 0 0 0-.06.419C.55-.36.992.12 1.602.12c.395 0 .658-.263.849-.634.203-.395.37-1.148.37-1.196 0-.06-.047-.107-.12-.107-.107 0-.119.06-.167.239-.215.825-.43 1.458-.908 1.458-.359 0-.359-.382-.359-.55 0-.047 0-.298.084-.633l1.686-6.695z" id="N"/><path d="M2.463-3.503c.024-.072.323-.67.765-1.052.31-.287.717-.478 1.183-.478.479 0 .646.359.646.837 0 .071 0 .31-.143.872l-.3 1.232a47.067 47.067 0 0 0-.346 1.375c-.048.179-.12.49-.12.538 0 .167.132.299.311.299.359 0 .419-.275.526-.706l.718-2.857c.024-.096.645-1.59 1.96-1.59.478 0 .646.359.646.837 0 .67-.466 1.972-.73 2.69-.107.287-.167.442-.167.657 0 .538.37.969.945.969 1.111 0 1.53-1.758 1.53-1.83 0-.06-.048-.107-.12-.107-.107 0-.12.036-.179.239C9.313-.622 8.871-.12 8.393-.12c-.12 0-.311-.012-.311-.394 0-.31.143-.693.191-.825.215-.574.753-1.985.753-2.678 0-.717-.418-1.255-1.327-1.255-.8 0-1.446.454-1.925 1.16-.036-.646-.43-1.16-1.327-1.16-1.064 0-1.626.753-1.84 1.052-.037-.682-.527-1.052-1.053-1.052-.347 0-.621.167-.849.621C.49-4.22.323-3.49.323-3.443s.048.108.131.108c.096 0 .108-.012.18-.287.179-.706.406-1.411.884-1.411.275 0 .37.191.37.55 0 .263-.119.73-.202 1.1l-.335 1.29c-.048.228-.18.766-.24.981-.083.311-.214.873-.214.933 0 .167.131.299.31.299.144 0 .311-.072.407-.252.024-.06.131-.478.191-.717l.263-1.076.395-1.578z" id="Q"/><path d="M2.463-3.503c.024-.072.323-.67.765-1.052.31-.287.717-.478 1.183-.478.479 0 .646.359.646.837 0 .681-.49 2.044-.73 2.69-.107.287-.167.442-.167.657 0 .538.371.969.945.969 1.112 0 1.53-1.758 1.53-1.83 0-.06-.048-.107-.12-.107-.107 0-.119.036-.179.239-.275.98-.729 1.458-1.195 1.458-.12 0-.311-.012-.311-.394 0-.299.131-.658.203-.825.24-.658.741-1.996.741-2.678 0-.717-.418-1.255-1.327-1.255-1.064 0-1.626.753-1.84 1.052-.037-.682-.527-1.052-1.053-1.052-.382 0-.645.227-.849.633C.49-4.209.323-3.49.323-3.443s.048.108.131.108c.096 0 .108-.012.18-.287.19-.73.406-1.411.884-1.411.275 0 .37.191.37.55 0 .263-.119.73-.202 1.1l-.335 1.29c-.048.228-.18.766-.24.981-.083.311-.214.873-.214.933 0 .167.131.299.31.299.144 0 .311-.072.407-.252.024-.06.131-.478.191-.717l.263-1.076.395-1.578z" id="F"/><path d="M5.452-3.288c0-1.135-.742-1.984-1.83-1.984C2.044-5.272.49-3.551.49-1.865.49-.729 1.231.12 2.32.12c1.59 0 3.132-1.722 3.132-3.408zM2.332-.12c-.598 0-1.04-.478-1.04-1.315 0-.55.286-1.769.62-2.367.539-.92 1.208-1.231 1.698-1.231.586 0 1.04.478 1.04 1.315 0 .478-.25 1.757-.705 2.487-.49.8-1.147 1.111-1.614 1.111z" id="D"/><path d="M4.65-4.89c-.37.072-.561.335-.561.598 0 .287.227.383.394.383.335 0 .61-.287.61-.646 0-.382-.37-.717-.968-.717-.479 0-1.029.215-1.53.944-.084-.633-.563-.944-1.04-.944-.467 0-.706.358-.85.621a6.16 6.16 0 0 0-.382 1.208c0 .048.048.108.131.108.096 0 .108-.012.18-.287.179-.718.406-1.411.884-1.411.287 0 .37.203.37.55 0 .263-.119.73-.202 1.1l-.335 1.29c-.048.228-.18.766-.24.981-.083.311-.214.873-.214.933 0 .167.131.299.31.299a.461.461 0 0 0 .43-.323c.037-.096.48-1.901.55-2.176.06-.263.132-.514.192-.777.048-.168.096-.359.132-.514.035-.108.358-.694.657-.957.144-.131.454-.406.945-.406.19 0 .382.036.538.143z" id="P"/><path d="M2.726-2.391c.203.036.526.108.598.12.155.047.693.239.693.812 0 .371-.335 1.34-1.722 1.34-.25 0-1.147-.036-1.386-.694.478.06.717-.31.717-.574 0-.25-.167-.382-.407-.382-.263 0-.61.203-.61.74C.61-.322 1.328.12 2.284.12 4.101.12 4.64-1.22 4.64-1.841c0-.18 0-.514-.383-.897-.299-.287-.586-.346-1.231-.478-.323-.072-.837-.18-.837-.717 0-.24.215-1.1 1.35-1.1.503 0 .993.191 1.113.622a.5.5 0 0 0-.55.466c0 .25.227.323.334.323.168 0 .502-.132.502-.634s-.454-1.016-1.386-1.016c-1.566 0-1.985 1.231-1.985 1.721 0 .909.885 1.1 1.16 1.16z" id="R"/><path d="M2.403-4.806h1.1c.227 0 .347 0 .347-.215 0-.132-.072-.132-.311-.132H2.487l.442-1.745c.048-.168.048-.191.048-.275 0-.191-.156-.299-.311-.299-.096 0-.37.036-.466.418l-.467 1.901H.61c-.24 0-.347 0-.347.227 0 .12.084.12.31.12h1.065L.848-1.65c-.095.419-.13.538-.13.694C.717-.395 1.111.12 1.78.12c1.208 0 1.853-1.746 1.853-1.83 0-.071-.047-.107-.12-.107-.023 0-.07 0-.095.048-.012.012-.024.024-.107.215C3.06-.956 2.51-.12 1.817-.12c-.358 0-.382-.298-.382-.561 0-.012 0-.24.035-.383l.933-3.742z" id="g"/><path d="M4.077-.693c.155.67.729.813 1.016.813.382 0 .67-.252.86-.658.204-.43.36-1.136.36-1.172 0-.06-.048-.107-.12-.107-.108 0-.12.06-.168.239-.215.825-.43 1.458-.908 1.458-.359 0-.359-.394-.359-.55 0-.274.036-.394.156-.896.083-.323.167-.646.239-.98l.49-1.95c.084-.298.084-.322.084-.358 0-.18-.144-.299-.323-.299-.347 0-.43.3-.502.598-.12.466-.766 3.037-.85 3.455-.011 0-.477.98-1.35.98-.622 0-.741-.538-.741-.98 0-.681.334-1.638.645-2.439.144-.382.203-.538.203-.777 0-.514-.37-.956-.944-.956-1.1 0-1.542 1.733-1.542 1.829 0 .048.048.108.131.108.108 0 .12-.048.168-.216.287-1.028.753-1.482 1.207-1.482.12 0 .311.012.311.394 0 .311-.132.658-.31 1.112-.527 1.423-.587 1.877-.587 2.236 0 1.22.92 1.41 1.411 1.41.765 0 1.184-.525 1.423-.812z" id="E"/><path d="M4.113-.73c.263.718 1.004.85 1.458.85.909 0 1.447-.79 1.781-1.614.275-.694.718-2.272.718-2.977 0-.73-.37-.801-.478-.801-.287 0-.55.287-.55.526 0 .143.083.227.143.275.108.107.418.43.418 1.052 0 .406-.334 1.53-.585 2.092-.335.73-.777 1.207-1.4 1.207-.669 0-.884-.502-.884-1.052 0-.346.108-.765.156-.968l.502-2.008c.06-.24.167-.658.167-.706 0-.18-.143-.299-.323-.299-.346 0-.43.3-.502.586-.12.466-.621 2.487-.67 2.75-.047.203-.047.335-.047.598 0 .286-.383.74-.395.765-.131.131-.322.334-.693.334-.944 0-.944-.896-.944-1.1 0-.382.083-.908.621-2.33.144-.371.203-.527.203-.766 0-.502-.358-.956-.944-.956-1.1 0-1.542 1.733-1.542 1.829 0 .048.048.108.131.108.108 0 .12-.048.168-.216.299-1.052.765-1.482 1.207-1.482.12 0 .311.012.311.394 0 .06 0 .311-.203.837-.562 1.495-.682 1.985-.682 2.44C1.255-.109 2.283.12 2.893.12c.203 0 .741 0 1.22-.85z" id="L"/><path d="M3.144 1.339c-.323.454-.789.86-1.375.86-.143 0-.717-.023-.896-.573.036.012.095.012.12.012.358 0 .597-.311.597-.586s-.227-.37-.406-.37c-.192 0-.61.143-.61.729 0 .61.514 1.028 1.195 1.028 1.196 0 2.403-1.1 2.738-2.427L5.68-4.651c.012-.06.036-.131.036-.203 0-.18-.144-.299-.323-.299-.108 0-.359.048-.455.407l-.884 3.515c-.06.215-.06.239-.156.37-.239.335-.633.741-1.207.741-.67 0-.73-.657-.73-.98 0-.681.323-1.602.646-2.463.132-.346.203-.514.203-.753 0-.502-.358-.956-.944-.956-1.1 0-1.542 1.733-1.542 1.829 0 .048.048.108.131.108.108 0 .12-.048.168-.216.287-1.004.74-1.482 1.207-1.482.108 0 .311 0 .311.394 0 .311-.132.658-.31 1.112-.587 1.566-.587 1.96-.587 2.248C1.243-.143 2.056.12 2.654.12c.347 0 .777-.108 1.196-.55l.012.012c-.18.705-.3 1.171-.718 1.757z" id="e"/><path d="M4.77-2.762h3.3c.167 0 .382 0 .382-.215 0-.227-.203-.227-.382-.227h-3.3v-3.3c0-.167 0-.382-.215-.382-.227 0-.227.203-.227.382v3.3h-3.3c-.167 0-.382 0-.382.215 0 .227.203.227.382.227h3.3v3.3c0 .167 0 .383.215.383.227 0 .227-.204.227-.383v-3.3z" id="C"/><path d="M5.356-3.826c0-.992-.06-1.96-.49-2.869-.49-.992-1.351-1.255-1.937-1.255-.693 0-1.542.347-1.985 1.339C.61-5.858.49-5.117.49-3.826c0 1.16.084 2.033.514 2.882A2.126 2.126 0 0 0 2.917.25c1.04 0 1.638-.622 1.985-1.315.43-.897.454-2.068.454-2.762zM2.917.012c-.382 0-1.16-.215-1.387-1.518C1.4-2.224 1.4-3.132 1.4-3.97c0-.98 0-1.865.191-2.57.203-.801.813-1.172 1.327-1.172.454 0 1.148.275 1.375 1.303.155.681.155 1.626.155 2.439 0 .8 0 1.71-.131 2.439C4.089-.215 3.336.012 2.917.012z" id="H"/><path d="M3.443-7.663c0-.275 0-.287-.239-.287-.287.323-.885.765-2.116.765v.347c.275 0 .873 0 1.53-.311v6.228c0 .43-.036.574-1.088.574h-.37V0c.322-.024 1.482-.024 1.877-.024s1.542 0 1.865.024v-.347H4.53c-1.052 0-1.088-.143-1.088-.574v-6.742z" id="B"/><path d="M8.07-3.873c.167 0 .382 0 .382-.216 0-.227-.203-.227-.382-.227H1.028c-.167 0-.382 0-.382.215 0 .228.203.228.382.228H8.07zm0 2.223c.167 0 .382 0 .382-.215 0-.227-.203-.227-.382-.227H1.028c-.167 0-.382 0-.382.215 0 .227.203.227.382.227H8.07z" id="h"/><path d="M2.08-7.364a.587.587 0 0 0-.586-.586.574.574 0 0 0-.573.574c0 .358.286.585.573.585.371 0 .586-.31.586-.573zM.43-5.141v.347c.766 0 .873.072.873.658v3.251c0 .538-.131.538-.908.538V0c.334-.024.908-.024 1.255-.024.131 0 .825 0 1.231.024v-.347c-.777 0-.825-.06-.825-.526v-4.4L.43-5.14z" id="j"/><path d="M8.572-2.905c0-1.112 0-1.447-.275-1.83-.347-.465-.909-.537-1.315-.537-.992 0-1.495.717-1.686 1.183-.167-.92-.813-1.183-1.566-1.183-1.16 0-1.614.992-1.71 1.231h-.012v-1.231l-1.625.131v.347c.813 0 .908.084.908.67v3.24c0 .537-.131.537-.908.537V0c.31-.024.956-.024 1.29-.024.347 0 .993 0 1.304.024v-.347c-.765 0-.909 0-.909-.538v-2.223c0-1.256.825-1.925 1.566-1.925s.909.61.909 1.339v2.81c0 .537-.132.537-.909.537V0c.311-.024.957-.024 1.292-.024.346 0 .992 0 1.303.024v-.347c-.765 0-.909 0-.909-.538v-2.223c0-1.256.825-1.925 1.566-1.925s.909.61.909 1.339v2.81c0 .537-.132.537-.909.537V0c.311-.024.957-.024 1.291-.024.347 0 .993 0 1.303.024v-.347c-.597 0-.896 0-.908-.358v-2.2z" id="i"/><path d="M5.32-2.905c0-1.112 0-1.447-.275-1.83-.347-.465-.909-.537-1.315-.537-1.16 0-1.614.992-1.71 1.231h-.012v-1.231l-1.625.131v.347c.813 0 .908.084.908.67v3.24c0 .537-.131.537-.908.537V0c.31-.024.956-.024 1.29-.024.347 0 .993 0 1.304.024v-.347c-.765 0-.909 0-.909-.538v-2.223c0-1.256.825-1.925 1.566-1.925s.909.61.909 1.339v2.81c0 .537-.132.537-.909.537V0c.311-.024.957-.024 1.292-.024.346 0 .992 0 1.303.024v-.347c-.598 0-.897 0-.909-.358v-2.2z" id="k"/><path d="M1.474-.948c-.366.581-.693.661-.98.685-.08.008-.175.016-.175.151C.319-.088.335 0 .43 0c.072 0 .12-.024.678-.024.542 0 .725.024.765.024s.16 0 .16-.151c0-.104-.104-.112-.144-.112-.167-.008-.335-.072-.335-.247 0-.12.064-.223.215-.454l.542-.877h2.184l.168 1.347c0 .111-.144.231-.519.231-.12 0-.223 0-.223.151 0 .008.008.112.136.112.08 0 .382-.016.454-.024h.502c.718 0 .853.024.917.024.032 0 .16 0 .16-.151 0-.112-.104-.112-.232-.112-.438 0-.446-.072-.47-.271l-.63-4.926c-.024-.175-.032-.23-.167-.23-.144 0-.192.079-.24.159L1.475-.948zM2.48-2.104l1.65-2.622.334 2.622H2.48z" id="s"/><path d="M6.344-5.396c.008-.032.024-.08.024-.12 0-.055-.048-.095-.103-.095s-.08.024-.144.096l-.558.613c-.072-.103-.494-.709-1.427-.709-1.849 0-3.714 1.714-3.714 3.547C.422-.677 1.474.167 2.742.167 3.786.167 4.67-.47 5.1-1.092c.263-.39.367-.773.367-.82 0-.073-.048-.104-.12-.104-.096 0-.112.04-.136.127-.334 1.1-1.41 1.793-2.367 1.793-.813 0-1.665-.478-1.665-1.697 0-.255.087-1.586.972-2.583.598-.67 1.41-.972 2.04-.972 1.005 0 1.419.805 1.419 1.562 0 .112-.032.263-.032.359 0 .103.104.103.136.103.103 0 .12-.031.151-.175l.478-1.897z" id="y"/><path d="M1.331-.63c-.072.303-.088.367-.677.367-.152 0-.248 0-.248.151C.406 0 .51 0 .646 0h2.741C5.07 0 6.743-1.61 6.743-3.387c0-1.22-.813-2.057-2-2.057h-2.79c-.144 0-.247 0-.247.152 0 .111.095.111.23.111.264 0 .495 0 .495.128 0 .032-.008.04-.032.143L1.331-.63zm1.761-4.256c.072-.27.08-.295.407-.295h.964c.933 0 1.562.534 1.562 1.507 0 .263-.111 1.562-.805 2.455a2.535 2.535 0 0 1-1.976.956H2.056c-.071-.016-.095-.016-.095-.072 0-.064.016-.127.032-.175l1.1-4.376z" id="x"/><path d="M5.97-1.85A.296.296 0 0 0 6-1.96c0-.017-.007-.112-.12-.112-.087 0-.095.024-.174.199-.51 1.164-.885 1.61-2.184 1.61h-1.45C2-.279 1.976-.279 1.976-.335c0-.064.016-.127.031-.175l.55-2.176h.853c.582 0 .702.096.702.35 0 .009 0 .136-.056.36a.351.351 0 0 0-.024.111c0 .008.008.112.12.112.095 0 .111-.048.143-.184l.422-1.665c.008-.024.032-.144.032-.16 0-.08-.064-.12-.12-.12-.103 0-.11.056-.15.192-.16.622-.375.741-1.06.741h-.798L3.1-4.854c.072-.287.08-.303.407-.303H4.75c.957 0 1.26.192 1.26.893 0 .167-.04.367-.04.518 0 .096.055.136.12.136.11 0 .119-.072.135-.208l.143-1.355c.008-.04.008-.095.008-.135 0-.112-.096-.112-.239-.112h-4.2c-.152 0-.247 0-.247.152 0 .111.103.111.239.111.024 0 .167 0 .303.016.167.016.183.04.183.112 0 .04-.016.088-.024.127L1.323-.63c-.072.303-.088.367-.677.367-.152 0-.247 0-.247.151C.399 0 .502 0 .638 0h4.311c.2 0 .208 0 .271-.143l.75-1.706z" id="u"/><path d="M6.352-5.396c.008-.032.024-.08.024-.12 0-.055-.048-.095-.104-.095s-.08.024-.143.096l-.558.613c-.367-.51-.885-.709-1.427-.709C2.28-5.611.422-3.889.422-2.064c0 1.33.989 2.231 2.344 2.231.86 0 1.498-.31 1.793-.653.096.255.287.478.367.478.031 0 .071-.016.087-.048.048-.135.24-.948.295-1.171.072-.32.128-.542.175-.606.072-.096.224-.104.463-.104.04 0 .16 0 .16-.143 0-.08-.057-.12-.12-.12-.056 0-.152.024-.925.024-.2 0-.47 0-.59-.008S4.033-2.2 3.913-2.2c-.047 0-.167 0-.167.152 0 .111.088.111.295.111.167 0 .47 0 .661.072a.297.297 0 0 1 .016.096c0 .04-.048.215-.071.318a7.616 7.616 0 0 1-.168.622c-.255.534-1.028.733-1.578.733-.789 0-1.713-.414-1.713-1.713 0-.662.27-1.81.972-2.575.765-.828 1.626-.964 2.04-.964.973 0 1.419.765 1.419 1.57 0 .112-.032.255-.032.35 0 .104.104.104.136.104.103 0 .12-.031.151-.175l.478-1.897z" id="w"/><path d="M3.092-4.886c.072-.27.08-.295.407-.295h.645c.654 0 1.268.168 1.268.813 0 .351-.184.909-.55 1.172-.383.271-.837.359-1.3.359h-.98l.51-2.049zM4.447-2.71c.98-.247 1.746-.845 1.746-1.522 0-.694-.781-1.212-1.89-1.212h-2.35c-.144 0-.247 0-.247.152 0 .111.103.111.23.111.264 0 .495 0 .495.128 0 .032-.008.04-.032.143L1.331-.63c-.072.303-.088.367-.677.367-.152 0-.248 0-.248.151C.406-.08.43 0 .534 0c.151 0 .335-.016.494-.024h.494c.742 0 .973.024 1.02.024s.16 0 .16-.151c0-.112-.104-.112-.24-.112-.023 0-.167 0-.302-.016-.167-.016-.183-.04-.183-.112 0-.04.016-.087.024-.127l.518-2.096h1.036c.717 0 .94.382.94.71 0 .11-.056.334-.096.501-.063.231-.143.55-.143.694 0 .613.526.876 1.116.876.693 0 1.02-.78 1.02-.932 0-.032-.024-.112-.127-.112-.088 0-.112.072-.12.104-.175.55-.518.717-.75.717-.294 0-.326-.223-.326-.486s.048-.614.08-.877c.032-.239.032-.287.032-.366 0-.479-.311-.757-.734-.925z" id="v"/><path d="M5.34-4.495c.398-.606.701-.67 1.02-.686.088-.008.12-.087.12-.151 0-.024-.016-.112-.112-.112s-.064.024-.645.024c-.51 0-.726-.024-.758-.024-.04 0-.159 0-.159.152 0 .103.104.111.143.111.216.016.32.096.32.24 0 .127-.072.23-.112.294L2.567-.725l-.662-4.097c-.008-.072-.016-.112-.016-.135 0-.104.12-.224.526-.224.096 0 .2 0 .2-.151 0-.032-.025-.112-.128-.112-.072 0-.39.016-.455.024H1.53c-.717 0-.82-.024-.892-.024-.032 0-.152 0-.152.152 0 .111.104.111.223.111.407 0 .415.072.447.271l.78 4.854c.025.16.033.223.184.223.136 0 .183-.071.24-.159l2.98-4.503z" id="t"/><path d="M5.061-4.487c.056-.064.128-.128.191-.191.295-.271.558-.47 1.005-.503.071-.008.167-.016.167-.151a.12.12 0 0 0-.112-.112c-.095 0-.08.024-.661.024-.526 0-.71-.024-.757-.024-.032 0-.152 0-.152.152 0 .072.056.103.128.111.239.016.247.104.247.152 0 .151-.247.406-.247.414L2.925-2.519 1.921-4.878a.507.507 0 0 1-.048-.143c0-.16.375-.16.446-.16.08 0 .192 0 .192-.151 0-.04-.032-.112-.128-.112-.112 0-.375.016-.494.024h-.494c-.733 0-.845-.024-.917-.024-.127 0-.151.088-.151.152 0 .111.103.111.215.111.43 0 .47.088.534.24l1.172 2.757-.36 1.459c-.11.43-.119.454-.732.462-.128 0-.223 0-.223.151C.933-.08.956 0 1.06 0c.151 0 .335-.016.494-.024h1.012c.12.008.39.024.495.024.047 0 .167 0 .167-.151 0-.112-.104-.112-.24-.112-.007 0-.175 0-.302-.016-.175-.024-.183-.04-.183-.12 0-.063.095-.454.151-.685.096-.382.167-.646.247-.98a.325.325 0 0 1 .104-.2L5.06-4.487z" id="z"/></defs><g transform="matrix(1.13 0 0 1.13 -44.07 -75.712)"><use x="38.854" xlink:href="#a" y="84.085"/><use x="48.862" xlink:href="#b" y="84.085"/><use x="54.268" xlink:href="#c" y="84.085"/><use x="59.287" xlink:href="#d" y="84.085"/><use x="65.409" xlink:href="#e" y="84.085"/><path d="M72.226 83.686h3.512v.399h-3.512z"/><use x="75.738" xlink:href="#f" y="84.085"/><use x="84.713" xlink:href="#d" y="84.085"/><use x="90.835" xlink:href="#g" y="84.085"/><use x="95.047" xlink:href="#b" y="84.085"/><use x="103.773" xlink:href="#h" y="84.085"/><use x="116.164" xlink:href="#i" y="84.085"/><use x="125.883" xlink:href="#j" y="84.085"/><use x="129.122" xlink:href="#k" y="84.085"/><use x="137.667" xlink:href="#l" y="67.228"/><use x="146.633" xlink:href="#m" y="84.085"/><use x="159.164" xlink:href="#n" y="84.085"/><use x="168.402" xlink:href="#o" y="84.085"/><use x="177.802" xlink:href="#p" y="84.085"/><use x="183.886" xlink:href="#q" y="84.085"/><use x="194.474" xlink:href="#r" y="84.085"/><use x="203.673" xlink:href="#s" y="85.878"/><use x="209.992" xlink:href="#t" y="85.878"/><use x="216.787" xlink:href="#u" y="85.878"/><use x="223.417" xlink:href="#v" y="85.878"/><use x="229.82" xlink:href="#s" y="85.878"/><use x="236.14" xlink:href="#w" y="85.878"/><use x="242.714" xlink:href="#u" y="85.878"/><path d="M249.851 85.48h2.541v.399h-2.541z"/><use x="252.392" xlink:href="#x" y="85.878"/><use x="259.548" xlink:href="#u" y="85.878"/><use x="266.178" xlink:href="#y" y="85.878"/><use x="272.754" xlink:href="#s" y="85.878"/><use x="279.074" xlink:href="#z" y="85.878"/><use x="286.618" xlink:href="#A" y="84.085"/><use x="295.972" xlink:href="#B" y="75.997"/><use x="304.46" xlink:href="#C" y="75.997"/><use x="316.187" xlink:href="#f" y="75.997"/><use x="325.162" xlink:href="#D" y="75.997"/><use x="330.768" xlink:href="#E" y="75.997"/><use x="337.406" xlink:href="#F" y="75.997"/><use x="344.368" xlink:href="#G" y="75.997"/><path d="M293.045 80.857h60.493v.478h-60.493z"/><use x="293.045" xlink:href="#B" y="92.285"/><use x="298.876" xlink:href="#H" y="92.285"/><use x="307.364" xlink:href="#C" y="92.285"/><use x="319.091" xlink:href="#f" y="92.285"/><use x="328.067" xlink:href="#D" y="92.285"/><use x="333.673" xlink:href="#E" y="92.285"/><use x="340.311" xlink:href="#F" y="92.285"/><use x="347.272" xlink:href="#G" y="92.285"/><use x="354.733" xlink:href="#I" y="67.228"/><use x="365.894" xlink:href="#A" y="84.085"/><use x="38.854" xlink:href="#J" y="104.741"/><use x="46.723" xlink:href="#K" y="104.741"/><use x="53.436" xlink:href="#d" y="104.741"/><use x="59.558" xlink:href="#G" y="104.741"/><use x="65.618" xlink:href="#D" y="104.741"/><use x="71.225" xlink:href="#L" y="104.741"/><path d="M80.585 104.342h3.512v.399h-3.512z"/><use x="84.097" xlink:href="#p" y="104.741"/><use x="90.18" xlink:href="#F" y="104.741"/><use x="97.142" xlink:href="#M" y="104.741"/><use x="101.12" xlink:href="#g" y="104.741"/><use x="105.332" xlink:href="#M" y="104.741"/><use x="109.31" xlink:href="#d" y="104.741"/><use x="115.432" xlink:href="#N" y="104.741"/><path d="M119.871 104.342h3.512v.399h-3.512z"/><use x="123.383" xlink:href="#o" y="104.741"/><use x="132.783" xlink:href="#d" y="104.741"/><use x="138.905" xlink:href="#N" y="104.741"/><use x="142.642" xlink:href="#E" y="104.741"/><use x="149.28" xlink:href="#b" y="104.741"/><use x="158.006" xlink:href="#h" y="104.741"/><use x="170.397" xlink:href="#O" y="104.741"/><use x="179.54" xlink:href="#d" y="104.741"/><use x="185.662" xlink:href="#P" y="104.741"/><use x="191.243" xlink:href="#d" y="104.741"/><use x="197.365" xlink:href="#Q" y="104.741"/><use x="207.566" xlink:href="#b" y="104.741"/><use x="212.971" xlink:href="#g" y="104.741"/><use x="217.182" xlink:href="#b" y="104.741"/><use x="222.588" xlink:href="#P" y="104.741"/><use x="228.168" xlink:href="#R" y="104.741"/><path d="M234.364 104.342h3.512v.399h-3.512z"/><use x="237.876" xlink:href="#p" y="104.741"/><use x="243.959" xlink:href="#F" y="104.741"/><use x="250.921" xlink:href="#M" y="104.741"/><use x="254.899" xlink:href="#g" y="104.741"/><use x="259.111" xlink:href="#M" y="104.741"/><use x="263.089" xlink:href="#d" y="104.741"/><use x="269.211" xlink:href="#N" y="104.741"/><path d="M273.65 104.342h3.512v.399h-3.512z"/><use x="277.162" xlink:href="#o" y="104.741"/><use x="286.562" xlink:href="#d" y="104.741"/><use x="292.684" xlink:href="#N" y="104.741"/><use x="296.421" xlink:href="#E" y="104.741"/><use x="303.059" xlink:href="#b" y="104.741"/></g></svg>