<svg height="88.114" viewBox="-0.239 -0.236 341.004 66.086" width="454.672" xmlns="http://www.w3.org/2000/svg" xmlns:xlink="http://www.w3.org/1999/xlink"><defs><path d="M4.65-3.324L2.26-5.703c-.144-.143-.168-.167-.263-.167-.12 0-.24.108-.24.24 0 .083.024.107.156.238l2.39 2.403-2.39 2.403c-.132.132-.156.156-.156.24 0 .13.12.238.24.238.095 0 .12-.024.263-.167l2.379-2.379L7.113-.179c.024.012.108.071.18.071.143 0 .239-.107.239-.239 0-.024 0-.071-.036-.131-.012-.024-1.913-1.901-2.51-2.51l2.187-2.189c.06-.071.24-.227.299-.298.012-.024.06-.072.06-.156a.232.232 0 0 0-.24-.239c-.095 0-.143.048-.274.18L4.65-3.325z" id="s"/><path d="M8.07-3.873c.167 0 .382 0 .382-.216 0-.227-.203-.227-.382-.227H1.028c-.167 0-.382 0-.382.215 0 .228.203.228.382.228H8.07zm0 2.223c.167 0 .382 0 .382-.215 0-.227-.203-.227-.382-.227H1.028c-.167 0-.382 0-.382.215 0 .227.203.227.382.227H8.07z" id="i"/><path d="M2.032-1.327c-.418.705-.825.944-1.398.98-.132.012-.228.012-.228.227 0 .072.06.12.144.12.215 0 .753-.024.968-.024.347 0 .73.024 1.064.024.072 0 .216 0 .216-.227 0-.108-.096-.12-.168-.12-.275-.024-.502-.12-.502-.406 0-.168.072-.299.227-.562l.909-1.506h3.048c.012.107.012.203.024.31.036.311.18 1.555.18 1.782 0 .358-.61.382-.801.382-.132 0-.263 0-.263.215 0 .132.107.132.179.132.203 0 .442-.024.645-.024h.682c.73 0 1.255.024 1.267.024.084 0 .215 0 .215-.227 0-.12-.107-.12-.287-.12-.657 0-.67-.107-.705-.466l-.73-7.46c-.023-.24-.07-.263-.202-.263-.12 0-.192.024-.3.203L2.033-1.327zm1.435-1.841L5.87-7.185l.406 4.017H3.467z" id="k"/><path d="M4.376-7.352c.107-.443.155-.467.621-.467h1.554c1.351 0 1.351 1.148 1.351 1.256 0 .968-.968 2.2-2.546 2.2H3.634l.742-2.99zm2.02 3.084c1.303-.24 2.487-1.148 2.487-2.248 0-.932-.825-1.65-2.176-1.65H2.869c-.227 0-.335 0-.335.228 0 .12.108.12.287.12.73 0 .73.095.73.226 0 .024 0 .096-.048.275L1.889-.885c-.108.419-.132.538-.968.538-.228 0-.347 0-.347.215C.574 0 .646 0 .884 0h4.101c1.83 0 3.24-1.387 3.24-2.594 0-.98-.86-1.578-1.829-1.674zM4.698-.347H3.084c-.167 0-.19 0-.263-.012-.131-.012-.143-.036-.143-.131 0-.084.024-.156.048-.263l.837-3.372H5.81c1.41 0 1.41 1.316 1.41 1.411 0 1.148-1.04 2.367-2.522 2.367z" id="q"/><path d="M8.93-8.309c0-.107-.083-.107-.107-.107s-.072 0-.167.12L7.83-7.294c-.419-.717-1.076-1.123-1.973-1.123-2.582 0-5.26 2.618-5.26 5.427 0 1.997 1.399 3.24 3.144 3.24.956 0 1.793-.406 2.487-.992 1.04-.873 1.35-2.033 1.35-2.128 0-.108-.095-.108-.13-.108-.109 0-.12.072-.144.12C6.755-.992 5.14-.096 3.945-.096c-1.267 0-2.367-.813-2.367-2.51 0-.383.12-2.463 1.47-4.03C3.707-7.4 4.83-8.07 5.967-8.07c1.315 0 1.9 1.088 1.9 2.308 0 .31-.035.573-.035.621 0 .108.12.108.155.108.132 0 .144-.012.191-.227l.754-3.049z" id="u"/><path d="M1.877-.885c-.108.419-.132.538-.968.538-.228 0-.347 0-.347.215C.562 0 .634 0 .872 0h3.79c2.415 0 4.77-2.499 4.77-5.165 0-1.721-1.028-3-2.737-3H2.857c-.227 0-.334 0-.334.227 0 .12.107.12.286.12.73 0 .73.095.73.226 0 .024 0 .096-.048.275L1.877-.885zm2.522-6.467c.108-.443.156-.467.622-.467h1.315c1.124 0 2.152.61 2.152 2.26 0 .598-.239 2.678-1.399 3.993-.334.394-1.243 1.22-2.618 1.22H3.108c-.167 0-.19 0-.263-.013-.131-.012-.143-.036-.143-.131 0-.084.024-.156.048-.263l1.65-6.6z" id="t"/><path d="M8.309-2.774c.012-.035.048-.12.048-.167a.12.12 0 0 0-.12-.12c-.048 0-.072.012-.107.048-.024.012-.024.036-.132.275-.705 1.674-1.22 2.391-3.132 2.391H3.12c-.167 0-.191 0-.263-.012-.131-.012-.143-.036-.143-.131 0-.084.024-.156.048-.263l.825-3.3H4.77c.933 0 1.004.203 1.004.562 0 .12 0 .227-.083.586a.312.312 0 0 0-.036.131c0 .084.06.12.131.12.108 0 .12-.084.168-.251l.681-2.774a.12.12 0 0 0-.12-.12c-.107 0-.119.049-.167.216C6.11-4.663 5.87-4.4 4.806-4.4H3.67l.741-2.941c.108-.419.132-.455.622-.455h1.71c1.47 0 1.77.395 1.77 1.303 0 .012 0 .347-.049.742a.882.882 0 0 0-.024.143c0 .096.06.132.132.132.084 0 .131-.048.155-.263l.251-2.093c0-.035.024-.155.024-.179 0-.131-.107-.131-.323-.131H2.845c-.227 0-.346 0-.346.215 0 .131.083.131.287.131.74 0 .74.084.74.215a.89.89 0 0 1-.047.24L1.865-.885c-.108.419-.131.538-.968.538-.228 0-.347 0-.347.215C.55 0 .622 0 .86 0h6.002c.263 0 .275-.012.359-.203l1.088-2.57z" id="j"/><path d="M8.919-8.309c0-.107-.084-.107-.108-.107s-.072 0-.167.12l-.825.991c-.06-.095-.3-.514-.765-.789-.515-.322-1.029-.322-1.208-.322C3.288-8.416.598-5.81.598-2.99c0 1.973 1.363 3.24 3.156 3.24.86 0 1.949-.287 2.546-1.04.132.454.395.777.479.777.06 0 .071-.036.083-.036.012-.024.108-.442.168-.657l.19-.765c.097-.395.144-.562.228-.921.12-.454.144-.49.801-.502.048 0 .191 0 .191-.227 0-.12-.12-.12-.155-.12-.203 0-.43.024-.646.024h-.645c-.502 0-1.028-.024-1.519-.024-.107 0-.25 0-.25.215 0 .12.095.12.095.132h.299c.944 0 .944.095.944.275 0 .012-.227 1.22-.454 1.578-.454.67-1.399.944-2.104.944-.92 0-2.415-.478-2.415-2.546 0-.801.287-2.63 1.447-3.981.753-.86 1.865-1.447 2.917-1.447 1.41 0 1.913 1.208 1.913 2.308 0 .19-.048.454-.048.621 0 .108.12.108.155.108.132 0 .144-.012.191-.227L8.92-8.31z" id="o"/><path d="M8.942-7.293c.108-.406.132-.526.98-.526.216 0 .335 0 .335-.215 0-.131-.107-.131-.179-.131-.215 0-.466.024-.693.024h-1.41c-.228 0-.48-.024-.706-.024-.084 0-.227 0-.227.227 0 .12.083.12.31.12.718 0 .718.095.718.226 0 .024 0 .096-.048.275l-.73 2.894h-3.61l.717-2.87c.108-.406.132-.526.98-.526.216 0 .336 0 .336-.215 0-.131-.108-.131-.18-.131-.215 0-.466.024-.693.024h-1.41c-.228 0-.48-.024-.706-.024-.084 0-.227 0-.227.227 0 .12.083.12.31.12.718 0 .718.095.718.226 0 .024 0 .096-.048.275L1.865-.885c-.108.419-.131.538-.956.538-.275 0-.36 0-.36.227 0 .12.132.12.168.12.216 0 .467-.024.694-.024h1.41c.228 0 .479.024.706.024.095 0 .227 0 .227-.227 0-.12-.108-.12-.287-.12-.73 0-.73-.095-.73-.215 0-.012 0-.096.025-.191l.825-3.324h3.622c-.203.79-.813 3.288-.837 3.36-.131.358-.323.358-1.028.37-.144 0-.251 0-.251.227 0 .12.131.12.167.12.215 0 .467-.024.694-.024h1.41c.228 0 .479.024.706.024.095 0 .227 0 .227-.227 0-.12-.108-.12-.287-.12-.73 0-.73-.095-.73-.215 0-.012 0-.096.025-.191l1.637-6.54z" id="B"/><path d="M4.4-7.28c.107-.42.131-.539 1.004-.539.263 0 .358 0 .358-.227 0-.12-.131-.12-.167-.12-.215 0-.478.025-.693.025h-1.47c-.24 0-.515-.024-.754-.024-.096 0-.227 0-.227.227 0 .12.095.12.335.12.74 0 .74.095.74.226 0 .084-.023.156-.047.263L1.865-.885c-.108.419-.131.538-1.004.538-.263 0-.37 0-.37.227C.49 0 .61 0 .668 0c.216 0 .479-.024.694-.024h1.47c.24 0 .502.024.742.024.095 0 .239 0 .239-.215 0-.132-.072-.132-.335-.132-.741 0-.741-.095-.741-.239 0-.024 0-.083.048-.275l1.613-6.42z" id="n"/><path d="M4.388-7.245c.107-.454.143-.574 1.195-.574.323 0 .407 0 .407-.227 0-.12-.132-.12-.18-.12-.239 0-.514.025-.753.025H3.455c-.227 0-.49-.024-.717-.024-.096 0-.227 0-.227.227 0 .12.107.12.287.12.729 0 .729.095.729.226 0 .024 0 .096-.048.275L1.865-.885c-.108.419-.131.538-.968.538-.228 0-.347 0-.347.215C.55 0 .622 0 .86 0h5.357c.263 0 .275-.012.358-.227l.92-2.547a.608.608 0 0 0 .049-.167.12.12 0 0 0-.12-.12c-.012 0-.072 0-.095.048-.024.012-.024.036-.12.263-.383 1.052-.92 2.403-2.941 2.403H3.12c-.167 0-.191 0-.263-.012-.131-.012-.143-.036-.143-.131 0-.084.024-.156.048-.263l1.626-6.492z" id="a"/><path d="M8.847-6.91c.131-.514.323-.873 1.231-.909.036 0 .18-.012.18-.215 0-.131-.108-.131-.156-.131-.239 0-.849.024-1.088.024H8.44c-.167 0-.382-.024-.55-.024-.071 0-.215 0-.215.227 0 .12.096.12.18.12.717.023.765.298.765.513 0 .108-.012.144-.048.311L7.22-1.602l-2.558-6.36c-.084-.191-.096-.203-.36-.203H2.846c-.239 0-.346 0-.346.227 0 .12.083.12.31.12.06 0 .766 0 .766.107 0 .024-.024.12-.036.155l-1.59 6.337c-.144.585-.43.836-1.22.872-.06 0-.18.012-.18.227 0 .12.12.12.156.12.24 0 .85-.024 1.088-.024h.574c.167 0 .37.024.538.024.084 0 .215 0 .215-.227 0-.108-.12-.12-.167-.12-.395-.012-.777-.083-.777-.514 0-.095.024-.203.048-.299l1.614-6.396c.071.12.071.144.12.251l2.844 7.09c.06.143.084.215.192.215.12 0 .131-.036.18-.24l1.673-6.67z" id="m"/><path d="M4.4-7.352c.107-.443.155-.467.621-.467h.86c1.03 0 1.794.311 1.794 1.244 0 .61-.31 2.367-2.714 2.367h-1.35l.788-3.144zM6.06-4.065c1.483-.323 2.642-1.279 2.642-2.307 0-.933-.944-1.793-2.606-1.793h-3.24c-.239 0-.346 0-.346.227 0 .12.083.12.31.12.718 0 .718.095.718.226 0 .024 0 .096-.048.275L1.877-.885c-.108.419-.132.538-.956.538-.275 0-.36 0-.36.227 0 .12.132.12.168.12.215 0 .467-.024.694-.024h1.41c.216 0 .467.024.682.024.095 0 .227 0 .227-.227 0-.12-.108-.12-.287-.12-.73 0-.73-.095-.73-.215 0-.012 0-.096.025-.191l.8-3.216h1.435c1.136 0 1.351.717 1.351 1.112 0 .179-.12.645-.203.956-.132.55-.167.682-.167.909C5.966-.143 6.659.25 7.46.25c.968 0 1.387-1.184 1.387-1.35 0-.085-.06-.12-.132-.12-.095 0-.12.071-.143.167C8.285-.203 7.795.012 7.496.012s-.49-.132-.49-.67c0-.286.143-1.374.155-1.434.06-.442.06-.49.06-.586 0-.873-.705-1.243-1.16-1.387z" id="l"/><path d="M7.592-8.309c0-.107-.084-.107-.108-.107-.048 0-.06.012-.203.19-.072.085-.562.706-.574.718-.395-.777-1.184-.908-1.686-.908-1.518 0-2.893 1.386-2.893 2.737 0 .897.538 1.423 1.124 1.626.131.048.837.24 1.195.323.61.167.765.215 1.017.478.047.06.286.335.286.897 0 1.112-1.028 2.26-2.223 2.26-.98 0-2.068-.42-2.068-1.758 0-.227.047-.514.083-.634 0-.036.012-.095.012-.12 0-.047-.024-.107-.12-.107-.107 0-.119.024-.167.227L.657-.036c0 .012-.047.168-.047.18C.61.25.705.25.73.25.776.251.788.24.932.06l.55-.718c.286.43.908.91 2.02.91 1.542 0 2.953-1.495 2.953-2.99 0-.502-.12-.944-.574-1.387-.251-.25-.466-.31-1.566-.597-.801-.215-.909-.251-1.124-.443a1.218 1.218 0 0 1-.359-.896c0-1.005 1.017-2.033 2.152-2.033 1.172 0 1.722.718 1.722 1.853 0 .311-.06.634-.06.682 0 .107.096.107.132.107.107 0 .12-.035.167-.227l.646-2.63z" id="r"/><path d="M4.985-7.293c.072-.287.096-.394.275-.442.096-.024.49-.024.741-.024 1.196 0 1.758.048 1.758.98 0 .18-.048.634-.12 1.076l-.012.144c0 .048.048.12.12.12.12 0 .12-.06.155-.252l.347-2.116c.024-.107.024-.131.024-.167 0-.132-.072-.132-.31-.132h-6.54c-.275 0-.287.012-.359.228l-.73 2.151a1.227 1.227 0 0 0-.047.168c0 .06.048.12.12.12.095 0 .119-.048.167-.204.502-1.446.753-2.116 2.343-2.116h.801c.287 0 .407 0 .407.132 0 .035 0 .06-.06.275L2.463-.932c-.12.466-.144.585-1.411.585-.299 0-.383 0-.383.227 0 .12.132.12.192.12.299 0 .61-.024.908-.024h1.865c.3 0 .622.024.92.024.132 0 .252 0 .252-.227 0-.12-.084-.12-.395-.12-1.076 0-1.076-.107-1.076-.287 0-.012 0-.095.048-.287l1.602-6.372z" id="p"/><path d="M7.03-6.838l.275-.275c.526-.538.968-.67 1.386-.706.132-.012.24-.024.24-.227 0-.12-.12-.12-.144-.12-.143 0-.299.025-.442.025h-.49c-.347 0-.718-.024-1.053-.024-.083 0-.215 0-.215.227 0 .107.12.12.156.12.358.023.358.203.358.274 0 .132-.095.311-.334.586L3.92-3.694 2.571-7.33c-.072-.167-.072-.19-.072-.215 0-.25.49-.275.633-.275s.275 0 .275-.215c0-.131-.107-.131-.18-.131-.202 0-.441.024-.645.024H1.255c-.215 0-.442-.024-.645-.024-.084 0-.215 0-.215.227 0 .12.107.12.286.12.586 0 .694.107.801.382l1.483 3.981c.012.036.048.167.048.203S2.427-.86 2.39-.742c-.096.324-.215.383-.98.395-.204 0-.3 0-.3.227 0 .12.132.12.168.12.215 0 .466-.024.694-.024h1.41c.216 0 .467.024.682.024.083 0 .227 0 .227-.215 0-.132-.084-.132-.287-.132-.741 0-.741-.083-.741-.215 0-.084.095-.466.155-.705l.43-1.722c.072-.25.072-.275.18-.394l3-3.455z" id="v"/><path d="M8.369-7.795c.071-.083.131-.155.131-.275 0-.083-.012-.095-.287-.095H3.276c-.275 0-.287.012-.359.227L2.26-5.786c-.036.12-.036.143-.036.167 0 .048.036.12.12.12.095 0 .119-.048.167-.204.442-1.29 1.028-2.116 2.917-2.116h1.96L.837-.406C.729-.275.68-.227.68-.096.681 0 .741 0 .968 0h5.105c.275 0 .287-.012.359-.227l.837-2.642a.69.69 0 0 0 .036-.168.12.12 0 0 0-.12-.12c-.096 0-.108.013-.203.312C6.48-1.303 5.954-.371 3.873-.371H1.805L8.37-7.795z" id="C"/><path d="M3.599-1.423c-.06.204-.06.227-.228.455-.263.334-.789.848-1.35.848-.49 0-.766-.442-.766-1.147 0-.658.37-1.997.598-2.499.407-.837.968-1.267 1.435-1.267.789 0 .944.98.944 1.076 0 .012-.036.167-.048.191L3.6-1.423zm.765-3.06c-.132-.311-.455-.79-1.076-.79-1.351 0-2.81 1.746-2.81 3.516C.478-.574 1.172.12 1.985.12c.657 0 1.219-.515 1.554-.909.12.705.681.909 1.04.909s.645-.216.86-.646c.192-.407.36-1.136.36-1.184 0-.06-.049-.107-.12-.107-.108 0-.12.06-.168.239-.179.705-.406 1.458-.896 1.458-.347 0-.37-.31-.37-.55 0-.274.035-.406.143-.872.083-.3.143-.562.239-.909.442-1.793.55-2.223.55-2.295a.299.299 0 0 0-.311-.3c-.383 0-.478.42-.502.563z" id="c"/><path d="M2.762-7.998c.012-.048.036-.12.036-.18 0-.119-.12-.119-.144-.119-.012 0-.442.036-.657.06-.204.012-.383.036-.598.048-.287.024-.37.036-.37.25 0 .12.119.12.238.12.61 0 .61.108.61.227 0 .084-.096.43-.143.646l-.287 1.148c-.12.478-.801 3.192-.85 3.407-.059.299-.059.502-.059.657C.538-.514 1.219.12 1.997.12c1.386 0 2.82-1.782 2.82-3.515 0-1.1-.62-1.877-1.517-1.877-.622 0-1.184.514-1.411.753l.873-3.479zM2.008-.12c-.382 0-.8-.286-.8-1.219 0-.395.035-.622.25-1.459.036-.155.228-.92.276-1.075.023-.096.729-1.16 1.542-1.16.526 0 .765.526.765 1.148 0 .573-.335 1.924-.634 2.546-.299.646-.849 1.22-1.399 1.22z" id="y"/><path d="M2.14-2.774c.323 0 1.136-.024 1.71-.239.908-.346.992-1.04.992-1.255 0-.526-.454-1.004-1.243-1.004-1.256 0-3.061 1.136-3.061 3.264C.538-.753 1.255.12 2.343.12c1.626 0 2.654-1.268 2.654-1.423 0-.072-.071-.132-.12-.132-.035 0-.047.012-.155.12C3.957-.3 2.822-.12 2.367-.12c-.681 0-1.04-.538-1.04-1.422 0-.168 0-.466.18-1.232h.633zm-.574-.239c.514-1.84 1.65-2.02 2.033-2.02.526 0 .884.31.884.765 0 1.255-1.913 1.255-2.415 1.255h-.502z" id="b"/><path d="M4.04-1.518c-.047.191-.07.239-.226.418-.49.634-.993.86-1.363.86-.395 0-.765-.31-.765-1.135 0-.633.358-1.972.621-2.51.347-.67.885-1.148 1.387-1.148.79 0 .945.98.945 1.052l-.036.167-.562 2.296zm.742-2.965c-.155-.347-.49-.79-1.088-.79C2.391-5.272.91-3.633.91-1.852.909-.61 1.662 0 2.427 0c.634 0 1.195-.502 1.41-.741L3.576.335c-.168.657-.24.956-.67 1.375-.49.49-.944.49-1.207.49-.359 0-.658-.024-.957-.12a.634.634 0 0 0 .478-.574c0-.19-.143-.382-.406-.382a.615.615 0 0 0-.598.633c0 .49.49.682 1.507.682 1.542 0 2.343-.992 2.498-1.638l1.327-5.356c.036-.143.036-.167.036-.191a.299.299 0 0 0-.31-.3c-.288 0-.455.24-.49.563z" id="g"/><path d="M3.383-1.71c0-.06-.048-.107-.12-.107-.107 0-.119.036-.179.239C2.774-.49 2.284-.12 1.89-.12c-.144 0-.31-.035-.31-.394 0-.323.143-.682.274-1.04l.837-2.224c.036-.095.12-.31.12-.538 0-.502-.36-.956-.945-.956-1.1 0-1.542 1.733-1.542 1.829 0 .048.048.108.131.108.108 0 .12-.048.168-.216.287-1.004.74-1.482 1.207-1.482.108 0 .311.012.311.394 0 .311-.155.706-.251.969l-.837 2.223c-.072.192-.143.383-.143.598 0 .538.37.969.944.969 1.1 0 1.53-1.746 1.53-1.83zm-.095-5.75a.4.4 0 0 0-.407-.395c-.275 0-.586.263-.586.574 0 .3.251.395.395.395.323 0 .598-.311.598-.574z" id="f"/><path d="M3.037-7.998c.012-.048.035-.12.035-.18 0-.119-.12-.119-.143-.119-.012 0-.442.036-.658.06-.203.012-.382.036-.597.048-.287.024-.37.036-.37.25 0 .12.119.12.238.12.61 0 .61.108.61.227 0 .048 0 .072-.06.287L.61-1.375a1.35 1.35 0 0 0-.06.419C.55-.36.992.12 1.602.12c.395 0 .658-.263.849-.634.203-.395.37-1.148.37-1.196 0-.06-.047-.107-.12-.107-.107 0-.119.06-.167.239-.215.825-.43 1.458-.908 1.458-.359 0-.359-.382-.359-.55 0-.047 0-.298.084-.633l1.686-6.695z" id="w"/><path d="M2.463-3.503c.024-.072.323-.67.765-1.052.31-.287.717-.478 1.183-.478.479 0 .646.359.646.837 0 .681-.49 2.044-.73 2.69-.107.287-.167.442-.167.657 0 .538.371.969.945.969 1.112 0 1.53-1.758 1.53-1.83 0-.06-.048-.107-.12-.107-.107 0-.119.036-.179.239-.275.98-.729 1.458-1.195 1.458-.12 0-.311-.012-.311-.394 0-.299.131-.658.203-.825.24-.658.741-1.996.741-2.678 0-.717-.418-1.255-1.327-1.255-1.064 0-1.626.753-1.84 1.052-.037-.682-.527-1.052-1.053-1.052-.382 0-.645.227-.849.633C.49-4.209.323-3.49.323-3.443s.048.108.131.108c.096 0 .108-.012.18-.287.19-.73.406-1.411.884-1.411.275 0 .37.191.37.55 0 .263-.119.73-.202 1.1l-.335 1.29c-.048.228-.18.766-.24.981-.083.311-.214.873-.214.933 0 .167.131.299.31.299.144 0 .311-.072.407-.252.024-.06.131-.478.191-.717l.263-1.076.395-1.578z" id="e"/><path d="M5.452-3.288c0-1.135-.742-1.984-1.83-1.984C2.044-5.272.49-3.551.49-1.865.49-.729 1.231.12 2.32.12c1.59 0 3.132-1.722 3.132-3.408zM2.332-.12c-.598 0-1.04-.478-1.04-1.315 0-.55.286-1.769.62-2.367.539-.92 1.208-1.231 1.698-1.231.586 0 1.04.478 1.04 1.315 0 .478-.25 1.757-.705 2.487-.49.8-1.147 1.111-1.614 1.111z" id="x"/><path d="M.514 1.518c-.084.359-.131.455-.622.455-.143 0-.263 0-.263.227 0 .024.012.12.144.12.155 0 .323-.025.478-.025h.514c.251 0 .86.024 1.112.024.072 0 .215 0 .215-.215 0-.131-.084-.131-.287-.131-.55 0-.586-.084-.586-.18 0-.143.538-2.2.61-2.474.132.334.454.8 1.076.8 1.351 0 2.81-1.757 2.81-3.514 0-1.1-.622-1.877-1.519-1.877-.765 0-1.41.741-1.542.908a1.035 1.035 0 0 0-1.04-.908c-.347 0-.622.167-.849.621C.55-4.22.383-3.49.383-3.443s.047.108.131.108c.096 0 .108-.012.18-.287.179-.706.406-1.411.884-1.411.275 0 .37.191.37.55 0 .287-.035.406-.083.621l-1.35 5.38zM2.582-3.73c.084-.335.419-.681.61-.849.132-.12.526-.454.98-.454.526 0 .765.526.765 1.148 0 .573-.334 1.924-.633 2.546-.299.646-.849 1.22-1.399 1.22-.813 0-.944-1.029-.944-1.077 0-.035.024-.131.036-.19l.585-2.344z" id="A"/><path d="M4.65-4.89c-.37.072-.561.335-.561.598 0 .287.227.383.394.383.335 0 .61-.287.61-.646 0-.382-.37-.717-.968-.717-.479 0-1.029.215-1.53.944-.084-.633-.563-.944-1.04-.944-.467 0-.706.358-.85.621a6.16 6.16 0 0 0-.382 1.208c0 .048.048.108.131.108.096 0 .108-.012.18-.287.179-.718.406-1.411.884-1.411.287 0 .37.203.37.55 0 .263-.119.73-.202 1.1l-.335 1.29c-.048.228-.18.766-.24.981-.083.311-.214.873-.214.933 0 .167.131.299.31.299a.461.461 0 0 0 .43-.323c.037-.096.48-1.901.55-2.176.06-.263.132-.514.192-.777.048-.168.096-.359.132-.514.035-.108.358-.694.657-.957.144-.131.454-.406.945-.406.19 0 .382.036.538.143z" id="d"/><path d="M2.726-2.391c.203.036.526.108.598.12.155.047.693.239.693.812 0 .371-.335 1.34-1.722 1.34-.25 0-1.147-.036-1.386-.694.478.06.717-.31.717-.574 0-.25-.167-.382-.407-.382-.263 0-.61.203-.61.74C.61-.322 1.328.12 2.284.12 4.101.12 4.64-1.22 4.64-1.841c0-.18 0-.514-.383-.897-.299-.287-.586-.346-1.231-.478-.323-.072-.837-.18-.837-.717 0-.24.215-1.1 1.35-1.1.503 0 .993.191 1.113.622a.5.5 0 0 0-.55.466c0 .25.227.323.334.323.168 0 .502-.132.502-.634s-.454-1.016-1.386-1.016c-1.566 0-1.985 1.231-1.985 1.721 0 .909.885 1.1 1.16 1.16z" id="z"/><path d="M2.403-4.806h1.1c.227 0 .347 0 .347-.215 0-.132-.072-.132-.311-.132H2.487l.442-1.745c.048-.168.048-.191.048-.275 0-.191-.156-.299-.311-.299-.096 0-.37.036-.466.418l-.467 1.901H.61c-.24 0-.347 0-.347.227 0 .12.084.12.31.12h1.065L.848-1.65c-.095.419-.13.538-.13.694C.717-.395 1.111.12 1.78.12c1.208 0 1.853-1.746 1.853-1.83 0-.071-.047-.107-.12-.107-.023 0-.07 0-.095.048-.012.012-.024.024-.107.215C3.06-.956 2.51-.12 1.817-.12c-.358 0-.382-.298-.382-.561 0-.012 0-.24.035-.383l.933-3.742z" id="h"/></defs><g transform="matrix(1.13 0 0 1.13 -63.986 -63.258)"><use x="56.413" xlink:href="#a" y="63.91"/><use x="64.348" xlink:href="#b" y="63.91"/><use x="69.753" xlink:href="#c" y="63.91"/><use x="75.875" xlink:href="#d" y="63.91"/><use x="81.456" xlink:href="#e" y="63.91"/><use x="88.417" xlink:href="#f" y="63.91"/><use x="92.396" xlink:href="#e" y="63.91"/><use x="99.358" xlink:href="#g" y="63.91"/><path d="M106.073 63.512h3.512v.399h-3.512z"/><use x="109.585" xlink:href="#d" y="63.91"/><use x="115.166" xlink:href="#c" y="63.91"/><use x="121.288" xlink:href="#h" y="63.91"/><use x="125.499" xlink:href="#b" y="63.91"/><use x="134.225" xlink:href="#i" y="63.91"/><use x="143.589" xlink:href="#a" y="63.91"/><use x="151.524" xlink:href="#j" y="63.91"/><use x="160.858" xlink:href="#k" y="63.91"/><use x="169.6" xlink:href="#l" y="63.91"/><use x="178.576" xlink:href="#m" y="63.91"/><use x="189.163" xlink:href="#n" y="63.91"/><use x="195.247" xlink:href="#m" y="63.91"/><use x="205.834" xlink:href="#o" y="63.91"/><path d="M215.736 63.512h3.512v.399h-3.512z"/><use x="219.247" xlink:href="#l" y="63.91"/><use x="228.223" xlink:href="#k" y="63.91"/><use x="236.965" xlink:href="#p" y="63.91"/><use x="245.426" xlink:href="#j" y="63.91"/><path d="M255.463 63.512h3.512v.399h-3.512z"/><use x="258.974" xlink:href="#q" y="63.91"/><use x="268.437" xlink:href="#k" y="63.91"/><use x="277.18" xlink:href="#r" y="63.91"/><use x="285.048" xlink:href="#j" y="63.91"/><use x="146.246" xlink:href="#s" y="81.345"/><use x="158.166" xlink:href="#a" y="81.345"/><use x="166.101" xlink:href="#j" y="81.345"/><use x="175.435" xlink:href="#k" y="81.345"/><use x="184.177" xlink:href="#l" y="81.345"/><use x="193.153" xlink:href="#m" y="81.345"/><use x="203.74" xlink:href="#n" y="81.345"/><use x="209.824" xlink:href="#m" y="81.345"/><use x="220.411" xlink:href="#o" y="81.345"/><path d="M230.313 80.946h3.512v.399h-3.512z"/><use x="233.825" xlink:href="#l" y="81.345"/><use x="242.8" xlink:href="#k" y="81.345"/><use x="251.542" xlink:href="#p" y="81.345"/><use x="260.004" xlink:href="#j" y="81.345"/><path d="M270.04 80.946h3.512v.399h-3.512z"/><use x="273.552" xlink:href="#t" y="81.345"/><use x="283.56" xlink:href="#j" y="81.345"/><use x="292.894" xlink:href="#u" y="81.345"/><use x="302.096" xlink:href="#k" y="81.345"/><use x="310.838" xlink:href="#v" y="81.345"/><use x="146.246" xlink:href="#s" y="106.054"/><use x="231.005" xlink:href="#g" y="97.966"/><use x="237.018" xlink:href="#w" y="97.966"/><use x="240.755" xlink:href="#x" y="97.966"/><use x="246.361" xlink:href="#y" y="97.966"/><use x="251.32" xlink:href="#c" y="97.966"/><use x="257.442" xlink:href="#w" y="97.966"/><path d="M261.881 97.567h3.512v.399h-3.512z"/><use x="265.393" xlink:href="#z" y="97.966"/><use x="270.886" xlink:href="#h" y="97.966"/><use x="275.097" xlink:href="#b" y="97.966"/><use x="280.503" xlink:href="#A" y="97.966"/><path d="M159.362 102.826h198.825v.478H159.362z"/><use x="159.362" xlink:href="#a" y="114.254"/><use x="167.297" xlink:href="#j" y="114.254"/><use x="176.63" xlink:href="#k" y="114.254"/><use x="185.373" xlink:href="#l" y="114.254"/><use x="194.348" xlink:href="#m" y="114.254"/><use x="204.936" xlink:href="#n" y="114.254"/><use x="211.019" xlink:href="#m" y="114.254"/><use x="221.607" xlink:href="#o" y="114.254"/><path d="M231.508 113.856h3.512v.399h-3.512z"/><use x="235.02" xlink:href="#l" y="114.254"/><use x="243.995" xlink:href="#k" y="114.254"/><use x="252.738" xlink:href="#p" y="114.254"/><use x="261.199" xlink:href="#j" y="114.254"/><path d="M271.235 113.856h3.512v.399h-3.512z"/><use x="274.747" xlink:href="#q" y="114.254"/><use x="284.21" xlink:href="#k" y="114.254"/><use x="292.953" xlink:href="#p" y="114.254"/><use x="301.414" xlink:href="#u" y="114.254"/><use x="310.616" xlink:href="#B" y="114.254"/><path d="M321.905 113.856h3.512v.399h-3.512z"/><use x="325.417" xlink:href="#r" y="114.254"/><use x="333.285" xlink:href="#n" y="114.254"/><use x="339.369" xlink:href="#C" y="114.254"/><use x="348.209" xlink:href="#j" y="114.254"/></g></svg>