<svg height="16.41" viewBox="-0.239 -0.244 168.68 12.307" width="224.907" xmlns="http://www.w3.org/2000/svg" xmlns:xlink="http://www.w3.org/1999/xlink"><defs><path d="M7.878-2.75c.204 0 .419 0 .419-.239s-.215-.239-.419-.239H1.411c-.204 0-.419 0-.419.24s.215.238.419.238h6.467z" id="f"/><path d="M9.325-7.902a.402.402 0 0 0 .06-.168c0-.083-.012-.095-.287-.095H.848c-.274 0-.286.012-.286.095 0 .048.036.132.06.168L4.65.168c.083.155.12.227.322.227s.24-.072.323-.228l4.029-8.07zm-7.28.597h6.563L5.332-.729 2.044-7.305z" id="o"/><path d="M3.599-1.423c-.06.204-.06.227-.228.455-.263.334-.789.848-1.35.848-.49 0-.766-.442-.766-1.147 0-.658.37-1.997.598-2.499.407-.837.968-1.267 1.435-1.267.789 0 .944.98.944 1.076 0 .012-.036.167-.048.191L3.6-1.423zm.765-3.06c-.132-.311-.455-.79-1.076-.79-1.351 0-2.81 1.746-2.81 3.516C.478-.574 1.172.12 1.985.12c.657 0 1.219-.515 1.554-.909.12.705.681.909 1.04.909s.645-.216.86-.646c.192-.407.36-1.136.36-1.184 0-.06-.049-.107-.12-.107-.108 0-.12.06-.168.239-.179.705-.406 1.458-.896 1.458-.347 0-.37-.31-.37-.55 0-.274.035-.406.143-.872.083-.3.143-.562.239-.909.442-1.793.55-2.223.55-2.295a.299.299 0 0 0-.311-.3c-.383 0-.478.42-.502.563z" id="i"/><path d="M2.14-2.774c.323 0 1.136-.024 1.71-.239.908-.346.992-1.04.992-1.255 0-.526-.454-1.004-1.243-1.004-1.256 0-3.061 1.136-3.061 3.264C.538-.753 1.255.12 2.343.12c1.626 0 2.654-1.268 2.654-1.423 0-.072-.071-.132-.12-.132-.035 0-.047.012-.155.12C3.957-.3 2.822-.12 2.367-.12c-.681 0-1.04-.538-1.04-1.422 0-.168 0-.466.18-1.232h.633zm-.574-.239c.514-1.84 1.65-2.02 2.033-2.02.526 0 .884.31.884.765 0 1.255-1.913 1.255-2.415 1.255h-.502z" id="h"/><path d="M4.04-1.518c-.047.191-.07.239-.226.418-.49.634-.993.86-1.363.86-.395 0-.765-.31-.765-1.135 0-.633.358-1.972.621-2.51.347-.67.885-1.148 1.387-1.148.79 0 .945.98.945 1.052l-.036.167-.562 2.296zm.742-2.965c-.155-.347-.49-.79-1.088-.79C2.391-5.272.91-3.633.91-1.852.909-.61 1.662 0 2.427 0c.634 0 1.195-.502 1.41-.741L3.576.335c-.168.657-.24.956-.67 1.375-.49.49-.944.49-1.207.49-.359 0-.658-.024-.957-.12a.634.634 0 0 0 .478-.574c0-.19-.143-.382-.406-.382a.615.615 0 0 0-.598.633c0 .49.49.682 1.507.682 1.542 0 2.343-.992 2.498-1.638l1.327-5.356c.036-.143.036-.167.036-.191a.299.299 0 0 0-.31-.3c-.288 0-.455.24-.49.563z" id="m"/><path d="M3.383-1.71c0-.06-.048-.107-.12-.107-.107 0-.119.036-.179.239C2.774-.49 2.284-.12 1.89-.12c-.144 0-.31-.035-.31-.394 0-.323.143-.682.274-1.04l.837-2.224c.036-.095.12-.31.12-.538 0-.502-.36-.956-.945-.956-1.1 0-1.542 1.733-1.542 1.829 0 .048.048.108.131.108.108 0 .12-.048.168-.216.287-1.004.74-1.482 1.207-1.482.108 0 .311.012.311.394 0 .311-.155.706-.251.969l-.837 2.223c-.072.192-.143.383-.143.598 0 .538.37.969.944.969 1.1 0 1.53-1.746 1.53-1.83zm-.095-5.75a.4.4 0 0 0-.407-.395c-.275 0-.586.263-.586.574 0 .3.251.395.395.395.323 0 .598-.311.598-.574z" id="l"/><path d="M3.037-7.998c.012-.048.035-.12.035-.18 0-.119-.12-.119-.143-.119-.012 0-.442.036-.658.06-.203.012-.382.036-.597.048-.287.024-.37.036-.37.25 0 .12.119.12.238.12.61 0 .61.108.61.227 0 .048 0 .072-.06.287L.61-1.375a1.35 1.35 0 0 0-.06.419C.55-.36.992.12 1.602.12c.395 0 .658-.263.849-.634.203-.395.37-1.148.37-1.196 0-.06-.047-.107-.12-.107-.107 0-.119.06-.167.239-.215.825-.43 1.458-.908 1.458-.359 0-.359-.382-.359-.55 0-.047 0-.298.084-.633l1.686-6.695z" id="g"/><path d="M2.463-3.503c.024-.072.323-.67.765-1.052.31-.287.717-.478 1.183-.478.479 0 .646.359.646.837 0 .681-.49 2.044-.73 2.69-.107.287-.167.442-.167.657 0 .538.371.969.945.969 1.112 0 1.53-1.758 1.53-1.83 0-.06-.048-.107-.12-.107-.107 0-.119.036-.179.239-.275.98-.729 1.458-1.195 1.458-.12 0-.311-.012-.311-.394 0-.299.131-.658.203-.825.24-.658.741-1.996.741-2.678 0-.717-.418-1.255-1.327-1.255-1.064 0-1.626.753-1.84 1.052-.037-.682-.527-1.052-1.053-1.052-.382 0-.645.227-.849.633C.49-4.209.323-3.49.323-3.443s.048.108.131.108c.096 0 .108-.012.18-.287.19-.73.406-1.411.884-1.411.275 0 .37.191.37.55 0 .263-.119.73-.202 1.1l-.335 1.29c-.048.228-.18.766-.24.981-.083.311-.214.873-.214.933 0 .167.131.299.31.299.144 0 .311-.072.407-.252.024-.06.131-.478.191-.717l.263-1.076.395-1.578z" id="k"/><path d="M4.65-4.89c-.37.072-.561.335-.561.598 0 .287.227.383.394.383.335 0 .61-.287.61-.646 0-.382-.37-.717-.968-.717-.479 0-1.029.215-1.53.944-.084-.633-.563-.944-1.04-.944-.467 0-.706.358-.85.621a6.16 6.16 0 0 0-.382 1.208c0 .048.048.108.131.108.096 0 .108-.012.18-.287.179-.718.406-1.411.884-1.411.287 0 .37.203.37.55 0 .263-.119.73-.202 1.1l-.335 1.29c-.048.228-.18.766-.24.981-.083.311-.214.873-.214.933 0 .167.131.299.31.299a.461.461 0 0 0 .43-.323c.037-.096.48-1.901.55-2.176.06-.263.132-.514.192-.777.048-.168.096-.359.132-.514.035-.108.358-.694.657-.957.144-.131.454-.406.945-.406.19 0 .382.036.538.143z" id="j"/><path d="M2.403-4.806h1.1c.227 0 .347 0 .347-.215 0-.132-.072-.132-.311-.132H2.487l.442-1.745c.048-.168.048-.191.048-.275 0-.191-.156-.299-.311-.299-.096 0-.37.036-.466.418l-.467 1.901H.61c-.24 0-.347 0-.347.227 0 .12.084.12.31.12h1.065L.848-1.65c-.095.419-.13.538-.13.694C.717-.395 1.111.12 1.78.12c1.208 0 1.853-1.746 1.853-1.83 0-.071-.047-.107-.12-.107-.023 0-.07 0-.095.048-.012.012-.024.024-.107.215C3.06-.956 2.51-.12 1.817-.12c-.358 0-.382-.298-.382-.561 0-.012 0-.24.035-.383l.933-3.742z" id="n"/><path d="M4.113-.73c.263.718 1.004.85 1.458.85.909 0 1.447-.79 1.781-1.614.275-.694.718-2.272.718-2.977 0-.73-.37-.801-.478-.801-.287 0-.55.287-.55.526 0 .143.083.227.143.275.108.107.418.43.418 1.052 0 .406-.334 1.53-.585 2.092-.335.73-.777 1.207-1.4 1.207-.669 0-.884-.502-.884-1.052 0-.346.108-.765.156-.968l.502-2.008c.06-.24.167-.658.167-.706 0-.18-.143-.299-.323-.299-.346 0-.43.3-.502.586-.12.466-.621 2.487-.67 2.75-.047.203-.047.335-.047.598 0 .286-.383.74-.395.765-.131.131-.322.334-.693.334-.944 0-.944-.896-.944-1.1 0-.382.083-.908.621-2.33.144-.371.203-.527.203-.766 0-.502-.358-.956-.944-.956-1.1 0-1.542 1.733-1.542 1.829 0 .048.048.108.131.108.108 0 .12-.048.168-.216.299-1.052.765-1.482 1.207-1.482.12 0 .311.012.311.394 0 .06 0 .311-.203.837-.562 1.495-.682 1.985-.682 2.44C1.255-.109 2.283.12 2.893.12c.203 0 .741 0 1.22-.85z" id="a"/><path d="M3.475-1.81h2.343c.112 0 .287 0 .287-.183s-.175-.183-.287-.183H3.475v-2.351c0-.112 0-.287-.183-.287s-.184.175-.184.287v2.351H.758c-.112 0-.288 0-.288.183s.176.184.287.184h2.351V.542c0 .112 0 .287.184.287s.183-.175.183-.287v-2.351z" id="c"/><path d="M2.503-5.077c0-.215-.016-.223-.232-.223-.326.319-.749.51-1.506.51v.263c.215 0 .646 0 1.108-.215v4.088c0 .295-.024.391-.781.391H.813V0c.327-.024 1.012-.024 1.37-.024s1.053 0 1.38.024v-.263h-.28c-.756 0-.78-.096-.78-.39v-4.424z" id="d"/><path d="M1.594-1.307c.024-.12.104-.423.128-.542.111-.43.111-.438.294-.701.263-.391.638-.742 1.172-.742.287 0 .454.168.454.542 0 .439-.334 1.347-.486 1.738-.103.263-.103.31-.103.414 0 .455.374.678.717.678.78 0 1.108-1.116 1.108-1.22 0-.08-.064-.103-.12-.103-.095 0-.111.055-.135.135-.192.654-.526.965-.83.965-.127 0-.19-.08-.19-.263s.063-.36.143-.558c.12-.303.47-1.22.47-1.666 0-.598-.414-.885-.988-.885-.646 0-1.06.39-1.291.694-.056-.439-.407-.694-.813-.694-.287 0-.486.183-.614.43a3.148 3.148 0 0 0-.27.79c0 .071.055.103.119.103.103 0 .111-.032.167-.239.096-.39.24-.86.574-.86.207 0 .255.199.255.374 0 .143-.04.295-.104.558a43.13 43.13 0 0 1-.167.645L.789-.518c-.032.12-.08.319-.08.35C.71.017.861.08.964.08a.385.385 0 0 0 .32-.192c.023-.047.087-.318.127-.486l.183-.71z" id="b"/><path d="M8.07-3.873c.167 0 .382 0 .382-.216 0-.227-.203-.227-.382-.227H1.028c-.167 0-.382 0-.382.215 0 .228.203.228.382.228H8.07zm0 2.223c.167 0 .382 0 .382-.215 0-.227-.203-.227-.382-.227H1.028c-.167 0-.382 0-.382.215 0 .227.203.227.382.227H8.07z" id="e"/></defs><g transform="matrix(1.13 0 0 1.13 -63.986 -65.198)"><use x="56.413" xlink:href="#a" y="65.753"/><use x="64.75" xlink:href="#b" y="67.547"/><use x="69.869" xlink:href="#c" y="67.547"/><use x="76.431" xlink:href="#d" y="67.547"/><use x="84.528" xlink:href="#e" y="65.753"/><use x="96.919" xlink:href="#a" y="65.753"/><use x="105.256" xlink:href="#b" y="67.547"/><use x="113.549" xlink:href="#f" y="65.753"/><use x="125.469" xlink:href="#g" y="65.753"/><use x="129.206" xlink:href="#h" y="65.753"/><use x="134.611" xlink:href="#i" y="65.753"/><use x="140.733" xlink:href="#j" y="65.753"/><use x="146.314" xlink:href="#k" y="65.753"/><use x="153.275" xlink:href="#l" y="65.753"/><use x="157.254" xlink:href="#k" y="65.753"/><use x="164.215" xlink:href="#m" y="65.753"/><path d="M170.931 65.355h3.512v.399h-3.512z"/><use x="174.443" xlink:href="#j" y="65.753"/><use x="180.024" xlink:href="#i" y="65.753"/><use x="186.146" xlink:href="#n" y="65.753"/><use x="190.357" xlink:href="#h" y="65.753"/><use x="195.762" xlink:href="#o" y="65.753"/></g></svg>