<svg height="37.477" viewBox="-0.239 -0.228 82.087 28.108" width="109.449" xmlns="http://www.w3.org/2000/svg" xmlns:xlink="http://www.w3.org/1999/xlink">
  <defs>
    <path d="M3.993-3.18a.457.457 0 0 0-.367.43c0 .176.136.295.311.295s.447-.135.447-.478c0-.454-.503-.582-.797-.582-.375 0-.678.263-.861.574-.176-.422-.59-.574-.917-.574-.869 0-1.355.996-1.355 1.22 0 .071.056.103.12.103.095 0 .111-.04.135-.135.184-.582.662-.965 1.076-.965.311 0 .463.224.463.51 0 .16-.096.526-.16.781-.056.232-.231.941-.27 1.092-.112.43-.4.766-.758.766-.032 0-.24 0-.406-.112.366-.088.366-.422.366-.43C1.02-.87.877-.98.701-.98c-.215 0-.446.183-.446.486 0 .366.39.574.797.574.422 0 .717-.32.86-.574.176.39.543.574.925.574.87 0 1.347-.997 1.347-1.22 0-.08-.063-.103-.12-.103-.095 0-.11.055-.135.135-.16.534-.613.965-1.076.965-.263 0-.454-.176-.454-.51 0-.16.048-.343.16-.79.055-.239.23-.94.27-1.091.112-.415.39-.758.75-.758.04 0 .247 0 .414.112z" id="i"/>
    <path d="M3.885 2.905c0-.036 0-.06-.203-.263-1.195-1.207-1.865-3.18-1.865-5.619 0-2.32.562-4.316 1.949-5.726.12-.108.12-.132.12-.168 0-.071-.06-.095-.108-.095-.156 0-1.136.86-1.722 2.032-.61 1.207-.884 2.487-.884 3.957 0 1.064.167 2.487.789 3.766.705 1.435 1.685 2.212 1.817 2.212.048 0 .107-.024.107-.096z" id="b"/>
    <path d="M3.371-2.977c0-.908-.12-2.39-.789-3.778C1.877-8.189.897-8.966.765-8.966c-.048 0-.107.024-.107.095 0 .036 0 .06.203.263 1.195 1.208 1.865 3.18 1.865 5.62 0 2.319-.562 4.315-1.949 5.726-.12.107-.12.131-.12.167 0 .072.06.096.108.096C.921 3 1.901 2.14 2.487.968c.61-1.22.884-2.51.884-3.945z" id="d"/>
    <path d="M4.77-2.762h3.3c.167 0 .382 0 .382-.215 0-.227-.203-.227-.382-.227h-3.3v-3.3c0-.167 0-.382-.215-.382-.227 0-.227.203-.227.382v3.3h-3.3c-.167 0-.382 0-.382.215 0 .227.203.227.382.227h3.3v3.3c0 .167 0 .383.215.383.227 0 .227-.204.227-.383v-3.3z" id="g"/>
    <path d="M3.443-7.663c0-.275 0-.287-.239-.287-.287.323-.885.765-2.116.765v.347c.275 0 .873 0 1.53-.311v6.228c0 .43-.036.574-1.088.574h-.37V0c.322-.024 1.482-.024 1.877-.024s1.542 0 1.865.024v-.347H4.53c-1.052 0-1.088-.143-1.088-.574v-6.742z" id="f"/>
    <path d="M8.07-3.873c.167 0 .382 0 .382-.216 0-.227-.203-.227-.382-.227H1.028c-.167 0-.382 0-.382.215 0 .228.203.228.382.228H8.07zm0 2.223c.167 0 .382 0 .382-.215 0-.227-.203-.227-.382-.227H1.028c-.167 0-.382 0-.382.215 0 .227.203.227.382.227H8.07z" id="e"/>
    <path d="M2.14-2.774c.323 0 1.136-.024 1.71-.239.908-.346.992-1.04.992-1.255 0-.526-.454-1.004-1.243-1.004-1.256 0-3.061 1.136-3.061 3.264C.538-.753 1.255.12 2.343.12c1.626 0 2.654-1.268 2.654-1.423 0-.072-.071-.132-.12-.132-.035 0-.047.012-.155.12C3.957-.3 2.822-.12 2.367-.12c-.681 0-1.04-.538-1.04-1.422 0-.168 0-.466.18-1.232h.633zm-.574-.239c.514-1.84 1.65-2.02 2.033-2.02.526 0 .884.31.884.765 0 1.255-1.913 1.255-2.415 1.255h-.502z" id="h"/>
    <path d="M5.332-4.806c.24 0 .335 0 .335-.227 0-.12-.096-.12-.311-.12h-.968c.227-1.231.394-2.08.49-2.462.071-.287.322-.562.633-.562.251 0 .502.107.622.215-.466.048-.61.394-.61.598 0 .239.18.382.407.382.239 0 .598-.203.598-.657 0-.502-.503-.777-1.029-.777-.514 0-1.016.382-1.255.848-.215.419-.335.85-.61 2.415h-.8c-.228 0-.347 0-.347.216 0 .131.071.131.31.131h.766c-.216 1.112-.706 3.814-.98 5.093C2.378 1.327 2.2 2.2 1.601 2.2c-.036 0-.383 0-.598-.227.61-.048.61-.574.61-.586 0-.24-.18-.383-.407-.383a.628.628 0 0 0-.597.658c0 .514.526.777.992.777 1.22 0 1.722-2.188 1.853-2.786.215-.92.801-4.1.86-4.459h1.017z" id="a"/>
    <path d="M5.667-4.878c-.383.072-.526.359-.526.586 0 .287.227.383.394.383.359 0 .61-.311.61-.634 0-.502-.574-.73-1.076-.73-.73 0-1.136.718-1.243.945-.275-.896-1.017-.944-1.232-.944C1.374-5.272.73-3.706.73-3.443c0 .048.048.108.132.108.095 0 .12-.072.143-.12.407-1.327 1.208-1.578 1.554-1.578.538 0 .646.502.646.789 0 .263-.072.538-.215 1.112l-.407 1.638C2.403-.777 2.056-.12 1.422-.12c-.06 0-.358 0-.609-.155a.617.617 0 0 0 .526-.586c0-.239-.18-.382-.406-.382a.623.623 0 0 0-.598.633c0 .502.562.73 1.076.73.574 0 .98-.455 1.231-.945.191.705.79.945 1.231.945 1.22 0 1.865-1.567 1.865-1.83 0-.06-.047-.107-.12-.107-.107 0-.119.06-.154.155C5.14-.61 4.447-.12 3.909-.12c-.418 0-.645-.31-.645-.8 0-.264.048-.455.239-1.244L3.92-3.79c.18-.717.586-1.243 1.136-1.243.024 0 .359 0 .61.155z" id="c"/>
  </defs>
  <g transform="matrix(1.13 0 0 1.13 -63.986 -61.053)">
    <use x="56.413" xlink:href="#a" y="69.59"/>
    <use x="65.431" xlink:href="#b" y="69.59"/>
    <use x="69.983" xlink:href="#c" y="69.59"/>
    <use x="76.61" xlink:href="#d" y="69.59"/>
    <use x="84.508" xlink:href="#e" y="69.59"/>
    <use x="110.649" xlink:href="#f" y="61.503"/>
    <path d="M98.095 66.363h30.961v.478H98.095z"/>
    <use x="98.095" xlink:href="#f" y="77.791"/>
    <use x="106.583" xlink:href="#g" y="77.791"/>
    <use x="118.31" xlink:href="#h" y="77.791"/>
    <use x="123.715" xlink:href="#i" y="74.337"/>
  </g>
</svg>
