<svg xmlns="http://www.w3.org/2000/svg" viewBox="0 0 215.207 261.49" height="215" width="262"><g data-name="神经网络"><g data-name="圈" fill="#fff" stroke="#000" stroke-miterlimit="10"><circle cx="189.769" cy="83.586" r="20"/><circle cx="189.769" cy="148.209" r="20"/><circle cx="107.943" cy="149.744" r="20"/><circle cx="107.943" cy="20.5" r="20"/><circle cx="107.943" cy="214.367" r="20"/><circle cx="107.943" cy="85.122" r="20"/><circle cx="26.117" cy="54.725" r="20"/><circle cx="26.117" cy="117.833" r="20"/><circle cx="26.117" cy="180.942" r="20"/></g></g><g data-name="文字"><path d="M2.953 250.29a4.878 4.878 0 0 0 1.368.125c.234-.017.252.217.054.307-.108.072-.162.234-.162.504v1.35a9.048 9.048 0 0 0 1.206-.234v1.35a6.22 6.22 0 0 0-1.206-.053v2.467a14.483 14.483 0 0 0 1.423-.523 7.418 7.418 0 0 0-.036 1.423 5.11 5.11 0 0 0-1.387.216c0 1.314.054 2.593.126 3.763H2.863a49.68 49.68 0 0 0 .162-3.403c-1.134.342-1.909.612-2.34.792a5.367 5.367 0 0 0-.559-1.459 14.485 14.485 0 0 0 2.899-.485v-2.72a8.442 8.442 0 0 0-2.377.45A5.013 5.013 0 0 0 0 252.828c.666-.306.918-.702 1.909-4.394a9.767 9.767 0 0 0-1.369.109v-1.368a9.486 9.486 0 0 0 1.62.126 11.482 11.482 0 0 0 .253-2.503 8.75 8.75 0 0 0 1.8.378c.234 0 .27.108.036.252-.198.126-.396.612-.81 1.873a12.874 12.874 0 0 0 2.143-.126v1.368a16.207 16.207 0 0 0-2.503-.126l-1.387 4.411 1.333-.126a16.569 16.569 0 0 0-.072-2.413zm9.47-.127a11.325 11.325 0 0 0-2.07-.143 10.21 10.21 0 0 0-1.98.143v-1.385a10.478 10.478 0 0 0 1.98.143 11.79 11.79 0 0 0 1.855-.108 9.222 9.222 0 0 1-1.98-2.412 29.528 29.528 0 0 1-4.412 4.771 3.866 3.866 0 0 0-1.134-.864 14.704 14.704 0 0 0 4.861-5.654 5.994 5.994 0 0 0 1.639.432c.216.018.252.216.09.306l-.325.217a7.642 7.642 0 0 0 5.492 3.619 3.927 3.927 0 0 0-1.026 1.458 9.748 9.748 0 0 1-2.99-1.692zm-4.861 7.292v3.116h-1.35a25.308 25.308 0 0 0 .162-2.665v-5.293a9.72 9.72 0 0 0-.126-1.513 19.714 19.714 0 0 0 2.25.108c.774 0 1.765-.054 2.305-.108a10.168 10.168 0 0 0-.09 1.513v6.283c0 1.35-.09 1.657-1.746 1.945a3.326 3.326 0 0 0-.523-1.333c.973.126 1.099.036 1.099-1.061v-.992zm1.981-3.654v-1.513H7.562v1.513zm-1.981 1.062v1.548h1.981v-1.548zm5.42-2.178v3.258c0 .684.036 1.404.108 2.215h-1.404c.071-.829.107-1.531.107-2.215v-2.287a11.023 11.023 0 0 0-.125-1.944 4.704 4.704 0 0 0 1.368.09c.306-.036.36.18.09.342-.108.072-.144.288-.144.54zm2.25-.487v6.95c0 1.153-.108 1.405-2.053 1.836a2.978 2.978 0 0 0-.63-1.368c1.369.18 1.477.054 1.477-.936v-4.717a18.337 18.337 0 0 0-.18-2.9 6.894 6.894 0 0 0 1.422.127c.342-.018.396.108.126.343-.144.126-.162.305-.162.666zM22.7 246.256l1.242-1.223a11.092 11.092 0 0 1 4.249 6.175c1.422 4.411 2.719 5.816 6.014 7.346a5.307 5.307 0 0 0-1.476 1.8c-2.954-2.052-4.16-3.546-5.565-8.21a10.92 10.92 0 0 0-.864-2.07 20.386 20.386 0 0 1-2.286 5.653 17.737 17.737 0 0 1-4.123 4.61 3.85 3.85 0 0 0-1.585-1.153 13.06 13.06 0 0 0 4.393-4.321 19.303 19.303 0 0 0 2.557-6.356 8.915 8.915 0 0 0-2.557-2.25zM45.093 250.02c-1.585 0-3.404.036-5.78.09-.126 5.275-.522 8.102-2.017 10.839a3.22 3.22 0 0 0-1.386-1.08c1.332-1.819 1.926-4.574 1.926-9.399 0-2.287-.018-3.727-.072-4.826 1.26.09 3.223.145 6.338.145 3.17 0 5.203-.037 6.5-.145a31.202 31.202 0 0 0 0 4.502c-1.134-.109-2.7-.126-5.51-.126zm3.997-2.97h-9.777v1.71h9.777zm-9.561 8.713v-1.512c1.584.09 2.99.126 5.888.126 2.934 0 4.573-.036 6.14-.126v1.512c-1.477-.09-2.989-.126-5.798-.126-.882 1.045-1.944 2.198-3.133 3.44l5.456-.306a12.052 12.052 0 0 0-1.729-1.909l1.423-.702a147.684 147.684 0 0 0 3.367 3.908l-1.639.9a11.209 11.209 0 0 0-.648-1.08l-4.555.341a14.415 14.415 0 0 0-3.475.666 9.4 9.4 0 0 0-.829-1.818 3.16 3.16 0 0 0 1.891-1.063 13.858 13.858 0 0 0 1.89-2.377c-1.836.019-3.006.036-4.25.126zm6.05-3.133c-1.837 0-3.133.036-4.736.162v-1.548c1.747.126 2.917.144 4.754.144 1.945 0 2.971-.018 4.61-.144v1.53c-1.604-.108-2.702-.144-4.628-.144zM86.039 251.334c1.206 1.315 1.638 2.107 1.638 3.17 0 1.818-.702 2.43-2.647 2.808a3.199 3.199 0 0 0-.882-1.729c1.638.253 2.034-.126 2.034-1.332a3.959 3.959 0 0 0-1.476-2.592l1.152-4.627h-1.944v13.755h-1.549c.09-1.242.126-2.304.126-3.258v-9.957a11.797 11.797 0 0 0-.126-1.837 20.588 20.588 0 0 0 2.7.126 19.189 19.189 0 0 0 2.63-.126zm1.638 8.95l-1.387-.577a9.216 9.216 0 0 0 1.405-3.35l1.296.433c-.522 1.279-.953 2.395-1.314 3.493zm1.098-7.635v-1.35a53.442 53.442 0 0 0 6.644.161v-1.35h-3.15a24.744 24.744 0 0 0-3.17.144v-1.009c-.252.253-.504.523-.792.793a2.76 2.76 0 0 0-1.225-.648 10.806 10.806 0 0 0 3.584-4.772 7.417 7.417 0 0 0 1.53.487c.342.072.378.234.054.36a3.104 3.104 0 0 0-.684.738h4.447l-1.98 2.79a16.957 16.957 0 0 0 2.862-.162 14.111 14.111 0 0 0-.09 1.423v3.222a10.648 10.648 0 0 0 .108 1.585c-1.207-.072-2.502-.09-4.105-.09-1.477 0-2.827.035-4.177.144v-1.422a33.213 33.213 0 0 0 3.439.144h3.348v-1.35a63.56 63.56 0 0 0-6.643.162zm4.898-5.33h-2.917c-.45.577-.954 1.17-1.423 1.674h3.277zm.72 13.415a14.725 14.725 0 0 1-3.025.09c-1.135-.09-1.711-.397-1.711-1.01v-2.285a4.105 4.105 0 0 0-.162-1.135 5.86 5.86 0 0 0 1.602.145c.325-.037.397.07.145.288a.555.555 0 0 0-.235.54v1.836c0 .216.18.36.811.432a7.454 7.454 0 0 0 1.674-.09c.414-.072.648-.45.9-1.837a2.119 2.119 0 0 0 1.369 1.08c-.432 1.621-.702 1.837-1.368 1.945zm-1.963-2.701a8.886 8.886 0 0 0-.792-2.162l1.35-.377a9.94 9.94 0 0 0 .882 2.016zm4.375 1.53a10.022 10.022 0 0 0-1.71-2.881l1.297-.666c.504.881 1.224 1.962 1.872 2.863zM104.398 250.668c-.09 6.914-.36 8.59-1.512 10.821a3.243 3.243 0 0 0-1.405-.36c.99-1.188 1.477-2.448 1.657-5.58h-1.044a14.681 14.681 0 0 1-.99 4.716 6.132 6.132 0 0 0-1.333-.63 6.878 6.878 0 0 0 1.333-4.052 8.57 8.57 0 0 0-.81.073v-1.315a22.209 22.209 0 0 0 2.899.109c.017-.433.035-.9.035-1.405h-.666a13.664 13.664 0 0 0-1.674.054 6.09 6.09 0 0 0 .126-1.35v-1.243a8.64 8.64 0 0 0-.09-1.314 7.898 7.898 0 0 0 1.44.036c.235-.018.307.126.037.288a.64.64 0 0 0-.252.612v1.927h1.098c0-.774 0-1.621-.018-2.557.972.072 3.06.126 7.364.126a61.768 61.768 0 0 1-.054-.972 6.219 6.219 0 0 0 1.297.072c.378-.019.378.054.09.342a1.355 1.355 0 0 0-.144.558c2.502-.036 3.043-.072 3.6-.126v1.296a29.758 29.758 0 0 0-3.6-.126c.054.63.126 1.279.288 2.503a23.863 23.863 0 0 0 .468 2.63 11.379 11.379 0 0 0 .918-3.98 12.53 12.53 0 0 0 1.387.378c.252.036.288.108.053.252a2.955 2.955 0 0 0-.45 1.152 23.107 23.107 0 0 1-1.332 3.727c1.26 2.702 1.764 2.63 1.837.937a1.86 1.86 0 0 0 1.188.935c-.756 2.593-1.422 2.522-2.79 1.027a7.224 7.224 0 0 1-1.027-1.638 10.842 10.842 0 0 1-2.719 2.719 5.08 5.08 0 0 0-1.35-.774 7.356 7.356 0 0 0 1.333-.775 16.858 16.858 0 0 0-1.91-.054 18.255 18.255 0 0 0-2.502.108c.037-.613.072-1.765.072-2.664v-3.296c0-.846-.035-1.746-.108-2.448a15.307 15.307 0 0 0 2.52.126 19.512 19.512 0 0 0 2.503-.109v1.243a13.665 13.665 0 0 0-1.422-.108v1.44a10.082 10.082 0 0 0 1.458-.108 12.108 12.108 0 0 0-.072 1.512 14.489 14.489 0 0 0 .072 1.657 10.542 10.542 0 0 0-1.494-.072v1.657a2.606 2.606 0 0 0 1.08-.163v1.117a8.763 8.763 0 0 0 2.017-2.359 24.994 24.994 0 0 1-1.189-6.572zm4.898-4.087a10.758 10.758 0 0 0-.144-1.512 13.336 13.336 0 0 0 1.44.108c.217 0 .252.144.073.252-.163.09-.18.162-.18.378v.774c2.016 0 3.763-.036 4.969-.144v1.35c-1.206-.108-2.953-.162-4.97-.162v1.171h-1.188v-1.17h-2.97v1.331h-1.17v-1.332c-1.891.019-3.566.054-4.7.162v-1.35c1.17.108 2.808.144 4.68.144a8.833 8.833 0 0 0-.125-1.512 13.01 13.01 0 0 0 1.422.108c.217 0 .252.144.072.252-.126.071-.18.162-.18.378v.774zm-2.97 5.96V254h1.367v-1.458zm0 3.547h2.772V254.9h-2.773zm0 2.557h1.314v-1.656h-1.315zm7.273-9.183a3.819 3.819 0 0 0-.72-.864l1.243-.612c.27.288.45.504.738.845zM126.918 250.02c-1.585 0-3.403.036-5.78.09-.126 5.276-.522 8.102-2.017 10.84a3.214 3.214 0 0 0-1.386-1.08c1.332-1.82 1.926-4.574 1.926-9.4 0-2.286-.018-3.726-.071-4.825 1.26.09 3.222.144 6.338.144 3.169 0 5.203-.035 6.5-.144a31.188 31.188 0 0 0 0 4.501c-1.135-.108-2.701-.126-5.51-.126zm3.997-2.97h-9.777v1.71h9.777zm-9.561 8.714v-1.513c1.585.09 2.99.126 5.888.126 2.935 0 4.573-.036 6.14-.126v1.513c-1.476-.09-2.988-.126-5.798-.126-.882 1.044-1.944 2.196-3.132 3.439l5.455-.306a11.965 11.965 0 0 0-1.728-1.908l1.422-.704a147.684 147.684 0 0 0 3.367 3.908l-1.638.9a11.458 11.458 0 0 0-.648-1.08l-4.556.341a14.457 14.457 0 0 0-3.475.667 9.408 9.408 0 0 0-.828-1.819 3.153 3.153 0 0 0 1.89-1.061 13.898 13.898 0 0 0 1.89-2.377c-1.835.018-3.006.036-4.249.126zm6.05-3.133c-1.836 0-3.133.036-4.735.162v-1.549c1.746.126 2.917.145 4.753.145 1.945 0 2.971-.019 4.61-.145v1.53c-1.603-.107-2.701-.143-4.628-.143zM166.603 248.754a4.88 4.88 0 0 0 1.369.126c.234-.017.253.217.054.307-.108.072-.162.234-.162.504v1.35a9.017 9.017 0 0 0 1.206-.234v1.35a6.229 6.229 0 0 0-1.206-.053v2.467a14.205 14.205 0 0 0 1.422-.523 7.453 7.453 0 0 0-.035 1.423 5.106 5.106 0 0 0-1.387.216c0 1.314.054 2.593.126 3.763h-1.476c.09-1.098.143-2.18.162-3.403-1.135.342-1.908.612-2.341.792a5.35 5.35 0 0 0-.559-1.459 14.49 14.49 0 0 0 2.9-.485v-2.719a8.407 8.407 0 0 0-2.377.45 5 5 0 0 0-.649-1.333c.667-.305.92-.702 1.91-4.393a9.78 9.78 0 0 0-1.369.108v-1.368a9.458 9.458 0 0 0 1.62.126 11.488 11.488 0 0 0 .252-2.503 8.755 8.755 0 0 0 1.801.378c.234 0 .27.108.036.252-.198.126-.396.612-.81 1.873a12.866 12.866 0 0 0 2.142-.126v1.368a16.21 16.21 0 0 0-2.503-.126l-1.385 4.411 1.332-.126a16.656 16.656 0 0 0-.072-2.413zm9.471-.126a11.319 11.319 0 0 0-2.07-.143 10.22 10.22 0 0 0-1.98.143v-1.385a10.48 10.48 0 0 0 1.98.143 11.936 11.936 0 0 0 1.855-.107 9.243 9.243 0 0 1-1.98-2.414 29.521 29.521 0 0 1-4.412 4.772 3.875 3.875 0 0 0-1.135-.864 14.7 14.7 0 0 0 4.862-5.655 5.98 5.98 0 0 0 1.638.433c.216.018.252.216.09.306q-.16.108-.324.216a7.644 7.644 0 0 0 5.492 3.62 3.93 3.93 0 0 0-1.026 1.458 9.767 9.767 0 0 1-2.99-1.693zm-4.861 7.293v3.114h-1.35a25.174 25.174 0 0 0 .161-2.665v-5.293a9.659 9.659 0 0 0-.126-1.512 19.735 19.735 0 0 0 2.251.108c.775 0 1.765-.054 2.305-.108a10.27 10.27 0 0 0-.09 1.512v6.285c0 1.35-.09 1.656-1.747 1.944a3.324 3.324 0 0 0-.521-1.333c.971.126 1.097.036 1.097-1.062v-.99zm1.98-3.655v-1.513h-1.98v1.513zm-1.98 1.062v1.548h1.98v-1.548zm5.42-2.178v3.259c0 .683.036 1.404.108 2.214h-1.405c.072-.829.108-1.53.108-2.214v-2.288a11.013 11.013 0 0 0-.126-1.944 4.708 4.708 0 0 0 1.369.09c.306-.036.36.18.09.342-.108.072-.144.288-.144.54zm2.25-.487v6.95c0 1.153-.108 1.405-2.052 1.836a2.978 2.978 0 0 0-.63-1.368c1.368.18 1.476.054 1.476-.936v-4.717a18.362 18.362 0 0 0-.18-2.9 6.893 6.893 0 0 0 1.422.126c.342-.017.396.109.127.343-.145.126-.162.306-.162.666zM190.6 250.897v6.122l4.159-.126v-2.7a11.7 11.7 0 0 0-.109-1.747 6.654 6.654 0 0 0 1.747.126c.252-.018.289.036.144.18a3 3 0 0 0-.233 1.459v3.439c0 .702.017 1.278.07 1.998h-1.728c.055-.45.091-.937.109-1.422l-5.456.161c-4.322.127-5.06.199-6.157.307a12.34 12.34 0 0 0 .09-1.477v-3.565a9.015 9.015 0 0 0-.073-1.386 6.582 6.582 0 0 0 1.747.162c.216-.018.252.054.126.252a3.69 3.69 0 0 0-.234 1.35v3.17l4.231-.126v-6.177h-2.178a25.936 25.936 0 0 0-3.007.198 9.824 9.824 0 0 0 .143-1.602v-2.827a7.508 7.508 0 0 0-.143-1.602 7.338 7.338 0 0 0 1.89.09c.325-.054.342 0 .108.252a3.158 3.158 0 0 0-.324 1.242v2.953h3.511v-3.835a19.47 19.47 0 0 0-.126-2.394 7.378 7.378 0 0 0 1.927.197c.342-.018.36.036.143.253a4.266 4.266 0 0 0-.377 1.926v3.853h3.835v-2.935a7.87 7.87 0 0 0-.163-1.747 6.19 6.19 0 0 0 1.747.109c.306-.036.324.017.216.234a2.855 2.855 0 0 0-.27 1.422v3.259c0 .702.019 1.207.073 1.8h-1.729a6.362 6.362 0 0 0 .126-.846zM208.743 248.485a265.2 265.2 0 0 0-5.78.09c-.125 5.275-.522 8.102-2.016 10.839a3.221 3.221 0 0 0-1.387-1.08c1.333-1.819 1.927-4.574 1.927-9.399 0-2.287-.017-3.727-.072-4.825 1.26.09 3.224.144 6.338.144 3.169 0 5.204-.037 6.5-.144a31.476 31.476 0 0 0 0 4.5c-1.134-.108-2.7-.125-5.51-.125zm3.998-2.971h-9.777v1.71h9.777zm-9.561 8.714v-1.512c1.585.09 2.989.126 5.887.126 2.936 0 4.574-.036 6.14-.126v1.512c-1.475-.09-2.988-.126-5.797-.126-.882 1.045-1.945 2.197-3.133 3.44l5.456-.307a12.048 12.048 0 0 0-1.729-1.908l1.423-.703a146.656 146.656 0 0 0 3.366 3.908l-1.637.9a11.34 11.34 0 0 0-.649-1.08l-4.555.341a14.5 14.5 0 0 0-3.475.666 9.478 9.478 0 0 0-.828-1.818 3.158 3.158 0 0 0 1.89-1.063 13.789 13.789 0 0 0 1.89-2.376c-1.836.018-3.007.036-4.25.126zm6.05-3.133c-1.836 0-3.133.036-4.736.162v-1.548c1.747.126 2.917.144 4.754.144 1.945 0 2.97-.018 4.61-.144v1.53c-1.603-.108-2.702-.144-4.629-.144z"/></g></svg>