<svg height="19.377" viewBox="-0.3 -0.248 73.535 14.533" width="98.046" xmlns="http://www.w3.org/2000/svg" xmlns:xlink="http://www.w3.org/1999/xlink"><defs><path d="M5.04-3.698c.055-.24.164-.644.164-.71 0-.196-.153-.294-.317-.294a.446.446 0 0 0-.403.306c-.033.076-.546 2.16-.622 2.443a2.984 2.984 0 0 0-.098.72c0 .12 0 .142.01.197-.25.578-.578.916-1.003.916-.873 0-.873-.807-.873-.993 0-.349.055-.774.567-2.116.12-.327.186-.48.186-.698 0-.491-.36-.895-.895-.895-1.036 0-1.44 1.582-1.44 1.68 0 .11.11.11.131.11.11 0 .12-.023.175-.197.294-1.015.72-1.353 1.102-1.353.098 0 .272.011.272.36 0 .273-.12.578-.196.764-.48 1.287-.61 1.789-.61 2.203C1.19-.262 1.92.12 2.737.12c.186 0 .698 0 1.135-.764.283.699 1.036.764 1.363.764.819 0 1.299-.687 1.582-1.342.371-.85.72-2.313.72-2.836 0-.6-.294-.764-.48-.764-.273 0-.545.284-.545.524 0 .142.065.207.163.294.12.12.393.404.393.928 0 .37-.316 1.44-.6 1.996-.284.578-.665.96-1.2.96-.513 0-.807-.327-.807-.95 0-.305.076-.643.12-.795l.458-1.833z" id="f"/><path d="M2.248-1.626c.127-.12.462-.382.59-.494.494-.454.964-.893.964-1.618 0-.948-.797-1.562-1.794-1.562-.956 0-1.586.725-1.586 1.434 0 .391.311.447.423.447a.41.41 0 0 0 .414-.423c0-.414-.398-.414-.494-.414a1.232 1.232 0 0 1 1.156-.781c.741 0 1.124.63 1.124 1.299 0 .829-.582 1.435-1.523 2.399L.518-.303C.422-.215.422-.199.422 0h3.149l.23-1.427h-.246c-.024.16-.088.558-.184.71-.047.063-.653.063-.78.063H1.17l1.077-.972z" id="j"/><path d="M3.61 2.618c0-.033 0-.054-.185-.24-1.363-1.374-1.712-3.436-1.712-5.105 0-1.898.414-3.797 1.756-5.16.142-.131.142-.153.142-.186 0-.076-.044-.109-.11-.109-.108 0-1.09.742-1.734 2.127-.556 1.2-.687 2.411-.687 3.328 0 .85.12 2.17.72 3.403.655 1.342 1.593 2.051 1.702 2.051.065 0 .109-.032.109-.109z" id="e"/><path d="M3.153-2.727c0-.851-.12-2.171-.72-3.404C1.778-7.473.84-8.18.73-8.18c-.066 0-.11.043-.11.108 0 .033 0 .055.208.251C1.9-6.742 2.52-5.007 2.52-2.727c0 1.865-.404 3.785-1.756 5.16-.142.13-.142.152-.142.185 0 .066.043.11.109.11.109 0 1.09-.743 1.734-2.128.557-1.2.688-2.41.688-3.327z" id="i"/><path d="M4.462-2.51h3.043c.153 0 .36 0 .36-.217s-.207-.218-.36-.218H4.462V-6c0-.153 0-.36-.218-.36s-.219.207-.219.36v3.055H.971c-.153 0-.36 0-.36.218s.207.218.36.218h3.054V.545c0 .153 0 .36.219.36s.218-.207.218-.36v-3.054z" id="g"/><path d="M3.207-6.982c0-.262 0-.283-.25-.283-.677.698-1.637.698-1.986.698v.338c.218 0 .862 0 1.429-.284v5.651c0 .393-.033.524-1.015.524h-.349V0c.382-.033 1.331-.033 1.768-.033s1.385 0 1.767.033v-.338h-.35c-.981 0-1.014-.12-1.014-.524v-6.12z" id="h"/><path d="M7.495-3.567c.163 0 .37 0 .37-.218s-.207-.219-.36-.219H.971c-.153 0-.36 0-.36.219s.207.218.37.218h6.514zm.01 2.116c.153 0 .36 0 .36-.218s-.207-.218-.37-.218H.982c-.164 0-.371 0-.371.218s.207.218.36.218h6.534z" id="d"/><path d="M1.93-7.57l-1.57.12v.337c.764 0 .85.077.85.611v5.673c0 .49-.12.49-.85.49V0c.36-.01.938-.033 1.21-.033S2.379-.01 2.783 0v-.338c-.731 0-.851 0-.851-.491v-6.742z" id="a"/><path d="M5.138-2.335c0-1.396-1.09-2.552-2.41-2.552-1.364 0-2.423 1.189-2.423 2.552A2.435 2.435 0 0 0 2.716.12a2.43 2.43 0 0 0 2.422-2.455zM2.728-.153c-.47 0-.95-.229-1.244-.73-.273-.48-.273-1.146-.273-1.539 0-.425 0-1.014.262-1.494.294-.502.807-.731 1.243-.731.48 0 .95.24 1.233.709s.284 1.102.284 1.516c0 .393 0 .982-.24 1.462-.24.49-.72.807-1.266.807z" id="b"/><path d="M2.27-2.116c.24.043 1.134.218 1.134 1.003 0 .557-.382.993-1.233.993C1.255-.12.86-.742.655-1.67.622-1.81.61-1.854.502-1.854c-.142 0-.142.077-.142.273v1.44C.36.044.36.12.48.12.535.12.545.11.753-.098.775-.12.775-.142.97-.35c.48.458.97.469 1.2.469 1.254 0 1.756-.73 1.756-1.516 0-.579-.327-.906-.458-1.037-.36-.349-.785-.436-1.244-.523-.61-.12-1.341-.262-1.341-.895 0-.382.283-.829 1.221-.829 1.2 0 1.255.982 1.277 1.32.01.098.109.098.13.098.143 0 .143-.054.143-.262v-1.101c0-.186 0-.262-.12-.262-.055 0-.077 0-.219.13a1.405 1.405 0 0 1-.185.175c-.415-.305-.862-.305-1.026-.305-1.33 0-1.745.73-1.745 1.342 0 .381.175.687.47.927.348.283.654.349 1.44.502z" id="c"/></defs><g transform="matrix(1.13 0 0 1.13 -80.23 -66.464)"><use x="70.735" xlink:href="#a" y="68.742"/><use x="73.754" xlink:href="#b" y="68.742"/><use x="79.188" xlink:href="#c" y="68.742"/><use x="83.475" xlink:href="#c" y="68.742"/><use x="87.762" xlink:href="#d" y="68.742"/><use x="96.215" xlink:href="#e" y="68.742"/><use x="100.457" xlink:href="#f" y="68.742"/><use x="110.956" xlink:href="#g" y="68.742"/><use x="121.833" xlink:href="#h" y="68.742"/><use x="127.268" xlink:href="#i" y="68.742"/><use x="131.591" xlink:href="#j" y="63.715"/></g></svg>