<svg height="16.375" viewBox="-0.3 -0.257 46.246 12.281" width="61.661" xmlns="http://www.w3.org/2000/svg" xmlns:xlink="http://www.w3.org/1999/xlink"><defs><path d="M2.215-.01c0-.72-.273-1.146-.699-1.146a.561.561 0 0 0-.578.578c0 .294.218.578.578.578.131 0 .273-.044.382-.142.033-.022.044-.033.055-.033s.022.011.022.164c0 .807-.382 1.462-.742 1.822-.12.12-.12.142-.12.174 0 .077.054.12.109.12.12 0 .993-.84.993-2.116z" id="e"/><path d="M3.644-3.295c.065-.283.316-1.287 1.08-1.287.054 0 .316 0 .545.142-.305.055-.524.327-.524.59 0 .174.12.38.415.38.24 0 .59-.195.59-.632 0-.567-.645-.72-1.015-.72-.633 0-1.015.578-1.146.83-.273-.72-.862-.83-1.178-.83-1.135 0-1.756 1.407-1.756 1.68 0 .11.109.11.13.11.088 0 .12-.023.142-.12.371-1.157 1.091-1.43 1.462-1.43.207 0 .59.098.59.731 0 .338-.186 1.07-.59 2.596C2.215-.578 1.833-.12 1.353-.12c-.066 0-.317 0-.546-.142.273-.054.513-.283.513-.589 0-.294-.24-.382-.404-.382-.327 0-.6.284-.6.633 0 .502.546.72 1.026.72.72 0 1.113-.764 1.145-.83.131.405.524.83 1.178.83 1.124 0 1.746-1.407 1.746-1.68 0-.11-.098-.11-.131-.11-.098 0-.12.045-.142.12-.36 1.168-1.102 1.43-1.45 1.43-.426 0-.6-.35-.6-.72 0-.24.065-.48.185-.96l.37-1.495z" id="c"/><path d="M3.897-2.542c0-.853-.087-1.371-.35-1.881-.351-.702-.997-.877-1.435-.877-1.004 0-1.37.75-1.482.972-.287.582-.303 1.371-.303 1.786 0 .526.024 1.33.406 1.968.367.59.957.741 1.38.741.382 0 1.067-.12 1.466-.908.294-.574.318-1.283.318-1.801zM2.112-.056c-.27 0-.82-.127-.988-.964-.088-.454-.088-1.204-.088-1.618 0-.55 0-1.108.088-1.546.167-.813.789-.893.988-.893.271 0 .821.136.98.86.096.44.096 1.037.096 1.579 0 .47 0 1.187-.096 1.634-.167.837-.717.948-.98.948z" id="d"/><path d="M2.503-5.077c0-.215-.016-.223-.232-.223-.326.319-.749.51-1.506.51v.263c.215 0 .646 0 1.108-.215v4.088c0 .295-.024.391-.781.391H.813V0c.327-.024 1.012-.024 1.37-.024s1.053 0 1.38.024v-.263h-.28c-.756 0-.78-.096-.78-.39v-4.424z" id="f"/><path d="M4.385-4.21L5.88-6.405c.24-.349.61-.698 1.582-.709v-.338c-.426.011-.938.033-1.211.033-.436 0-.96 0-1.396-.033v.338c.436.011.676.251.676.502 0 .11-.022.131-.098.251L4.189-4.516 2.782-6.622c-.022-.033-.077-.12-.077-.163 0-.131.24-.317.71-.328v-.338c-.382.033-1.179.033-1.593.033a33 33 0 0 1-1.418-.033v.338H.61c.6 0 .807.077 1.014.382l2.008 3.033-1.79 2.64c-.152.218-.48.72-1.581.72V0c.393-.01.85-.033 1.21-.033.404 0 1.004 0 1.397.033v-.338c-.502-.011-.687-.306-.687-.502 0-.098.033-.142.109-.262l1.549-2.29L5.564-.786c.021.043.054.087.054.12 0 .13-.24.316-.709.327V0c.382-.033 1.178-.033 1.593-.033.458 0 .96.011 1.418.033v-.338h-.207c-.568 0-.797-.055-1.026-.393L4.385-4.21z" id="a"/><path d="M2.782 2.727v-.436H1.724V-7.745h1.058v-.437H1.287v10.91h1.495z" id="b"/><path d="M1.735-8.182H.24v.437h1.058V2.29H.24v.436h1.495V-8.182z" id="g"/></defs><g transform="matrix(1.13 0 0 1.13 -80.23 -68.725)"><use x="70.735" xlink:href="#a" y="68.742"/><use x="78.886" xlink:href="#b" y="68.742"/><use x="81.916" xlink:href="#c" y="68.742"/><use x="88.128" xlink:href="#d" y="70.379"/><use x="92.86" xlink:href="#e" y="68.742"/><use x="97.697" xlink:href="#c" y="68.742"/><use x="103.909" xlink:href="#f" y="70.379"/><use x="108.641" xlink:href="#g" y="68.742"/></g></svg>