<svg height="28.414" viewBox="-0.3 -0.245 127.888 21.311" width="170.517" xmlns="http://www.w3.org/2000/svg" xmlns:xlink="http://www.w3.org/1999/xlink"><defs><path d="M4.08-.84c0 .338 0 .84 1.135.84h.523c.218 0 .35 0 .35-.262 0-.25-.143-.25-.284-.25-.666-.012-.666-.153-.666-.404v-2.346c0-.97-.774-1.68-2.4-1.68-.622 0-1.953.044-1.953 1.004 0 .48.382.687.677.687.338 0 .687-.229.687-.687a.69.69 0 0 0-.24-.535c.306-.065.655-.076.786-.076.818 0 1.2.458 1.2 1.287v.371C3.12-2.858.349-2.76.349-1.178.35-.131 1.702.065 2.455.065c.872 0 1.385-.447 1.625-.905zm-.185-1.713v1.037C3.895-.47 2.89-.327 2.618-.327c-.556 0-.993-.382-.993-.862 0-1.178 1.724-1.331 2.27-1.364z" id="f"/><path d="M1.276-4.844H.458v.513h.818v3.818H.524V0c.381-.01.872-.033 1.374-.033.415 0 1.113 0 1.506.033v-.513h-.95V-4.33H3.71v-.513H2.39v-1.101c0-1.2.83-1.299 1.102-1.299.054 0 .109 0 .185.022a.662.662 0 0 0-.25.535c0 .469.381.676.665.676.327 0 .676-.229.676-.676 0-.458-.392-.95-1.243-.95-1.07 0-2.248.459-2.248 1.692v1.101z" id="c"/><path d="M1.244-3.884v3.371H.49V0c.305-.01.96-.033 1.374-.033.426 0 1.07.022 1.375.033v-.513h-.753v-2.28c0-1.189.95-1.723 1.626-1.723.37 0 .61.218.61 1.058v2.945h-.752V0c.305-.01.96-.033 1.374-.033.426 0 1.07.022 1.375.033v-.513h-.753v-2.28c0-1.189.95-1.723 1.626-1.723.37 0 .61.218.61 1.058v2.945h-.752V0c.305-.01.96-.033 1.374-.033.426 0 1.07.022 1.375.033v-.513h-.753v-2.825c0-1.124-.556-1.571-1.68-1.571-.992 0-1.56.545-1.843 1.047-.219-1.014-1.222-1.047-1.637-1.047-.949 0-1.57.49-1.92 1.178v-1.178l-1.876.087v.513c.676 0 .753 0 .753.425z" id="e"/><path d="M5.913-2.378c0-1.462-1.004-2.564-2.782-2.564-1.79 0-2.782 1.113-2.782 2.564 0 1.353.96 2.443 2.782 2.443 1.833 0 2.782-1.101 2.782-2.443zM3.13-.371c-1.386 0-1.386-1.178-1.386-2.127 0-.491 0-1.047.186-1.418.207-.404.665-.633 1.2-.633.458 0 .916.174 1.156.556.23.371.23.971.23 1.495 0 .949 0 2.127-1.386 2.127z" id="b"/><path d="M2.302-3.207c-.404-.077-1.113-.197-1.113-.71 0-.676 1.015-.676 1.222-.676.818 0 1.233.317 1.287.917.011.163.022.218.251.218.262 0 .262-.055.262-.306v-.872c0-.208 0-.306-.196-.306-.044 0-.066 0-.491.207-.284-.141-.666-.207-1.102-.207-.327 0-2.007 0-2.007 1.43 0 .436.218.73.436.916.436.381.85.447 1.69.6.394.065 1.212.207 1.212.85 0 .819-1.004.819-1.244.819-1.156 0-1.44-.797-1.57-1.266-.055-.152-.11-.152-.263-.152-.261 0-.261.065-.261.316V-.24c0 .207 0 .305.196.305.076 0 .098 0 .327-.163.011 0 .251-.164.284-.186.502.35 1.069.35 1.287.35.338 0 2.018 0 2.018-1.593 0-.47-.218-.851-.6-1.157-.425-.316-.774-.381-1.625-.523z" id="a"/><path d="M1.124-4.33v2.988c0 1.167.949 1.407 1.723 1.407.83 0 1.32-.621 1.32-1.418v-.578h-.512v.556C3.655-.633 3.305-.37 3-.37c-.633 0-.633-.698-.633-.949v-3.01H3.96v-.514H2.367v-2.083h-.512c-.011 1.09-.546 2.17-1.626 2.203v.393h.895z" id="d"/><path d="M3.775-2.684L5.05-4.102c.142-.153.207-.229 1.113-.229v-.513c-.382.022-.95.033-1.004.033-.273 0-.818-.022-1.124-.033v.513c.153 0 .284.022.415.098-.044.066-.044.088-.087.131l-.917 1.026-1.069-1.255h.437v-.513c-.284.011-.971.033-1.32.033s-.84-.022-1.2-.033v.513h.774l1.702 2.007L1.34-.72C1.157-.513.765-.513.24-.513V0c.382-.022.95-.033 1.004-.033.272 0 .905.022 1.123.033v-.513c-.196 0-.403-.054-.403-.12 0-.01 0-.022.076-.109L3.098-1.93l1.2 1.418h-.425V0c.283-.01.949-.033 1.309-.033.349 0 .84.022 1.2.033v-.513h-.775l-1.832-2.17z" id="g"/><path d="M2.08-3.73c0-.143-.107-.24-.245-.24-.161 0-.335.156-.335.33 0 .15.108.239.24.239.19 0 .34-.18.34-.329zm-.358 2.086c.023-.06.077-.203.101-.257.018-.054.042-.113.042-.215 0-.335-.299-.52-.598-.52-.61 0-.902.789-.902.92 0 .03.024.084.107.084s.102-.036.12-.09c.167-.58.484-.717.651-.717.12 0 .162.078.162.215 0 .12-.036.21-.048.251l-.31.766c-.073.173-.073.185-.15.388-.078.18-.108.257-.108.359 0 .305.275.52.604.52.604 0 .902-.79.902-.92 0-.013-.006-.084-.113-.084-.084 0-.09.03-.126.143-.095.305-.34.664-.645.664-.108 0-.162-.072-.162-.216 0-.12.036-.209.114-.394l.359-.897z" id="o"/><path d="M2.774-3.73c0-.18-.144-.24-.24-.24a.36.36 0 0 0-.34.33c0 .125.095.239.245.239.155 0 .335-.15.335-.329zM1.5.269c-.113.448-.466.753-.813.753-.018 0-.185-.006-.185-.03C.502.986.52.974.52.968A.331.331 0 0 0 .652.711c0-.19-.156-.233-.24-.233a.347.347 0 0 0-.34.353c0 .317.376.388.621.388.4 0 1.118-.227 1.298-.944l.538-2.14c.011-.06.03-.114.03-.197 0-.335-.3-.574-.682-.574-.676 0-1.094.807-1.094.92 0 .036.024.084.108.084s.09-.024.131-.107c.174-.389.508-.7.837-.7.18 0 .221.15.221.299a.859.859 0 0 1-.018.18L1.5.268z" id="r"/><path d="M1.751-2.068c-.03-.455-.448-.568-.675-.568s-.383.137-.49.329c-.15.245-.221.562-.221.585 0 .066.053.09.107.09.096 0 .102-.042.132-.137.12-.479.263-.67.454-.67.215 0 .215.245.215.305 0 .096-.06.335-.101.502-.042.162-.102.407-.132.538-.042.15-.078.305-.12.454a7.189 7.189 0 0 0-.113.503c0 .131.102.197.21.197s.208-.072.256-.162c.012-.035.066-.245.096-.364l.131-.538c.042-.156.066-.263.102-.4.054-.204.263-.52.484-.742a1.06 1.06 0 0 1 .7-.293c.382 0 .382.305.382.419 0 .352-.257.992-.365 1.26-.035.102-.077.198-.077.3 0 .305.275.52.604.52.603 0 .902-.79.902-.92 0-.013-.006-.084-.113-.084-.084 0-.09.03-.126.143-.096.317-.34.664-.646.664-.113 0-.161-.09-.161-.216 0-.12.042-.22.096-.346.09-.234.358-.909.358-1.244 0-.49-.37-.693-.825-.693-.298 0-.681.096-1.064.568z" id="q"/><path d="M3.563-2.295a.348.348 0 0 0 .018-.084.202.202 0 0 0-.216-.197.287.287 0 0 0-.245.15c-.024.04-.065.226-.095.34l-.126.496-.185.747c-.042.168-.066.263-.305.49a.795.795 0 0 1-.514.216c-.442 0-.442-.389-.442-.497 0-.263.071-.532.334-1.19.06-.143.078-.184.078-.292 0-.335-.299-.52-.598-.52-.61 0-.902.789-.902.92 0 .03.024.084.107.084s.102-.036.12-.09c.167-.58.484-.717.651-.717.12 0 .162.078.162.215 0 .126-.078.33-.144.49-.209.527-.28.801-.28 1.017 0 .568.424.777.89.777.084 0 .365 0 .681-.275-.077.329-.131.562-.418.873-.108.12-.377.364-.735.364-.054 0-.311-.006-.449-.161a.351.351 0 0 0 .3-.335c0-.161-.132-.227-.246-.227-.15 0-.346.12-.346.394 0 .287.28.526.747.526.633 0 1.398-.466 1.584-1.213l.574-2.301z" id="n"/><path d="M1.602-1.817c.175 0 .773-.008 1.196-.16.693-.239.717-.717.717-.836 0-.447-.423-.702-.94-.702-.901 0-2.184.71-2.184 2.12C.39-.582.885.08 1.76.08c1.244 0 1.913-.797 1.913-.909 0-.072-.08-.127-.127-.127s-.072.023-.112.071c-.63.742-1.522.742-1.658.742-.581 0-.757-.495-.757-.94 0-.24.072-.599.104-.734h.478zm-.414-.223c.255-.973.98-1.252 1.386-1.252.32 0 .622.16.622.479 0 .773-1.307.773-1.642.773h-.366z" id="m"/><path d="M2.375-4.973c0-.176-.127-.303-.31-.303-.208 0-.44.191-.44.43 0 .176.128.303.312.303.207 0 .438-.191.438-.43zM1.211-2.048l-.43 1.1c-.04.12-.08.215-.08.35 0 .39.303.678.726.678.773 0 1.1-1.116 1.1-1.22 0-.08-.064-.103-.12-.103-.096 0-.112.055-.136.135-.183.638-.51.965-.828.965-.096 0-.192-.04-.192-.256 0-.19.056-.334.16-.581.08-.216.16-.43.247-.646l.247-.645c.072-.184.167-.43.167-.566 0-.399-.319-.678-.725-.678-.773 0-1.108 1.116-1.108 1.22 0 .071.056.103.12.103.103 0 .111-.048.135-.127.223-.757.59-.973.829-.973.112 0 .191.04.191.263 0 .08-.008.192-.087.43l-.216.55z" id="j"/><path d="M3.61 2.618c0-.033 0-.054-.185-.24-1.363-1.374-1.712-3.436-1.712-5.105 0-1.898.414-3.797 1.756-5.16.142-.131.142-.153.142-.186 0-.076-.044-.109-.11-.109-.108 0-1.09.742-1.734 2.127-.556 1.2-.687 2.411-.687 3.328 0 .85.12 2.17.72 3.403.655 1.342 1.593 2.051 1.702 2.051.065 0 .109-.032.109-.109z" id="h"/><path d="M3.153-2.727c0-.851-.12-2.171-.72-3.404C1.778-7.473.84-8.18.73-8.18c-.066 0-.11.043-.11.108 0 .033 0 .055.208.251C1.9-6.742 2.52-5.007 2.52-2.727c0 1.865-.404 3.785-1.756 5.16-.142.13-.142.152-.142.185 0 .066.043.11.109.11.109 0 1.09-.743 1.734-2.128.557-1.2.688-2.41.688-3.327z" id="k"/><path d="M7.495-3.567c.163 0 .37 0 .37-.218s-.207-.219-.36-.219H.971c-.153 0-.36 0-.36.219s.207.218.37.218h6.514zm.01 2.116c.153 0 .36 0 .36-.218s-.207-.218-.37-.218H.982c-.164 0-.371 0-.371.218s.207.218.36.218h6.534z" id="l"/><path d="M4.12 4.129c.096-.104.096-.12.096-.144 0-.008 0-.048-.064-.127L1.427.367h3.315c1.012 0 1.626.12 1.993.239.645.215 1.251.685 1.482 1.307h.247L7.74 0H.717C.478 0 .47.008.47.287L3.547 4.24.55 7.731c-.072.088-.08.088-.08.128 0 .111.104.111.247.111H7.74l.725-2.032h-.247c-.191.55-.733 1.131-1.697 1.379-.566.143-1.14.167-1.722.167H1.243l2.878-3.355z" id="p"/><path d="M2.146-3.796c0-.18-.024-.18-.203-.18-.395.383-1.005.383-1.22.383v.234c.156 0 .55 0 .909-.168v3.019c0 .197 0 .275-.616.275H.76V0c.329-.024.795-.024 1.13-.024s.8 0 1.13.024v-.233h-.257c-.616 0-.616-.078-.616-.275v-3.288z" id="t"/><path d="M4.89-2.026c.083 0 .22 0 .22-.156s-.16-.155-.25-.155H.723c-.09 0-.25 0-.25.155s.137.156.22.156H4.89zM4.86-.652c.09 0 .25 0 .25-.155s-.137-.155-.22-.155H.693c-.083 0-.22 0-.22.155s.16.155.25.155H4.86z" id="s"/><path d="M5.302-4.156c.043-.153.043-.175.043-.251 0-.197-.152-.295-.316-.295a.474.474 0 0 0-.382.23c-.022.054-.109.392-.152.588a20.41 20.41 0 0 0-.219.873l-.49 1.964c-.044.163-.513.927-1.233.927-.557 0-.677-.48-.677-.884 0-.501.186-1.178.557-2.138.174-.447.218-.567.218-.785 0-.491-.35-.895-.895-.895-1.036 0-1.44 1.582-1.44 1.68 0 .11.11.11.131.11.11 0 .12-.023.175-.197.294-1.026.73-1.353 1.102-1.353.087 0 .272 0 .272.35 0 .272-.109.556-.185.763-.436 1.156-.633 1.778-.633 2.29C1.178-.206 1.865.12 2.51.12c.426 0 .796-.185 1.102-.49-.142.566-.273 1.1-.71 1.68-.283.37-.697.686-1.2.686-.152 0-.643-.032-.828-.458.174 0 .316 0 .469-.13A.59.59 0 0 0 1.56.96c0-.338-.295-.382-.404-.382-.25 0-.61.175-.61.71 0 .545.48.948 1.156.948 1.123 0 2.247-.992 2.553-2.225l1.047-4.167z" id="i"/></defs><g transform="matrix(1.13 0 0 1.13 -80.23 -65.557)"><use x="70.735" xlink:href="#a" y="68.852"/><use x="75.665" xlink:href="#b" y="68.852"/><use x="81.914" xlink:href="#c" y="68.852"/><use x="85.733" xlink:href="#d" y="68.852"/><use x="90.594" xlink:href="#e" y="68.852"/><use x="101.009" xlink:href="#f" y="68.852"/><use x="107.085" xlink:href="#g" y="68.852"/><use x="115.66" xlink:href="#h" y="68.852"/><use x="119.903" xlink:href="#i" y="68.852"/><use x="125.231" xlink:href="#j" y="70.488"/><use x="128.612" xlink:href="#k" y="68.852"/><use x="135.905" xlink:href="#l" y="68.852"/><use x="160.703" xlink:href="#m" y="64.556"/><use x="164.616" xlink:href="#n" y="61.744"/><use x="168.601" xlink:href="#o" y="61.744"/><path d="M148.584 65.906h35.326v.436h-35.326z"/><use x="148.584" xlink:href="#p" y="67.031"/><use x="157.523" xlink:href="#q" y="69.494"/><use x="157.523" xlink:href="#r" y="75.499"/><use x="160.916" xlink:href="#s" y="75.499"/><use x="166.485" xlink:href="#t" y="75.499"/><use x="172.08" xlink:href="#m" y="73.009"/><use x="175.994" xlink:href="#n" y="70.739"/><use x="179.978" xlink:href="#r" y="70.739"/></g></svg>