<svg height="18.078" viewBox="-0.3 -0.253 61.768 13.559" width="82.357" xmlns="http://www.w3.org/2000/svg" xmlns:xlink="http://www.w3.org/1999/xlink"><defs><path d="M7.353-3.535c.152-.065.218-.141.218-.24 0-.109-.044-.174-.218-.25L1.342-6.862c-.153-.076-.197-.076-.218-.076a.212.212 0 0 0-.219.218c0 .13.088.185.208.24L6.84-3.785 1.135-1.091c-.219.098-.23.186-.23.251 0 .12.099.218.219.218.032 0 .054 0 .196-.076l6.033-2.837zm-.164 5.03c.186 0 .382 0 .382-.219s-.23-.218-.393-.218h-5.88c-.163 0-.393 0-.393.218s.197.219.382.219H7.19z" id="g"/><path d="M3.644-3.295c.065-.283.316-1.287 1.08-1.287.054 0 .316 0 .545.142-.305.055-.524.327-.524.59 0 .174.12.38.415.38.24 0 .59-.195.59-.632 0-.567-.645-.72-1.015-.72-.633 0-1.015.578-1.146.83-.273-.72-.862-.83-1.178-.83-1.135 0-1.756 1.407-1.756 1.68 0 .11.109.11.13.11.088 0 .12-.023.142-.12.371-1.157 1.091-1.43 1.462-1.43.207 0 .59.098.59.731 0 .338-.186 1.07-.59 2.596C2.215-.578 1.833-.12 1.353-.12c-.066 0-.317 0-.546-.142.273-.054.513-.283.513-.589 0-.294-.24-.382-.404-.382-.327 0-.6.284-.6.633 0 .502.546.72 1.026.72.72 0 1.113-.764 1.145-.83.131.405.524.83 1.178.83 1.124 0 1.746-1.407 1.746-1.68 0-.11-.098-.11-.131-.11-.098 0-.12.045-.142.12-.36 1.168-1.102 1.43-1.45 1.43-.426 0-.6-.35-.6-.72 0-.24.065-.48.185-.96l.37-1.495z" id="e"/><path d="M4.462-2.51h3.043c.153 0 .36 0 .36-.217s-.207-.218-.36-.218H4.462V-6c0-.153 0-.36-.218-.36s-.219.207-.219.36v3.055H.971c-.153 0-.36 0-.36.218s.207.218.36.218h3.054V.545c0 .153 0 .36.219.36s.218-.207.218-.36v-3.054z" id="d"/><path d="M1.385-.84l1.157-1.124c1.702-1.505 2.356-2.094 2.356-3.185 0-1.244-.982-2.116-2.313-2.116a2.016 2.016 0 0 0-2.04 1.974c0 .611.546.611.579.611.185 0 .567-.13.567-.578a.552.552 0 0 0-.578-.567c-.088 0-.11 0-.142.01.25-.709.84-1.112 1.473-1.112.992 0 1.461.883 1.461 1.778 0 .873-.545 1.734-1.145 2.41L.665-.403c-.12.12-.12.142-.12.404h4.048l.305-1.898h-.273c-.054.327-.13.807-.24.97C4.31-.84 3.59-.84 3.35-.84H1.385z" id="h"/><path d="M3.13-2.564c.328-.414.743-.949 1.005-1.232.338-.393.785-.557 1.298-.568v-.338c-.284.022-.611.033-.895.033-.327 0-.905-.022-1.047-.033v.338c.229.022.316.164.316.339s-.109.316-.163.381l-.677.851-.85-1.102c-.099-.109-.099-.13-.099-.196 0-.164.164-.262.382-.273v-.338a58.51 58.51 0 0 1-1.178.033c-.23 0-.742-.011-1.037-.033v.338c.764 0 .775.011 1.288.666l1.08 1.407L1.527-.993a1.746 1.746 0 0 1-1.396.655V0c.284-.022.622-.033.905-.033.317 0 .775.022 1.037.033v-.338c-.24-.033-.317-.175-.317-.338 0-.24.317-.6.982-1.386l.83 1.091c.087.12.228.295.228.36 0 .098-.098.262-.392.273V0c.327-.01.938-.033 1.178-.033.294 0 .72.011 1.047.033v-.338c-.589 0-.785-.022-1.036-.338L3.13-2.564z" id="a"/><path d="M3.897-2.542c0-.853-.087-1.371-.35-1.881-.351-.702-.997-.877-1.435-.877-1.004 0-1.37.75-1.482.972-.287.582-.303 1.371-.303 1.786 0 .526.024 1.33.406 1.968.367.59.957.741 1.38.741.382 0 1.067-.12 1.466-.908.294-.574.318-1.283.318-1.801zM2.112-.056c-.27 0-.82-.127-.988-.964-.088-.454-.088-1.204-.088-1.618 0-.55 0-1.108.088-1.546.167-.813.789-.893.988-.893.271 0 .821.136.98.86.096.44.096 1.037.096 1.579 0 .47 0 1.187-.096 1.634-.167.837-.717.948-.98.948z" id="c"/><path d="M2.503-5.077c0-.215-.016-.223-.232-.223-.326.319-.749.51-1.506.51v.263c.215 0 .646 0 1.108-.215v4.088c0 .295-.024.391-.781.391H.813V0c.327-.024 1.012-.024 1.37-.024s1.053 0 1.38.024v-.263h-.28c-.756 0-.78-.096-.78-.39v-4.424z" id="f"/><path d="M2.248-1.626c.127-.12.462-.382.59-.494.494-.454.964-.893.964-1.618 0-.948-.797-1.562-1.794-1.562-.956 0-1.586.725-1.586 1.434 0 .391.311.447.423.447a.41.41 0 0 0 .414-.423c0-.414-.398-.414-.494-.414a1.232 1.232 0 0 1 1.156-.781c.741 0 1.124.63 1.124 1.299 0 .829-.582 1.435-1.523 2.399L.518-.303C.422-.215.422-.199.422 0h3.149l.23-1.427h-.246c-.024.16-.088.558-.184.71-.047.063-.653.063-.78.063H1.17l1.077-.972z" id="b"/></defs><g transform="matrix(1.13 0 0 1.13 -80.23 -67.676)"><use x="70.735" xlink:href="#a" y="68.742"/><use x="76.471" xlink:href="#b" y="64.783"/><use x="76.471" xlink:href="#c" y="71.665"/><use x="83.627" xlink:href="#d" y="68.742"/><use x="94.505" xlink:href="#e" y="68.742"/><use x="100.716" xlink:href="#b" y="64.783"/><use x="100.716" xlink:href="#f" y="71.665"/><use x="108.479" xlink:href="#g" y="68.742"/><use x="119.962" xlink:href="#h" y="68.742"/></g></svg>