<svg height="17.187" viewBox="-0.3 -0.257 85.82 12.89" width="114.427" xmlns="http://www.w3.org/2000/svg" xmlns:xlink="http://www.w3.org/1999/xlink"><defs><path d="M4.593 5.825L.72 10.615c-.087.109-.098.13-.098.174 0 .12.098.12.294.12H9.96l.938-2.716h-.272c-.273.818-1.004 1.483-1.931 1.8-.175.054-.928.316-2.531.316H1.527l3.786-4.68c.076-.098.098-.13.098-.174S5.4 5.4 5.335 5.302L1.789.436h4.32c1.244 0 3.753.077 4.517 2.117h.272L9.96 0H.916C.622 0 .611.01.611.35l3.982 5.475z" id="g"/><path d="M3.092-4.822c.072-.27.088-.359.821-.359.223 0 .303 0 .303-.151 0-.016-.016-.112-.135-.112-.168 0-.407.016-.574.024h-.574c-.829 0-1.02-.024-1.076-.024-.032 0-.16 0-.16.152 0 .111.104.111.232.111.263 0 .494 0 .494.128 0 .032-.008.04-.032.143L1.323-.63c-.072.303-.088.367-.677.367-.152 0-.247 0-.247.151C.399 0 .502 0 .638 0h3.85c.198 0 .206-.008.27-.16.08-.223.662-1.72.662-1.8 0-.072-.064-.112-.12-.112-.088 0-.103.056-.16.175-.286.741-.629 1.634-2.056 1.634H2.072c-.071-.016-.095-.016-.095-.072 0-.064.016-.127.031-.175l1.084-4.312z" id="d"/><path d="M2.375-4.973c0-.176-.127-.303-.31-.303-.208 0-.44.191-.44.43 0 .176.128.303.312.303.207 0 .438-.191.438-.43zM1.211-2.048l-.43 1.1c-.04.12-.08.215-.08.35 0 .39.303.678.726.678.773 0 1.1-1.116 1.1-1.22 0-.08-.064-.103-.12-.103-.096 0-.112.055-.136.135-.183.638-.51.965-.828.965-.096 0-.192-.04-.192-.256 0-.19.056-.334.16-.581.08-.216.16-.43.247-.646l.247-.645c.072-.184.167-.43.167-.566 0-.399-.319-.678-.725-.678-.773 0-1.108 1.116-1.108 1.22 0 .071.056.103.12.103.103 0 .111-.048.135-.127.223-.757.59-.973.829-.973.112 0 .191.04.191.263 0 .08-.008.192-.087.43l-.216.55z" id="h"/><path d="M2.503-5.077c0-.215-.016-.223-.232-.223-.326.319-.749.51-1.506.51v.263c.215 0 .646 0 1.108-.215v4.088c0 .295-.024.391-.781.391H.813V0c.327-.024 1.012-.024 1.37-.024s1.053 0 1.38.024v-.263h-.28c-.756 0-.78-.096-.78-.39v-4.424z" id="e"/><path d="M5.04-3.698c.055-.24.164-.644.164-.71 0-.196-.153-.294-.317-.294a.446.446 0 0 0-.403.306c-.033.076-.546 2.16-.622 2.443a2.984 2.984 0 0 0-.098.72c0 .12 0 .142.01.197-.25.578-.578.916-1.003.916-.873 0-.873-.807-.873-.993 0-.349.055-.774.567-2.116.12-.327.186-.48.186-.698 0-.491-.36-.895-.895-.895-1.036 0-1.44 1.582-1.44 1.68 0 .11.11.11.131.11.11 0 .12-.023.175-.197.294-1.015.72-1.353 1.102-1.353.098 0 .272.011.272.36 0 .273-.12.578-.196.764-.48 1.287-.61 1.789-.61 2.203C1.19-.262 1.92.12 2.737.12c.186 0 .698 0 1.135-.764.283.699 1.036.764 1.363.764.819 0 1.299-.687 1.582-1.342.371-.85.72-2.313.72-2.836 0-.6-.294-.764-.48-.764-.273 0-.545.284-.545.524 0 .142.065.207.163.294.12.12.393.404.393.928 0 .37-.316 1.44-.6 1.996-.284.578-.665.96-1.2.96-.513 0-.807-.327-.807-.95 0-.305.076-.643.12-.795l.458-1.833z" id="j"/><path d="M1.735-7.79c0-.195 0-.392-.219-.392s-.218.197-.218.393V2.335c0 .196 0 .392.218.392s.219-.196.219-.392V-7.79z" id="i"/><path d="M7.495-3.567c.163 0 .37 0 .37-.218s-.207-.219-.36-.219H.971c-.153 0-.36 0-.36.219s.207.218.37.218h6.514zm.01 2.116c.153 0 .36 0 .36-.218s-.207-.218-.37-.218H.982c-.164 0-.371 0-.371.218s.207.218.36.218h6.534z" id="f"/><path d="M1.93-7.57l-1.57.12v.337c.764 0 .85.077.85.611v5.673c0 .49-.12.49-.85.49V0c.36-.01.938-.033 1.21-.033S2.379-.01 2.783 0v-.338c-.731 0-.851 0-.851-.491v-6.742z" id="a"/><path d="M5.138-2.335c0-1.396-1.09-2.552-2.41-2.552-1.364 0-2.423 1.189-2.423 2.552A2.435 2.435 0 0 0 2.716.12a2.43 2.43 0 0 0 2.422-2.455zM2.728-.153c-.47 0-.95-.229-1.244-.73-.273-.48-.273-1.146-.273-1.539 0-.425 0-1.014.262-1.494.294-.502.807-.731 1.243-.731.48 0 .95.24 1.233.709s.284 1.102.284 1.516c0 .393 0 .982-.24 1.462-.24.49-.72.807-1.266.807z" id="b"/><path d="M2.27-2.116c.24.043 1.134.218 1.134 1.003 0 .557-.382.993-1.233.993C1.255-.12.86-.742.655-1.67.622-1.81.61-1.854.502-1.854c-.142 0-.142.077-.142.273v1.44C.36.044.36.12.48.12.535.12.545.11.753-.098.775-.12.775-.142.97-.35c.48.458.97.469 1.2.469 1.254 0 1.756-.73 1.756-1.516 0-.579-.327-.906-.458-1.037-.36-.349-.785-.436-1.244-.523-.61-.12-1.341-.262-1.341-.895 0-.382.283-.829 1.221-.829 1.2 0 1.255.982 1.277 1.32.01.098.109.098.13.098.143 0 .143-.054.143-.262v-1.101c0-.186 0-.262-.12-.262-.055 0-.077 0-.219.13a1.405 1.405 0 0 1-.185.175c-.415-.305-.862-.305-1.026-.305-1.33 0-1.745.73-1.745 1.342 0 .381.175.687.47.927.348.283.654.349 1.44.502z" id="c"/></defs><g transform="matrix(1.13 0 0 1.13 -80.23 -68.69)"><use x="70.735" xlink:href="#a" y="68.742"/><use x="73.754" xlink:href="#b" y="68.742"/><use x="79.188" xlink:href="#c" y="68.742"/><use x="83.475" xlink:href="#c" y="68.742"/><use x="87.762" xlink:href="#d" y="70.431"/><use x="93.499" xlink:href="#e" y="70.431"/><use x="101.283" xlink:href="#f" y="68.742"/><use x="112.767" xlink:href="#g" y="60.56"/><use x="124.282" xlink:href="#h" y="71.968"/><use x="129.481" xlink:href="#i" y="68.742"/><use x="132.5" xlink:href="#j" y="68.742"/><use x="140.281" xlink:href="#h" y="70.379"/><use x="143.663" xlink:href="#i" y="68.742"/></g></svg>