<svg height="15.761" viewBox="-0.3 -0.26 70.204 11.821" width="93.606" xmlns="http://www.w3.org/2000/svg" xmlns:xlink="http://www.w3.org/1999/xlink"><defs><path d="M2.381-6.804c0-.01 0-.11-.13-.11-.229 0-.956.08-1.215.1-.08.01-.19.02-.19.199 0 .12.09.12.24.12.478 0 .498.07.498.169 0 .07-.09.408-.14.617L.629-2.46c-.12.498-.16.658-.16 1.006C.468-.508.996.11 1.733.11c1.176 0 2.401-1.485 2.401-2.92 0-.906-.528-1.593-1.325-1.593-.458 0-.866.288-1.165.597l.737-2.998zM1.445-3.04c.06-.219.06-.239.149-.348.488-.648.937-.797 1.196-.797.358 0 .627.299.627.936 0 .588-.329 1.734-.508 2.112C2.58-.468 2.122-.11 1.734-.11c-.34 0-.668-.269-.668-1.006 0-.19 0-.378.16-1.006l.219-.917z" id="h"/><path d="M4.603-3.377c.05-.22.15-.588.15-.648 0-.18-.14-.269-.29-.269-.12 0-.299.08-.368.28-.03.069-.498 1.972-.568 2.23-.07.3-.09.479-.09.658 0 .11 0 .13.01.18-.23.528-.528.836-.916.836-.798 0-.798-.737-.798-.906 0-.319.05-.708.519-1.933.11-.299.169-.438.169-.638a.796.796 0 0 0-.817-.816C.658-4.403.289-2.96.289-2.87c0 .1.1.1.12.1.1 0 .11-.02.159-.18.269-.926.657-1.235 1.006-1.235.09 0 .25.01.25.328 0 .25-.11.528-.18.698-.439 1.175-.558 1.634-.558 2.012C1.086-.239 1.753.11 2.5.11c.169 0 .637 0 1.036-.698.259.638.946.698 1.245.698.747 0 1.186-.628 1.445-1.226.338-.777.657-2.112.657-2.59 0-.548-.269-.697-.438-.697-.25 0-.498.259-.498.478 0 .13.06.189.15.269.109.11.358.368.358.847 0 .338-.29 1.315-.548 1.823-.26.528-.608.876-1.096.876-.468 0-.737-.298-.737-.866 0-.28.07-.588.11-.728l.418-1.673z" id="f"/><path d="M3.328-3.009c.06-.259.288-1.175.986-1.175.05 0 .289 0 .498.13-.279.049-.478.298-.478.537 0 .16.11.349.378.349.22 0 .538-.18.538-.578 0-.518-.587-.657-.926-.657-.578 0-.927.528-1.046.757-.25-.658-.787-.757-1.076-.757C1.166-4.403.598-3.118.598-2.87c0 .1.1.1.12.1.079 0 .109-.02.129-.11.339-1.056.996-1.305 1.335-1.305.19 0 .538.09.538.667 0 .309-.17.977-.538 2.371-.16.618-.508 1.036-.947 1.036-.06 0-.289 0-.498-.13.25-.049.468-.258.468-.537 0-.27-.219-.349-.368-.349-.299 0-.548.26-.548.578 0 .458.498.658.936.658.658 0 1.017-.698 1.046-.758A1.1 1.1 0 0 0 3.347.11c1.027 0 1.594-1.286 1.594-1.535 0-.1-.09-.1-.12-.1-.089 0-.109.04-.129.11C4.364-.349 3.686-.11 3.367-.11c-.388 0-.548-.318-.548-.657 0-.22.06-.438.17-.877l.339-1.365z" id="e"/><path d="M4.194 5.32L.658 9.694c-.08.1-.09.12-.09.159 0 .11.09.11.269.11h8.259l.857-2.481h-.25c-.248.747-.916 1.355-1.763 1.644-.16.05-.847.289-2.311.289H1.395L4.852 5.14c.07-.09.09-.12.09-.16s-.01-.05-.07-.14L1.634.4h3.945c1.136 0 3.427.07 4.125 1.932h.249L9.096 0H.836C.569 0 .559.01.559.319L4.194 5.32z" id="c"/><path d="M2.26-4.359a.267.267 0 0 0-.28-.265c-.188 0-.39.182-.39.384 0 .118.09.265.279.265.202 0 .39-.195.39-.384zM.837-.816c-.028.09-.063.174-.063.293 0 .328.279.593.663.593.697 0 1.004-.963 1.004-1.067 0-.09-.09-.09-.112-.09-.097 0-.104.04-.132.118-.16.558-.467.843-.74.843-.139 0-.174-.09-.174-.244 0-.16.049-.293.112-.446.07-.188.146-.377.223-.558.063-.167.314-.802.342-.886A.84.84 0 0 0 2-2.483c0-.327-.278-.592-.662-.592-.69 0-1.011.948-1.011 1.067 0 .09.097.09.118.09.098 0 .105-.035.126-.111.181-.6.488-.851.746-.851.112 0 .174.056.174.244 0 .16-.041.265-.216.697L.836-.816z" id="d"/><path d="M3.298 2.391c0-.03 0-.05-.17-.22C1.883.918 1.564-.965 1.564-2.49c0-1.733.379-3.467 1.604-4.712.13-.12.13-.14.13-.17 0-.07-.04-.099-.1-.099-.1 0-.996.677-1.584 1.943C1.106-4.433.986-3.328.986-2.491c0 .777.11 1.983.658 3.109.598 1.225 1.454 1.873 1.554 1.873.06 0 .1-.03.1-.1z" id="b"/><path d="M2.88-2.49c0-.778-.11-1.983-.658-3.109C1.624-6.824.767-7.472.667-7.472c-.06 0-.1.04-.1.1 0 .03 0 .05.19.229.977.986 1.544 2.57 1.544 4.652 0 1.704-.368 3.457-1.604 4.713-.13.12-.13.14-.13.169 0 .06.04.1.1.1.1 0 .997-.678 1.585-1.943.508-1.096.627-2.202.627-3.039z" id="i"/><path d="M4.075-2.291h2.78c.139 0 .328 0 .328-.2s-.19-.199-.329-.199h-2.78v-2.79c0-.139 0-.328-.199-.328s-.199.19-.199.329v2.79H.886c-.139 0-.328 0-.328.198s.19.2.329.2h2.79v2.79c0 .139 0 .328.198.328s.2-.19.2-.329v-2.79z" id="g"/><path d="M1.743-4.294V-5.45c0-.876.479-1.354.917-1.354.03 0 .18 0 .329.07a.437.437 0 0 0-.3.418c0 .229.16.428.43.428.288 0 .438-.2.438-.438 0-.369-.369-.698-.897-.698-.697 0-1.544.528-1.544 1.584v1.146H.329v.309h.787v3.228c0 .448-.11.448-.777.448V0c.388-.01.857-.03 1.135-.03.399 0 .867 0 1.266.03v-.309h-.21c-.737 0-.757-.11-.757-.468v-3.208H2.91v-.309H1.743z" id="a"/></defs><g transform="matrix(1.13 0 0 1.13 -80.23 -69.495)"><use x="70.735" xlink:href="#a" y="68.742"/><use x="73.767" xlink:href="#b" y="68.742"/><use x="77.642" xlink:href="#c" y="61.27"/><use x="88.158" xlink:href="#d" y="71.731"/><use x="93.135" xlink:href="#e" y="68.742"/><use x="98.808" xlink:href="#d" y="70.237"/><use x="102.125" xlink:href="#f" y="68.742"/><use x="109.231" xlink:href="#d" y="70.237"/><use x="114.809" xlink:href="#g" y="68.742"/><use x="124.743" xlink:href="#h" y="68.742"/><use x="129.003" xlink:href="#i" y="68.742"/></g></svg>