<svg height="17.187" viewBox="-0.3 -0.257 91.223 12.89" width="121.631" xmlns="http://www.w3.org/2000/svg" xmlns:xlink="http://www.w3.org/1999/xlink"><defs><path d="M4.593 5.825L.72 10.615c-.087.109-.098.13-.098.174 0 .12.098.12.294.12H9.96l.938-2.716h-.272c-.273.818-1.004 1.483-1.931 1.8-.175.054-.928.316-2.531.316H1.527l3.786-4.68c.076-.098.098-.13.098-.174S5.4 5.4 5.335 5.302L1.789.436h4.32c1.244 0 3.753.077 4.517 2.117h.272L9.96 0H.916C.622 0 .611.01.611.35l3.982 5.475z" id="e"/><path d="M2.215-.01c0-.72-.273-1.146-.699-1.146a.561.561 0 0 0-.578.578c0 .294.218.578.578.578.131 0 .273-.044.382-.142.033-.022.044-.033.055-.033s.022.011.022.164c0 .807-.382 1.462-.742 1.822-.12.12-.12.142-.12.174 0 .077.054.12.109.12.12 0 .993-.84.993-2.116z" id="j"/><path d="M4.004-4.364h.938c.218 0 .327 0 .327-.218 0-.12-.109-.12-.294-.12h-.906l.23-1.243c.043-.23.196-1.004.261-1.135.098-.207.284-.37.513-.37.043 0 .327 0 .534.195a.604.604 0 0 0-.589.59c0 .25.197.381.404.381.283 0 .6-.24.6-.654 0-.502-.502-.753-.95-.753-.37 0-1.057.196-1.385 1.276-.065.23-.098.339-.36 1.713h-.752c-.208 0-.328 0-.328.207 0 .131.098.131.306.131h.72l-.818 4.31c-.197 1.058-.382 2.05-.95 2.05-.043 0-.316 0-.523-.196a.592.592 0 0 0 .6-.59c0-.25-.197-.38-.404-.38-.283 0-.6.24-.6.654 0 .49.48.752.927.752.6 0 1.037-.643 1.233-1.058.35-.687.6-2.007.611-2.083l.655-3.459z" id="g"/><path d="M5.302-4.156c.043-.153.043-.175.043-.251 0-.197-.152-.295-.316-.295a.474.474 0 0 0-.382.23c-.022.054-.109.392-.152.588a20.41 20.41 0 0 0-.219.873l-.49 1.964c-.044.163-.513.927-1.233.927-.557 0-.677-.48-.677-.884 0-.501.186-1.178.557-2.138.174-.447.218-.567.218-.785 0-.491-.35-.895-.895-.895-1.036 0-1.44 1.582-1.44 1.68 0 .11.11.11.131.11.11 0 .12-.023.175-.197.294-1.026.73-1.353 1.102-1.353.087 0 .272 0 .272.35 0 .272-.109.556-.185.763-.436 1.156-.633 1.778-.633 2.29C1.178-.206 1.865.12 2.51.12c.426 0 .796-.185 1.102-.49-.142.566-.273 1.1-.71 1.68-.283.37-.697.686-1.2.686-.152 0-.643-.032-.828-.458.174 0 .316 0 .469-.13A.59.59 0 0 0 1.56.96c0-.338-.295-.382-.404-.382-.25 0-.61.175-.61.71 0 .545.48.948 1.156.948 1.123 0 2.247-.992 2.553-2.225l1.047-4.167z" id="i"/><path d="M3.61 2.618c0-.033 0-.054-.185-.24-1.363-1.374-1.712-3.436-1.712-5.105 0-1.898.414-3.797 1.756-5.16.142-.131.142-.153.142-.186 0-.076-.044-.109-.11-.109-.108 0-1.09.742-1.734 2.127-.556 1.2-.687 2.411-.687 3.328 0 .85.12 2.17.72 3.403.655 1.342 1.593 2.051 1.702 2.051.065 0 .109-.032.109-.109z" id="h"/><path d="M3.153-2.727c0-.851-.12-2.171-.72-3.404C1.778-7.473.84-8.18.73-8.18c-.066 0-.11.043-.11.108 0 .033 0 .055.208.251C1.9-6.742 2.52-5.007 2.52-2.727c0 1.865-.404 3.785-1.756 5.16-.142.13-.142.152-.142.185 0 .066.043.11.109.11.109 0 1.09-.743 1.734-2.128.557-1.2.688-2.41.688-3.327z" id="k"/><path d="M7.495-3.567c.163 0 .37 0 .37-.218s-.207-.219-.36-.219H.971c-.153 0-.36 0-.36.219s.207.218.37.218h6.514zm.01 2.116c.153 0 .36 0 .36-.218s-.207-.218-.37-.218H.982c-.164 0-.371 0-.371.218s.207.218.36.218h6.534z" id="d"/><path d="M1.93-7.57l-1.57.12v.337c.764 0 .85.077.85.611v5.673c0 .49-.12.49-.85.49V0c.36-.01.938-.033 1.21-.033S2.379-.01 2.783 0v-.338c-.731 0-.851 0-.851-.491v-6.742z" id="a"/><path d="M5.138-2.335c0-1.396-1.09-2.552-2.41-2.552-1.364 0-2.423 1.189-2.423 2.552A2.435 2.435 0 0 0 2.716.12a2.43 2.43 0 0 0 2.422-2.455zM2.728-.153c-.47 0-.95-.229-1.244-.73-.273-.48-.273-1.146-.273-1.539 0-.425 0-1.014.262-1.494.294-.502.807-.731 1.243-.731.48 0 .95.24 1.233.709s.284 1.102.284 1.516c0 .393 0 .982-.24 1.462-.24.49-.72.807-1.266.807z" id="b"/><path d="M2.27-2.116c.24.043 1.134.218 1.134 1.003 0 .557-.382.993-1.233.993C1.255-.12.86-.742.655-1.67.622-1.81.61-1.854.502-1.854c-.142 0-.142.077-.142.273v1.44C.36.044.36.12.48.12.535.12.545.11.753-.098.775-.12.775-.142.97-.35c.48.458.97.469 1.2.469 1.254 0 1.756-.73 1.756-1.516 0-.579-.327-.906-.458-1.037-.36-.349-.785-.436-1.244-.523-.61-.12-1.341-.262-1.341-.895 0-.382.283-.829 1.221-.829 1.2 0 1.255.982 1.277 1.32.01.098.109.098.13.098.143 0 .143-.054.143-.262v-1.101c0-.186 0-.262-.12-.262-.055 0-.077 0-.219.13a1.405 1.405 0 0 1-.185.175c-.415-.305-.862-.305-1.026-.305-1.33 0-1.745.73-1.745 1.342 0 .381.175.687.47.927.348.283.654.349 1.44.502z" id="c"/><path d="M1.594-1.307c.024-.12.104-.423.128-.542.111-.43.111-.438.294-.701.263-.391.638-.742 1.172-.742.287 0 .454.168.454.542 0 .439-.334 1.347-.486 1.738-.103.263-.103.31-.103.414 0 .455.374.678.717.678.78 0 1.108-1.116 1.108-1.22 0-.08-.064-.103-.12-.103-.095 0-.111.055-.135.135-.192.654-.526.965-.83.965-.127 0-.19-.08-.19-.263s.063-.36.143-.558c.12-.303.47-1.22.47-1.666 0-.598-.414-.885-.988-.885-.646 0-1.06.39-1.291.694-.056-.439-.407-.694-.813-.694-.287 0-.486.183-.614.43a3.148 3.148 0 0 0-.27.79c0 .071.055.103.119.103.103 0 .111-.032.167-.239.096-.39.24-.86.574-.86.207 0 .255.199.255.374 0 .143-.04.295-.104.558a43.13 43.13 0 0 1-.167.645L.789-.518c-.032.12-.08.319-.08.35C.71.017.861.08.964.08a.385.385 0 0 0 .32-.192c.023-.047.087-.318.127-.486l.183-.71z" id="f"/></defs><g transform="matrix(1.13 0 0 1.13 -80.23 -68.69)"><use x="70.735" xlink:href="#a" y="68.742"/><use x="73.754" xlink:href="#b" y="68.742"/><use x="79.188" xlink:href="#c" y="68.742"/><use x="83.475" xlink:href="#c" y="68.742"/><use x="87.826" xlink:href="#d" y="68.742"/><use x="96.279" xlink:href="#e" y="60.56"/><use x="107.794" xlink:href="#f" y="71.968"/><use x="115.249" xlink:href="#g" y="68.742"/><use x="123.562" xlink:href="#h" y="68.742"/><use x="127.804" xlink:href="#i" y="68.742"/><path d="M133.641 69.98h2.541v.399h-2.541z"/><use x="136.68" xlink:href="#j" y="68.742"/><use x="141.517" xlink:href="#i" y="68.742"/><use x="147.237" xlink:href="#k" y="68.742"/></g></svg>