<svg height="16.421" viewBox="-0.3 -0.257 127.247 12.316" width="169.663" xmlns="http://www.w3.org/2000/svg" xmlns:xlink="http://www.w3.org/1999/xlink"><defs><path d="M4.593 5.825L.72 10.615c-.087.109-.098.13-.098.174 0 .12.098.12.294.12H9.96l.938-2.716h-.272c-.273.818-1.004 1.483-1.931 1.8-.175.054-.928.316-2.531.316H1.527l3.786-4.68c.076-.098.098-.13.098-.174S5.4 5.4 5.335 5.302L1.789.436h4.32c1.244 0 3.753.077 4.517 2.117h.272L9.96 0H.916C.622 0 .611.01.611.35l3.982 5.475z" id="h"/><path d="M2.215-.01c0-.72-.273-1.146-.699-1.146a.561.561 0 0 0-.578.578c0 .294.218.578.578.578.131 0 .273-.044.382-.142.033-.022.044-.033.055-.033s.022.011.022.164c0 .807-.382 1.462-.742 1.822-.12.12-.12.142-.12.174 0 .077.054.12.109.12.12 0 .993-.84.993-2.116z" id="d"/><path d="M5.302-4.156c.043-.153.043-.175.043-.251 0-.197-.152-.295-.316-.295a.474.474 0 0 0-.382.23c-.022.054-.109.392-.152.588a20.41 20.41 0 0 0-.219.873l-.49 1.964c-.044.163-.513.927-1.233.927-.557 0-.677-.48-.677-.884 0-.501.186-1.178.557-2.138.174-.447.218-.567.218-.785 0-.491-.35-.895-.895-.895-1.036 0-1.44 1.582-1.44 1.68 0 .11.11.11.131.11.11 0 .12-.023.175-.197.294-1.026.73-1.353 1.102-1.353.087 0 .272 0 .272.35 0 .272-.109.556-.185.763-.436 1.156-.633 1.778-.633 2.29C1.178-.206 1.865.12 2.51.12c.426 0 .796-.185 1.102-.49-.142.566-.273 1.1-.71 1.68-.283.37-.697.686-1.2.686-.152 0-.643-.032-.828-.458.174 0 .316 0 .469-.13A.59.59 0 0 0 1.56.96c0-.338-.295-.382-.404-.382-.25 0-.61.175-.61.71 0 .545.48.948 1.156.948 1.123 0 2.247-.992 2.553-2.225l1.047-4.167z" id="c"/><path d="M3.61 2.618c0-.033 0-.054-.185-.24-1.363-1.374-1.712-3.436-1.712-5.105 0-1.898.414-3.797 1.756-5.16.142-.131.142-.153.142-.186 0-.076-.044-.109-.11-.109-.108 0-1.09.742-1.734 2.127-.556 1.2-.687 2.411-.687 3.328 0 .85.12 2.17.72 3.403.655 1.342 1.593 2.051 1.702 2.051.065 0 .109-.032.109-.109z" id="b"/><path d="M3.153-2.727c0-.851-.12-2.171-.72-3.404C1.778-7.473.84-8.18.73-8.18c-.066 0-.11.043-.11.108 0 .033 0 .055.208.251C1.9-6.742 2.52-5.007 2.52-2.727c0 1.865-.404 3.785-1.756 5.16-.142.13-.142.152-.142.185 0 .066.043.11.109.11.109 0 1.09-.743 1.734-2.128.557-1.2.688-2.41.688-3.327z" id="e"/><path d="M7.495-3.567c.163 0 .37 0 .37-.218s-.207-.219-.36-.219H.971c-.153 0-.36 0-.36.219s.207.218.37.218h6.514zm.01 2.116c.153 0 .36 0 .36-.218s-.207-.218-.37-.218H.982c-.164 0-.371 0-.371.218s.207.218.36.218h6.534z" id="f"/><path d="M6.687-6.6c0-.393.022-.513.862-.513h.262v-.338c-.382.033-1.19.033-1.604.033s-1.232 0-1.614-.033v.338h.262c.84 0 .861.12.861.513v2.553H2.455V-6.6c0-.393.021-.513.861-.513h.262v-.338c-.382.033-1.189.033-1.603.033s-1.233 0-1.615-.033v.338h.262c.84 0 .862.12.862.513v5.75c0 .392-.022.512-.862.512H.36V0c.382-.033 1.19-.033 1.604-.033s1.232 0 1.614.033v-.338h-.262c-.84 0-.861-.12-.861-.513v-2.858h3.261v2.858c0 .393-.021.513-.861.513h-.262V0c.382-.033 1.189-.033 1.603-.033s1.233 0 1.615.033v-.338h-.262c-.84 0-.862-.12-.862-.513V-6.6z" id="a"/><path d="M2.422-1.876c-.95 0-.95-1.091-.95-1.342 0-.295.012-.644.175-.917.088-.13.338-.436.775-.436.949 0 .949 1.091.949 1.342 0 .294-.011.644-.175.916-.087.131-.338.437-.774.437zm-1.266.425c0-.044 0-.294.186-.513.425.306.873.339 1.08.339 1.014 0 1.767-.753 1.767-1.593 0-.404-.174-.807-.447-1.058.393-.371.785-.426.982-.426a.41.41 0 0 1 .109.011c-.12.044-.175.164-.175.295a.31.31 0 0 0 .317.316c.109 0 .316-.076.316-.327a.534.534 0 0 0-.556-.535c-.219 0-.699.066-1.157.513a1.82 1.82 0 0 0-1.156-.393c-1.015 0-1.767.753-1.767 1.593 0 .48.24.894.512 1.124A1.507 1.507 0 0 0 .83-1.2c0 .338.142.753.48.97C.655-.043.305.426.305.863c0 .785 1.08 1.385 2.411 1.385 1.288 0 2.422-.556 2.422-1.407 0-.382-.153-.938-.709-1.244-.578-.305-1.21-.305-1.876-.305-.273 0-.742 0-.818-.011-.35-.044-.579-.382-.579-.73zm1.571 3.447C1.625 1.996.873 1.44.873.862c0-.502.414-.906.894-.938h.644c.938 0 2.16 0 2.16.938 0 .589-.775 1.134-1.844 1.134z" id="l"/><path d="M1.93-7.57l-1.57.12v.337c.764 0 .85.077.85.611v5.673c0 .49-.12.49-.85.49V0c.36-.01.938-.033 1.21-.033S2.379-.01 2.783 0v-.338c-.731 0-.851 0-.851-.491v-6.742z" id="j"/><path d="M5.138-2.335c0-1.396-1.09-2.552-2.41-2.552-1.364 0-2.423 1.189-2.423 2.552A2.435 2.435 0 0 0 2.716.12a2.43 2.43 0 0 0 2.422-2.455zM2.728-.153c-.47 0-.95-.229-1.244-.73-.273-.48-.273-1.146-.273-1.539 0-.425 0-1.014.262-1.494.294-.502.807-.731 1.243-.731.48 0 .95.24 1.233.709s.284 1.102.284 1.516c0 .393 0 .982-.24 1.462-.24.49-.72.807-1.266.807z" id="k"/><path d="M7.19-2.51c.185 0 .38 0 .38-.217s-.195-.218-.38-.218H1.286c-.185 0-.382 0-.382.218s.197.218.382.218H7.19z" id="g"/><path d="M2.095-2.727c0-.317-.262-.578-.579-.578s-.578.261-.578.578.262.578.578.578.579-.262.579-.578z" id="i"/></defs><g transform="matrix(1.13 0 0 1.13 -80.23 -68.69)"><use x="70.735" xlink:href="#a" y="68.742"/><use x="78.886" xlink:href="#b" y="68.742"/><use x="83.129" xlink:href="#c" y="68.742"/><path d="M88.965 69.98h2.541v.399h-2.541z"/><use x="92.004" xlink:href="#d" y="68.742"/><use x="96.841" xlink:href="#c" y="68.742"/><use x="102.561" xlink:href="#e" y="68.742"/><use x="109.885" xlink:href="#f" y="68.742"/><use x="121.368" xlink:href="#g" y="68.742"/><use x="131.64" xlink:href="#h" y="60.56"/><use x="144.973" xlink:href="#c" y="68.742"/><path d="M150.809 69.98h2.541v.399h-2.541z"/><use x="156.272" xlink:href="#i" y="68.742"/><use x="161.716" xlink:href="#j" y="68.742"/><use x="164.734" xlink:href="#k" y="68.742"/><use x="170.169" xlink:href="#l" y="68.742"/><use x="177.625" xlink:href="#c" y="68.742"/></g></svg>