<svg id="图层_1" xmlns="http://www.w3.org/2000/svg" xmlns:xlink="http://www.w3.org/1999/xlink" height="253" width="355"><style>.st2{stroke:#000}</style><g id="axes_1"><path class="st2" d="M345 213.4l-16.7 5.4 5-5.4H10.2h323.1l-5-5.4 16.7 5.4z" id="patch_3"/><path class="st2" d="M253.7 5.3l5.5 16.6-5.5-5v205.9h-.1V16.9l-5.5 5 5.6-16.6z" id="patch_4"/><g id="matplotlib.axis_1"><g id="xtick_1"><g id="text_1"><g transform="matrix(.1 0 0 -.1 214.029 266.598)"><path id="DejaVuSans-8722" d="M-427.2 327.9h62.6v-8.3h-62.6v8.3z"/></g><g transform="matrix(.1 0 0 -.1 214.029 266.598)"><path id="DejaVuSans-49" d="M-341.6 300.7h16.1v55.6l-17.5-3.5v9l17.4 3.5h9.9v-64.6h16.1v-8.3h-42v8.3z"/></g></g></g><g id="xtick_2"><g transform="matrix(.1 0 0 -.1 294.31 266.598)" id="text_2"><path id="DejaVuSans-48" d="M-406 358.8c-5.1 0-8.9-2.5-11.5-7.5-2.6-5-3.8-12.5-3.8-22.5s1.3-17.5 3.8-22.5c2.6-5 6.4-7.5 11.5-7.5s8.9 2.5 11.5 7.5c2.6 5 3.8 12.5 3.8 22.5s-1.3 17.5-3.8 22.5c-2.6 5-6.4 7.5-11.5 7.5zm0 7.8c8.2 0 14.4-3.2 18.7-9.7 4.3-6.5 6.5-15.8 6.5-28.1s-2.2-21.6-6.5-28.1-10.6-9.7-18.7-9.7c-8.2 0-14.4 3.2-18.7 9.7-4.3 6.5-6.5 15.8-6.5 28.1s2.2 21.7 6.5 28.1c4.3 6.5 10.5 9.7 18.7 9.7z"/></g></g></g><g id="matplotlib.axis_2"><g id="ytick_1"><g id="line2d_1"><path id="m92a44504de" d="M253.7 163.9h-3.5" stroke="#000" stroke-width=".8" stroke-linejoin="round"/></g><g transform="matrix(.1 0 0 -.1 284.128 196.91)" id="text_4"><path id="DejaVuSans-49_1_" d="M-425.4 300.7h16.1v55.6l-17.5-3.5v9l17.4 3.5h9.9v-64.6h16.1v-8.3h-42v8.3z"/></g></g></g><g id="line2d_2"><defs><path id="SVGID_1_" d="M10.2 5.3H345v217.4H10.2z"/></defs><clipPath id="SVGID_2_"><use xlink:href="#SVGID_1_" overflow="visible"/></clipPath><path d="M25.4 15.2l16 39.5 16 35.1 16 30.7 16 26.4 16 22 16 17.6 16 13.2 16 8.8 16 4.4h16l16-4.4 16-8.8 16-13.2 16-17.6 16-22 16-26.4 16-30.7 16-35.1 16-39.5" clip-path="url(#SVGID_2_)" fill="none" stroke="red" stroke-width="2" stroke-linecap="square" stroke-linejoin="round"/></g></g><g id="图层_2"><path id="DejaVuSans-119" d="M329.9 227.2h1.8l2.2 8.5 2.2-8.5h2.1l2.2 8.5 2.2-8.5h1.8l-2.9 10.9h-2.1l-2.4-9-2.4 9h-2.1l-2.6-10.9z"/></g><g id="图层_3"><path id="DejaVuSans-76_1_" d="M157.6 5.3h2v12.9h7.1v1.7h-9.1V5.3z"/><path id="DejaVuSans-111_1_" d="M172.9 10.2c-1 0-1.7.4-2.3 1.1-.6.8-.8 1.8-.8 3.1s.3 2.3.8 3.1c.6.8 1.3 1.1 2.3 1.1 1 0 1.7-.4 2.3-1.1.6-.8.8-1.8.8-3.1s-.3-2.3-.8-3.1c-.6-.7-1.4-1.1-2.3-1.1zm0-1.5c1.6 0 2.8.5 3.7 1.5.9 1 1.3 2.4 1.3 4.2 0 1.8-.4 3.2-1.3 4.2s-2.1 1.5-3.7 1.5-2.8-.5-3.7-1.5c-.9-1-1.3-2.4-1.3-4.2 0-1.8.4-3.2 1.3-4.2s2.1-1.5 3.7-1.5z"/><path id="DejaVuSans-115_3_" d="M187.9 9.3V11c-.5-.3-1-.5-1.6-.6-.5-.1-1.1-.2-1.7-.2-.9 0-1.6.1-2 .4-.4.3-.7.7-.7 1.2 0 .4.2.7.5 1 .3.2 1 .5 1.9.7l.6.1c1.3.3 2.2.7 2.7 1.2s.8 1.2.8 2.1c0 1-.4 1.8-1.2 2.4-.8.6-1.9.9-3.3.9-.6 0-1.2-.1-1.8-.2-.6-.1-1.3-.3-2-.5v-1.9c.7.3 1.3.6 2 .8.6.2 1.3.3 1.9.3.8 0 1.5-.1 2-.4.5-.3.7-.7.7-1.2s-.2-.9-.5-1.1c-.3-.3-1-.5-2.2-.8l-.6-.1c-1.1-.2-1.9-.6-2.4-1.1-.5-.5-.7-1.2-.7-2 0-1 .4-1.8 1.1-2.4.7-.6 1.8-.8 3.1-.8.7 0 1.3 0 1.9.1.4 0 1 .2 1.5.4z"/><path id="DejaVuSans-115_2_" d="M198.3 9.3V11c-.5-.3-1-.5-1.6-.6-.5-.1-1.1-.2-1.7-.2-.9 0-1.6.1-2 .4-.4.3-.7.7-.7 1.2 0 .4.2.7.5 1 .3.2 1 .5 1.9.7l.6.1c1.3.3 2.2.7 2.7 1.2s.8 1.2.8 2.1c0 1-.4 1.8-1.2 2.4-.8.6-1.9.9-3.3.9-.6 0-1.2-.1-1.8-.2-.6-.1-1.3-.3-2-.5v-1.9c.7.3 1.3.6 2 .8.6.2 1.3.3 1.9.3.8 0 1.5-.1 2-.4.5-.3.7-.7.7-1.2s-.2-.9-.5-1.1c-.3-.3-1-.5-2.2-.8l-.6-.1c-1.1-.2-1.9-.6-2.4-1.1-.5-.5-.7-1.2-.7-2 0-1 .4-1.8 1.1-2.4.7-.6 1.8-.8 3.1-.8.7 0 1.3 0 1.9.1.4 0 1 .2 1.5.4z"/></g></svg>