<svg id="图层_1" xmlns="http://www.w3.org/2000/svg" height="270" width="352" viewBox="0 0 352 270">
  <style>
    .st0{stroke:#000}
  </style>
  <g id="figure_1">
    <g id="axes_1">
      <path class="st0" d="M344 217l-16.7 5.4 5-5.4H9.2h323.1l-5-5.4L344 217z" id="patch_3"/>
      <path class="st0" d="M176.6 9.4l5.5 16.6-5.5-5v205.9V21l-5.5 5 5.5-16.6z" id="patch_4"/>
      <g id="matplotlib.axis_1">
        <g id="xtick_1">
          <g id="text_1">
            <g transform="matrix(.1 0 0 -.1 118.915 266.598)">
              <path id="DejaVuSans-2212" d="M-437.7 286.9h62.6v-8.3h-62.6v8.3z"/>
            </g>
            <g transform="matrix(.1 0 0 -.1 118.915 266.598)">
              <path id="DejaVuSans-35" d="M-353.7 324.3h38.7V316h-29.7v-17.9c1.4.5 2.9.9 4.3 1.1 1.4.2 2.9.4 4.3.4 8.1 0 14.6-2.2 19.3-6.7 4.8-4.5 7.1-10.5 7.1-18.1 0-7.8-2.4-13.9-7.3-18.3-4.9-4.3-11.8-6.5-20.7-6.5-3.1 0-6.2.3-9.4.8s-6.4 1.3-9.8 2.3v9.9c2.9-1.6 6-2.8 9.1-3.6s6.4-1.2 9.9-1.2c5.6 0 10.1 1.5 13.4 4.4 3.3 3 4.9 7 4.9 12.1s-1.6 9.1-4.9 12c-3.3 3-7.7 4.5-13.4 4.5-2.6 0-5.3-.3-7.9-.9-2.6-.6-5.3-1.5-8-2.7v36.7z"/>
            </g>
          </g>
        </g>
        <g id="xtick_2">
          <g transform="matrix(.1 0 0 -.1 218.219 266.598)" id="text_2">
            <path id="DejaVuSans-30" d="M-416.5 317.8c-5.1 0-8.9-2.5-11.5-7.5-2.6-5-3.8-12.5-3.8-22.5s1.3-17.5 3.8-22.5c2.6-5 6.4-7.5 11.5-7.5s8.9 2.5 11.5 7.5c2.6 5 3.8 12.5 3.8 22.5s-1.3 17.5-3.8 22.5c-2.6 5-6.4 7.5-11.5 7.5zm0 7.8c8.2 0 14.4-3.2 18.7-9.7 4.3-6.5 6.5-15.8 6.5-28.1s-2.2-21.6-6.5-28.1-10.6-9.7-18.7-9.7c-8.2 0-14.4 3.2-18.7 9.7-4.3 6.5-6.5 15.8-6.5 28.1s2.2 21.7 6.5 28.1c4.3 6.5 10.5 9.7 18.7 9.7z"/>
          </g>
        </g>
        <g id="xtick_3">
          <g transform="matrix(.1 0 0 -.1 313.332 266.598)" id="text_3">
            <path id="DejaVuSans-35_1_" d="M-437.5 324.3h38.7V316h-29.7v-17.9c1.4.5 2.9.9 4.3 1.1 1.4.2 2.9.4 4.3.4 8.1 0 14.6-2.2 19.3-6.7 4.8-4.5 7.1-10.5 7.1-18.1 0-7.8-2.4-13.9-7.3-18.3-4.9-4.3-11.8-6.5-20.7-6.5-3.1 0-6.2.3-9.4.8s-6.4 1.3-9.8 2.3v9.9c2.9-1.6 6-2.8 9.1-3.6s6.4-1.2 9.9-1.2c5.6 0 10.1 1.5 13.4 4.4 3.3 3 4.9 7 4.9 12.1s-1.6 9.1-4.9 12c-3.3 3-7.7 4.5-13.4 4.5-2.6 0-5.3-.3-7.9-.9-2.6-.6-5.3-1.5-8-2.7v36.7z"/>
          </g>
        </g>
        <g id="text_4">
          <g transform="matrix(.2 0 0 -.2 195.422 287.875)">
            <path id="DejaVuSans-52" d="M-179.8 159.9c2.1-.7 4.2-2.3 6.2-4.6s4-5.6 6-9.7l10-19.9h-10.6l-9.3 18.7c-2.4 4.9-4.8 8.1-7 9.7s-5.3 2.4-9.3 2.4h-10.8v-30.8h-9.9v72.9h22.3c8.3 0 14.6-1.7 18.7-5.2s6.2-8.7 6.2-15.8c0-4.6-1.1-8.4-3.2-11.4s-5.2-5.1-9.3-6.3zm-24.7 30.6v-25.9h12.4c4.8 0 8.3 1.1 10.8 3.3s3.6 5.4 3.6 9.7-1.2 7.5-3.6 9.6-6 3.3-10.8 3.3h-12.4z"/>
          </g>
          <g transform="matrix(.2 0 0 -.2 195.422 287.875)">
            <path id="DejaVuSans-65" d="M-98.5 155.3v-4.4h-41.3c.4-6.2 2.3-10.9 5.6-14.1s8-4.9 13.9-4.9c3.4 0 6.8.4 10 1.3 3.2.8 6.5 2.1 9.7 3.8v-8.5c-3.2-1.4-6.5-2.4-9.9-3.1-3.4-.7-6.8-1.1-10.3-1.1-8.7 0-15.6 2.5-20.7 7.6s-7.6 12-7.6 20.6c0 8.9 2.4 16 7.3 21.3 4.8 5.3 11.4 7.9 19.6 7.9 7.4 0 13.2-2.4 17.5-7.1 4-4.7 6.2-11.2 6.2-19.3zm-9 2.6c-.1 4.9-1.4 8.8-4.1 11.8-2.7 2.9-6.2 4.4-10.7 4.4-5 0-9-1.4-12-4.3s-4.7-6.8-5.2-12l32 .1z"/>
          </g>
          <g transform="matrix(.2 0 0 -.2 195.422 287.875)">
            <path id="DejaVuSans-4c" d="M-83.4 198.6h9.9V134H-38v-8.3h-45.4v72.9z"/>
          </g>
          <g transform="matrix(.2 0 0 -.2 195.422 287.875)">
            <path id="DejaVuSans-55" d="M-28.9 198.6h9.9v-44.3c0-7.8 1.4-13.4 4.2-16.9 2.8-3.4 7.4-5.1 13.8-5.1 6.3 0 10.9 1.7 13.7 5.1 2.8 3.4 4.3 9.1 4.3 16.9v44.3h9.9v-45.5c0-9.5-2.4-16.7-7.1-21.5-4.7-4.9-11.6-7.3-20.8-7.3-9.2 0-16.2 2.4-20.9 7.3-4.7 4.9-7 12-7 21.5v45.5z"/>
          </g>
        </g>
      </g>
      <g id="matplotlib.axis_2">
        <g id="ytick_1">
          <g id="line2d_1">
            <path id="m2bf1015c0c" d="M176.6 93.4h-3.5" stroke="#000" stroke-width=".8" stroke-linejoin="round"/>
          </g>
          <g transform="matrix(.1 0 0 -.1 208.037 122.37)" id="text_5">
            <path id="DejaVuSans-35_2_" d="M-437.5 324.3h38.7V316h-29.7v-17.9c1.4.5 2.9.9 4.3 1.1 1.4.2 2.9.4 4.3.4 8.1 0 14.6-2.2 19.3-6.7 4.8-4.5 7.1-10.5 7.1-18.1 0-7.8-2.4-13.9-7.3-18.3-4.9-4.3-11.8-6.5-20.7-6.5-3.1 0-6.2.3-9.4.8s-6.4 1.3-9.8 2.3v9.9c2.9-1.6 6-2.8 9.1-3.6s6.4-1.2 9.9-1.2c5.6 0 10.1 1.5 13.4 4.4 3.3 3 4.9 7 4.9 12.1s-1.6 9.1-4.9 12c-3.3 3-7.7 4.5-13.4 4.5-2.6 0-5.3-.3-7.9-.9-2.6-.6-5.3-1.5-8-2.7v36.7z"/>
          </g>
        </g>
      </g>
      <path d="M24.4 217h152l19-24.7 19-24.7 19-24.7 19-24.7 19-24.7 19-24.7 19-24.7 19-24.7" fill="none" stroke="red" stroke-width="2" stroke-linecap="square" stroke-linejoin="round" id="line2d_2"/>
    </g>
  </g>
</svg>
