<svg id="图层_1" xmlns="http://www.w3.org/2000/svg" xmlns:xlink="http://www.w3.org/1999/xlink" height="279.4" width="355" viewBox="0 0 355 279.4">
  <style>
    .st0,.st1{stroke:#000}.st1{stroke-width:.8;stroke-linejoin:round}
  </style>
  <g id="figure_1">
    <g id="axes_1">
      <path class="st0" d="M345.8 220.3l-16.7 5.4 5-5.3H11v-.2h323.1l-5-5.3 16.7 5.4z" id="patch_3"/>
      <path class="st0" d="M168.3 12.6l5.5 16.6-5.5-5V230 24.2l-5.5 5 5.5-16.6z" id="patch_4"/>
      <g id="matplotlib.axis_1">
        <g id="xtick_1">
          <g id="text_1">
            <g transform="matrix(.1 0 0 -.1 102.429 266.598)">
              <path id="DejaVuSans-2212" d="M-419.4 255.4h62.6v-8.3h-62.6v8.3z"/>
            </g>
            <g transform="matrix(.1 0 0 -.1 102.429 266.598)">
              <path id="DejaVuSans-35" d="M-335.4 292.8h38.7v-8.3h-29.7v-17.9c1.4.5 2.9.9 4.3 1.1 1.4.2 2.9.4 4.3.4 8.1 0 14.6-2.2 19.3-6.7 4.8-4.5 7.1-10.5 7.1-18.1 0-7.8-2.4-13.9-7.3-18.3-4.9-4.3-11.8-6.5-20.7-6.5-3.1 0-6.2.3-9.4.8s-6.4 1.3-9.8 2.3v9.9c2.9-1.6 6-2.8 9.1-3.6s6.4-1.2 9.9-1.2c5.6 0 10.1 1.5 13.4 4.4 3.3 3 4.9 7 4.9 12.1s-1.6 9.1-4.9 12c-3.3 3-7.7 4.5-13.4 4.5-2.6 0-5.3-.3-7.9-.9-2.6-.6-5.3-1.5-8-2.7v36.7z"/>
            </g>
          </g>
        </g>
        <g id="xtick_2">
          <g transform="matrix(.1 0 0 -.1 208.073 266.598)" id="text_2">
            <path id="DejaVuSans-30" d="M-398.2 286.3c-5.1 0-8.9-2.5-11.5-7.5-2.6-5-3.8-12.5-3.8-22.5s1.3-17.5 3.8-22.5c2.6-5 6.4-7.5 11.5-7.5s8.9 2.5 11.5 7.5c2.6 5 3.8 12.5 3.8 22.5s-1.3 17.5-3.8 22.5c-2.6 5-6.4 7.5-11.5 7.5zm0 7.8c8.2 0 14.4-3.2 18.7-9.7 4.3-6.5 6.5-15.8 6.5-28.1s-2.2-21.6-6.5-28.1-10.6-9.7-18.7-9.7c-8.2 0-14.4 3.2-18.7 9.7-4.3 6.5-6.5 15.8-6.5 28.1s2.2 21.7 6.5 28.1c4.3 6.5 10.5 9.7 18.7 9.7z"/>
          </g>
        </g>
        <g id="xtick_3">
          <g transform="matrix(.1 0 0 -.1 309.528 266.598)" id="text_3">
            <path id="DejaVuSans-35_1_" d="M-419.2 292.8h38.7v-8.3h-29.7v-17.9c1.4.5 2.9.9 4.3 1.1 1.4.2 2.9.4 4.3.4 8.1 0 14.6-2.2 19.3-6.7 4.8-4.5 7.1-10.5 7.1-18.1 0-7.8-2.4-13.9-7.3-18.3-4.9-4.3-11.8-6.5-20.7-6.5-3.1 0-6.2.3-9.4.8s-6.4 1.3-9.8 2.3v9.9c2.9-1.6 6-2.8 9.1-3.6s6.4-1.2 9.9-1.2c5.6 0 10.1 1.5 13.4 4.4 3.3 3 4.9 7 4.9 12.1s-1.6 9.1-4.9 12c-3.3 3-7.7 4.5-13.4 4.5-2.6 0-5.3-.3-7.9-.9-2.6-.6-5.3-1.5-8-2.7v36.7z"/>
          </g>
        </g>
        <g id="text_4">
          <g transform="matrix(.2 0 0 -.2 184.856 287.875)">
            <path id="DejaVuSans-73" d="M-170.7 163v-8.5c-2.5 1.3-5.2 2.3-7.9 2.9-2.7.7-5.6 1-8.5 1-4.5 0-7.8-.7-10-2s-3.3-3.4-3.3-6.2c0-2.1.8-3.7 2.4-4.9s4.8-2.3 9.6-3.4l3.1-.7c6.4-1.4 10.9-3.3 13.6-5.8 2.7-2.5 4-6 4-10.4 0-5.1-2-9.1-6-12.1s-9.5-4.4-16.6-4.4c-2.9 0-6 .3-9.2.9-3.2.6-6.5 1.4-10 2.6v9.3c3.3-1.7 6.6-3 9.8-3.9 3.2-.9 6.4-1.3 9.6-1.3 4.2 0 7.5.7 9.8 2.2 2.3 1.4 3.4 3.5 3.4 6.1 0 2.4-.8 4.3-2.5 5.6-1.6 1.3-5.2 2.6-10.8 3.8l-3.1.7c-5.6 1.2-9.6 3-12.1 5.4-2.5 2.4-3.7 5.8-3.7 10 0 5.1 1.8 9.1 5.5 11.9 3.6 2.8 8.8 4.2 15.5 4.2 3.3 0 6.4-.2 9.4-.7 2.8-.6 5.5-1.3 8-2.3z"/>
          </g>
          <g transform="matrix(.2 0 0 -.2 184.856 287.875)">
            <path id="DejaVuSans-69" d="M-153.5 164.6h9V110h-9v54.6zm0 21.3h9v-11.4h-9v11.4z"/>
          </g>
          <g transform="matrix(.2 0 0 -.2 184.856 287.875)">
            <path id="DejaVuSans-67" d="M-89.7 137.9c0 6.5-1.3 11.6-4 15.1-2.7 3.6-6.4 5.4-11.3 5.4-4.8 0-8.6-1.8-11.3-5.4-2.7-3.6-4-8.6-4-15.1s1.3-11.5 4-15.1c2.7-3.6 6.4-5.4 11.3-5.4s8.6 1.8 11.3 5.4c2.6 3.6 4 8.7 4 15.1zm9-21.2c0-9.3-2.1-16.2-6.2-20.8-4.1-4.5-10.5-6.8-19-6.8-3.2 0-6.1.2-8.9.7s-5.5 1.2-8.2 2.2v8.7c2.6-1.4 5.2-2.5 7.8-3.2 2.6-.7 5.2-1 7.9-1 5.9 0 10.3 1.5 13.2 4.6 2.9 3.1 4.4 7.7 4.4 13.9v4.5c-1.9-3.2-4.2-5.6-7.1-7.2-2.9-1.6-6.4-2.4-10.4-2.4-6.7 0-12.1 2.6-16.2 7.7s-6.2 11.9-6.2 20.3c0 8.5 2.1 15.2 6.2 20.3 4.1 5.1 9.5 7.7 16.2 7.7 4 0 7.5-.8 10.4-2.4 2.9-1.6 5.3-4 7.1-7.2v8.3h9v-47.9z"/>
          </g>
          <g transform="matrix(.2 0 0 -.2 184.856 287.875)">
            <path id="DejaVuSans-6d" d="M-19.6 154.1c2.3 4 4.9 7 8.1 8.9s6.8 2.9 11 2.9c5.7 0 10.1-2 13.2-6 3.1-4 4.6-9.6 4.6-17v-33h-9v32.7c0 5.2-.9 9.1-2.8 11.7-1.9 2.5-4.7 3.8-8.5 3.8-4.7 0-8.3-1.5-11-4.6-2.7-3.1-4-7.3-4-12.6V110h-9v32.7c0 5.3-.9 9.2-2.8 11.7s-4.7 3.8-8.6 3.8c-4.6 0-8.2-1.6-11-4.7-2.7-3.1-4-7.3-4-12.6V110h-9v54.7h9v-8.5c2.1 3.4 4.5 5.8 7.4 7.4 2.9 1.6 6.3 2.4 10.2 2.4 4 0 7.4-1 10.1-3 2.7-2.1 4.7-5 6.1-8.9z"/>
          </g>
          <g transform="matrix(.2 0 0 -.2 184.856 287.875)">
            <path id="DejaVuSans-6f" d="M56.4 158.3c-4.8 0-8.6-1.9-11.4-5.6-2.8-3.8-4.2-8.9-4.2-15.5s1.4-11.7 4.2-15.5c2.8-3.8 6.6-5.6 11.5-5.6 4.8 0 8.6 1.9 11.4 5.7 2.8 3.8 4.2 8.9 4.2 15.4s-1.4 11.6-4.2 15.4c-2.9 3.9-6.7 5.7-11.5 5.7zm0 7.7c7.8 0 13.9-2.5 18.4-7.6 4.5-5.1 6.7-12.1 6.7-21.1 0-8.9-2.2-16-6.7-21.1-4.5-5.1-10.6-7.6-18.4-7.6-7.8 0-14 2.5-18.4 7.6-4.4 5.1-6.7 12.1-6.7 21.1 0 9 2.2 16 6.7 21.1 4.4 5 10.5 7.6 18.4 7.6z"/>
          </g>
          <g transform="matrix(.2 0 0 -.2 184.856 287.875)">
            <path id="DejaVuSans-64" d="M132.4 156.3v29.6h9v-76h-9v8.2c-1.9-3.3-4.3-5.7-7.2-7.3-2.9-1.6-6.3-2.4-10.4-2.4-6.6 0-12 2.6-16.1 7.9-4.1 5.3-6.2 12.2-6.2 20.8s2.1 15.5 6.2 20.8c4.2 5.3 9.5 7.9 16.1 7.9 4 0 7.5-.8 10.4-2.4 2.9-1.4 5.3-3.8 7.2-7.1zm-30.6-19c0-6.6 1.4-11.8 4.1-15.5 2.7-3.8 6.5-5.6 11.2-5.6s8.5 1.9 11.2 5.6c2.7 3.8 4.1 8.9 4.1 15.5s-1.4 11.8-4.1 15.5c-2.7 3.8-6.5 5.6-11.2 5.6s-8.5-1.9-11.2-5.6-4.1-8.9-4.1-15.5z"/>
          </g>
        </g>
      </g>
      <g id="matplotlib.axis_2">
        <g id="ytick_1">
          <g id="line2d_1">
            <path id="m142313bf17" class="st1" d="M168.3 121.4h-3.5"/>
          </g>
          <g id="text_5">
            <g transform="matrix(.1 0 0 -.1 188.351 147.17)">
              <path id="DejaVuSans-30_1_" d="M-398.2 286.3c-5.1 0-8.9-2.5-11.5-7.5-2.6-5-3.8-12.5-3.8-22.5s1.3-17.5 3.8-22.5c2.6-5 6.4-7.5 11.5-7.5s8.9 2.5 11.5 7.5c2.6 5 3.8 12.5 3.8 22.5s-1.3 17.5-3.8 22.5c-2.6 5-6.4 7.5-11.5 7.5zm0 7.8c8.2 0 14.4-3.2 18.7-9.7 4.3-6.5 6.5-15.8 6.5-28.1s-2.2-21.6-6.5-28.1-10.6-9.7-18.7-9.7c-8.2 0-14.4 3.2-18.7 9.7-4.3 6.5-6.5 15.8-6.5 28.1s2.2 21.7 6.5 28.1c4.3 6.5 10.5 9.7 18.7 9.7z"/>
            </g>
            <g transform="matrix(.1 0 0 -.1 188.351 147.17)">
              <path id="DejaVuSans-2e" d="M-355.7 232.3h10.3v-12.4h-10.3v12.4z"/>
            </g>
            <g transform="matrix(.1 0 0 -.1 188.351 147.17)">
              <path id="DejaVuSans-35_2_" d="M-323.8 292.8h38.7v-8.3h-29.7v-17.9c1.4.5 2.9.9 4.3 1.1 1.4.2 2.9.4 4.3.4 8.1 0 14.6-2.2 19.3-6.7 4.8-4.5 7.1-10.5 7.1-18.1 0-7.8-2.4-13.9-7.3-18.3-4.9-4.3-11.8-6.5-20.7-6.5-3.1 0-6.2.3-9.4.8s-6.4 1.3-9.8 2.3v9.9c2.9-1.6 6-2.8 9.1-3.6s6.4-1.2 9.9-1.2c5.6 0 10.1 1.5 13.4 4.4 3.3 3 4.9 7 4.9 12.1s-1.6 9.1-4.9 12c-3.3 3-7.7 4.5-13.4 4.5-2.6 0-5.3-.3-7.9-.9-2.6-.6-5.3-1.5-8-2.7v36.7z"/>
            </g>
          </g>
        </g>
        <g id="ytick_2">
          <g id="line2d_2">
            <path id="m142313bf17_1_" class="st1" d="M168.3 22.5h-3.5"/>
          </g>
          <g id="text_6">
            <g transform="matrix(.1 0 0 -.1 188.351 48.243)">
              <path id="DejaVuSans-31" d="M-417.6 228.2h16.1v55.6l-17.5-3.5v9l17.4 3.5h9.9v-64.6h16.1v-8.3h-42v8.3z"/>
            </g>
            <g transform="matrix(.1 0 0 -.1 188.351 48.243)">
              <path id="DejaVuSans-2e_1_" d="M-355.7 232.3h10.3v-12.4h-10.3v12.4z"/>
            </g>
            <g transform="matrix(.1 0 0 -.1 188.351 48.243)">
              <path id="DejaVuSans-30_2_" d="M-302.8 286.3c-5.1 0-8.9-2.5-11.5-7.5-2.6-5-3.8-12.5-3.8-22.5s1.3-17.5 3.8-22.5c2.6-5 6.4-7.5 11.5-7.5s8.9 2.5 11.5 7.5c2.6 5 3.8 12.5 3.8 22.5s-1.3 17.5-3.8 22.5c-2.6 5-6.4 7.5-11.5 7.5zm0 7.8c8.2 0 14.4-3.2 18.7-9.7 4.3-6.5 6.5-15.8 6.5-28.1s-2.2-21.6-6.5-28.1-10.6-9.7-18.7-9.7c-8.2 0-14.4 3.2-18.7 9.7-4.3 6.5-6.5 15.8-6.5 28.1s2.2 21.7 6.5 28.1c4.3 6.5 10.5 9.7 18.7 9.7z"/>
            </g>
          </g>
        </g>
      </g>
      <g id="line2d_3">
        <defs>
          <path id="SVGID_1_" d="M11 12.6h334.8V230H11z"/>
        </defs>
        <clipPath id="SVGID_2_">
          <use xlink:href="#SVGID_1_" overflow="visible"/>
        </clipPath>
        <path d="M26.2 220.1l7.3-.1 7.3-.1 7.3-.2 7.3-.2 7.3-.3 7.3-.5 7.3-.7 7.3-.9 7.3-1.3 7.3-1.9 7.3-2.6 7.3-3.6 7.3-4.9 7.3-6.6 7.3-8.7 7.3-11 7-13.5 7.3-15.6 7.3-17.2 7.3-17.7 7.3-17.2 7.3-15.6 7.3-13.5 7.3-11 7.3-8.7 7.3-6.6L223 35l7.3-3.6 7.3-2.6 7.3-1.9 7.3-1.3 7.3-.9 7.3-.7 7.3-.5 7.3-.3 7.3-.2 7.3-.2 7.3-.1 7.3-.1" clip-path="url(#SVGID_2_)" fill="none" stroke="red" stroke-width="2" stroke-linecap="square" stroke-linejoin="round"/>
      </g>
      <g id="line2d_4">
        <defs>
          <path id="SVGID_3_" d="M11 12.6h334.8V230H11z"/>
        </defs>
        <clipPath id="SVGID_4_">
          <use xlink:href="#SVGID_3_" overflow="visible"/>
        </clipPath>
        <path d="M168.3 22.5h162.3" clip-path="url(#SVGID_4_)" fill="none" stroke="#1f77b4" stroke-width="2" stroke-linejoin="round" stroke-dasharray="7.4,3.2"/>
      </g>
    </g>
  </g>
</svg>
