<svg id="图层_1" xmlns="http://www.w3.org/2000/svg" height="257" width="347" viewBox="0 0 347 257">
  <style>
    .st0,.st2,.st3{stroke:#000}.st2,.st3{stroke-width:.8;stroke-linejoin:round}.st3{fill:none;stroke:#1f77b4;stroke-width:2;stroke-dasharray:7.4,3.2}
  </style>
  <g id="axes_1">
    <path class="st0" d="M343 113.8l-16.7 5.4 5-5.4H8.2v-.1h323.1l-5-5.4 16.7 5.5z" id="patch_3"/>
    <path class="st0" d="M175.6 5l5.5 16.6-5.5-5v205.9V16.6l-5.5 5L175.6 5z" id="patch_4"/>
    <path d="M42.4 212.6H96.8l6.8-.1 6.8-.1 6.8-.2 6.8-.5 6.8-.9 6.8-1.9 6.8-3.8 6.8-7.3 6.8-13.3 6.8-22.1 6.8-31.1 6.8-35.1 6.8-31.1L192 43l6.8-13.3 6.8-7.3 6.8-3.8 6.8-1.9 6.8-.9 6.8-.5 6.8-.2 6.8-.1 6.8-.1H307.6" fill="none" stroke="red" stroke-width="2" stroke-linecap="square" stroke-linejoin="round"/>
    <g id="ytick_2">
      <g id="line2d_2">
        <path id="m31aed39731_1_" class="st2" d="M175.6 14.9h-3.5"/>
      </g>
      <g transform="matrix(.1 0 0 -.1 208.037 48.243)" id="text_6">
        <path id="DejaVuSans-31_1_" d="M-446 303.4h16.1V359l-17.5-3.5v9l17.4 3.5h9.9v-64.6h16.1v-8.3h-42v8.3z"/>
      </g>
    </g>
    <path id="m31aed39731" class="st2" d="M175.6 212.6h-3.5"/>
  </g>
  <path class="st3" d="M175.6 14.9h152.2M22.3 212.6h152.2"/>
  <g transform="matrix(.1 0 0 -.1 199.658 245.916)">
    <path id="DejaVuSans-2212_1_" d="M-157.8 330.6h62.6v-8.3h-62.6v8.3z"/>
  </g>
  <g transform="matrix(.1 0 0 -.1 199.658 245.916)">
    <path id="DejaVuSans-31" d="M-72.2 303.4h16.1V359l-17.5-3.5v9l17.4 3.5h9.9v-64.6h16.1v-8.3h-42v8.3z"/>
  </g>
  <g id="matplotlib.axis_1">
    <g id="xtick_3">
      <g transform="matrix(.1 0 0 -.1 313.332 266.598)" id="text_3">
        <path id="DejaVuSans-35_1_" d="M-447.6 1448.3h38.7v-8.3h-29.7v-17.9c1.4.5 2.9.9 4.3 1.1 1.4.2 2.9.4 4.3.4 8.1 0 14.6-2.2 19.3-6.7 4.8-4.5 7.1-10.5 7.1-18.1 0-7.8-2.4-13.9-7.3-18.3-4.9-4.3-11.8-6.5-20.7-6.5-3.1 0-6.2.3-9.4.8s-6.4 1.3-9.8 2.3v9.9c2.9-1.6 6-2.8 9.1-3.6s6.4-1.2 9.9-1.2c5.6 0 10.1 1.5 13.4 4.4 3.3 3 4.9 7 4.9 12.1s-1.6 9.1-4.9 12c-3.3 3-7.7 4.5-13.4 4.5-2.6 0-5.3-.3-7.9-.9-2.6-.6-5.3-1.5-8-2.7v36.7z"/>
      </g>
    </g>
    <g id="text_1">
      <g transform="matrix(.1 0 0 -.1 118.915 266.598)">
        <path id="DejaVuSans-2212" d="M-447.8 1410.9h62.6v-8.3h-62.6v8.3z"/>
      </g>
      <g transform="matrix(.1 0 0 -.1 118.915 266.598)">
        <path id="DejaVuSans-35" d="M-363.8 1448.3h38.7v-8.3h-29.7v-17.9c1.4.5 2.9.9 4.3 1.1 1.4.2 2.9.4 4.3.4 8.1 0 14.6-2.2 19.3-6.7 4.8-4.5 7.1-10.5 7.1-18.1 0-7.8-2.4-13.9-7.3-18.3-4.9-4.3-11.8-6.5-20.7-6.5-3.1 0-6.2.3-9.4.8s-6.4 1.3-9.8 2.3v9.9c2.9-1.6 6-2.8 9.1-3.6s6.4-1.2 9.9-1.2c5.6 0 10.1 1.5 13.4 4.4 3.3 3 4.9 7 4.9 12.1s-1.6 9.1-4.9 12c-3.3 3-7.7 4.5-13.4 4.5-2.6 0-5.3-.3-7.9-.9-2.6-.6-5.3-1.5-8-2.7v36.7z"/>
      </g>
    </g>
    <g id="xtick_2">
      <g transform="matrix(.1 0 0 -.1 218.219 266.598)" id="text_2">
        <path id="DejaVuSans-30" d="M-526.6 1441.2c-5.1 0-8.9-2.5-11.5-7.5-2.6-5-3.8-12.5-3.8-22.5s1.3-17.5 3.8-22.5c2.6-5 6.4-7.5 11.5-7.5s8.9 2.5 11.5 7.5c2.6 5 3.8 12.5 3.8 22.5s-1.3 17.5-3.8 22.5-6.4 7.5-11.5 7.5zm0 7.8c8.2 0 14.4-3.2 18.7-9.7 4.3-6.5 6.5-15.8 6.5-28.1s-2.2-21.6-6.5-28.1-10.6-9.7-18.7-9.7c-8.2 0-14.4 3.2-18.7 9.7-4.3 6.5-6.5 15.8-6.5 28.1s2.2 21.7 6.5 28.1c4.3 6.5 10.5 9.7 18.7 9.7z"/>
      </g>
    </g>
  </g>
  <g id="text_4">
    <g transform="matrix(.2 0 0 -.2 198.677 287.875)">
      <path id="DejaVuSans-74" d="M-210.9 262.8v-15.5h18.5v-7h-18.5v-29.7c0-4.5.6-7.3 1.8-8.6s3.7-1.9 7.5-1.9h9.2v-7.5h-9.2c-6.9 0-11.7 1.3-14.4 3.9-2.6 2.6-4 7.3-4 14.1v29.7h-6.6v7h6.6v15.5h9.1z"/>
    </g>
    <g transform="matrix(.2 0 0 -.2 198.677 287.875)">
      <path id="DejaVuSans-61" d="M-155.7 220c-7.3 0-12.3-.8-15.1-2.5-2.8-1.7-4.2-4.5-4.2-8.5 0-3.2 1.1-5.7 3.2-7.6 2.1-1.9 5-2.8 8.6-2.8 5 0 9 1.8 12 5.3s4.5 8.2 4.5 14.1v2h-9zm17.9 3.8v-31.2h-9v8.3c-2.1-3.3-4.6-5.8-7.7-7.3s-6.8-2.4-11.2-2.4c-5.6 0-10 1.6-13.4 4.7-3.3 3.1-5 7.4-5 12.6 0 6.1 2.1 10.8 6.2 13.9 4.1 3.1 10.3 4.7 18.4 4.7h12.6v.9c0 4.1-1.4 7.3-4.1 9.6s-6.5 3.4-11.5 3.4c-3.1 0-6.2-.4-9.1-1.1-3-.8-5.8-1.9-8.5-3.4v8.3c3.3 1.3 6.5 2.2 9.6 2.8 3.1.6 6.1 1 9 1 7.9 0 13.8-2.1 17.7-6.2 4.1-4.1 6-10.3 6-18.6z"/>
    </g>
    <g transform="matrix(.2 0 0 -.2 198.677 287.875)">
      <path id="DejaVuSans-6e" d="M-73.8 225.6v-33h-9v32.7c0 5.2-1 9-3 11.6-2 2.6-5 3.9-9.1 3.9-4.9 0-8.7-1.5-11.5-4.6-2.8-3.1-4.2-7.3-4.2-12.6v-30.9h-9v54.7h9v-8.5c2.2 3.3 4.7 5.8 7.6 7.4 2.9 1.6 6.3 2.4 10.1 2.4 6.3 0 11-1.9 14.3-5.8 3.2-4.1 4.8-9.8 4.8-17.3z"/>
    </g>
    <g transform="matrix(.2 0 0 -.2 198.677 287.875)">
      <path id="DejaVuSans-68" d="M-10.4 225.6v-33h-9v32.7c0 5.2-1 9-3 11.6-2 2.6-5 3.9-9.1 3.9-4.9 0-8.7-1.5-11.5-4.6-2.8-3.1-4.2-7.3-4.2-12.6v-30.9h-9v76h9v-29.8c2.2 3.3 4.7 5.8 7.6 7.4 2.9 1.6 6.3 2.4 10.1 2.4 6.3 0 11-1.9 14.3-5.8 3.2-4.1 4.8-9.8 4.8-17.3z"/>
    </g>
  </g>
</svg>
