<svg height="120.488" viewBox="-0.239 -0.228 99.618 90.366" width="132.824" xmlns="http://www.w3.org/2000/svg" xmlns:xlink="http://www.w3.org/1999/xlink">
  <defs>
    <path d="M3.897 21.041h.825V.36h3.156v-.825h-3.98V21.04z" id="h"/>
    <path d="M3.24 21.041h.825V-.466H.084v.825H3.24V21.04z" id="n"/>
    <path d="M3.897 21.03h3.981v-.826H4.722V-.478h-.825v21.507z" id="j"/>
    <path d="M3.24 20.204H.084v.825h3.98V-.478H3.24v20.682z" id="p"/>
    <path d="M3.897 7.185h.825V-.012h-.825v7.197z" id="i"/>
    <path d="M3.24 7.185h.825V-.012H3.24v7.197z" id="o"/>
    <use id="g" transform="scale(1.5)" xlink:href="#a"/>
    <use id="c" transform="scale(1.5)" xlink:href="#b"/>
    <path d="M3.033 1.596v-.04C2.001.627 1.382-.77 1.382-2.215c0-1.438.619-2.843 1.651-3.78v-.04h-.881C1.23-4.987.699-3.772.699-2.215S1.23.548 2.152 1.596h.881z" id="d"/>
    <path d="M2.906-2.215c0-1.557-.532-2.772-1.445-3.82h-.89v.04c1.04.937 1.652 2.342 1.652 3.78C2.223-.77 1.612.627.572 1.556v.04h.889C2.374.548 2.906-.659 2.906-2.215z" id="f"/>
    <path d="M2.231-1.104h-.984L.572 1.437h.563l1.096-2.54z" id="l"/>
    <path d="M4.2 0v-.588H3.025v-5.2h-.603c-.032.563-.429.801-1.342.801v.525h1.199v3.874h-1.2V0H4.2z" id="k"/>
    <path d="M4.534 0v-.659H1.429C3.66-2.557 4.288-3.2 4.288-4.304c0-.976-.715-1.588-1.898-1.588-.572 0-1.255.175-1.62.358v.817h.04c.516-.341 1.096-.508 1.564-.508.707 0 1.12.358 1.12.961 0 .866-.508 1.43-2.867 3.454V0h3.907z" id="e"/>
    <path d="M4.455-1.707c0-.794-.453-1.318-1.263-1.445v-.056c.611-.127 1.135-.651 1.135-1.294 0-.54-.301-1.39-1.89-1.39-.571 0-1.254.183-1.62.366v.81H.85c.492-.326 1.08-.509 1.572-.509.722 0 1.12.294 1.12.802 0 .683-.47.969-1.557.969v.643c1.286 0 1.675.215 1.675 1.04 0 .77-.5 1.223-1.318 1.223-.555 0-1.199-.214-1.635-.508H.65v.81a4.426 4.426 0 0 0 1.707.365c1.287 0 2.097-.754 2.097-1.826z" id="m"/>
    <path d="M5.55-3.033v-.62H.953v.62H5.55zm0 1.628v-.62H.953v.62H5.55z" id="a"/>
    <path d="M6.162-4.327h-.73l-.755 3.35-1.104-3.35H2.97L1.89-.977l-.794-3.35H.333L1.477 0h.667l1.104-3.335L4.359 0h.675l1.128-4.327z" id="b"/>
  </defs>
  <g transform="matrix(1.13 0 0 1.13 -63.986 -61.059)">
    <use x="56.413" xlink:href="#c" y="96.743"/>
    <use x="66.193" xlink:href="#d" y="92.062"/>
    <use x="69.811" xlink:href="#e" y="91.807"/>
    <use x="74.861" xlink:href="#f" y="92.062"/>
    <use x="82.317" xlink:href="#g" y="96.743"/>
    <use x="95.381" xlink:href="#h" y="54.78"/>
    <use x="95.381" xlink:href="#i" y="75.821"/>
    <use x="95.381" xlink:href="#i" y="82.995"/>
    <use x="95.381" xlink:href="#i" y="90.168"/>
    <use x="95.381" xlink:href="#i" y="97.341"/>
    <use x="95.381" xlink:href="#i" y="104.514"/>
    <use x="95.381" xlink:href="#j" y="112.165"/>
    <use x="108.332" xlink:href="#c" y="65.687"/>
    <use x="118.112" xlink:href="#d" y="59.967"/>
    <use x="121.73" xlink:href="#e" y="59.712"/>
    <use x="126.78" xlink:href="#f" y="59.967"/>
    <use x="118.112" xlink:href="#k" y="69.296"/>
    <use x="123.162" xlink:href="#l" y="69.296"/>
    <use x="126.082" xlink:href="#k" y="69.296"/>
    <use x="108.332" xlink:href="#c" y="97.073"/>
    <use x="118.112" xlink:href="#d" y="91.353"/>
    <use x="121.73" xlink:href="#e" y="91.098"/>
    <use x="126.78" xlink:href="#f" y="91.353"/>
    <use x="118.112" xlink:href="#k" y="100.782"/>
    <use x="123.162" xlink:href="#l" y="100.782"/>
    <use x="126.082" xlink:href="#e" y="100.782"/>
    <use x="108.332" xlink:href="#c" y="128.559"/>
    <use x="118.112" xlink:href="#d" y="122.839"/>
    <use x="121.73" xlink:href="#e" y="122.584"/>
    <use x="126.78" xlink:href="#f" y="122.839"/>
    <use x="118.112" xlink:href="#k" y="132.268"/>
    <use x="123.162" xlink:href="#l" y="132.268"/>
    <use x="126.082" xlink:href="#m" y="132.268"/>
    <use x="136.63" xlink:href="#n" y="54.78"/>
    <use x="136.63" xlink:href="#o" y="75.821"/>
    <use x="136.63" xlink:href="#o" y="82.995"/>
    <use x="136.63" xlink:href="#o" y="90.168"/>
    <use x="136.63" xlink:href="#o" y="97.341"/>
    <use x="136.63" xlink:href="#o" y="104.514"/>
    <use x="136.63" xlink:href="#p" y="112.165"/>
  </g>
</svg>
