<svg height="77.552" viewBox="-0.165 -0.283 145.779 58.164" width="194.372" xmlns="http://www.w3.org/2000/svg" xmlns:xlink="http://www.w3.org/1999/xlink">
  <defs>
    <path d="M7.878-2.75c.204 0 .419 0 .419-.239s-.215-.239-.419-.239H1.411c-.204 0-.419 0-.419.24s.215.238.419.238h6.467z" id="d"/>
    <path d="M2.331.048c0-.694-.227-1.208-.717-1.208-.383 0-.574.311-.574.574S1.22 0 1.626 0a.531.531 0 0 0 .394-.155c.024-.024.036-.024.048-.024.024 0 .024.167.024.227 0 .394-.072 1.171-.765 1.949-.131.143-.131.167-.131.19 0 .06.06.12.12.12.095 0 1.015-.884 1.015-2.26z" id="h"/>
    <path d="M5.428-3.993c-.072-.67-.49-1.47-1.566-1.47-1.686 0-3.408 1.71-3.408 3.61 0 .73.502 2.104 2.128 2.104 2.822 0 4.03-4.113 4.03-5.75 0-1.722-.97-3.049-2.5-3.049-1.733 0-2.247 1.518-2.247 1.841 0 .108.072.37.406.37.419 0 .598-.382.598-.585 0-.37-.37-.37-.526-.37.49-.885 1.399-.969 1.722-.969 1.052 0 1.721.837 1.721 2.176 0 .765-.227 1.65-.346 2.092h-.012zM2.618-.072c-1.124 0-1.315-.884-1.315-1.387 0-.526.335-1.757.514-2.2.156-.358.837-1.565 2.08-1.565 1.088 0 1.34.944 1.34 1.59 0 .884-.778 3.562-2.619 3.562z" id="e"/>
    <path d="M6.384-7.34c.096-.36.12-.479.705-.479.192 0 .311 0 .311-.215 0-.131-.107-.131-.155-.131-.203 0-.43.024-.646.024h-.657c-.502 0-1.028-.024-1.53-.024-.108 0-.252 0-.252.215 0 .12.096.12.096.131h.299c.956 0 .956.096.956.275 0 .012 0 .096-.047.287L4.089-1.793C3.778-.573 2.977.012 2.403.012c-.406 0-.98-.191-1.124-.825a.7.7 0 0 0 .156.024.72.72 0 0 0 .705-.693c0-.192-.12-.443-.478-.443-.215 0-.718.12-.718.897 0 .753.622 1.28 1.483 1.28 1.088 0 2.26-.826 2.546-1.962l1.411-5.63z" id="f"/>
    <path d="M2.762-7.998c.012-.048.036-.12.036-.18 0-.119-.12-.119-.144-.119-.012 0-.442.036-.657.06-.204.012-.383.036-.598.048-.287.024-.37.036-.37.25 0 .12.119.12.238.12.61 0 .61.108.61.227 0 .084-.096.43-.143.646l-.287 1.148c-.12.478-.801 3.192-.85 3.407-.059.299-.059.502-.059.657C.538-.514 1.219.12 1.997.12c1.386 0 2.82-1.782 2.82-3.515 0-1.1-.62-1.877-1.517-1.877-.622 0-1.184.514-1.411.753l.873-3.479zM2.008-.12c-.382 0-.8-.286-.8-1.219 0-.395.035-.622.25-1.459.036-.155.228-.92.276-1.075.023-.096.729-1.16 1.542-1.16.526 0 .765.526.765 1.148 0 .573-.335 1.924-.634 2.546-.299.646-.849 1.22-1.399 1.22z" id="i"/>
    <path d="M4.113-.73c.263.718 1.004.85 1.458.85.909 0 1.447-.79 1.781-1.614.275-.694.718-2.272.718-2.977 0-.73-.37-.801-.478-.801-.287 0-.55.287-.55.526 0 .143.083.227.143.275.108.107.418.43.418 1.052 0 .406-.334 1.53-.585 2.092-.335.73-.777 1.207-1.4 1.207-.669 0-.884-.502-.884-1.052 0-.346.108-.765.156-.968l.502-2.008c.06-.24.167-.658.167-.706 0-.18-.143-.299-.323-.299-.346 0-.43.3-.502.586-.12.466-.621 2.487-.67 2.75-.047.203-.047.335-.047.598 0 .286-.383.74-.395.765-.131.131-.322.334-.693.334-.944 0-.944-.896-.944-1.1 0-.382.083-.908.621-2.33.144-.371.203-.527.203-.766 0-.502-.358-.956-.944-.956-1.1 0-1.542 1.733-1.542 1.829 0 .048.048.108.131.108.108 0 .12-.048.168-.216.299-1.052.765-1.482 1.207-1.482.12 0 .311.012.311.394 0 .06 0 .311-.203.837-.562 1.495-.682 1.985-.682 2.44C1.255-.109 2.283.12 2.893.12c.203 0 .741 0 1.22-.85z" id="a"/>
    <path d="M5.667-4.878c-.383.072-.526.359-.526.586 0 .287.227.383.394.383.359 0 .61-.311.61-.634 0-.502-.574-.73-1.076-.73-.73 0-1.136.718-1.243.945-.275-.896-1.017-.944-1.232-.944C1.374-5.272.73-3.706.73-3.443c0 .048.048.108.132.108.095 0 .12-.072.143-.12.407-1.327 1.208-1.578 1.554-1.578.538 0 .646.502.646.789 0 .263-.072.538-.215 1.112l-.407 1.638C2.403-.777 2.056-.12 1.422-.12c-.06 0-.358 0-.609-.155a.617.617 0 0 0 .526-.586c0-.239-.18-.382-.406-.382a.623.623 0 0 0-.598.633c0 .502.562.73 1.076.73.574 0 .98-.455 1.231-.945.191.705.79.945 1.231.945 1.22 0 1.865-1.567 1.865-1.83 0-.06-.047-.107-.12-.107-.107 0-.119.06-.154.155C5.14-.61 4.447-.12 3.909-.12c-.418 0-.645-.31-.645-.8 0-.264.048-.455.239-1.244L3.92-3.79c.18-.717.586-1.243 1.136-1.243.024 0 .359 0 .61.155z" id="j"/>
    <path d="M3.144 1.339c-.323.454-.789.86-1.375.86-.143 0-.717-.023-.896-.573.036.012.095.012.12.012.358 0 .597-.311.597-.586s-.227-.37-.406-.37c-.192 0-.61.143-.61.729 0 .61.514 1.028 1.195 1.028 1.196 0 2.403-1.1 2.738-2.427L5.68-4.651c.012-.06.036-.131.036-.203 0-.18-.144-.299-.323-.299-.108 0-.359.048-.455.407l-.884 3.515c-.06.215-.06.239-.156.37-.239.335-.633.741-1.207.741-.67 0-.73-.657-.73-.98 0-.681.323-1.602.646-2.463.132-.346.203-.514.203-.753 0-.502-.358-.956-.944-.956-1.1 0-1.542 1.733-1.542 1.829 0 .048.048.108.131.108.108 0 .12-.048.168-.216.287-1.004.74-1.482 1.207-1.482.108 0 .311 0 .311.394 0 .311-.132.658-.31 1.112-.587 1.566-.587 1.96-.587 2.248C1.243-.143 2.056.12 2.654.12c.347 0 .777-.108 1.196-.55l.012.012c-.18.705-.3 1.171-.718 1.757z" id="k"/>
    <path d="M3.885 2.905c0-.036 0-.06-.203-.263-1.195-1.207-1.865-3.18-1.865-5.619 0-2.32.562-4.316 1.949-5.726.12-.108.12-.132.12-.168 0-.071-.06-.095-.108-.095-.156 0-1.136.86-1.722 2.032-.61 1.207-.884 2.487-.884 3.957 0 1.064.167 2.487.789 3.766.705 1.435 1.685 2.212 1.817 2.212.048 0 .107-.024.107-.096z" id="g"/>
    <path d="M3.371-2.977c0-.908-.12-2.39-.789-3.778C1.877-8.189.897-8.966.765-8.966c-.048 0-.107.024-.107.095 0 .036 0 .06.203.263 1.195 1.208 1.865 3.18 1.865 5.62 0 2.319-.562 4.315-1.949 5.726-.12.107-.12.131-.12.167 0 .072.06.096.108.096C.921 3 1.901 2.14 2.487.968c.61-1.22.884-2.51.884-3.945z" id="l"/>
    <path d="M8.07-3.873c.167 0 .382 0 .382-.216 0-.227-.203-.227-.382-.227H1.028c-.167 0-.382 0-.382.215 0 .228.203.228.382.228H8.07zm0 2.223c.167 0 .382 0 .382-.215 0-.227-.203-.227-.382-.227H1.028c-.167 0-.382 0-.382.215 0 .227.203.227.382.227H8.07z" id="c"/>
    <path d="M3.092-4.822c.072-.27.088-.359.821-.359.223 0 .303 0 .303-.151 0-.016-.016-.112-.135-.112-.168 0-.407.016-.574.024h-.574c-.829 0-1.02-.024-1.076-.024-.032 0-.16 0-.16.152 0 .111.104.111.232.111.263 0 .494 0 .494.128 0 .032-.008.04-.032.143L1.323-.63c-.072.303-.088.367-.677.367-.152 0-.247 0-.247.151C.399 0 .502 0 .638 0h3.85c.198 0 .206-.008.27-.16.08-.223.662-1.72.662-1.8 0-.072-.064-.112-.12-.112-.088 0-.103.056-.16.175-.286.741-.629 1.634-2.056 1.634H2.072c-.071-.016-.095-.016-.095-.072 0-.064.016-.127.031-.175l1.084-4.312z" id="b"/>
  </defs>
  <g transform="matrix(1.13 0 0 1.13 -44.07 -75.748)">
    <use x="38.854" xlink:href="#a" y="83.804"/>
    <use x="47.513" xlink:href="#b" y="78.868"/>
    <use x="57.091" xlink:href="#c" y="83.804"/>
    <use x="69.482" xlink:href="#a" y="83.804"/>
    <use x="78.14" xlink:href="#b" y="78.868"/>
    <use x="87.054" xlink:href="#d" y="83.804"/>
    <use x="100.17" xlink:href="#e" y="75.716"/>
    <use x="106.977" xlink:href="#f" y="75.716"/>
    <use x="116.522" xlink:href="#g" y="75.716"/>
    <use x="121.075" xlink:href="#a" y="75.716"/>
    <use x="129.733" xlink:href="#h" y="75.716"/>
    <use x="134.965" xlink:href="#i" y="75.716"/>
    <use x="139.923" xlink:href="#h" y="75.716"/>
    <use x="145.155" xlink:href="#j" y="75.716"/>
    <use x="151.783" xlink:href="#h" y="75.716"/>
    <use x="157.015" xlink:href="#k" y="75.716"/>
    <use x="163.13" xlink:href="#l" y="75.716"/>
    <path d="M100.17 80.576h67.692v.478H100.17z"/>
    <use x="123.128" xlink:href="#e" y="92.004"/>
    <use x="129.935" xlink:href="#a" y="92.004"/>
    <use x="138.593" xlink:href="#b" y="88.551"/>
    <use x="38.854" xlink:href="#i" y="110.055"/>
    <use x="43.813" xlink:href="#b" y="105.119"/>
    <use x="53.391" xlink:href="#c" y="110.055"/>
    <use x="65.782" xlink:href="#i" y="110.055"/>
    <use x="70.741" xlink:href="#b" y="105.119"/>
    <use x="79.655" xlink:href="#d" y="110.055"/>
    <use x="92.771" xlink:href="#e" y="101.967"/>
    <use x="99.577" xlink:href="#f" y="101.967"/>
    <use x="109.123" xlink:href="#g" y="101.967"/>
    <use x="113.675" xlink:href="#a" y="101.967"/>
    <use x="122.333" xlink:href="#h" y="101.967"/>
    <use x="127.565" xlink:href="#i" y="101.967"/>
    <use x="132.524" xlink:href="#h" y="101.967"/>
    <use x="137.756" xlink:href="#j" y="101.967"/>
    <use x="144.383" xlink:href="#h" y="101.967"/>
    <use x="149.615" xlink:href="#k" y="101.967"/>
    <use x="155.73" xlink:href="#l" y="101.967"/>
    <path d="M92.771 106.827h67.692v.478H92.771z"/>
    <use x="117.584" xlink:href="#e" y="118.256"/>
    <use x="124.391" xlink:href="#i" y="118.256"/>
    <use x="129.35" xlink:href="#b" y="114.802"/>
  </g>
</svg>
