<svg height="39.386" viewBox="-0.239 -0.228 308.106 29.539" width="410.808" xmlns="http://www.w3.org/2000/svg" xmlns:xlink="http://www.w3.org/1999/xlink">
  <defs>
    <path d="M2.088-5.292a.991.991 0 0 0 .032-.128c0-.04-.032-.111-.127-.111l-.805.063c-.295.024-.36.032-.36.176 0 .111.112.111.208.111.383 0 .383.048.383.12 0 .024 0 .04-.04.183L.39-.925c-.032.128-.032.248-.032.256 0 .494.406.749.805.749.342 0 .526-.271.613-.447.144-.263.263-.733.263-.773 0-.048-.024-.103-.127-.103-.072 0-.096.04-.096.047a2.022 2.022 0 0 0-.08.256c-.12.462-.27.797-.557.797-.192 0-.247-.184-.247-.375 0-.151.023-.24.047-.343l1.108-4.431z" id="b"/>
    <path d="M3.885 2.905c0-.036 0-.06-.203-.263-1.195-1.207-1.865-3.18-1.865-5.619 0-2.32.562-4.316 1.949-5.726.12-.108.12-.132.12-.168 0-.071-.06-.095-.108-.095-.156 0-1.136.86-1.722 2.032-.61 1.207-.884 2.487-.884 3.957 0 1.064.167 2.487.789 3.766.705 1.435 1.685 2.212 1.817 2.212.048 0 .107-.024.107-.096z" id="f"/>
    <path d="M3.371-2.977c0-.908-.12-2.39-.789-3.778C1.877-8.189.897-8.966.765-8.966c-.048 0-.107.024-.107.095 0 .036 0 .06.203.263 1.195 1.208 1.865 3.18 1.865 5.62 0 2.319-.562 4.315-1.949 5.726-.12.107-.12.131-.12.167 0 .072.06.096.108.096C.921 3 1.901 2.14 2.487.968c.61-1.22.884-2.51.884-3.945z" id="l"/>
    <path d="M8.07-3.873c.167 0 .382 0 .382-.216 0-.227-.203-.227-.382-.227H1.028c-.167 0-.382 0-.382.215 0 .228.203.228.382.228H8.07zm0 2.223c.167 0 .382 0 .382-.215 0-.227-.203-.227-.382-.227H1.028c-.167 0-.382 0-.382.215 0 .227.203.227.382.227H8.07z" id="c"/>
    <path d="M3.475-1.81h2.343c.112 0 .287 0 .287-.183s-.175-.183-.287-.183H3.475v-2.351c0-.112 0-.287-.183-.287s-.184.175-.184.287v2.351H.758c-.112 0-.288 0-.288.183s.176.184.287.184h2.351V.542c0 .112 0 .287.184.287s.183-.175.183-.287v-2.351z" id="n"/>
    <path d="M2.503-5.077c0-.215-.016-.223-.232-.223-.326.319-.749.51-1.506.51v.263c.215 0 .646 0 1.108-.215v4.088c0 .295-.024.391-.781.391H.813V0c.327-.024 1.012-.024 1.37-.024s1.053 0 1.38.024v-.263h-.28c-.756 0-.78-.096-.78-.39v-4.424z" id="o"/>
    <path d="M3.108-5.212c-1.53.37-2.63 1.96-2.63 3.359 0 1.28.861 1.996 1.817 1.996 1.411 0 2.368-1.936 2.368-3.526 0-1.076-.503-1.734-.801-2.128-.443-.562-1.16-1.483-1.16-2.057 0-.203.155-.562.681-.562.37 0 .598.132.957.335.107.072.382.227.538.227.25 0 .43-.25.43-.442 0-.227-.18-.263-.598-.359-.562-.12-.729-.12-.932-.12s-1.375 0-1.375 1.22c0 .586.299 1.268.705 2.057zm.132.227c.454.944.633 1.303.633 2.08 0 .932-.502 2.81-1.566 2.81-.466 0-1.135-.311-1.135-1.423 0-.777.442-3.037 2.068-3.467z" id="a"/>
    <path d="M2.331.048c0-.694-.227-1.208-.717-1.208-.383 0-.574.311-.574.574S1.22 0 1.626 0a.531.531 0 0 0 .394-.155c.024-.024.036-.024.048-.024.024 0 .024.167.024.227 0 .394-.072 1.171-.765 1.949-.131.143-.131.167-.131.19 0 .06.06.12.12.12.095 0 1.015-.884 1.015-2.26z" id="h"/>
    <path d="M5.428-3.993c-.072-.67-.49-1.47-1.566-1.47-1.686 0-3.408 1.71-3.408 3.61 0 .73.502 2.104 2.128 2.104 2.822 0 4.03-4.113 4.03-5.75 0-1.722-.97-3.049-2.5-3.049-1.733 0-2.247 1.518-2.247 1.841 0 .108.072.37.406.37.419 0 .598-.382.598-.585 0-.37-.37-.37-.526-.37.49-.885 1.399-.969 1.722-.969 1.052 0 1.721.837 1.721 2.176 0 .765-.227 1.65-.346 2.092h-.012zM2.618-.072c-1.124 0-1.315-.884-1.315-1.387 0-.526.335-1.757.514-2.2.156-.358.837-1.565 2.08-1.565 1.088 0 1.34.944 1.34 1.59 0 .884-.778 3.562-2.619 3.562z" id="d"/>
    <path d="M6.384-7.34c.096-.36.12-.479.705-.479.192 0 .311 0 .311-.215 0-.131-.107-.131-.155-.131-.203 0-.43.024-.646.024h-.657c-.502 0-1.028-.024-1.53-.024-.108 0-.252 0-.252.215 0 .12.096.12.096.131h.299c.956 0 .956.096.956.275 0 .012 0 .096-.047.287L4.089-1.793C3.778-.573 2.977.012 2.403.012c-.406 0-.98-.191-1.124-.825a.7.7 0 0 0 .156.024.72.72 0 0 0 .705-.693c0-.192-.12-.443-.478-.443-.215 0-.718.12-.718.897 0 .753.622 1.28 1.483 1.28 1.088 0 2.26-.826 2.546-1.962l1.411-5.63z" id="e"/>
    <path d="M2.762-7.998c.012-.048.036-.12.036-.18 0-.119-.12-.119-.144-.119-.012 0-.442.036-.657.06-.204.012-.383.036-.598.048-.287.024-.37.036-.37.25 0 .12.119.12.238.12.61 0 .61.108.61.227 0 .084-.096.43-.143.646l-.287 1.148c-.12.478-.801 3.192-.85 3.407-.059.299-.059.502-.059.657C.538-.514 1.219.12 1.997.12c1.386 0 2.82-1.782 2.82-3.515 0-1.1-.62-1.877-1.517-1.877-.622 0-1.184.514-1.411.753l.873-3.479zM2.008-.12c-.382 0-.8-.286-.8-1.219 0-.395.035-.622.25-1.459.036-.155.228-.92.276-1.075.023-.096.729-1.16 1.542-1.16.526 0 .765.526.765 1.148 0 .573-.335 1.924-.634 2.546-.299.646-.849 1.22-1.399 1.22z" id="i"/>
    <path d="M4.113-.73c.263.718 1.004.85 1.458.85.909 0 1.447-.79 1.781-1.614.275-.694.718-2.272.718-2.977 0-.73-.37-.801-.478-.801-.287 0-.55.287-.55.526 0 .143.083.227.143.275.108.107.418.43.418 1.052 0 .406-.334 1.53-.585 2.092-.335.73-.777 1.207-1.4 1.207-.669 0-.884-.502-.884-1.052 0-.346.108-.765.156-.968l.502-2.008c.06-.24.167-.658.167-.706 0-.18-.143-.299-.323-.299-.346 0-.43.3-.502.586-.12.466-.621 2.487-.67 2.75-.047.203-.047.335-.047.598 0 .286-.383.74-.395.765-.131.131-.322.334-.693.334-.944 0-.944-.896-.944-1.1 0-.382.083-.908.621-2.33.144-.371.203-.527.203-.766 0-.502-.358-.956-.944-.956-1.1 0-1.542 1.733-1.542 1.829 0 .048.048.108.131.108.108 0 .12-.048.168-.216.299-1.052.765-1.482 1.207-1.482.12 0 .311.012.311.394 0 .06 0 .311-.203.837-.562 1.495-.682 1.985-.682 2.44C1.255-.109 2.283.12 2.893.12c.203 0 .741 0 1.22-.85z" id="g"/>
    <path d="M5.667-4.878c-.383.072-.526.359-.526.586 0 .287.227.383.394.383.359 0 .61-.311.61-.634 0-.502-.574-.73-1.076-.73-.73 0-1.136.718-1.243.945-.275-.896-1.017-.944-1.232-.944C1.374-5.272.73-3.706.73-3.443c0 .048.048.108.132.108.095 0 .12-.072.143-.12.407-1.327 1.208-1.578 1.554-1.578.538 0 .646.502.646.789 0 .263-.072.538-.215 1.112l-.407 1.638C2.403-.777 2.056-.12 1.422-.12c-.06 0-.358 0-.609-.155a.617.617 0 0 0 .526-.586c0-.239-.18-.382-.406-.382a.623.623 0 0 0-.598.633c0 .502.562.73 1.076.73.574 0 .98-.455 1.231-.945.191.705.79.945 1.231.945 1.22 0 1.865-1.567 1.865-1.83 0-.06-.047-.107-.12-.107-.107 0-.119.06-.154.155C5.14-.61 4.447-.12 3.909-.12c-.418 0-.645-.31-.645-.8 0-.264.048-.455.239-1.244L3.92-3.79c.18-.717.586-1.243 1.136-1.243.024 0 .359 0 .61.155z" id="j"/>
    <path d="M3.144 1.339c-.323.454-.789.86-1.375.86-.143 0-.717-.023-.896-.573.036.012.095.012.12.012.358 0 .597-.311.597-.586s-.227-.37-.406-.37c-.192 0-.61.143-.61.729 0 .61.514 1.028 1.195 1.028 1.196 0 2.403-1.1 2.738-2.427L5.68-4.651c.012-.06.036-.131.036-.203 0-.18-.144-.299-.323-.299-.108 0-.359.048-.455.407l-.884 3.515c-.06.215-.06.239-.156.37-.239.335-.633.741-1.207.741-.67 0-.73-.657-.73-.98 0-.681.323-1.602.646-2.463.132-.346.203-.514.203-.753 0-.502-.358-.956-.944-.956-1.1 0-1.542 1.733-1.542 1.829 0 .048.048.108.131.108.108 0 .12-.048.168-.216.287-1.004.74-1.482 1.207-1.482.108 0 .311 0 .311.394 0 .311-.132.658-.31 1.112-.587 1.566-.587 1.96-.587 2.248C1.243-.143 2.056.12 2.654.12c.347 0 .777-.108 1.196-.55l.012.012c-.18.705-.3 1.171-.718 1.757z" id="k"/>
    <path d="M1.518-.968c.514-.586.933-.957 1.53-1.495.718-.621 1.029-.92 1.196-1.1C5.081-4.388 5.5-5.08 5.5-5.177s-.095-.095-.12-.095c-.083 0-.107.048-.167.131-.298.514-.585.765-.896.765-.251 0-.383-.107-.61-.394-.251-.299-.454-.502-.8-.502-.874 0-1.4 1.088-1.4 1.339 0 .036.012.107.12.107.096 0 .108-.047.143-.131.204-.478.777-.562 1.005-.562.25 0 .49.084.74.191.455.192.646.192.766.192.084 0 .131 0 .191-.012-.394.466-1.04 1.04-1.578 1.53L1.686-1.506C.956-.766.514-.06.514.024c0 .072.06.096.132.096S.729.108.813-.036c.191-.299.574-.741 1.016-.741.251 0 .37.084.61.382.227.263.43.515.813.515 1.171 0 1.84-1.519 1.84-1.794 0-.048-.011-.12-.13-.12-.096 0-.108.049-.144.168-.263.705-.968.992-1.435.992-.25 0-.49-.083-.74-.19-.48-.192-.61-.192-.766-.192-.12 0-.251 0-.359.048z" id="m"/>
  </defs>
  <g transform="matrix(1.13 0 0 1.13 -63.986 -61.044)">
    <use x="56.413" xlink:href="#a" y="71.759"/>
    <use x="62.027" xlink:href="#b" y="66.823"/>
    <use x="68.468" xlink:href="#c" y="71.759"/>
    <use x="82.055" xlink:href="#d" y="63.672"/>
    <use x="88.862" xlink:href="#e" y="63.672"/>
    <use x="98.407" xlink:href="#f" y="63.672"/>
    <use x="102.959" xlink:href="#g" y="63.672"/>
    <use x="111.618" xlink:href="#h" y="63.672"/>
    <use x="116.85" xlink:href="#i" y="63.672"/>
    <use x="121.808" xlink:href="#h" y="63.672"/>
    <use x="127.04" xlink:href="#j" y="63.672"/>
    <use x="133.668" xlink:href="#h" y="63.672"/>
    <use x="138.9" xlink:href="#k" y="63.672"/>
    <use x="145.015" xlink:href="#l" y="63.672"/>
    <path d="M82.055 68.531h67.692v.478H82.055z"/>
    <use x="107.941" xlink:href="#d" y="79.96"/>
    <use x="114.747" xlink:href="#m" y="79.96"/>
    <use x="120.698" xlink:href="#b" y="76.506"/>
    <use x="154.263" xlink:href="#c" y="71.759"/>
    <use x="167.85" xlink:href="#d" y="63.672"/>
    <use x="174.657" xlink:href="#e" y="63.672"/>
    <use x="184.202" xlink:href="#f" y="63.672"/>
    <use x="188.755" xlink:href="#g" y="63.672"/>
    <use x="197.413" xlink:href="#h" y="63.672"/>
    <use x="202.645" xlink:href="#i" y="63.672"/>
    <use x="207.604" xlink:href="#h" y="63.672"/>
    <use x="212.836" xlink:href="#j" y="63.672"/>
    <use x="219.463" xlink:href="#h" y="63.672"/>
    <use x="224.695" xlink:href="#k" y="63.672"/>
    <use x="230.81" xlink:href="#l" y="63.672"/>
    <path d="M167.85 68.531h67.692v.478H167.85z"/>
    <use x="188.325" xlink:href="#d" y="79.96"/>
    <use x="195.132" xlink:href="#m" y="79.96"/>
    <use x="201.083" xlink:href="#b" y="76.506"/>
    <use x="203.695" xlink:href="#n" y="76.506"/>
    <use x="210.257" xlink:href="#o" y="76.506"/>
    <use x="237.933" xlink:href="#d" y="63.672"/>
    <use x="244.74" xlink:href="#m" y="63.672"/>
    <use x="250.69" xlink:href="#b" y="59.333"/>
    <use x="253.303" xlink:href="#n" y="59.333"/>
    <use x="259.865" xlink:href="#o" y="59.333"/>
    <path d="M237.933 68.531h26.741v.478h-26.741z"/>
    <use x="243.344" xlink:href="#d" y="79.96"/>
    <use x="250.15" xlink:href="#m" y="79.96"/>
    <use x="256.101" xlink:href="#b" y="76.506"/>
    <use x="269.191" xlink:href="#c" y="71.759"/>
    <use x="281.582" xlink:href="#a" y="71.759"/>
    <use x="287.196" xlink:href="#b" y="66.823"/>
    <use x="289.809" xlink:href="#n" y="66.823"/>
    <use x="296.371" xlink:href="#o" y="66.823"/>
    <use x="302.332" xlink:href="#d" y="63.672"/>
    <use x="309.139" xlink:href="#m" y="63.672"/>
    <use x="315.09" xlink:href="#b" y="59.333"/>
    <use x="317.702" xlink:href="#n" y="59.333"/>
    <use x="324.264" xlink:href="#o" y="59.333"/>
    <path d="M302.332 68.531h26.741v.478h-26.741z"/>
    <use x="307.743" xlink:href="#d" y="79.96"/>
    <use x="314.55" xlink:href="#m" y="79.96"/>
    <use x="320.5" xlink:href="#b" y="76.506"/>
  </g>
</svg>
