<svg height="16.215" viewBox="-0.239 -0.237 100.155 12.162" width="133.54" xmlns="http://www.w3.org/2000/svg" xmlns:xlink="http://www.w3.org/1999/xlink">
  <defs>
    <path d="M2.088-5.292a.991.991 0 0 0 .032-.128c0-.04-.032-.111-.127-.111l-.805.063c-.295.024-.36.032-.36.176 0 .111.112.111.208.111.383 0 .383.048.383.12 0 .024 0 .04-.04.183L.39-.925c-.032.128-.032.248-.032.256 0 .494.406.749.805.749.342 0 .526-.271.613-.447.144-.263.263-.733.263-.773 0-.048-.024-.103-.127-.103-.072 0-.096.04-.096.047a2.022 2.022 0 0 0-.08.256c-.12.462-.27.797-.557.797-.192 0-.247-.184-.247-.375 0-.151.023-.24.047-.343l1.108-4.431z" id="b"/>
    <path d="M4.77-2.762h3.3c.167 0 .382 0 .382-.215 0-.227-.203-.227-.382-.227h-3.3v-3.3c0-.167 0-.382-.215-.382-.227 0-.227.203-.227.382v3.3h-3.3c-.167 0-.382 0-.382.215 0 .227.203.227.382.227h3.3v3.3c0 .167 0 .383.215.383.227 0 .227-.204.227-.383v-3.3z" id="h"/>
    <path d="M8.07-3.873c.167 0 .382 0 .382-.216 0-.227-.203-.227-.382-.227H1.028c-.167 0-.382 0-.382.215 0 .228.203.228.382.228H8.07zm0 2.223c.167 0 .382 0 .382-.215 0-.227-.203-.227-.382-.227H1.028c-.167 0-.382 0-.382.215 0 .227.203.227.382.227H8.07z" id="e"/>
    <path d="M4.555-4.818c.108-.131.108-.155.108-.203 0-.132-.084-.132-.287-.132H.622L.49-3.252h.263c.072-1.22.299-1.662 1.602-1.662h1.387L.322-.215C.323 0 .348 0 .61 0h3.897l.191-2.2h-.263C4.328-.837 4.125-.263 2.702-.263H1.255l3.3-4.555z" id="a"/>
    <path d="M3.475-1.81h2.343c.112 0 .287 0 .287-.183s-.175-.183-.287-.183H3.475v-2.351c0-.112 0-.287-.183-.287s-.184.175-.184.287v2.351H.758c-.112 0-.288 0-.288.183s.176.184.287.184h2.351V.542c0 .112 0 .287.184.287s.183-.175.183-.287v-2.351z" id="c"/>
    <path d="M2.503-5.077c0-.215-.016-.223-.232-.223-.326.319-.749.51-1.506.51v.263c.215 0 .646 0 1.108-.215v4.088c0 .295-.024.391-.781.391H.813V0c.327-.024 1.012-.024 1.37-.024s1.053 0 1.38.024v-.263h-.28c-.756 0-.78-.096-.78-.39v-4.424z" id="d"/>
    <path d="M3.599-1.423c-.06.204-.06.227-.228.455-.263.334-.789.848-1.35.848-.49 0-.766-.442-.766-1.147 0-.658.37-1.997.598-2.499.407-.837.968-1.267 1.435-1.267.789 0 .944.98.944 1.076 0 .012-.036.167-.048.191L3.6-1.423zm.765-3.06c-.132-.311-.455-.79-1.076-.79-1.351 0-2.81 1.746-2.81 3.516C.478-.574 1.172.12 1.985.12c.657 0 1.219-.515 1.554-.909.12.705.681.909 1.04.909s.645-.216.86-.646c.192-.407.36-1.136.36-1.184 0-.06-.049-.107-.12-.107-.108 0-.12.06-.168.239-.179.705-.406 1.458-.896 1.458-.347 0-.37-.31-.37-.55 0-.274.035-.406.143-.872.083-.3.143-.562.239-.909.442-1.793.55-2.223.55-2.295a.299.299 0 0 0-.311-.3c-.383 0-.478.42-.502.563z" id="g"/>
    <path d="M2.762-7.998c.012-.048.036-.12.036-.18 0-.119-.12-.119-.144-.119-.012 0-.442.036-.657.06-.204.012-.383.036-.598.048-.287.024-.37.036-.37.25 0 .12.119.12.238.12.61 0 .61.108.61.227 0 .084-.096.43-.143.646l-.287 1.148c-.12.478-.801 3.192-.85 3.407-.059.299-.059.502-.059.657C.538-.514 1.219.12 1.997.12c1.386 0 2.82-1.782 2.82-3.515 0-1.1-.62-1.877-1.517-1.877-.622 0-1.184.514-1.411.753l.873-3.479zM2.008-.12c-.382 0-.8-.286-.8-1.219 0-.395.035-.622.25-1.459.036-.155.228-.92.276-1.075.023-.096.729-1.16 1.542-1.16.526 0 .765.526.765 1.148 0 .573-.335 1.924-.634 2.546-.299.646-.849 1.22-1.399 1.22z" id="i"/>
    <path d="M4.113-.73c.263.718 1.004.85 1.458.85.909 0 1.447-.79 1.781-1.614.275-.694.718-2.272.718-2.977 0-.73-.37-.801-.478-.801-.287 0-.55.287-.55.526 0 .143.083.227.143.275.108.107.418.43.418 1.052 0 .406-.334 1.53-.585 2.092-.335.73-.777 1.207-1.4 1.207-.669 0-.884-.502-.884-1.052 0-.346.108-.765.156-.968l.502-2.008c.06-.24.167-.658.167-.706 0-.18-.143-.299-.323-.299-.346 0-.43.3-.502.586-.12.466-.621 2.487-.67 2.75-.047.203-.047.335-.047.598 0 .286-.383.74-.395.765-.131.131-.322.334-.693.334-.944 0-.944-.896-.944-1.1 0-.382.083-.908.621-2.33.144-.371.203-.527.203-.766 0-.502-.358-.956-.944-.956-1.1 0-1.542 1.733-1.542 1.829 0 .048.048.108.131.108.108 0 .12-.048.168-.216.299-1.052.765-1.482 1.207-1.482.12 0 .311.012.311.394 0 .06 0 .311-.203.837-.562 1.495-.682 1.985-.682 2.44C1.255-.109 2.283.12 2.893.12c.203 0 .741 0 1.22-.85z" id="f"/>
  </defs>
  <g transform="matrix(1.13 0 0 1.13 -63.986 -63.405)">
    <use x="56.413" xlink:href="#a" y="65.753"/>
    <use x="61.596" xlink:href="#b" y="61.415"/>
    <use x="64.209" xlink:href="#c" y="61.415"/>
    <use x="70.771" xlink:href="#d" y="61.415"/>
    <use x="78.858" xlink:href="#e" y="65.753"/>
    <use x="91.25" xlink:href="#f" y="65.753"/>
    <use x="99.908" xlink:href="#b" y="61.415"/>
    <use x="102.521" xlink:href="#c" y="61.415"/>
    <use x="109.083" xlink:href="#d" y="61.415"/>
    <use x="113.849" xlink:href="#g" y="65.753"/>
    <use x="119.971" xlink:href="#b" y="61.415"/>
    <use x="125.748" xlink:href="#h" y="65.753"/>
    <use x="137.475" xlink:href="#i" y="65.753"/>
    <use x="142.434" xlink:href="#b" y="61.415"/>
  </g>
</svg>
