<svg height="21.376" viewBox="-0.239 -0.23 189.353 16.032" width="252.471" xmlns="http://www.w3.org/2000/svg" xmlns:xlink="http://www.w3.org/1999/xlink">
  <defs>
    <path d="M3.033 1.596v-.04C2.001.627 1.382-.77 1.382-2.215c0-1.438.619-2.843 1.651-3.78v-.04h-.881C1.23-4.987.699-3.772.699-2.215S1.23.548 2.152 1.596h.881z" id="i"/>
    <path d="M2.906-2.215c0-1.557-.532-2.772-1.445-3.82h-.89v.04c1.04.937 1.652 2.342 1.652 3.78C2.223-.77 1.612.627.572 1.556v.04h.889C2.374.548 2.906-.659 2.906-2.215z" id="k"/>
    <path d="M2.231-1.104h-.984L.572 1.437h.563l1.096-2.54z" id="a"/>
    <path d="M4.2 0v-.588H3.025v-5.2h-.603c-.032.563-.429.801-1.342.801v.525h1.199v3.874h-1.2V0H4.2z" id="j"/>
    <path d="M4.534 0v-.659H1.429C3.66-2.557 4.288-3.2 4.288-4.304c0-.976-.715-1.588-1.898-1.588-.572 0-1.255.175-1.62.358v.817h.04c.516-.341 1.096-.508 1.564-.508.707 0 1.12.358 1.12.961 0 .866-.508 1.43-2.867 3.454V0h3.907z" id="o"/>
    <path d="M4.455-1.707c0-.794-.453-1.318-1.263-1.445v-.056c.611-.127 1.135-.651 1.135-1.294 0-.54-.301-1.39-1.89-1.39-.571 0-1.254.183-1.62.366v.81H.85c.492-.326 1.08-.509 1.572-.509.722 0 1.12.294 1.12.802 0 .683-.47.969-1.557.969v.643c1.286 0 1.675.215 1.675 1.04 0 .77-.5 1.223-1.318 1.223-.555 0-1.199-.214-1.635-.508H.65v.81a4.426 4.426 0 0 0 1.707.365c1.287 0 2.097-.754 2.097-1.826z" id="q"/>
    <path d="M5.55-3.033v-.62H.953v.62H5.55zm0 1.628v-.62H.953v.62H5.55z" id="b"/>
    <path d="M7.496-5.773H6.74L5.534-.929 4.327-5.773H3.55L2.36-.977 1.142-5.773H.357L1.882 0h.85l1.183-4.796L5.129 0h.866l1.5-5.773z" id="c"/>
    <path d="M5.177-5.773h-.842L2.747-3.43 1.191-5.773H.31l1.969 2.89L.262 0h.842l1.612-2.374L4.288 0h.89L3.183-2.922l1.993-2.85z" id="d"/>
    <path d="M2.946 1.517V.969H1.604V-5.48h1.342v-.556H.929v7.552h2.017z" id="e"/>
    <path d="M2.676 1.517v-7.552H.659v.556h1.342V.97H.659v.548h2.017z" id="f"/>
    <path d="M4.081 0v-2.938c0-1.032-.587-1.5-1.882-1.5-.524 0-1.127.126-1.413.198v.746h.04c.5-.198.984-.301 1.366-.301.865 0 1.167.238 1.167.936-2.263.112-2.954.477-2.954 1.604 0 .802.62 1.374 1.397 1.374.652 0 .858-.103 1.557-.58V0h.722zM3.36-1.064c-.365.278-.778.508-1.295.508-.61 0-.905-.254-.905-.754 0-.691.508-.866 2.2-.96v1.206z" id="g"/>
    <path d="M1.453 0v-6.035h-.73V0h.73z" id="p"/>
    <use id="n" transform="scale(1.5)" xlink:href="#a"/>
    <use id="l" transform="scale(1.5)" xlink:href="#b"/>
    <use id="t" transform="scale(1.5)" xlink:href="#c"/>
    <use id="s" transform="scale(1.5)" xlink:href="#d"/>
    <use id="m" transform="scale(1.5)" xlink:href="#e"/>
    <use id="r" transform="scale(1.5)" xlink:href="#f"/>
    <use id="h" transform="scale(1.5)" xlink:href="#g"/>
  </defs>
  <g transform="matrix(1.13 0 0 1.13 -63.986 -61.597)">
    <use x="56.413" xlink:href="#h" y="65.753"/>
    <use x="63.598" xlink:href="#i" y="61.072"/>
    <use x="67.217" xlink:href="#j" y="60.817"/>
    <use x="72.267" xlink:href="#k" y="61.072"/>
    <use x="79.723" xlink:href="#l" y="65.753"/>
    <use x="92.787" xlink:href="#m" y="66.193"/>
    <use x="98.214" xlink:href="#h" y="65.753"/>
    <use x="105.399" xlink:href="#j" y="67.547"/>
    <use x="110.449" xlink:href="#j" y="67.547"/>
    <use x="116.036" xlink:href="#n" y="65.753"/>
    <use x="126.572" xlink:href="#h" y="65.753"/>
    <use x="133.757" xlink:href="#j" y="67.549"/>
    <use x="138.807" xlink:href="#o" y="67.549"/>
    <use x="144.393" xlink:href="#n" y="65.753"/>
    <use x="154.929" xlink:href="#h" y="65.753"/>
    <use x="162.114" xlink:href="#p" y="67.733"/>
    <use x="164.298" xlink:href="#q" y="67.733"/>
    <use x="169.865" xlink:href="#r" y="66.193"/>
    <use x="178.646" xlink:href="#l" y="65.753"/>
    <use x="191.71" xlink:href="#s" y="65.753"/>
    <use x="199.868" xlink:href="#t" y="65.753"/>
    <use x="211.723" xlink:href="#i" y="60.442"/>
    <use x="215.341" xlink:href="#j" y="60.187"/>
    <use x="220.391" xlink:href="#k" y="60.442"/>
  </g>
</svg>
