<svg height="41.1" viewBox="-0.239 -0.228 174.307 30.825" width="232.409" xmlns="http://www.w3.org/2000/svg" xmlns:xlink="http://www.w3.org/1999/xlink">
  <defs>
    <path d="M8.44-3.228h-.502c-.25 1.781-.693 2.714-2.773 2.714H3.3V-3.97h.705c1.148 0 1.267.49 1.267 1.399h.502v-3.312h-.502c0 .897-.12 1.399-1.267 1.399H3.3v-3.144h1.865c1.829 0 2.223.777 2.403 2.319h.502l-.347-2.833H.454v.514h1.268v7.113H.454V0h7.472l.514-3.228z" id="c"/>
    <path d="M6.372-1.518L3.502-7.95c-.107-.251-.214-.251-.465-.251H.49v.514h1.267v6.814c0 .263-.012.275-.322.323a6.28 6.28 0 0 1-.67.036H.49V0c.275-.024 1.208-.024 1.542-.024s1.28 0 1.555.024v-.514h-.275c-.323 0-.347 0-.634-.036-.347-.048-.359-.06-.359-.323v-6.67h.012L5.583-.252c.06.131.132.251.335.251s.275-.12.335-.251l3.311-7.436h.012v7.173H8.31V0c.323-.024 1.566-.024 1.972-.024s1.65 0 1.973.024v-.514h-1.267v-7.173h1.267v-.514H9.708c-.251 0-.36 0-.467.25L6.372-1.517z" id="a"/>
    <path d="M3.037-5.26c-1.184-.263-1.22-1.124-1.22-1.291 0-.61.395-1.316 1.554-1.316s2.2.562 2.451 2.129c.036.25.036.263.263.263.251 0 .251-.036.251-.311v-2.248c0-.227 0-.31-.18-.31-.083 0-.119.011-.226.13l-.514.587c-.3-.251-.897-.718-2.057-.718-1.71 0-2.618 1.076-2.618 2.38 0 .8.43 1.362.598 1.53.622.621.956.693 2.2.968 1.195.263 1.339.287 1.602.538.155.155.502.49.502 1.1 0 .514-.251 1.458-1.59 1.458C3-.37 1.339-.729 1.243-2.475c-.012-.215-.012-.25-.25-.25-.252 0-.252.035-.252.31v2.248c0 .227 0 .31.18.31.083 0 .095-.011.215-.12.131-.13.239-.286.538-.585.693.55 1.673.705 2.39.705C5.93.143 6.72-1.124 6.72-2.39c0-1.124-.741-2.2-2.045-2.499l-1.637-.37z" id="b"/>
    <path d="M2.375-4.973c0-.176-.127-.303-.31-.303-.208 0-.44.191-.44.43 0 .176.128.303.312.303.207 0 .438-.191.438-.43zM1.211-2.048l-.43 1.1c-.04.12-.08.215-.08.35 0 .39.303.678.726.678.773 0 1.1-1.116 1.1-1.22 0-.08-.064-.103-.12-.103-.096 0-.112.055-.136.135-.183.638-.51.965-.828.965-.096 0-.192-.04-.192-.256 0-.19.056-.334.16-.581.08-.216.16-.43.247-.646l.247-.645c.072-.184.167-.43.167-.566 0-.399-.319-.678-.725-.678-.773 0-1.108 1.116-1.108 1.22 0 .071.056.103.12.103.103 0 .111-.048.135-.127.223-.757.59-.973.829-.973.112 0 .191.04.191.263 0 .08-.008.192-.087.43l-.216.55z" id="k"/>
    <path d="M1.594-1.307c.024-.12.104-.423.128-.542.111-.43.111-.438.294-.701.263-.391.638-.742 1.172-.742.287 0 .454.168.454.542 0 .439-.334 1.347-.486 1.738-.103.263-.103.31-.103.414 0 .455.374.678.717.678.78 0 1.108-1.116 1.108-1.22 0-.08-.064-.103-.12-.103-.095 0-.111.055-.135.135-.192.654-.526.965-.83.965-.127 0-.19-.08-.19-.263s.063-.36.143-.558c.12-.303.47-1.22.47-1.666 0-.598-.414-.885-.988-.885-.646 0-1.06.39-1.291.694-.056-.439-.407-.694-.813-.694-.287 0-.486.183-.614.43a3.148 3.148 0 0 0-.27.79c0 .071.055.103.119.103.103 0 .111-.032.167-.239.096-.39.24-.86.574-.86.207 0 .255.199.255.374 0 .143-.04.295-.104.558a43.13 43.13 0 0 1-.167.645L.789-.518c-.032.12-.08.319-.08.35C.71.017.861.08.964.08a.385.385 0 0 0 .32-.192c.023-.047.087-.318.127-.486l.183-.71z" id="j"/>
    <path d="M5.033 6.384L.79 11.632c-.096.12-.108.144-.108.192 0 .131.108.131.323.131h9.911l1.028-2.977h-.299c-.299.897-1.1 1.626-2.116 1.973-.191.06-1.016.347-2.773.347H1.674l4.148-5.13c.084-.107.108-.143.108-.19s-.012-.06-.084-.168L1.961.478h4.734c1.363 0 4.112.084 4.95 2.32h.298L10.915 0h-9.91C.68 0 .668.012.668.383l4.364 6.001z" id="i"/>
    <path d="M7.878-2.75c.204 0 .419 0 .419-.239s-.215-.239-.419-.239H1.411c-.204 0-.419 0-.419.24s.215.238.419.238h6.467z" id="n"/>
    <path d="M3.885 2.905c0-.036 0-.06-.203-.263-1.195-1.207-1.865-3.18-1.865-5.619 0-2.32.562-4.316 1.949-5.726.12-.108.12-.132.12-.168 0-.071-.06-.095-.108-.095-.156 0-1.136.86-1.722 2.032-.61 1.207-.884 2.487-.884 3.957 0 1.064.167 2.487.789 3.766.705 1.435 1.685 2.212 1.817 2.212.048 0 .107-.024.107-.096z" id="d"/>
    <path d="M3.371-2.977c0-.908-.12-2.39-.789-3.778C1.877-8.189.897-8.966.765-8.966c-.048 0-.107.024-.107.095 0 .036 0 .06.203.263 1.195 1.208 1.865 3.18 1.865 5.62 0 2.319-.562 4.315-1.949 5.726-.12.107-.12.131-.12.167 0 .072.06.096.108.096C.921 3 1.901 2.14 2.487.968c.61-1.22.884-2.51.884-3.945z" id="g"/>
    <path d="M8.07-3.873c.167 0 .382 0 .382-.216 0-.227-.203-.227-.382-.227H1.028c-.167 0-.382 0-.382.215 0 .228.203.228.382.228H8.07zm0 2.223c.167 0 .382 0 .382-.215 0-.227-.203-.227-.382-.227H1.028c-.167 0-.382 0-.382.215 0 .227.203.227.382.227H8.07z" id="h"/>
    <path d="M2.503-5.077c0-.215-.016-.223-.232-.223-.326.319-.749.51-1.506.51v.263c.215 0 .646 0 1.108-.215v4.088c0 .295-.024.391-.781.391H.813V0c.327-.024 1.012-.024 1.37-.024s1.053 0 1.38.024v-.263h-.28c-.756 0-.78-.096-.78-.39v-4.424z" id="m"/>
    <path d="M2.248-1.626c.127-.12.462-.382.59-.494.494-.454.964-.893.964-1.618 0-.948-.797-1.562-1.794-1.562-.956 0-1.586.725-1.586 1.434 0 .391.311.447.423.447a.41.41 0 0 0 .414-.423c0-.414-.398-.414-.494-.414a1.232 1.232 0 0 1 1.156-.781c.741 0 1.124.63 1.124 1.299 0 .829-.582 1.435-1.523 2.399L.518-.303C.422-.215.422-.199.422 0h3.149l.23-1.427h-.246c-.024.16-.088.558-.184.71-.047.063-.653.063-.78.063H1.17l1.077-.972z" id="o"/>
    <path d="M5.826-2.654c.12 0 .28 0 .28-.183s-.192-.184-.312-.184H.781c-.12 0-.31 0-.31.184s.159.183.278.183h5.077zm-.032 1.69c.12 0 .311 0 .311-.184s-.16-.183-.279-.183H.75c-.12 0-.279 0-.279.183s.192.184.311.184h5.013z" id="l"/>
    <path d="M2.331.048c0-.694-.227-1.208-.717-1.208-.383 0-.574.311-.574.574S1.22 0 1.626 0a.531.531 0 0 0 .394-.155c.024-.024.036-.024.048-.024.024 0 .024.167.024.227 0 .394-.072 1.171-.765 1.949-.131.143-.131.167-.131.19 0 .06.06.12.12.12.095 0 1.015-.884 1.015-2.26z" id="f"/>
    <path d="M2.463-3.503c.024-.072.323-.67.765-1.052.31-.287.717-.478 1.183-.478.479 0 .646.359.646.837 0 .681-.49 2.044-.73 2.69-.107.287-.167.442-.167.657 0 .538.371.969.945.969 1.112 0 1.53-1.758 1.53-1.83 0-.06-.048-.107-.12-.107-.107 0-.119.036-.179.239-.275.98-.729 1.458-1.195 1.458-.12 0-.311-.012-.311-.394 0-.299.131-.658.203-.825.24-.658.741-1.996.741-2.678 0-.717-.418-1.255-1.327-1.255-1.064 0-1.626.753-1.84 1.052-.037-.682-.527-1.052-1.053-1.052-.382 0-.645.227-.849.633C.49-4.209.323-3.49.323-3.443s.048.108.131.108c.096 0 .108-.012.18-.287.19-.73.406-1.411.884-1.411.275 0 .37.191.37.55 0 .263-.119.73-.202 1.1l-.335 1.29c-.048.228-.18.766-.24.981-.083.311-.214.873-.214.933 0 .167.131.299.31.299.144 0 .311-.072.407-.252.024-.06.131-.478.191-.717l.263-1.076.395-1.578z" id="p"/>
    <path d="M3.144 1.339c-.323.454-.789.86-1.375.86-.143 0-.717-.023-.896-.573.036.012.095.012.12.012.358 0 .597-.311.597-.586s-.227-.37-.406-.37c-.192 0-.61.143-.61.729 0 .61.514 1.028 1.195 1.028 1.196 0 2.403-1.1 2.738-2.427L5.68-4.651c.012-.06.036-.131.036-.203 0-.18-.144-.299-.323-.299-.108 0-.359.048-.455.407l-.884 3.515c-.06.215-.06.239-.156.37-.239.335-.633.741-1.207.741-.67 0-.73-.657-.73-.98 0-.681.323-1.602.646-2.463.132-.346.203-.514.203-.753 0-.502-.358-.956-.944-.956-1.1 0-1.542 1.733-1.542 1.829 0 .048.048.108.131.108.108 0 .12-.048.168-.216.287-1.004.74-1.482 1.207-1.482.108 0 .311 0 .311.394 0 .311-.132.658-.31 1.112-.587 1.566-.587 1.96-.587 2.248C1.243-.143 2.056.12 2.654.12c.347 0 .777-.108 1.196-.55l.012.012c-.18.705-.3 1.171-.718 1.757z" id="e"/>
  </defs>
  <g transform="matrix(1.13 0 0 1.13 -63.986 -61.042)">
    <use x="56.413" xlink:href="#a" y="72.895"/>
    <use x="69.123" xlink:href="#b" y="72.895"/>
    <use x="76.567" xlink:href="#c" y="72.895"/>
    <use x="87.463" xlink:href="#d" y="72.895"/>
    <use x="92.016" xlink:href="#e" y="72.895"/>
    <path d="M98.21 74.29h2.541v.399H98.21z"/>
    <use x="101.249" xlink:href="#f" y="72.895"/>
    <use x="110.383" xlink:href="#e" y="72.895"/>
    <use x="116.498" xlink:href="#g" y="72.895"/>
    <use x="124.426" xlink:href="#h" y="72.895"/>
    <use x="138.013" xlink:href="#i" y="55.78"/>
    <use x="150.633" xlink:href="#j" y="58.934"/>
    <use x="150.633" xlink:href="#k" y="68.233"/>
    <use x="153.505" xlink:href="#l" y="68.233"/>
    <use x="160.067" xlink:href="#m" y="68.233"/>
    <use x="166.827" xlink:href="#d" y="64.746"/>
    <use x="171.379" xlink:href="#e" y="64.746"/>
    <use x="180.151" xlink:href="#n" y="64.746"/>
    <use x="192.072" xlink:href="#e" y="64.746"/>
    <path d="M198.266 66.141h2.541v.399h-2.541z"/>
    <use x="201.305" xlink:href="#g" y="64.746"/>
    <use x="205.935" xlink:href="#o" y="58.935"/>
    <path d="M138.013 69.668h72.654v.478h-72.654z"/>
    <use x="170.846" xlink:href="#p" y="81.096"/>
  </g>
</svg>
