<svg height="40.702" viewBox="-0.239 -0.228 122.647 30.526" width="163.529" xmlns="http://www.w3.org/2000/svg" xmlns:xlink="http://www.w3.org/1999/xlink">
  <defs>
    <path d="M7.878-2.75c.204 0 .419 0 .419-.239s-.215-.239-.419-.239H1.411c-.204 0-.419 0-.419.24s.215.238.419.238h6.467z" id="f"/>
    <path d="M5.535-3.025c0-1.16-.657-2.247-1.925-2.247-1.566 0-3.132 1.71-3.132 3.407C.478-.825 1.124.12 2.343.12c.741 0 1.626-.287 2.475-1.005C4.985-.215 5.356.12 5.87.12c.646 0 .968-.67.968-.825 0-.108-.083-.108-.12-.108-.095 0-.107.036-.143.132-.107.298-.382.561-.67.561-.37 0-.37-.765-.37-1.494 1.22-1.458 1.507-2.965 1.507-2.977 0-.107-.096-.107-.132-.107-.108 0-.12.035-.167.25a7.44 7.44 0 0 1-1.208 2.44v-1.017zm-.753 1.853C3.73-.227 2.786-.12 2.367-.12c-.849 0-1.088-.753-1.088-1.315 0-.514.263-1.733.634-2.39.49-.838 1.16-1.208 1.697-1.208 1.16 0 1.16 1.518 1.16 2.522 0 .3-.012.61-.012.909 0 .24.012.299.024.43z" id="g"/>
    <path d="M5.296-6.013c0-1.22-.382-2.403-1.363-2.403C2.26-8.416.478-4.914.478-2.283c0 .55.12 2.403 1.375 2.403 1.626 0 3.443-3.42 3.443-6.133zM1.674-4.328c.18-.705.43-1.71.908-2.558.395-.717.813-1.291 1.34-1.291.394 0 .657.334.657 1.482 0 .43-.036 1.028-.383 2.367H1.674zm2.439.359c-.3 1.171-.55 1.925-.98 2.678-.347.61-.766 1.171-1.268 1.171-.37 0-.67-.286-.67-1.47 0-.777.192-1.59.383-2.38h2.535z" id="a"/>
    <path d="M5.428-3.993c-.072-.67-.49-1.47-1.566-1.47-1.686 0-3.408 1.71-3.408 3.61 0 .73.502 2.104 2.128 2.104 2.822 0 4.03-4.113 4.03-5.75 0-1.722-.97-3.049-2.5-3.049-1.733 0-2.247 1.518-2.247 1.841 0 .108.072.37.406.37.419 0 .598-.382.598-.585 0-.37-.37-.37-.526-.37.49-.885 1.399-.969 1.722-.969 1.052 0 1.721.837 1.721 2.176 0 .765-.227 1.65-.346 2.092h-.012zM2.618-.072c-1.124 0-1.315-.884-1.315-1.387 0-.526.335-1.757.514-2.2.156-.358.837-1.565 2.08-1.565 1.088 0 1.34.944 1.34 1.59 0 .884-.778 3.562-2.619 3.562z" id="h"/>
    <path d="M6.384-7.34c.096-.36.12-.479.705-.479.192 0 .311 0 .311-.215 0-.131-.107-.131-.155-.131-.203 0-.43.024-.646.024h-.657c-.502 0-1.028-.024-1.53-.024-.108 0-.252 0-.252.215 0 .12.096.12.096.131h.299c.956 0 .956.096.956.275 0 .012 0 .096-.047.287L4.089-1.793C3.778-.573 2.977.012 2.403.012c-.406 0-.98-.191-1.124-.825a.7.7 0 0 0 .156.024.72.72 0 0 0 .705-.693c0-.192-.12-.443-.478-.443-.215 0-.718.12-.718.897 0 .753.622 1.28 1.483 1.28 1.088 0 2.26-.826 2.546-1.962l1.411-5.63z" id="i"/>
    <path d="M3.475-1.81h2.343c.112 0 .287 0 .287-.183s-.175-.183-.287-.183H3.475v-2.351c0-.112 0-.287-.183-.287s-.184.175-.184.287v2.351H.758c-.112 0-.288 0-.288.183s.176.184.287.184h2.351V.542c0 .112 0 .287.184.287s.183-.175.183-.287v-2.351z" id="c"/>
    <path d="M2.503-5.077c0-.215-.016-.223-.232-.223-.326.319-.749.51-1.506.51v.263c.215 0 .646 0 1.108-.215v4.088c0 .295-.024.391-.781.391H.813V0c.327-.024 1.012-.024 1.37-.024s1.053 0 1.38.024v-.263h-.28c-.756 0-.78-.096-.78-.39v-4.424z" id="d"/>
    <path d="M1.594-1.307c.024-.12.104-.423.128-.542.111-.43.111-.438.294-.701.263-.391.638-.742 1.172-.742.287 0 .454.168.454.542 0 .439-.334 1.347-.486 1.738-.103.263-.103.31-.103.414 0 .455.374.678.717.678.78 0 1.108-1.116 1.108-1.22 0-.08-.064-.103-.12-.103-.095 0-.111.055-.135.135-.192.654-.526.965-.83.965-.127 0-.19-.08-.19-.263s.063-.36.143-.558c.12-.303.47-1.22.47-1.666 0-.598-.414-.885-.988-.885-.646 0-1.06.39-1.291.694-.056-.439-.407-.694-.813-.694-.287 0-.486.183-.614.43a3.148 3.148 0 0 0-.27.79c0 .071.055.103.119.103.103 0 .111-.032.167-.239.096-.39.24-.86.574-.86.207 0 .255.199.255.374 0 .143-.04.295-.104.558a43.13 43.13 0 0 1-.167.645L.789-.518c-.032.12-.08.319-.08.35C.71.017.861.08.964.08a.385.385 0 0 0 .32-.192c.023-.047.087-.318.127-.486l.183-.71z" id="b"/>
    <path d="M3.885 2.905c0-.036 0-.06-.203-.263-1.195-1.207-1.865-3.18-1.865-5.619 0-2.32.562-4.316 1.949-5.726.12-.108.12-.132.12-.168 0-.071-.06-.095-.108-.095-.156 0-1.136.86-1.722 2.032-.61 1.207-.884 2.487-.884 3.957 0 1.064.167 2.487.789 3.766.705 1.435 1.685 2.212 1.817 2.212.048 0 .107-.024.107-.096z" id="j"/>
    <path d="M3.371-2.977c0-.908-.12-2.39-.789-3.778C1.877-8.189.897-8.966.765-8.966c-.048 0-.107.024-.107.095 0 .036 0 .06.203.263 1.195 1.208 1.865 3.18 1.865 5.62 0 2.319-.562 4.315-1.949 5.726-.12.107-.12.131-.12.167 0 .072.06.096.108.096C.921 3 1.901 2.14 2.487.968c.61-1.22.884-2.51.884-3.945z" id="k"/>
    <path d="M8.07-3.873c.167 0 .382 0 .382-.216 0-.227-.203-.227-.382-.227H1.028c-.167 0-.382 0-.382.215 0 .228.203.228.382.228H8.07zm0 2.223c.167 0 .382 0 .382-.215 0-.227-.203-.227-.382-.227H1.028c-.167 0-.382 0-.382.215 0 .227.203.227.382.227H8.07z" id="e"/>
  </defs>
  <g transform="matrix(1.13 0 0 1.13 -63.986 -61.058)">
    <use x="56.413" xlink:href="#a" y="70.852"/>
    <use x="61.848" xlink:href="#b" y="72.646"/>
    <use x="66.967" xlink:href="#c" y="72.646"/>
    <use x="73.529" xlink:href="#d" y="72.646"/>
    <use x="81.626" xlink:href="#e" y="70.852"/>
    <use x="94.017" xlink:href="#a" y="70.852"/>
    <use x="99.452" xlink:href="#b" y="72.646"/>
    <use x="107.745" xlink:href="#f" y="70.852"/>
    <use x="119.666" xlink:href="#g" y="70.852"/>
    <use x="128.355" xlink:href="#h" y="62.765"/>
    <use x="135.162" xlink:href="#i" y="62.765"/>
    <use x="144.707" xlink:href="#j" y="62.765"/>
    <use x="149.26" xlink:href="#a" y="62.765"/>
    <use x="154.694" xlink:href="#b" y="64.558"/>
    <use x="160.331" xlink:href="#k" y="62.765"/>
    <path d="M128.355 67.624h36.596v.478h-36.596z"/>
    <use x="137.692" xlink:href="#h" y="79.053"/>
    <use x="144.499" xlink:href="#a" y="79.053"/>
    <use x="149.934" xlink:href="#b" y="80.846"/>
  </g>
</svg>
