<svg height="39.172" viewBox="-0.165 -0.302 117.267 29.379" width="156.356" xmlns="http://www.w3.org/2000/svg" xmlns:xlink="http://www.w3.org/1999/xlink">
  <defs>
    <path d="M5.571-1.81c.128 0 .303 0 .303-.183s-.175-.183-.303-.183H1.004c-.127 0-.303 0-.303.183s.176.184.303.184h4.567z" id="e"/>
    <path d="M5.535-3.025c0-1.16-.657-2.247-1.925-2.247-1.566 0-3.132 1.71-3.132 3.407C.478-.825 1.124.12 2.343.12c.741 0 1.626-.287 2.475-1.005C4.985-.215 5.356.12 5.87.12c.646 0 .968-.67.968-.825 0-.108-.083-.108-.12-.108-.095 0-.107.036-.143.132-.107.298-.382.561-.67.561-.37 0-.37-.765-.37-1.494 1.22-1.458 1.507-2.965 1.507-2.977 0-.107-.096-.107-.132-.107-.108 0-.12.035-.167.25a7.44 7.44 0 0 1-1.208 2.44v-1.017zm-.753 1.853C3.73-.227 2.786-.12 2.367-.12c-.849 0-1.088-.753-1.088-1.315 0-.514.263-1.733.634-2.39.49-.838 1.16-1.208 1.697-1.208 1.16 0 1.16 1.518 1.16 2.522 0 .3-.012.61-.012.909 0 .24.012.299.024.43z" id="m"/>
    <path d="M6.767-6.958c0-.717-.61-1.47-1.698-1.47-1.542 0-2.523 1.889-2.833 3.132L.346 2.2c-.023.095.049.12.108.12.084 0 .144-.013.156-.072L1.447-1.1c.12.67.777 1.22 1.482 1.22C4.639.12 6.253-1.22 6.253-3c0-.455-.108-.91-.36-1.292a2.014 2.014 0 0 0-.513-.538c.86-.454 1.387-1.183 1.387-2.128zm-2.08 2.116a1.674 1.674 0 0 1-.61.096c-.168 0-.323.012-.538-.06.12-.084.299-.108.55-.108.215 0 .43.024.597.072zm1.458-2.224c0 .658-.323 1.614-1.1 2.057a2.504 2.504 0 0 0-.8-.144c-.252 0-.97-.024-.97.359 0 .323.658.287.861.287.311 0 .586-.072.873-.156.383.311.55.718.55 1.316 0 .693-.191 1.255-.418 1.769C4.746-.693 3.814-.12 2.989-.12c-.873 0-1.327-.693-1.327-1.506 0-.108 0-.263.048-.442l.777-3.144C2.88-6.78 3.885-8.19 5.045-8.19c.86 0 1.1.597 1.1 1.123z" id="d"/>
    <path d="M5.296-6.013c0-1.22-.382-2.403-1.363-2.403C2.26-8.416.478-4.914.478-2.283c0 .55.12 2.403 1.375 2.403 1.626 0 3.443-3.42 3.443-6.133zM1.674-4.328c.18-.705.43-1.71.908-2.558.395-.717.813-1.291 1.34-1.291.394 0 .657.334.657 1.482 0 .43-.036 1.028-.383 2.367H1.674zm2.439.359c-.3 1.171-.55 1.925-.98 2.678-.347.61-.766 1.171-1.268 1.171-.37 0-.67-.286-.67-1.47 0-.777.192-1.59.383-2.38h2.535z" id="j"/>
    <path d="M6.013-7.998c.012-.048.036-.12.036-.18 0-.119-.12-.119-.143-.119-.012 0-.598.048-.658.06-.203.012-.382.036-.597.048-.3.024-.383.036-.383.25 0 .12.096.12.263.12.586 0 .598.108.598.227a.78.78 0 0 1-.036.204l-.73 2.905c-.13-.311-.454-.79-1.075-.79-1.351 0-2.81 1.746-2.81 3.516C.478-.574 1.172.12 1.985.12c.657 0 1.219-.515 1.554-.909.12.705.681.909 1.04.909s.645-.216.86-.646c.192-.407.36-1.136.36-1.184 0-.06-.049-.107-.12-.107-.108 0-.12.06-.168.239-.179.705-.406 1.458-.896 1.458-.347 0-.37-.31-.37-.55 0-.047 0-.298.083-.633l1.685-6.695zM3.6-1.423c-.06.204-.06.227-.228.455-.263.334-.789.848-1.35.848-.49 0-.766-.442-.766-1.147 0-.658.37-1.997.598-2.499.407-.837.968-1.267 1.435-1.267.789 0 .944.98.944 1.076 0 .012-.036.167-.048.191L3.6-1.423z" id="a"/>
    <path d="M4.04-1.518c-.047.191-.07.239-.226.418-.49.634-.993.86-1.363.86-.395 0-.765-.31-.765-1.135 0-.633.358-1.972.621-2.51.347-.67.885-1.148 1.387-1.148.79 0 .945.98.945 1.052l-.036.167-.562 2.296zm.742-2.965c-.155-.347-.49-.79-1.088-.79C2.391-5.272.91-3.633.91-1.852.909-.61 1.662 0 2.427 0c.634 0 1.195-.502 1.41-.741L3.576.335c-.168.657-.24.956-.67 1.375-.49.49-.944.49-1.207.49-.359 0-.658-.024-.957-.12a.634.634 0 0 0 .478-.574c0-.19-.143-.382-.406-.382a.615.615 0 0 0-.598.633c0 .49.49.682 1.507.682 1.542 0 2.343-.992 2.498-1.638l1.327-5.356c.036-.143.036-.167.036-.191a.299.299 0 0 0-.31-.3c-.288 0-.455.24-.49.563z" id="h"/>
    <path d="M2.503-5.077c0-.215-.016-.223-.232-.223-.326.319-.749.51-1.506.51v.263c.215 0 .646 0 1.108-.215v4.088c0 .295-.024.391-.781.391H.813V0c.327-.024 1.012-.024 1.37-.024s1.053 0 1.38.024v-.263h-.28c-.756 0-.78-.096-.78-.39v-4.424z" id="f"/>
    <path d="M3.885 2.905c0-.036 0-.06-.203-.263-1.195-1.207-1.865-3.18-1.865-5.619 0-2.32.562-4.316 1.949-5.726.12-.108.12-.132.12-.168 0-.071-.06-.095-.108-.095-.156 0-1.136.86-1.722 2.032-.61 1.207-.884 2.487-.884 3.957 0 1.064.167 2.487.789 3.766.705 1.435 1.685 2.212 1.817 2.212.048 0 .107-.024.107-.096z" id="i"/>
    <path d="M3.371-2.977c0-.908-.12-2.39-.789-3.778C1.877-8.189.897-8.966.765-8.966c-.048 0-.107.024-.107.095 0 .036 0 .06.203.263 1.195 1.208 1.865 3.18 1.865 5.62 0 2.319-.562 4.315-1.949 5.726-.12.107-.12.131-.12.167 0 .072.06.096.108.096C.921 3 1.901 2.14 2.487.968c.61-1.22.884-2.51.884-3.945z" id="k"/>
    <path d="M4.77-2.762h3.3c.167 0 .382 0 .382-.215 0-.227-.203-.227-.382-.227h-3.3v-3.3c0-.167 0-.382-.215-.382-.227 0-.227.203-.227.382v3.3h-3.3c-.167 0-.382 0-.382.215 0 .227.203.227.382.227h3.3v3.3c0 .167 0 .383.215.383.227 0 .227-.204.227-.383v-3.3z" id="g"/>
    <path d="M8.07-3.873c.167 0 .382 0 .382-.216 0-.227-.203-.227-.382-.227H1.028c-.167 0-.382 0-.382.215 0 .228.203.228.382.228H8.07zm0 2.223c.167 0 .382 0 .382-.215 0-.227-.203-.227-.382-.227H1.028c-.167 0-.382 0-.382.215 0 .227.203.227.382.227H8.07z" id="c"/>
    <path d="M2.375-4.973c0-.176-.127-.303-.31-.303-.208 0-.44.191-.44.43 0 .176.128.303.312.303.207 0 .438-.191.438-.43zM1.211-2.048l-.43 1.1c-.04.12-.08.215-.08.35 0 .39.303.678.726.678.773 0 1.1-1.116 1.1-1.22 0-.08-.064-.103-.12-.103-.096 0-.112.055-.136.135-.183.638-.51.965-.828.965-.096 0-.192-.04-.192-.256 0-.19.056-.334.16-.581.08-.216.16-.43.247-.646l.247-.645c.072-.184.167-.43.167-.566 0-.399-.319-.678-.725-.678-.773 0-1.108 1.116-1.108 1.22 0 .071.056.103.12.103.103 0 .111-.048.135-.127.223-.757.59-.973.829-.973.112 0 .191.04.191.263 0 .08-.008.192-.087.43l-.216.55z" id="b"/>
    <path d="M7.878-2.75c.204 0 .419 0 .419-.239s-.215-.239-.419-.239H1.411c-.204 0-.419 0-.419.24s.215.238.419.238h6.467z" id="l"/>
  </defs>
  <g transform="matrix(1.13 0 0 1.13 -44.07 -80.833)">
    <use x="38.854" xlink:href="#a" y="80.199"/>
    <use x="44.914" xlink:href="#b" y="81.993"/>
    <use x="51.616" xlink:href="#c" y="80.199"/>
    <use x="64.008" xlink:href="#d" y="80.199"/>
    <use x="71.254" xlink:href="#a" y="80.199"/>
    <use x="77.314" xlink:href="#b" y="81.993"/>
    <use x="80.187" xlink:href="#e" y="81.993"/>
    <use x="86.749" xlink:href="#f" y="81.993"/>
    <use x="94.173" xlink:href="#g" y="80.199"/>
    <use x="105.9" xlink:href="#h" y="80.199"/>
    <use x="113.906" xlink:href="#i" y="80.199"/>
    <use x="118.458" xlink:href="#j" y="80.199"/>
    <use x="123.893" xlink:href="#b" y="81.993"/>
    <use x="126.766" xlink:href="#e" y="81.993"/>
    <use x="133.328" xlink:href="#f" y="81.993"/>
    <use x="138.095" xlink:href="#k" y="80.199"/>
    <use x="38.854" xlink:href="#j" y="94.645"/>
    <use x="44.289" xlink:href="#b" y="96.438"/>
    <use x="50.991" xlink:href="#c" y="94.645"/>
    <use x="63.383" xlink:href="#j" y="94.645"/>
    <use x="68.817" xlink:href="#b" y="96.438"/>
    <use x="71.69" xlink:href="#e" y="96.438"/>
    <use x="78.252" xlink:href="#f" y="96.438"/>
    <use x="85.676" xlink:href="#l" y="94.645"/>
    <use x="97.597" xlink:href="#m" y="94.645"/>
    <use x="105.09" xlink:href="#a" y="94.645"/>
    <use x="111.15" xlink:href="#b" y="96.438"/>
  </g>
</svg>
