<svg height="21.972" viewBox="-0.239 -0.234 165.814 16.479" width="221.085" xmlns="http://www.w3.org/2000/svg" xmlns:xlink="http://www.w3.org/1999/xlink">
  <defs>
    <path d="M4.937 13.736c0-.047-.023-.071-.047-.107-.55-.586-1.363-1.554-1.865-3.503-.275-1.088-.383-2.32-.383-3.431 0-3.144.753-5.344 2.188-6.898.107-.108.107-.132.107-.156 0-.12-.095-.12-.143-.12-.18 0-.825.718-.98.897-1.22 1.447-1.997 3.599-1.997 6.265 0 1.698.3 4.1 1.865 6.121.12.143.897 1.052 1.112 1.052.048 0 .143 0 .143-.12z" id="e"/>
    <path d="M3.646 6.695c0-1.698-.299-4.1-1.865-6.121C1.661.43.885-.478.67-.478c-.06 0-.143.024-.143.12 0 .047.024.083.072.119.574.622 1.35 1.59 1.84 3.49.276 1.089.383 2.32.383 3.432 0 1.207-.107 2.427-.418 3.598-.454 1.674-1.16 2.63-1.77 3.3-.107.108-.107.132-.107.155 0 .096.084.12.143.12.18 0 .837-.73.98-.897 1.22-1.446 1.997-3.598 1.997-6.264z" id="g"/>
    <path d="M4.77-2.762h3.3c.167 0 .382 0 .382-.215 0-.227-.203-.227-.382-.227h-3.3v-3.3c0-.167 0-.382-.215-.382-.227 0-.227.203-.227.382v3.3h-3.3c-.167 0-.382 0-.382.215 0 .227.203.227.382.227h3.3v3.3c0 .167 0 .383.215.383.227 0 .227-.204.227-.383v-3.3z" id="k"/>
    <path d="M8.07-3.873c.167 0 .382 0 .382-.216 0-.227-.203-.227-.382-.227H1.028c-.167 0-.382 0-.382.215 0 .228.203.228.382.228H8.07zm0 2.223c.167 0 .382 0 .382-.215 0-.227-.203-.227-.382-.227H1.028c-.167 0-.382 0-.382.215 0 .227.203.227.382.227H8.07z" id="c"/>
    <path d="M2.088-5.292a.991.991 0 0 0 .032-.128c0-.04-.032-.111-.127-.111l-.805.063c-.295.024-.36.032-.36.176 0 .111.112.111.208.111.383 0 .383.048.383.12 0 .024 0 .04-.04.183L.39-.925c-.032.128-.032.248-.032.256 0 .494.406.749.805.749.342 0 .526-.271.613-.447.144-.263.263-.733.263-.773 0-.048-.024-.103-.127-.103-.072 0-.096.04-.096.047a2.022 2.022 0 0 0-.08.256c-.12.462-.27.797-.557.797-.192 0-.247-.184-.247-.375 0-.151.023-.24.047-.343l1.108-4.431z" id="b"/>
    <path d="M5.535-3.025c0-1.16-.657-2.247-1.925-2.247-1.566 0-3.132 1.71-3.132 3.407C.478-.825 1.124.12 2.343.12c.741 0 1.626-.287 2.475-1.005C4.985-.215 5.356.12 5.87.12c.646 0 .968-.67.968-.825 0-.108-.083-.108-.12-.108-.095 0-.107.036-.143.132-.107.298-.382.561-.67.561-.37 0-.37-.765-.37-1.494 1.22-1.458 1.507-2.965 1.507-2.977 0-.107-.096-.107-.132-.107-.108 0-.12.035-.167.25a7.44 7.44 0 0 1-1.208 2.44v-1.017zm-.753 1.853C3.73-.227 2.786-.12 2.367-.12c-.849 0-1.088-.753-1.088-1.315 0-.514.263-1.733.634-2.39.49-.838 1.16-1.208 1.697-1.208 1.16 0 1.16 1.518 1.16 2.522 0 .3-.012.61-.012.909 0 .24.012.299.024.43z" id="a"/>
    <path d="M2.762-7.998c.012-.048.036-.12.036-.18 0-.119-.12-.119-.144-.119-.012 0-.442.036-.657.06-.204.012-.383.036-.598.048-.287.024-.37.036-.37.25 0 .12.119.12.238.12.61 0 .61.108.61.227 0 .084-.096.43-.143.646l-.287 1.148c-.12.478-.801 3.192-.85 3.407-.059.299-.059.502-.059.657C.538-.514 1.219.12 1.997.12c1.386 0 2.82-1.782 2.82-3.515 0-1.1-.62-1.877-1.517-1.877-.622 0-1.184.514-1.411.753l.873-3.479zM2.008-.12c-.382 0-.8-.286-.8-1.219 0-.395.035-.622.25-1.459.036-.155.228-.92.276-1.075.023-.096.729-1.16 1.542-1.16.526 0 .765.526.765 1.148 0 .573-.335 1.924-.634 2.546-.299.646-.849 1.22-1.399 1.22z" id="l"/>
    <path d="M5.332-4.806c.24 0 .335 0 .335-.227 0-.12-.096-.12-.311-.12h-.968c.227-1.231.394-2.08.49-2.462.071-.287.322-.562.633-.562.251 0 .502.107.622.215-.466.048-.61.394-.61.598 0 .239.18.382.407.382.239 0 .598-.203.598-.657 0-.502-.503-.777-1.029-.777-.514 0-1.016.382-1.255.848-.215.419-.335.85-.61 2.415h-.8c-.228 0-.347 0-.347.216 0 .131.071.131.31.131h.766c-.216 1.112-.706 3.814-.98 5.093C2.378 1.327 2.2 2.2 1.601 2.2c-.036 0-.383 0-.598-.227.61-.048.61-.574.61-.586 0-.24-.18-.383-.407-.383a.628.628 0 0 0-.597.658c0 .514.526.777.992.777 1.22 0 1.722-2.188 1.853-2.786.215-.92.801-4.1.86-4.459h1.017z" id="d"/>
    <path d="M4.113-.73c.263.718 1.004.85 1.458.85.909 0 1.447-.79 1.781-1.614.275-.694.718-2.272.718-2.977 0-.73-.37-.801-.478-.801-.287 0-.55.287-.55.526 0 .143.083.227.143.275.108.107.418.43.418 1.052 0 .406-.334 1.53-.585 2.092-.335.73-.777 1.207-1.4 1.207-.669 0-.884-.502-.884-1.052 0-.346.108-.765.156-.968l.502-2.008c.06-.24.167-.658.167-.706 0-.18-.143-.299-.323-.299-.346 0-.43.3-.502.586-.12.466-.621 2.487-.67 2.75-.047.203-.047.335-.047.598 0 .286-.383.74-.395.765-.131.131-.322.334-.693.334-.944 0-.944-.896-.944-1.1 0-.382.083-.908.621-2.33.144-.371.203-.527.203-.766 0-.502-.358-.956-.944-.956-1.1 0-1.542 1.733-1.542 1.829 0 .048.048.108.131.108.108 0 .12-.048.168-.216.299-1.052.765-1.482 1.207-1.482.12 0 .311.012.311.394 0 .06 0 .311-.203.837-.562 1.495-.682 1.985-.682 2.44C1.255-.109 2.283.12 2.893.12c.203 0 .741 0 1.22-.85z" id="h"/>
    <path d="M1.518-.968c.514-.586.933-.957 1.53-1.495.718-.621 1.029-.92 1.196-1.1C5.081-4.388 5.5-5.08 5.5-5.177s-.095-.095-.12-.095c-.083 0-.107.048-.167.131-.298.514-.585.765-.896.765-.251 0-.383-.107-.61-.394-.251-.299-.454-.502-.8-.502-.874 0-1.4 1.088-1.4 1.339 0 .036.012.107.12.107.096 0 .108-.047.143-.131.204-.478.777-.562 1.005-.562.25 0 .49.084.74.191.455.192.646.192.766.192.084 0 .131 0 .191-.012-.394.466-1.04 1.04-1.578 1.53L1.686-1.506C.956-.766.514-.06.514.024c0 .072.06.096.132.096S.729.108.813-.036c.191-.299.574-.741 1.016-.741.251 0 .37.084.61.382.227.263.43.515.813.515 1.171 0 1.84-1.519 1.84-1.794 0-.048-.011-.12-.13-.12-.096 0-.108.049-.144.168-.263.705-.968.992-1.435.992-.25 0-.49-.083-.74-.19-.48-.192-.61-.192-.766-.192-.12 0-.251 0-.359.048z" id="f"/>
    <path d="M5.571-1.81c.128 0 .303 0 .303-.183s-.175-.183-.303-.183H1.004c-.127 0-.303 0-.303.183s.176.184.303.184h4.567z" id="i"/>
    <path d="M2.503-5.077c0-.215-.016-.223-.232-.223-.326.319-.749.51-1.506.51v.263c.215 0 .646 0 1.108-.215v4.088c0 .295-.024.391-.781.391H.813V0c.327-.024 1.012-.024 1.37-.024s1.053 0 1.38.024v-.263h-.28c-.756 0-.78-.096-.78-.39v-4.424z" id="j"/>
  </defs>
  <g transform="matrix(1.13 0 0 1.13 -63.986 -62.727)">
    <use x="56.413" xlink:href="#a" y="65.753"/>
    <use x="63.907" xlink:href="#b" y="60.817"/>
    <use x="70.348" xlink:href="#c" y="65.753"/>
    <use x="82.74" xlink:href="#d" y="65.753"/>
    <use x="91.757" xlink:href="#e" y="56.07"/>
    <use x="97.237" xlink:href="#f" y="65.753"/>
    <use x="103.187" xlink:href="#b" y="60.817"/>
    <use x="106.307" xlink:href="#g" y="56.07"/>
    <use x="115.128" xlink:href="#c" y="65.753"/>
    <use x="127.519" xlink:href="#d" y="65.753"/>
    <use x="136.537" xlink:href="#e" y="56.07"/>
    <use x="142.016" xlink:href="#h" y="65.753"/>
    <use x="150.674" xlink:href="#b" y="60.817"/>
    <use x="153.795" xlink:href="#a" y="65.753"/>
    <use x="161.289" xlink:href="#b" y="60.817"/>
    <use x="163.901" xlink:href="#i" y="60.817"/>
    <use x="170.463" xlink:href="#j" y="60.817"/>
    <use x="177.886" xlink:href="#k" y="65.753"/>
    <use x="189.613" xlink:href="#l" y="65.753"/>
    <use x="194.572" xlink:href="#b" y="60.817"/>
    <use x="197.692" xlink:href="#g" y="56.07"/>
  </g>
</svg>
