<svg height="59.567" viewBox="-0.165 -0.296 183.537 44.675" width="244.716" xmlns="http://www.w3.org/2000/svg" xmlns:xlink="http://www.w3.org/1999/xlink">
  <defs>
    <path d="M4.937 13.736c0-.047-.023-.071-.047-.107-.55-.586-1.363-1.554-1.865-3.503-.275-1.088-.383-2.32-.383-3.431 0-3.144.753-5.344 2.188-6.898.107-.108.107-.132.107-.156 0-.12-.095-.12-.143-.12-.18 0-.825.718-.98.897-1.22 1.447-1.997 3.599-1.997 6.265 0 1.698.3 4.1 1.865 6.121.12.143.897 1.052 1.112 1.052.048 0 .143 0 .143-.12z" id="e"/>
    <path d="M3.646 6.695c0-1.698-.299-4.1-1.865-6.121C1.661.43.885-.478.67-.478c-.06 0-.143.024-.143.12 0 .047.024.083.072.119.574.622 1.35 1.59 1.84 3.49.276 1.089.383 2.32.383 3.432 0 1.207-.107 2.427-.418 3.598-.454 1.674-1.16 2.63-1.77 3.3-.107.108-.107.132-.107.155 0 .096.084.12.143.12.18 0 .837-.73.98-.897 1.22-1.446 1.997-3.598 1.997-6.264z" id="g"/>
    <path d="M5.535-3.025c0-1.16-.657-2.247-1.925-2.247-1.566 0-3.132 1.71-3.132 3.407C.478-.825 1.124.12 2.343.12c.741 0 1.626-.287 2.475-1.005C4.985-.215 5.356.12 5.87.12c.646 0 .968-.67.968-.825 0-.108-.083-.108-.12-.108-.095 0-.107.036-.143.132-.107.298-.382.561-.67.561-.37 0-.37-.765-.37-1.494 1.22-1.458 1.507-2.965 1.507-2.977 0-.107-.096-.107-.132-.107-.108 0-.12.035-.167.25a7.44 7.44 0 0 1-1.208 2.44v-1.017zm-.753 1.853C3.73-.227 2.786-.12 2.367-.12c-.849 0-1.088-.753-1.088-1.315 0-.514.263-1.733.634-2.39.49-.838 1.16-1.208 1.697-1.208 1.16 0 1.16 1.518 1.16 2.522 0 .3-.012.61-.012.909 0 .24.012.299.024.43z" id="a"/>
    <path d="M2.331.048c0-.694-.227-1.208-.717-1.208-.383 0-.574.311-.574.574S1.22 0 1.626 0a.531.531 0 0 0 .394-.155c.024-.024.036-.024.048-.024.024 0 .024.167.024.227 0 .394-.072 1.171-.765 1.949-.131.143-.131.167-.131.19 0 .06.06.12.12.12.095 0 1.015-.884 1.015-2.26z" id="o"/>
    <path d="M6.384-7.34c.096-.36.12-.479.705-.479.192 0 .311 0 .311-.215 0-.131-.107-.131-.155-.131-.203 0-.43.024-.646.024h-.657c-.502 0-1.028-.024-1.53-.024-.108 0-.252 0-.252.215 0 .12.096.12.096.131h.299c.956 0 .956.096.956.275 0 .012 0 .096-.047.287L4.089-1.793C3.778-.573 2.977.012 2.403.012c-.406 0-.98-.191-1.124-.825a.7.7 0 0 0 .156.024.72.72 0 0 0 .705-.693c0-.192-.12-.443-.478-.443-.215 0-.718.12-.718.897 0 .753.622 1.28 1.483 1.28 1.088 0 2.26-.826 2.546-1.962l1.411-5.63z" id="m"/>
    <path d="M2.762-7.998c.012-.048.036-.12.036-.18 0-.119-.12-.119-.144-.119-.012 0-.442.036-.657.06-.204.012-.383.036-.598.048-.287.024-.37.036-.37.25 0 .12.119.12.238.12.61 0 .61.108.61.227 0 .084-.096.43-.143.646l-.287 1.148c-.12.478-.801 3.192-.85 3.407-.059.299-.059.502-.059.657C.538-.514 1.219.12 1.997.12c1.386 0 2.82-1.782 2.82-3.515 0-1.1-.62-1.877-1.517-1.877-.622 0-1.184.514-1.411.753l.873-3.479zM2.008-.12c-.382 0-.8-.286-.8-1.219 0-.395.035-.622.25-1.459.036-.155.228-.92.276-1.075.023-.096.729-1.16 1.542-1.16.526 0 .765.526.765 1.148 0 .573-.335 1.924-.634 2.546-.299.646-.849 1.22-1.399 1.22z" id="l"/>
    <path d="M5.332-4.806c.24 0 .335 0 .335-.227 0-.12-.096-.12-.311-.12h-.968c.227-1.231.394-2.08.49-2.462.071-.287.322-.562.633-.562.251 0 .502.107.622.215-.466.048-.61.394-.61.598 0 .239.18.382.407.382.239 0 .598-.203.598-.657 0-.502-.503-.777-1.029-.777-.514 0-1.016.382-1.255.848-.215.419-.335.85-.61 2.415h-.8c-.228 0-.347 0-.347.216 0 .131.071.131.31.131h.766c-.216 1.112-.706 3.814-.98 5.093C2.378 1.327 2.2 2.2 1.601 2.2c-.036 0-.383 0-.598-.227.61-.048.61-.574.61-.586 0-.24-.18-.383-.407-.383a.628.628 0 0 0-.597.658c0 .514.526.777.992.777 1.22 0 1.722-2.188 1.853-2.786.215-.92.801-4.1.86-4.459h1.017z" id="d"/>
    <path d="M4.113-.73c.263.718 1.004.85 1.458.85.909 0 1.447-.79 1.781-1.614.275-.694.718-2.272.718-2.977 0-.73-.37-.801-.478-.801-.287 0-.55.287-.55.526 0 .143.083.227.143.275.108.107.418.43.418 1.052 0 .406-.334 1.53-.585 2.092-.335.73-.777 1.207-1.4 1.207-.669 0-.884-.502-.884-1.052 0-.346.108-.765.156-.968l.502-2.008c.06-.24.167-.658.167-.706 0-.18-.143-.299-.323-.299-.346 0-.43.3-.502.586-.12.466-.621 2.487-.67 2.75-.047.203-.047.335-.047.598 0 .286-.383.74-.395.765-.131.131-.322.334-.693.334-.944 0-.944-.896-.944-1.1 0-.382.083-.908.621-2.33.144-.371.203-.527.203-.766 0-.502-.358-.956-.944-.956-1.1 0-1.542 1.733-1.542 1.829 0 .048.048.108.131.108.108 0 .12-.048.168-.216.299-1.052.765-1.482 1.207-1.482.12 0 .311.012.311.394 0 .06 0 .311-.203.837-.562 1.495-.682 1.985-.682 2.44C1.255-.109 2.283.12 2.893.12c.203 0 .741 0 1.22-.85z" id="h"/>
    <path d="M5.667-4.878c-.383.072-.526.359-.526.586 0 .287.227.383.394.383.359 0 .61-.311.61-.634 0-.502-.574-.73-1.076-.73-.73 0-1.136.718-1.243.945-.275-.896-1.017-.944-1.232-.944C1.374-5.272.73-3.706.73-3.443c0 .048.048.108.132.108.095 0 .12-.072.143-.12.407-1.327 1.208-1.578 1.554-1.578.538 0 .646.502.646.789 0 .263-.072.538-.215 1.112l-.407 1.638C2.403-.777 2.056-.12 1.422-.12c-.06 0-.358 0-.609-.155a.617.617 0 0 0 .526-.586c0-.239-.18-.382-.406-.382a.623.623 0 0 0-.598.633c0 .502.562.73 1.076.73.574 0 .98-.455 1.231-.945.191.705.79.945 1.231.945 1.22 0 1.865-1.567 1.865-1.83 0-.06-.047-.107-.12-.107-.107 0-.119.06-.154.155C5.14-.61 4.447-.12 3.909-.12c-.418 0-.645-.31-.645-.8 0-.264.048-.455.239-1.244L3.92-3.79c.18-.717.586-1.243 1.136-1.243.024 0 .359 0 .61.155z" id="p"/>
    <path d="M3.144 1.339c-.323.454-.789.86-1.375.86-.143 0-.717-.023-.896-.573.036.012.095.012.12.012.358 0 .597-.311.597-.586s-.227-.37-.406-.37c-.192 0-.61.143-.61.729 0 .61.514 1.028 1.195 1.028 1.196 0 2.403-1.1 2.738-2.427L5.68-4.651c.012-.06.036-.131.036-.203 0-.18-.144-.299-.323-.299-.108 0-.359.048-.455.407l-.884 3.515c-.06.215-.06.239-.156.37-.239.335-.633.741-1.207.741-.67 0-.73-.657-.73-.98 0-.681.323-1.602.646-2.463.132-.346.203-.514.203-.753 0-.502-.358-.956-.944-.956-1.1 0-1.542 1.733-1.542 1.829 0 .048.048.108.131.108.108 0 .12-.048.168-.216.287-1.004.74-1.482 1.207-1.482.108 0 .311 0 .311.394 0 .311-.132.658-.31 1.112-.587 1.566-.587 1.96-.587 2.248C1.243-.143 2.056.12 2.654.12c.347 0 .777-.108 1.196-.55l.012.012c-.18.705-.3 1.171-.718 1.757z" id="q"/>
    <path d="M1.518-.968c.514-.586.933-.957 1.53-1.495.718-.621 1.029-.92 1.196-1.1C5.081-4.388 5.5-5.08 5.5-5.177s-.095-.095-.12-.095c-.083 0-.107.048-.167.131-.298.514-.585.765-.896.765-.251 0-.383-.107-.61-.394-.251-.299-.454-.502-.8-.502-.874 0-1.4 1.088-1.4 1.339 0 .036.012.107.12.107.096 0 .108-.047.143-.131.204-.478.777-.562 1.005-.562.25 0 .49.084.74.191.455.192.646.192.766.192.084 0 .131 0 .191-.012-.394.466-1.04 1.04-1.578 1.53L1.686-1.506C.956-.766.514-.06.514.024c0 .072.06.096.132.096S.729.108.813-.036c.191-.299.574-.741 1.016-.741.251 0 .37.084.61.382.227.263.43.515.813.515 1.171 0 1.84-1.519 1.84-1.794 0-.048-.011-.12-.13-.12-.096 0-.108.049-.144.168-.263.705-.968.992-1.435.992-.25 0-.49-.083-.74-.19-.48-.192-.61-.192-.766-.192-.12 0-.251 0-.359.048z" id="f"/>
    <path d="M7.878-2.75c.204 0 .419 0 .419-.239s-.215-.239-.419-.239H1.411c-.204 0-.419 0-.419.24s.215.238.419.238h6.467z" id="v"/>
    <path d="M2.056-8.56c0-.191 0-.406-.239-.406s-.239.263-.239.442v11.07c0 .192 0 .443.24.443s.238-.215.238-.407V-8.56zm2.332.036c0-.191 0-.442-.24-.442s-.239.215-.239.406V2.582c0 .192 0 .407.24.407s.239-.263.239-.443v-11.07z" id="u"/>
    <path d="M3.092-4.822c.072-.27.088-.359.821-.359.223 0 .303 0 .303-.151 0-.016-.016-.112-.135-.112-.168 0-.407.016-.574.024h-.574c-.829 0-1.02-.024-1.076-.024-.032 0-.16 0-.16.152 0 .111.104.111.232.111.263 0 .494 0 .494.128 0 .032-.008.04-.032.143L1.323-.63c-.072.303-.088.367-.677.367-.152 0-.247 0-.247.151C.399 0 .502 0 .638 0h3.85c.198 0 .206-.008.27-.16.08-.223.662-1.72.662-1.8 0-.072-.064-.112-.12-.112-.088 0-.103.056-.16.175-.286.741-.629 1.634-2.056 1.634H2.072c-.071-.016-.095-.016-.095-.072 0-.064.016-.127.031-.175l1.084-4.312z" id="b"/>
    <path d="M5.571-1.81c.128 0 .303 0 .303-.183s-.175-.183-.303-.183H1.004c-.127 0-.303 0-.303.183s.176.184.303.184h4.567z" id="i"/>
    <path d="M2.503-5.077c0-.215-.016-.223-.232-.223-.326.319-.749.51-1.506.51v.263c.215 0 .646 0 1.108-.215v4.088c0 .295-.024.391-.781.391H.813V0c.327-.024 1.012-.024 1.37-.024s1.053 0 1.38.024v-.263h-.28c-.756 0-.78-.096-.78-.39v-4.424z" id="j"/>
    <path d="M2.248-1.626c.127-.12.462-.382.59-.494.494-.454.964-.893.964-1.618 0-.948-.797-1.562-1.794-1.562-.956 0-1.586.725-1.586 1.434 0 .391.311.447.423.447a.41.41 0 0 0 .414-.423c0-.414-.398-.414-.494-.414a1.232 1.232 0 0 1 1.156-.781c.741 0 1.124.63 1.124 1.299 0 .829-.582 1.435-1.523 2.399L.518-.303C.422-.215.422-.199.422 0h3.149l.23-1.427h-.246c-.024.16-.088.558-.184.71-.047.063-.653.063-.78.063H1.17l1.077-.972z" id="w"/>
    <path d="M3.885 2.905c0-.036 0-.06-.203-.263-1.195-1.207-1.865-3.18-1.865-5.619 0-2.32.562-4.316 1.949-5.726.12-.108.12-.132.12-.168 0-.071-.06-.095-.108-.095-.156 0-1.136.86-1.722 2.032-.61 1.207-.884 2.487-.884 3.957 0 1.064.167 2.487.789 3.766.705 1.435 1.685 2.212 1.817 2.212.048 0 .107-.024.107-.096z" id="n"/>
    <path d="M3.371-2.977c0-.908-.12-2.39-.789-3.778C1.877-8.189.897-8.966.765-8.966c-.048 0-.107.024-.107.095 0 .036 0 .06.203.263 1.195 1.208 1.865 3.18 1.865 5.62 0 2.319-.562 4.315-1.949 5.726-.12.107-.12.131-.12.167 0 .072.06.096.108.096C.921 3 1.901 2.14 2.487.968c.61-1.22.884-2.51.884-3.945z" id="r"/>
    <path d="M4.77-2.762h3.3c.167 0 .382 0 .382-.215 0-.227-.203-.227-.382-.227h-3.3v-3.3c0-.167 0-.382-.215-.382-.227 0-.227.203-.227.382v3.3h-3.3c-.167 0-.382 0-.382.215 0 .227.203.227.382.227h3.3v3.3c0 .167 0 .383.215.383.227 0 .227-.204.227-.383v-3.3z" id="k"/>
    <path d="M3.443-7.663c0-.275 0-.287-.239-.287-.287.323-.885.765-2.116.765v.347c.275 0 .873 0 1.53-.311v6.228c0 .43-.036.574-1.088.574h-.37V0c.322-.024 1.482-.024 1.877-.024s1.542 0 1.865.024v-.347H4.53c-1.052 0-1.088-.143-1.088-.574v-6.742z" id="s"/>
    <path d="M5.26-2.008h-.263c-.036.203-.131.86-.25 1.052-.084.107-.766.107-1.125.107H1.411c.323-.275 1.052-1.04 1.363-1.327C4.59-3.85 5.26-4.47 5.26-5.655c0-1.375-1.088-2.295-2.474-2.295s-2.2 1.183-2.2 2.212c0 .61.526.61.562.61.25 0 .562-.18.562-.563 0-.334-.228-.562-.562-.562-.108 0-.132 0-.168.012.227-.813.873-1.362 1.65-1.362 1.016 0 1.638.848 1.638 1.948 0 1.016-.586 1.901-1.267 2.666L.586-.287V0h4.363l.311-2.008z" id="t"/>
    <path d="M8.07-3.873c.167 0 .382 0 .382-.216 0-.227-.203-.227-.382-.227H1.028c-.167 0-.382 0-.382.215 0 .228.203.228.382.228H8.07zm0 2.223c.167 0 .382 0 .382-.215 0-.227-.203-.227-.382-.227H1.028c-.167 0-.382 0-.382.215 0 .227.203.227.382.227H8.07z" id="c"/>
  </defs>
  <g transform="matrix(1.13 0 0 1.13 -44.07 -79.212)">
    <use x="38.854" xlink:href="#a" y="80.199"/>
    <use x="46.348" xlink:href="#b" y="75.263"/>
    <use x="55.926" xlink:href="#c" y="80.199"/>
    <use x="68.318" xlink:href="#d" y="80.199"/>
    <use x="77.335" xlink:href="#e" y="70.516"/>
    <use x="82.814" xlink:href="#f" y="80.199"/>
    <use x="88.765" xlink:href="#b" y="75.263"/>
    <use x="95.022" xlink:href="#g" y="70.516"/>
    <use x="103.843" xlink:href="#c" y="80.199"/>
    <use x="116.234" xlink:href="#d" y="80.199"/>
    <use x="125.251" xlink:href="#e" y="70.516"/>
    <use x="130.731" xlink:href="#h" y="80.199"/>
    <use x="139.389" xlink:href="#b" y="75.263"/>
    <use x="145.646" xlink:href="#a" y="80.199"/>
    <use x="153.14" xlink:href="#b" y="75.263"/>
    <use x="158.878" xlink:href="#i" y="75.263"/>
    <use x="165.44" xlink:href="#j" y="75.263"/>
    <use x="172.875" xlink:href="#k" y="80.199"/>
    <use x="184.602" xlink:href="#l" y="80.199"/>
    <use x="189.561" xlink:href="#b" y="75.263"/>
    <use x="195.818" xlink:href="#g" y="70.516"/>
    <use x="38.854" xlink:href="#m" y="101.172"/>
    <use x="48.4" xlink:href="#n" y="101.172"/>
    <use x="52.952" xlink:href="#h" y="101.172"/>
    <use x="61.61" xlink:href="#o" y="101.172"/>
    <use x="70.744" xlink:href="#l" y="101.172"/>
    <use x="75.703" xlink:href="#o" y="101.172"/>
    <use x="84.837" xlink:href="#p" y="101.172"/>
    <use x="91.464" xlink:href="#o" y="101.172"/>
    <use x="100.598" xlink:href="#q" y="101.172"/>
    <use x="106.713" xlink:href="#r" y="101.172"/>
    <use x="114.719" xlink:href="#c" y="101.172"/>
    <use x="128.306" xlink:href="#s" y="93.084"/>
    <path d="M128.306 97.944h5.853v.478h-5.853z"/>
    <use x="128.306" xlink:href="#t" y="109.373"/>
    <use x="135.355" xlink:href="#u" y="101.172"/>
    <use x="141.31" xlink:href="#a" y="101.172"/>
    <use x="148.804" xlink:href="#b" y="96.236"/>
    <use x="157.718" xlink:href="#v" y="101.172"/>
    <use x="169.638" xlink:href="#q" y="101.172"/>
    <use x="175.753" xlink:href="#u" y="101.172"/>
    <use x="181.709" xlink:href="#w" y="96.236"/>
    <use x="181.709" xlink:href="#w" y="104.128"/>
  </g>
</svg>
