<svg xmlns="http://www.w3.org/2000/svg" viewBox="0 0 670.086 269.749">
  <g data-name="神经网络">
    <g data-name="圈" fill="#fff" stroke="#000" stroke-miterlimit="10">
      <circle cx="60.69" cy="116.087" r="20"/>
      <circle cx="60.69" cy="193.062" r="20"/>
      <circle cx="225.868" cy="154.592" r="20"/>
      <circle cx="225.868" cy="61.862" r="20"/>
      <circle cx="225.868" cy="249.249" r="20"/>
      <circle cx="347.589" cy="154.592" r="20"/>
    </g>
    <g data-name="箭头">
      <path fill="none" d="M143.886 117.085l65.832 29.121"/>
      <path fill="none" stroke="#000" stroke-miterlimit="10" d="M80.689 116.087l122.479 37.674"/>
      <path d="M196.583 155.063l-.051-.999 6.542-.332-5.224-3.951.603-.797 7.415 5.608-9.285.471z"/>
      <path fill="none" stroke="#000" stroke-miterlimit="10" d="M80.689 193.062l122.478-37.64"/>
      <path d="M198.451 160.199l-.603-.799 5.226-3.949-6.542-.334.051-.998 9.285.473-7.417 5.607z"/>
      <path fill="none" stroke="#000" stroke-miterlimit="10" d="M80.689 116.087l125.874-42.21"/>
      <path d="M201.97 78.772l-.623-.783 5.124-4.081-6.549-.167.026-.999 9.294.237-7.272 5.793z"/>
      <path fill="none" stroke="#000" stroke-miterlimit="10" d="M80.689 193.062l125.884 44.14"/>
      <path d="M199.942 238.247l-.011-1 6.549-.078-5.067-4.15.634-.774 7.192 5.892-9.297.11z"/>
      <path fill="none" stroke="#000" stroke-miterlimit="10" d="M80.689 116.087L207.19 236.191"/>
      <path d="M200.713 234.428l.4-.918 6.006 2.614-2.921-5.863.894-.446 4.147 8.322-8.526-3.709z"/>
      <path fill="none" stroke="#000" stroke-miterlimit="10" d="M80.689 193.062L207.177 74.908"/>
      <path d="M205.029 81.267l-.892-.454 2.969-5.839-6.027 2.565-.392-.92 8.555-3.64-4.213 8.288z"/>
      <path fill="none" stroke="#000" stroke-miterlimit="10" d="M0 116.087h37.864"/>
      <path d="M31.953 119.267l-.342-.94 6.155-2.24-6.155-2.241.342-.939 8.736 3.18-8.736 3.18z"/>
      <path fill="none" stroke="#000" stroke-miterlimit="10" d="M3 193.062h34.864"/>
      <path d="M31.953 196.242l-.342-.94 6.155-2.24-6.155-2.24.342-.94 8.736 3.18-8.736 3.18z"/>
      <path fill="none" stroke="#000" stroke-miterlimit="10" d="M245.868 154.592h78.896"/>
      <path d="M318.853 157.773l-.342-.941 6.155-2.24-6.155-2.24.342-.94 8.736 3.18-8.736 3.181z"/>
      <path fill="none" stroke="#000" stroke-miterlimit="10" d="M241.775 73.98l87.66 66.781"/>
      <path d="M322.805 139.709l.298-.955 6.254 1.948-3.539-5.512.841-.54 5.023 7.823-8.877-2.764z"/>
      <path fill="none" stroke="#000" stroke-miterlimit="10" d="M241.653 236.974l87.922-68.373"/>
      <path d="M326.861 174.741l-.847-.533 3.483-5.547-6.234 2.01-.307-.951 8.849-2.853-4.944 7.874z"/>
    </g>
  </g>
  <g data-name="文字">
    <path d="M37.524 5.67a4.911 4.911 0 0 0 1.369.127c.234-.018.252.216.054.306-.108.072-.162.234-.162.505v1.35a8.91 8.91 0 0 0 1.206-.234v1.35a6.212 6.212 0 0 0-1.206-.054v2.467a14.3 14.3 0 0 0 1.422-.522 7.41 7.41 0 0 0-.036 1.422 5.11 5.11 0 0 0-1.386.216c0 1.314.054 2.593.126 3.764h-1.477c.09-1.099.144-2.18.162-3.404-1.134.342-1.908.613-2.34.792a5.36 5.36 0 0 0-.558-1.458 14.5 14.5 0 0 0 2.898-.486v-2.72a8.444 8.444 0 0 0-2.376.45 5.017 5.017 0 0 0-.648-1.331c.666-.307.918-.702 1.908-4.394a9.666 9.666 0 0 0-1.368.108V2.556a9.28 9.28 0 0 0 1.62.126 11.482 11.482 0 0 0 .252-2.503 8.701 8.701 0 0 0 1.801.379c.234 0 .27.107.036.252-.198.126-.396.612-.81 1.872a12.763 12.763 0 0 0 2.142-.126v1.368a16.345 16.345 0 0 0-2.502-.126L36.264 8.21l1.333-.126a16.572 16.572 0 0 0-.073-2.413zm9.471-.125a11.305 11.305 0 0 0-2.07-.145 10.19 10.19 0 0 0-1.98.145V4.159a10.458 10.458 0 0 0 1.98.144 11.802 11.802 0 0 0 1.854-.108 9.21 9.21 0 0 1-1.98-2.413 29.454 29.454 0 0 1-4.412 4.771 3.884 3.884 0 0 0-1.134-.864A14.694 14.694 0 0 0 44.115.036a5.959 5.959 0 0 0 1.638.431c.217.019.253.217.09.307L45.52.99a7.64 7.64 0 0 0 5.492 3.619 3.93 3.93 0 0 0-1.027 1.459 9.73 9.73 0 0 1-2.989-1.694zm-4.861 7.292v3.115h-1.35a25.323 25.323 0 0 0 .162-2.665V7.993a9.709 9.709 0 0 0-.126-1.511 19.972 19.972 0 0 0 2.25.107c.774 0 1.765-.054 2.305-.107a10.162 10.162 0 0 0-.09 1.511v6.284c0 1.351-.09 1.657-1.747 1.945a3.326 3.326 0 0 0-.522-1.332c.973.126 1.099.036 1.099-1.063v-.99zm1.98-3.655V7.669h-1.98v1.513zm-1.98 1.062v1.549h1.98v-1.549zm5.42-2.178v3.258c0 .685.035 1.405.108 2.215h-1.405c.072-.828.108-1.53.108-2.215V9.038a11.041 11.041 0 0 0-.126-1.945 4.71 4.71 0 0 0 1.368.09c.306-.035.36.18.09.342-.108.073-.143.288-.143.54zm2.25-.487v6.95c0 1.152-.108 1.404-2.053 1.837a2.977 2.977 0 0 0-.63-1.368c1.369.18 1.477.054 1.477-.937V9.344a18.322 18.322 0 0 0-.18-2.899 6.965 6.965 0 0 0 1.422.126c.342-.018.396.108.126.342-.144.126-.162.307-.162.666zM57.27 1.638L58.514.413a11.096 11.096 0 0 1 4.25 6.176c1.422 4.411 2.718 5.816 6.013 7.347a5.314 5.314 0 0 0-1.476 1.8c-2.953-2.052-4.16-3.547-5.564-8.21a10.894 10.894 0 0 0-.864-2.07 20.381 20.381 0 0 1-2.287 5.653 17.765 17.765 0 0 1-4.123 4.61 3.84 3.84 0 0 0-1.584-1.153 13.07 13.07 0 0 0 4.393-4.321 19.315 19.315 0 0 0 2.556-6.356 8.918 8.918 0 0 0-2.556-2.251zM79.664 5.4c-1.584 0-3.403.037-5.78.091-.126 5.276-.522 8.102-2.016 10.84a3.213 3.213 0 0 0-1.386-1.08c1.332-1.82 1.926-4.574 1.926-9.4 0-2.286-.018-3.727-.072-4.825 1.26.09 3.223.144 6.338.144 3.169 0 5.203-.036 6.5-.144a31.188 31.188 0 0 0 0 4.5c-1.135-.107-2.701-.126-5.51-.126zm3.997-2.97h-9.776v1.71h9.777zm-9.56 8.715V9.632c1.584.09 2.989.126 5.888.126 2.934 0 4.573-.036 6.14-.126v1.513c-1.477-.09-2.99-.126-5.798-.126-.882 1.044-1.944 2.196-3.133 3.438l5.456-.306a11.974 11.974 0 0 0-1.729-1.908l1.422-.702a149.055 149.055 0 0 0 3.368 3.906l-1.64.9a11.476 11.476 0 0 0-.647-1.08l-4.556.342a14.458 14.458 0 0 0-3.475.667 9.429 9.429 0 0 0-.828-1.82 3.154 3.154 0 0 0 1.89-1.06 13.897 13.897 0 0 0 1.89-2.377c-1.836.017-3.006.036-4.249.126zm6.05-3.133c-1.837 0-3.133.036-4.736.162V6.625c1.747.126 2.917.145 4.754.145 1.944 0 2.97-.019 4.609-.145v1.53c-1.603-.107-2.701-.143-4.628-.143zM203.964 6.716c1.206 1.314 1.638 2.106 1.638 3.169 0 1.818-.702 2.43-2.647 2.808a3.199 3.199 0 0 0-.882-1.728c1.638.252 2.035-.126 2.035-1.332a3.957 3.957 0 0 0-1.477-2.593l1.153-4.627h-1.945v13.756h-1.549c.09-1.243.126-2.305.126-3.26V2.954a11.804 11.804 0 0 0-.126-1.837 20.585 20.585 0 0 0 2.701.126 19.187 19.187 0 0 0 2.629-.126zm1.638 8.949l-1.387-.576a9.211 9.211 0 0 0 1.405-3.35l1.296.433c-.522 1.278-.954 2.395-1.314 3.493zM206.7 8.03V6.68a53.458 53.458 0 0 0 6.644.162v-1.35h-3.15a24.651 24.651 0 0 0-3.17.144V4.627c-.252.252-.504.523-.792.793a2.76 2.76 0 0 0-1.224-.648A10.81 10.81 0 0 0 208.59 0a7.44 7.44 0 0 0 1.53.486c.342.072.378.234.054.36a3.125 3.125 0 0 0-.684.738h4.447l-1.98 2.79a17.068 17.068 0 0 0 2.862-.161 14.111 14.111 0 0 0-.09 1.423v3.223a10.636 10.636 0 0 0 .108 1.584c-1.206-.072-2.502-.09-4.105-.09a51.67 51.67 0 0 0-4.177.144V9.075a33.061 33.061 0 0 0 3.439.144h3.349v-1.35a63.563 63.563 0 0 0-6.643.161zm4.898-5.33h-2.917c-.45.577-.954 1.17-1.422 1.675h3.276zm.72 13.414a14.69 14.69 0 0 1-3.025.09c-1.135-.09-1.71-.396-1.71-1.008V12.91a4.097 4.097 0 0 0-.162-1.135 5.859 5.859 0 0 0 1.602.145c.324-.037.396.071.144.288a.556.556 0 0 0-.234.54v1.836c0 .216.18.36.81.432a7.423 7.423 0 0 0 1.675-.09c.414-.072.647-.45.9-1.836a2.122 2.122 0 0 0 1.368 1.08c-.432 1.62-.702 1.837-1.368 1.945zm-1.963-2.7a8.874 8.874 0 0 0-.792-2.161l1.35-.378a9.964 9.964 0 0 0 .883 2.017zm4.376 1.53a10.022 10.022 0 0 0-1.71-2.88l1.296-.667c.504.882 1.224 1.963 1.873 2.863zM222.324 6.05c-.09 6.914-.36 8.588-1.513 10.821a3.243 3.243 0 0 0-1.404-.36c.99-1.188 1.476-2.449 1.656-5.582h-1.044a14.69 14.69 0 0 1-.99 4.718 6.132 6.132 0 0 0-1.333-.63 6.876 6.876 0 0 0 1.333-4.052 8.409 8.409 0 0 0-.81.073V9.723a22.245 22.245 0 0 0 2.899.108c.017-.432.035-.9.035-1.405h-.666a13.54 13.54 0 0 0-1.674.055 6.093 6.093 0 0 0 .126-1.351V5.888a8.637 8.637 0 0 0-.09-1.315 7.942 7.942 0 0 0 1.44.036c.235-.018.306.126.036.289a.64.64 0 0 0-.252.611v1.927h1.098c0-.774 0-1.62-.018-2.557.972.072 3.061.126 7.365.126a62.854 62.854 0 0 1-.055-.972 6.213 6.213 0 0 0 1.297.072c.378-.018.378.054.09.342a1.35 1.35 0 0 0-.144.558c2.503-.036 3.043-.072 3.601-.126v1.297a29.65 29.65 0 0 0-3.6-.126c.053.63.125 1.278.287 2.502a23.865 23.865 0 0 0 .469 2.63 11.374 11.374 0 0 0 .918-3.98 12.653 12.653 0 0 0 1.386.378c.252.036.288.108.054.252a2.953 2.953 0 0 0-.45 1.152 23.092 23.092 0 0 1-1.332 3.728c1.26 2.7 1.764 2.628 1.836.936a1.86 1.86 0 0 0 1.189.936c-.756 2.593-1.423 2.521-2.791 1.026a7.23 7.23 0 0 1-1.027-1.638 10.834 10.834 0 0 1-2.718 2.719 5.092 5.092 0 0 0-1.35-.774 7.355 7.355 0 0 0 1.332-.774 16.791 16.791 0 0 0-1.909-.055 18.14 18.14 0 0 0-2.502.108c.036-.612.071-1.764.071-2.664V9.236c0-.846-.035-1.746-.108-2.448a15.37 15.37 0 0 0 2.521.126 19.514 19.514 0 0 0 2.503-.108v1.243a13.824 13.824 0 0 0-1.423-.108v1.44a10.231 10.231 0 0 0 1.459-.109 12.108 12.108 0 0 0-.072 1.513 14.494 14.494 0 0 0 .072 1.656 10.508 10.508 0 0 0-1.495-.071v1.656a2.598 2.598 0 0 0 1.081-.162v1.116a8.767 8.767 0 0 0 2.017-2.358 24.99 24.99 0 0 1-1.189-6.572zm4.897-4.088a10.762 10.762 0 0 0-.144-1.512 13.305 13.305 0 0 0 1.44.108c.216 0 .252.144.072.252-.162.09-.18.162-.18.378v.774c2.017 0 3.764-.036 4.97-.144v1.35c-1.206-.108-2.953-.161-4.97-.161v1.17h-1.188v-1.17h-2.97v1.332h-1.17V3.007c-1.891.018-3.566.053-4.7.162v-1.35c1.17.108 2.808.144 4.68.144a8.835 8.835 0 0 0-.125-1.512 12.98 12.98 0 0 0 1.422.108c.217 0 .252.144.072.251-.126.072-.18.163-.18.378v.775zm-2.97 5.96v1.459h1.368V7.922zm0 3.547h2.772v-1.188h-2.773zm0 2.557h1.314V12.37h-1.315zm7.273-9.183a3.825 3.825 0 0 0-.72-.864l1.243-.612c.27.288.45.504.738.846zM244.843 5.401c-1.584 0-3.403.037-5.78.09-.126 5.276-.522 8.103-2.016 10.84a3.217 3.217 0 0 0-1.387-1.08c1.332-1.82 1.926-4.574 1.926-9.4 0-2.286-.018-3.726-.071-4.824 1.26.09 3.222.143 6.338.143 3.169 0 5.203-.035 6.5-.143a31.188 31.188 0 0 0 0 4.5c-1.135-.108-2.701-.126-5.51-.126zm3.997-2.97h-9.777v1.71h9.777zm-9.56 8.714V9.633c1.584.09 2.988.126 5.887.126 2.935 0 4.574-.036 6.14-.126v1.512c-1.476-.09-2.989-.126-5.798-.126-.882 1.045-1.944 2.197-3.132 3.44l5.455-.307a12.013 12.013 0 0 0-1.728-1.908l1.422-.703a147.87 147.87 0 0 0 3.367 3.907l-1.639.9a11.35 11.35 0 0 0-.647-1.08l-4.556.342a14.486 14.486 0 0 0-3.475.667 9.398 9.398 0 0 0-.828-1.82 3.157 3.157 0 0 0 1.89-1.061 13.874 13.874 0 0 0 1.89-2.377c-1.836.018-3.006.036-4.249.126zm6.05-3.133c-1.837 0-3.134.036-4.736.162V6.626c1.746.126 2.917.144 4.753.144 1.945 0 2.971-.018 4.61-.144v1.53a60.778 60.778 0 0 0-4.628-.144zM324.425 5.67a4.89 4.89 0 0 0 1.368.127c.234-.018.253.216.054.306-.108.072-.162.234-.162.505v1.35a8.963 8.963 0 0 0 1.206-.234v1.35a6.216 6.216 0 0 0-1.206-.054v2.467a14.124 14.124 0 0 0 1.422-.523 7.455 7.455 0 0 0-.035 1.423 5.105 5.105 0 0 0-1.387.216c0 1.314.054 2.593.126 3.763h-1.476a50.02 50.02 0 0 0 .162-3.403c-1.134.342-1.908.612-2.34.792a5.347 5.347 0 0 0-.559-1.458 14.532 14.532 0 0 0 2.9-.486V9.092a8.423 8.423 0 0 0-2.378.45 5 5 0 0 0-.648-1.332c.667-.306.919-.702 1.91-4.393a9.71 9.71 0 0 0-1.369.108V2.556a9.364 9.364 0 0 0 1.62.126 11.48 11.48 0 0 0 .252-2.503 8.73 8.73 0 0 0 1.8.379c.235 0 .27.108.037.252-.198.126-.397.612-.81 1.872a12.809 12.809 0 0 0 2.142-.126v1.368a16.278 16.278 0 0 0-2.502-.126l-1.387 4.412 1.332-.127a16.654 16.654 0 0 0-.072-2.412zm9.47-.125a11.297 11.297 0 0 0-2.07-.144 10.199 10.199 0 0 0-1.98.144V4.159a10.46 10.46 0 0 0 1.98.144 11.873 11.873 0 0 0 1.855-.108 9.226 9.226 0 0 1-1.98-2.413 29.51 29.51 0 0 1-4.411 4.771 3.884 3.884 0 0 0-1.135-.864 14.694 14.694 0 0 0 4.861-5.654 5.972 5.972 0 0 0 1.639.432c.216.018.252.217.09.307l-.324.216a7.642 7.642 0 0 0 5.492 3.619 3.93 3.93 0 0 0-1.027 1.458 9.747 9.747 0 0 1-2.989-1.692zm-4.861 7.292v3.115h-1.35a25.19 25.19 0 0 0 .161-2.665V7.994a9.66 9.66 0 0 0-.125-1.512 19.862 19.862 0 0 0 2.25.107c.775 0 1.765-.054 2.305-.107a10.258 10.258 0 0 0-.09 1.512v6.284c0 1.35-.09 1.656-1.747 1.944a3.323 3.323 0 0 0-.521-1.332c.971.126 1.097.036 1.097-1.062v-.99zm1.98-3.655V7.67h-1.98v1.512zm-1.98 1.063v1.548h1.98v-1.548zm5.42-2.179v3.259c0 .684.036 1.404.108 2.215h-1.405c.072-.829.109-1.531.109-2.215V9.038a11.031 11.031 0 0 0-.126-1.945 4.723 4.723 0 0 0 1.368.09c.306-.036.36.18.09.342-.108.073-.144.289-.144.541zm2.251-.486v6.95c0 1.152-.108 1.404-2.053 1.836a2.982 2.982 0 0 0-.63-1.369c1.369.18 1.476.055 1.476-.936V9.344a18.348 18.348 0 0 0-.18-2.899 6.928 6.928 0 0 0 1.422.126c.343-.018.396.108.127.343-.145.126-.162.305-.162.666zM348.42 7.813v6.123l4.16-.126v-2.701a11.678 11.678 0 0 0-.108-1.747 6.676 6.676 0 0 0 1.747.126c.251-.018.288.036.143.18a3 3 0 0 0-.233 1.458v3.44c0 .702.017 1.278.071 1.998h-1.728c.054-.45.09-.936.108-1.422l-5.456.161c-4.321.127-5.06.199-6.157.307a12.333 12.333 0 0 0 .09-1.477v-3.564a9.019 9.019 0 0 0-.073-1.386 6.587 6.587 0 0 0 1.747.162c.216-.018.252.053.126.252a3.69 3.69 0 0 0-.234 1.35v3.17l4.231-.127V7.814h-2.179a25.823 25.823 0 0 0-3.007.198 9.84 9.84 0 0 0 .144-1.603V3.583a7.517 7.517 0 0 0-.143-1.603 7.311 7.311 0 0 0 1.89.09c.324-.054.342 0 .107.252a3.162 3.162 0 0 0-.323 1.243v2.952h3.511V2.682a19.47 19.47 0 0 0-.126-2.394 7.378 7.378 0 0 0 1.927.197c.342-.018.36.037.143.253a4.268 4.268 0 0 0-.378 1.926v3.853h3.835V3.583a7.867 7.867 0 0 0-.162-1.747 6.168 6.168 0 0 0 1.747.108c.306-.036.324.018.216.234a2.855 2.855 0 0 0-.27 1.423v3.258c0 .703.019 1.207.072 1.8h-1.728a6.365 6.365 0 0 0 .126-.846zM366.564 5.4c-1.584 0-3.402.037-5.779.09-.126 5.277-.522 8.103-2.017 10.84a3.218 3.218 0 0 0-1.386-1.08c1.333-1.819 1.926-4.573 1.926-9.399 0-2.286-.017-3.727-.072-4.825 1.26.09 3.224.144 6.338.144 3.169 0 5.204-.036 6.5-.144a31.448 31.448 0 0 0 0 4.501c-1.134-.108-2.7-.126-5.51-.126zm3.998-2.97h-9.777v1.71h9.778zm-9.561 8.715V9.632c1.585.09 2.99.126 5.887.126 2.936 0 4.574-.036 6.14-.126v1.513c-1.475-.09-2.988-.126-5.796-.126-.883 1.044-1.946 2.196-3.134 3.439l5.456-.307a12.008 12.008 0 0 0-1.729-1.908l1.423-.702a146.8 146.8 0 0 0 3.366 3.907l-1.637.9a11.472 11.472 0 0 0-.649-1.08l-4.555.342a14.48 14.48 0 0 0-3.475.666 9.49 9.49 0 0 0-.828-1.819 3.156 3.156 0 0 0 1.89-1.062 13.803 13.803 0 0 0 1.89-2.377c-1.836.019-3.007.037-4.25.127zm6.05-3.133c-1.836 0-3.133.036-4.736.162V6.626c1.747.126 2.917.144 4.754.144 1.945 0 2.971-.018 4.61-.144v1.53c-1.603-.108-2.702-.144-4.628-.144zM8.413 107.256a3.819 3.819 0 0 0-.744-.78 8.238 8.238 0 0 0 1.607-2.938 20.434 20.434 0 0 0 .588-2.303 8.666 8.666 0 0 0 1.26.36c.191.036.203.108.011.263a8.472 8.472 0 0 0-.887 1.716v8.563H9.18a25.168 25.168 0 0 0 .144-2.542v-4.006c-.3.588-.587 1.115-.911 1.667zm5.409-2.914a9.8 9.8 0 0 1-2.615 5.936 3.864 3.864 0 0 0-.743-.828 8.99 8.99 0 0 0 2.626-5.096c-.84.011-1.523.047-2.11.095v-1.043c.815.06 1.81.096 3.19.108a15.178 15.178 0 0 0-.108-2.423 5.538 5.538 0 0 0 1.079.072c.24-.012.276.072.072.24a.545.545 0 0 0-.144.42v1.69c1.475 0 2.543-.036 3.382-.107v1.043c-.708-.06-1.57-.096-2.698-.108a8.662 8.662 0 0 0 1.103 2.746 5.823 5.823 0 0 0 2.1 1.884 5.109 5.109 0 0 0-.816 1.14 8.818 8.818 0 0 1-2.111-2.567 11.473 11.473 0 0 1-.852-3.202h-.107v4.701a11.72 11.72 0 0 0 1.522-.095v.97a14.3 14.3 0 0 0-1.522-.095c.011.72.06 1.45.131 2.207h-1.164c.073-.756.12-1.488.133-2.207-.744.011-1.344.048-1.751.095v-.97a15.36 15.36 0 0 0 1.75.095v-4.7zM20.617 110.134a7.715 7.715 0 0 0-.696-.995 8.536 8.536 0 0 0 2.123-3.514 16.597 16.597 0 0 0-1.98.096v-1.02a14.834 14.834 0 0 0 2.016.096v-1.715c-.564.144-.996.24-1.607.36a3.85 3.85 0 0 0-.408-.876 9.424 9.424 0 0 0 2.23-.432 10.74 10.74 0 0 0 1.704-.73 4.15 4.15 0 0 0 .647.887c.168.119.144.25-.06.216a7.178 7.178 0 0 0-1.583.323v1.967a14.945 14.945 0 0 0 1.512-.096v1.02a15.498 15.498 0 0 0-1.512-.085v4.474c0 .588.036 1.343.096 2.063h-1.115c.06-.72.096-1.475.096-2.063v-2.722a13.83 13.83 0 0 1-1.463 2.746zm3.418-1.295a14.675 14.675 0 0 0-.984-1.74l.648-.455a10.145 10.145 0 0 0 1.128 1.523zm3.058.215a24.195 24.195 0 0 0-2.315 2.999 1.727 1.727 0 0 0-.887-.503 11.17 11.17 0 0 0 2.243-3.251 3.59 3.59 0 0 0 .972.504c.215.072.203.12-.013.252zm.564-1.558a24.195 24.195 0 0 0-2.483.107 23.032 23.032 0 0 0 .12-2.818c0-1.056-.036-2.087-.12-2.914a18.419 18.419 0 0 0 2.519.12 12.955 12.955 0 0 0 2.17-.12c-.047.695-.083 1.81-.083 2.842 0 1.08.036 2.135.084 2.879a18.16 18.16 0 0 0-2.207-.096zm1.187-4.702h-2.626v3.815h2.626zm.9 9.008a10.081 10.081 0 0 0-1.93-2.927l.778-.552a44.27 44.27 0 0 1 2.195 2.818zM9.096 179.106a2.99 2.99 0 0 0-.324-.864 27.017 27.017 0 0 0 7.652-.551 3.45 3.45 0 0 0 .684.96c.168.167.144.239-.096.227a25.892 25.892 0 0 0-3.286.048v.96c2.195 0 3.682-.036 4.905-.12v.9c-1.223-.085-2.71-.12-4.905-.12v.827c1.607 0 2.518-.024 3.406-.084a19.986 19.986 0 0 0-.072 1.835c0 .707.036 1.368.072 1.859a73.614 73.614 0 0 0-3.406-.072v.732c1.643 0 2.746-.036 3.694-.12v.924c-.948-.084-2.051-.12-3.694-.12v.756c2.147 0 3.586-.037 4.785-.12v.983c-1.27-.084-2.83-.12-5.205-.12s-3.934.036-5.205.12v-.983c1.2.083 2.615.12 4.725.12v-.756c-1.57.011-2.638.048-3.562.12v-.924c.924.072 1.991.107 3.563.12v-.732a71.84 71.84 0 0 0-3.251.06c.036-.492.06-1.151.06-1.847 0-.647-.024-1.38-.06-1.835.84.048 1.775.072 3.25.084v-.828c-2.147 0-3.61.036-4.821.12v-.9c1.211.085 2.674.12 4.821.12v-.887a29.413 29.413 0 0 1-3.73.108zm3.73 2.95h-2.314v.708h2.315zm0 1.343h-2.314v.84h2.315zm.9-.635h2.41v-.707h-2.41zm0 1.475h2.41v-.84h-2.41zM25.342 182.08c-2.35 0-3.91.024-5.17.096v-.803c1.284.048 2.82.084 5.17.084 2.303 0 3.862-.024 5.145-.084v.803c-1.283-.071-2.842-.096-5.145-.096zm.36 5.241c2.027 0 3.478-.023 4.641-.095v.815c-1.235-.06-2.806-.084-5.049-.084-2.29 0-3.862.024-5.085.084v-.815c1.151.072 2.59.095 4.63.095v-.659c-1.62.012-2.735.06-3.658.132v-.863a51.09 51.09 0 0 0 3.657.143v-.683c-2.003 0-2.698 0-3.298.036.048-.468.06-.996.06-1.464a13.871 13.871 0 0 0-.06-1.451 32.024 32.024 0 0 0 3.802.084 34.765 34.765 0 0 0 3.754-.084c-.024.444-.036.948-.036 1.45 0 .457.024.95.048 1.465-.492-.025-.971-.036-3.406-.036v.683a35.197 35.197 0 0 0 3.682-.143v.863c-.924-.084-2.015-.132-3.682-.132zm-.324-6.392c-2.986 0-3.49.024-3.802.06a17.504 17.504 0 0 0 0-2.915 32.012 32.012 0 0 0 3.802.084 34.412 34.412 0 0 0 3.742-.084c-.012.467-.024.9-.024 1.44 0 .467.012.994.036 1.475-.312-.036-.84-.06-3.754-.06zm-.54 2.231h-2.374v.587h2.374zm0 1.091h-2.374v.576h2.374zm3.382-4.965v-.576H22.5v.576zm-5.72.504v.611h5.72v-.61zm3.202 3.957h2.482v-.587h-2.482zm0 1.08h2.482v-.576h-2.482z"/>
  </g>
  <g data-name="符号">
    <g data-name="标号">
      <path d="M51.768 122.937l4.984-6.715-4.395-6.17h2.03l2.338 3.305a18.81 18.81 0 0 1 1.037 1.582 16.832 16.832 0 0 1 1.02-1.468l2.593-3.419h1.854l-4.526 6.073 4.878 6.812h-2.11l-3.243-4.597q-.272-.395-.562-.861-.43.703-.615.967l-3.235 4.491zM66.604 122.937v-4.87a5.3 5.3 0 0 1-1.968.994v-1.081a4.72 4.72 0 0 0 1.213-.642 4.848 4.848 0 0 0 1.08-1.002h.95v6.601zM51.768 199.762l4.984-6.715-4.395-6.17h2.03l2.338 3.305a18.81 18.81 0 0 1 1.037 1.582 16.832 16.832 0 0 1 1.02-1.468l2.593-3.419h1.854l-4.526 6.073 4.878 6.812h-2.11l-3.243-4.597q-.272-.395-.562-.861-.43.703-.615.967l-3.235 4.49zM63.915 199.762a2.094 2.094 0 0 1 .413-1.002 8.339 8.339 0 0 1 1.82-1.674 13.59 13.59 0 0 0 1.503-1.183 1.101 1.101 0 0 0 .325-.738.886.886 0 0 0-.308-.694 1.327 1.327 0 0 0-.905-.273 1.48 1.48 0 0 0-.866.207 1.517 1.517 0 0 0-.47.795l-1.327-.14a2.482 2.482 0 0 1 .883-1.437 3.84 3.84 0 0 1 3.753.057 1.593 1.593 0 0 1 .62 1.265 2.224 2.224 0 0 1-.518 1.398 10.46 10.46 0 0 1-1.803 1.503 8.933 8.933 0 0 0-1.037.852h3.393v1.064zM222.146 158.241a5.89 5.89 0 0 1-1.692 1.055 4.888 4.888 0 0 1-1.744.308 3.393 3.393 0 0 1-2.365-.751 2.482 2.482 0 0 1-.826-1.921 2.553 2.553 0 0 1 .312-1.252 2.584 2.584 0 0 1 .818-.91 3.845 3.845 0 0 1 1.138-.519 11.317 11.317 0 0 1 1.406-.237 14.46 14.46 0 0 0 2.822-.545q.008-.325.008-.413a1.746 1.746 0 0 0-.448-1.363 2.648 2.648 0 0 0-1.802-.536 2.793 2.793 0 0 0-1.648.392 2.388 2.388 0 0 0-.786 1.384l-1.547-.211a3.83 3.83 0 0 1 .694-1.604 3.043 3.043 0 0 1 1.398-.94 6.234 6.234 0 0 1 2.118-.33 5.606 5.606 0 0 1 1.942.282 2.56 2.56 0 0 1 1.099.708 2.486 2.486 0 0 1 .492 1.076 8.913 8.913 0 0 1 .08 1.459v2.11a22.392 22.392 0 0 0 .1 2.79 3.513 3.513 0 0 0 .4 1.12h-1.652a3.356 3.356 0 0 1-.317-1.152zm-.131-3.533a11.614 11.614 0 0 1-2.584.598 5.979 5.979 0 0 0-1.38.316 1.377 1.377 0 0 0-.624.515 1.398 1.398 0 0 0 .259 1.805 2.06 2.06 0 0 0 1.402.422 3.262 3.262 0 0 0 1.626-.4 2.464 2.464 0 0 0 1.046-1.094 3.822 3.822 0 0 0 .254-1.582zM227.789 159.393v-4.87a5.3 5.3 0 0 1-1.969.994v-1.081a4.723 4.723 0 0 0 1.213-.642 4.85 4.85 0 0 0 1.081-1.002h.95v6.6zM231.094 159.393a2.093 2.093 0 0 1 .413-1.002 8.341 8.341 0 0 1 1.819-1.674 13.566 13.566 0 0 0 1.503-1.183 1.1 1.1 0 0 0 .325-.738.886.886 0 0 0-.307-.694 1.327 1.327 0 0 0-.906-.273 1.48 1.48 0 0 0-.865.207 1.517 1.517 0 0 0-.47.795l-1.328-.14a2.481 2.481 0 0 1 .884-1.437 3.839 3.839 0 0 1 3.753.057 1.593 1.593 0 0 1 .62 1.265 2.224 2.224 0 0 1-.519 1.398 10.465 10.465 0 0 1-1.802 1.503 8.925 8.925 0 0 0-1.037.852h3.393v1.064zM222.146 65.511a5.892 5.892 0 0 1-1.692 1.055 4.89 4.89 0 0 1-1.744.308 3.393 3.393 0 0 1-2.365-.752 2.48 2.48 0 0 1-.826-1.92 2.554 2.554 0 0 1 .312-1.252 2.582 2.582 0 0 1 .818-.91 3.845 3.845 0 0 1 1.138-.519 11.317 11.317 0 0 1 1.406-.237 14.453 14.453 0 0 0 2.822-.545q.008-.325.008-.413a1.746 1.746 0 0 0-.448-1.363 2.648 2.648 0 0 0-1.802-.536 2.794 2.794 0 0 0-1.648.391 2.39 2.39 0 0 0-.786 1.385l-1.547-.211a3.833 3.833 0 0 1 .694-1.604 3.043 3.043 0 0 1 1.398-.94 6.234 6.234 0 0 1 2.118-.33 5.606 5.606 0 0 1 1.942.281 2.56 2.56 0 0 1 1.099.708 2.489 2.489 0 0 1 .492 1.076 8.91 8.91 0 0 1 .08 1.46v2.109a22.382 22.382 0 0 0 .1 2.79 3.516 3.516 0 0 0 .4 1.12h-1.652a3.356 3.356 0 0 1-.317-1.15zm-.131-3.533a11.609 11.609 0 0 1-2.584.598 5.979 5.979 0 0 0-1.38.316 1.376 1.376 0 0 0-.624.514 1.398 1.398 0 0 0 .259 1.806 2.06 2.06 0 0 0 1.402.422 3.263 3.263 0 0 0 1.626-.4 2.463 2.463 0 0 0 1.046-1.094 3.822 3.822 0 0 0 .254-1.582zM227.789 66.663v-4.87a5.301 5.301 0 0 1-1.969.994v-1.081a4.72 4.72 0 0 0 1.213-.642 4.85 4.85 0 0 0 1.081-1.002h.95v6.6zM231.094 66.663a2.094 2.094 0 0 1 .413-1.002 8.342 8.342 0 0 1 1.819-1.675 13.585 13.585 0 0 0 1.503-1.182 1.1 1.1 0 0 0 .325-.738.886.886 0 0 0-.307-.694 1.327 1.327 0 0 0-.906-.273 1.48 1.48 0 0 0-.865.207 1.518 1.518 0 0 0-.47.795l-1.328-.14a2.483 2.483 0 0 1 .884-1.438 3.841 3.841 0 0 1 3.753.058 1.593 1.593 0 0 1 .62 1.265 2.224 2.224 0 0 1-.519 1.398 10.465 10.465 0 0 1-1.802 1.503 8.913 8.913 0 0 0-1.037.852h3.393v1.064zM222.146 252.899a5.892 5.892 0 0 1-1.692 1.054 4.89 4.89 0 0 1-1.744.308 3.394 3.394 0 0 1-2.365-.752 2.48 2.48 0 0 1-.826-1.92 2.6 2.6 0 0 1 1.13-2.162 3.845 3.845 0 0 1 1.138-.519 11.317 11.317 0 0 1 1.406-.237 14.453 14.453 0 0 0 2.822-.545q.008-.325.008-.413a1.746 1.746 0 0 0-.448-1.362 2.648 2.648 0 0 0-1.802-.536 2.795 2.795 0 0 0-1.648.39 2.391 2.391 0 0 0-.786 1.385l-1.547-.21a3.834 3.834 0 0 1 .694-1.605 3.043 3.043 0 0 1 1.398-.94 6.235 6.235 0 0 1 2.118-.33 5.606 5.606 0 0 1 1.942.281 2.559 2.559 0 0 1 1.099.707 2.491 2.491 0 0 1 .492 1.077 8.91 8.91 0 0 1 .08 1.46v2.109a22.375 22.375 0 0 0 .1 2.79 3.52 3.52 0 0 0 .4 1.12h-1.652a3.357 3.357 0 0 1-.317-1.15zm-.131-3.534a11.603 11.603 0 0 1-2.584.598 5.984 5.984 0 0 0-1.38.317 1.375 1.375 0 0 0-.624.513 1.4 1.4 0 0 0 .259 1.807 2.061 2.061 0 0 0 1.402.422 3.263 3.263 0 0 0 1.626-.4 2.462 2.462 0 0 0 1.046-1.094 3.822 3.822 0 0 0 .254-1.582zM227.789 254.05v-4.87a5.301 5.301 0 0 1-1.969.994v-1.081a4.72 4.72 0 0 0 1.213-.642 4.85 4.85 0 0 0 1.081-1.002h.95v6.6zM231.094 254.05a2.094 2.094 0 0 1 .413-1.002 8.342 8.342 0 0 1 1.819-1.675 13.625 13.625 0 0 0 1.503-1.181 1.101 1.101 0 0 0 .325-.739.886.886 0 0 0-.307-.694 1.327 1.327 0 0 0-.906-.273 1.48 1.48 0 0 0-.865.206 1.52 1.52 0 0 0-.47.796l-1.328-.14a2.484 2.484 0 0 1 .884-1.438 3.843 3.843 0 0 1 3.753.058 1.593 1.593 0 0 1 .62 1.265 2.224 2.224 0 0 1-.519 1.398 10.465 10.465 0 0 1-1.802 1.503 8.923 8.923 0 0 0-1.037.852h3.393v1.064zM344.04 162.987l-.176-1.485a3.528 3.528 0 0 0 .905.14 1.737 1.737 0 0 0 .844-.175 1.436 1.436 0 0 0 .519-.492 7.766 7.766 0 0 0 .483-1.178q.044-.132.14-.387l-3.541-9.351h1.705l1.942 5.405q.378 1.028.677 2.162a21.319 21.319 0 0 1 .65-2.127l1.995-5.44h1.582l-3.55 9.492a18.645 18.645 0 0 1-.888 2.118 3.127 3.127 0 0 1-.967 1.148 2.284 2.284 0 0 1-1.3.364 3.168 3.168 0 0 1-1.02-.194z"/>
    </g>
    <g data-name="数值">
      <path d="M52.92 86.05c0-2.95 1.115-4.677 2.986-4.677 1.907 0 2.866 1.846 2.866 4.581 0 3.058-1.103 4.725-2.962 4.725-1.883 0-2.89-1.859-2.89-4.63zm4.45-.048c0-2.147-.456-3.526-1.511-3.526-.912 0-1.536 1.271-1.536 3.526 0 2.243.552 3.562 1.512 3.562 1.175 0 1.535-1.69 1.535-3.562zM59.916 89.732a.906.906 0 0 1 .9-.96.955.955 0 1 1-.9.96zM62.856 81.516h5.457v.876l-3.587 8.155H63.3l3.586-7.855v-.025h-4.03zM52.92 162.05c0-2.95 1.115-4.677 2.986-4.677 1.907 0 2.866 1.847 2.866 4.581 0 3.059-1.103 4.726-2.962 4.726-1.883 0-2.89-1.86-2.89-4.63zm4.449-.048c0-2.147-.456-3.525-1.51-3.525-.912 0-1.536 1.271-1.536 3.525 0 2.243.552 3.563 1.51 3.563 1.177 0 1.536-1.692 1.536-3.563zM59.916 165.732a.906.906 0 0 1 .9-.96.956.956 0 1 1-.9.96zM67.893 157.517v1.151h-3.167l-.3 2.147c.18-.012.348-.036.6-.036a2.787 2.787 0 0 1 3.059 2.807 3.095 3.095 0 0 1-3.298 3.094 4.293 4.293 0 0 1-2.111-.504l.312-1.055a3.755 3.755 0 0 0 1.75.455 1.842 1.842 0 0 0 1.932-1.87c0-1.164-.792-1.895-2.399-1.895a6.686 6.686 0 0 0-1.091.072l.563-4.366z"/>
    </g>
  </g>
  <g data-name="公式">
    <path data-name="m" d="M378.228 160.87l6.698-10.179h-1.364l-3.56 5.526-1.05-5.525h-1.282l1.35 6.998-2.169 3.18z"/>
    <g data-name="n">
      <path data-name="l" d="M398.299 152.915v-1.064H390.4v1.064h7.898zm0 2.797v-1.064H390.4v1.064h7.898z"/>
    </g>
    <path data-name="o" d="M409.552 154.198l-.49 2.1a4.485 4.485 0 0 1-2.416.915c-.914 0-1.337-.341-1.337-.982 0-1.35 1.16-1.91 4.243-2.033zm-.723 3.138l-.191.791h1.24l1.174-5.048a3.736 3.736 0 0 0 .095-.764c0-1.255-.927-1.814-2.769-1.814a12.162 12.162 0 0 0-2.524.354l-.245 1.256h.068a8.271 8.271 0 0 1 2.47-.546c1.2 0 1.718.314 1.718 1.05a3.28 3.28 0 0 1-.095.6c-4.092.124-5.784 1.079-5.784 3.249a1.832 1.832 0 0 0 1.992 1.869 4.555 4.555 0 0 0 2.851-.996z"/>
    <path data-name="f" d="M416.937 160.346v-.701h-1.402v-6.204h-.72c-.038.672-.511.956-1.6.956v.626h1.43v4.622h-1.431v.701zM422.961 160.346v-.701h-1.401v-6.204h-.72c-.038.672-.512.956-1.6.956v.626h1.43v4.622h-1.43v.701z"/>
    <path data-name="p" d="M438.594 148.209h-1.297l-3.915 8.31-.259-8.31h-1.351l-3.875 8.227-.273-8.227h-1.337l.41 9.919h1.46l3.861-8.213.286 8.213h1.529z"/>
    <path data-name="a" d="M442.215 153.403v-.048a6.132 6.132 0 0 1 0-9.008v-.047h-1.051a6.842 6.842 0 0 0 0 9.102h1.051z"/>
    <path data-name="g" d="M448.322 151.195v-.786h-3.703c2.661-2.264 3.41-3.032 3.41-4.348 0-1.166-.853-1.896-2.264-1.896a4.935 4.935 0 0 0-1.933.427v.976h.048a3.527 3.527 0 0 1 1.865-.607c.844 0 1.337.427 1.337 1.147 0 1.033-.607 1.705-3.42 4.12v.966z"/>
    <path data-name="b" d="M452.405 148.856a6.64 6.64 0 0 0-1.724-4.556h-1.06v.047a6.135 6.135 0 0 1-.002 9.009v.046h1.06a6.606 6.606 0 0 0 1.726-4.545z"/>
    <path data-name="f" d="M442.868 162.537v-.701h-1.402v-6.204h-.72c-.037.672-.511.956-1.6.956v.626h1.43v4.622h-1.43v.701z"/>
    <path data-name="q" d="M446.543 161.22h-1.174l-.805 3.032h.672z"/>
    <path data-name="f" d="M452.375 162.537v-.701h-1.4v-6.204h-.72c-.039.672-.513.956-1.601.956v.626h1.43v4.622h-1.431v.701z"/>
    <g data-name="r">
      <path data-name="c" d="M466.553 154.32v-1.063h-3.628v-3.644h-1.105v3.643h-3.63v1.063h3.63v3.63h1.105v-3.63h3.628z"/>
    </g>
    <path data-name="o" d="M476.814 154.198l-.491 2.1a4.485 4.485 0 0 1-2.415.915c-.914 0-1.337-.341-1.337-.982 0-1.35 1.16-1.91 4.243-2.033zm-.723 3.138l-.192.791h1.242l1.173-5.048a3.736 3.736 0 0 0 .095-.764c0-1.255-.928-1.814-2.769-1.814a12.16 12.16 0 0 0-2.524.354l-.245 1.256h.068a8.273 8.273 0 0 1 2.47-.546c1.2 0 1.718.314 1.718 1.05a3.273 3.273 0 0 1-.096.6c-4.092.124-5.784 1.079-5.784 3.249a1.832 1.832 0 0 0 1.993 1.869 4.556 4.556 0 0 0 2.85-.996z"/>
    <path data-name="f" d="M484.198 160.465v-.7h-1.4v-6.205h-.72c-.038.672-.512.956-1.601.956v.626h1.43v4.622h-1.43v.701z"/>
    <path data-name="g" d="M490.621 160.465v-.786h-3.703c2.661-2.264 3.41-3.031 3.41-4.347 0-1.166-.853-1.896-2.264-1.896a4.933 4.933 0 0 0-1.933.427v.976h.048a3.526 3.526 0 0 1 1.866-.607c.843 0 1.336.427 1.336 1.147 0 1.032-.607 1.705-3.42 4.12v.966z"/>
    <path data-name="p" d="M505.856 148.209h-1.296l-3.916 8.31-.259-8.31h-1.35l-3.875 8.227-.273-8.227h-1.337l.41 9.919h1.46l3.86-8.213.287 8.213h1.528z"/>
    <path data-name="a" d="M509.477 153.403v-.048a6.132 6.132 0 0 1 0-9.008v-.047h-1.052a6.842 6.842 0 0 0 0 9.102h1.052z"/>
    <path data-name="g" d="M515.584 151.195v-.786h-3.704c2.662-2.264 3.41-3.032 3.41-4.348 0-1.166-.852-1.896-2.264-1.896a4.935 4.935 0 0 0-1.932.427v.976h.048a3.527 3.527 0 0 1 1.865-.607c.844 0 1.336.427 1.336 1.147 0 1.033-.606 1.705-3.42 4.12v.966z"/>
    <path data-name="b" d="M519.666 148.856a6.64 6.64 0 0 0-1.723-4.556h-1.06v.047a6.136 6.136 0 0 1-.002 9.009v.046h1.06a6.606 6.606 0 0 0 1.726-4.545z"/>
    <path data-name="g" d="M510.528 162.656v-.786h-3.704c2.662-2.264 3.41-3.031 3.41-4.347 0-1.166-.852-1.896-2.264-1.896a4.935 4.935 0 0 0-1.932.427v.976h.047a3.527 3.527 0 0 1 1.866-.607c.844 0 1.336.427 1.336 1.147 0 1.032-.606 1.705-3.42 4.12v.966z"/>
    <path data-name="q" d="M513.805 161.34h-1.174l-.805 3.031h.672z"/>
    <path data-name="f" d="M519.637 162.656v-.7h-1.4v-6.205h-.72c-.039.672-.513.956-1.601.956v.626h1.43v4.622h-1.43v.701z"/>
    <g data-name="r">
      <path data-name="c" d="M533.815 154.32v-1.063h-3.628v-3.644h-1.105v3.643h-3.63v1.063h3.63v3.63h1.105v-3.63h3.628z"/>
    </g>
    <path data-name="o" d="M544.076 154.198l-.49 2.1a4.485 4.485 0 0 1-2.416.915c-.914 0-1.337-.341-1.337-.982 0-1.35 1.16-1.91 4.243-2.033zm-.723 3.138l-.191.791h1.241l1.173-5.048a3.736 3.736 0 0 0 .096-.764c0-1.255-.928-1.814-2.77-1.814a12.162 12.162 0 0 0-2.524.354l-.245 1.256h.068a8.272 8.272 0 0 1 2.47-.546c1.2 0 1.718.314 1.718 1.05a3.28 3.28 0 0 1-.095.6c-4.092.124-5.784 1.079-5.784 3.249a1.832 1.832 0 0 0 1.992 1.869 4.555 4.555 0 0 0 2.851-.996z"/>
    <path data-name="f" d="M551.46 160.465v-.7h-1.4v-6.205h-.72c-.039.672-.513.956-1.601.956v.626h1.43v4.622h-1.431v.701z"/>
    <path data-name="h" d="M557.789 158.429a1.63 1.63 0 0 0-1.506-1.724v-.066a1.653 1.653 0 0 0 1.354-1.545c0-.644-.36-1.657-2.254-1.657a4.937 4.937 0 0 0-1.933.435v.967h.038a3.567 3.567 0 0 1 1.876-.607c.861 0 1.336.351 1.336.957 0 .815-.56 1.156-1.857 1.156v.767c1.535 0 1.999.256 1.999 1.241a1.396 1.396 0 0 1-1.573 1.458 3.763 3.763 0 0 1-1.951-.605h-.066v.966a5.279 5.279 0 0 0 2.036.435 2.222 2.222 0 0 0 2.5-2.178z"/>
    <path data-name="p" d="M573.118 148.209h-1.297l-3.915 8.31-.259-8.31h-1.351l-3.875 8.227-.273-8.227h-1.336l.41 9.919h1.459l3.86-8.213.287 8.213h1.528z"/>
    <path data-name="a" d="M576.739 153.403v-.048a6.132 6.132 0 0 1 0-9.008v-.047h-1.052a6.842 6.842 0 0 0 0 9.102h1.052z"/>
    <path data-name="g" d="M582.845 151.195v-.786h-3.703c2.661-2.264 3.41-3.032 3.41-4.348 0-1.166-.852-1.896-2.264-1.896a4.935 4.935 0 0 0-1.933.427v.976h.048a3.526 3.526 0 0 1 1.866-.607c.843 0 1.336.427 1.336 1.147 0 1.033-.607 1.705-3.42 4.12v.966z"/>
    <path data-name="b" d="M586.928 148.856a6.64 6.64 0 0 0-1.724-4.556h-1.06v.047a6.135 6.135 0 0 1-.001 9.009v.046h1.06a6.606 6.606 0 0 0 1.726-4.545z"/>
    <path data-name="h" d="M577.695 160.62a1.63 1.63 0 0 0-1.506-1.724v-.066a1.653 1.653 0 0 0 1.354-1.545c0-.644-.36-1.657-2.254-1.657a4.937 4.937 0 0 0-1.933.435v.967h.038a3.567 3.567 0 0 1 1.876-.607c.861 0 1.336.351 1.336.957 0 .815-.56 1.156-1.857 1.156v.767c1.535 0 1.999.256 1.999 1.241a1.396 1.396 0 0 1-1.573 1.458 3.762 3.762 0 0 1-1.951-.606h-.067v.967a5.276 5.276 0 0 0 2.037.435 2.222 2.222 0 0 0 2.5-2.178z"/>
    <path data-name="q" d="M581.067 161.34h-1.175l-.805 3.031h.673z"/>
    <path data-name="f" d="M586.9 162.656v-.7h-1.401v-6.205h-.72c-.038.672-.512.956-1.601.956v.626h1.43v4.622h-1.43v.701z"/>
    <g data-name="n">
      <path data-name="l" d="M398.299 173.361v-1.064H390.4v1.064h7.898zm0 2.797v-1.064H390.4v1.064h7.898z"/>
    </g>
    <g data-name="s">
      <path data-name="e" d="M411.503 173.607c0-3.452-1.05-5.157-3.438-5.157-2.346 0-3.424 1.652-3.424 5.17 0 3.507 1.05 5.157 3.424 5.157 2.346 0 3.438-1.609 3.438-5.17zm-1.35 0c0 3.016-.546 4.08-2.088 4.08-1.556 0-2.073-1.05-2.073-4.067s.531-4.064 2.073-4.064 2.088 1.063 2.088 4.05z"/>
    </g>
    <g data-name="t">
      <path data-name="d" d="M415.678 178.573v-1.897h-1.583v1.897z"/>
    </g>
    <g data-name="u">
      <path data-name="g" d="M425.16 178.573v-1.132h-5.335c3.834-3.26 4.911-4.366 4.911-6.262 0-1.679-1.227-2.73-3.26-2.73a7.107 7.107 0 0 0-2.784.615v1.405h.069a5.079 5.079 0 0 1 2.687-.874c1.215 0 1.924.615 1.924 1.652 0 1.487-.873 2.456-4.925 5.934v1.392z"/>
    </g>
    <g data-name="v">
      <path data-name="k" d="M433.824 173.02c0-3.042-1.324-4.57-3.59-4.57a3.345 3.345 0 0 0-3.436 3.425 2.943 2.943 0 0 0 3.287 3.124 4.296 4.296 0 0 0 2.36-.696c-.177 2.075-1.323 3.316-3.274 3.316a3.288 3.288 0 0 1-1.336-.273h-.07v1.268a3.865 3.865 0 0 0 1.202.15c3.246 0 4.857-2.25 4.857-5.744zm-1.365-.286v.627a4.269 4.269 0 0 1-2.06.546c-1.514 0-2.251-.668-2.251-2.087a2.004 2.004 0 0 1 2.074-2.279c1.46 0 2.237 1.105 2.237 3.193z"/>
    </g>
    <path data-name="w" d="M443.094 174.766l-2.74-2.725c-.164-.164-.192-.192-.3-.192a.284.284 0 0 0-.275.274c0 .096.028.124.178.274l2.74 2.752-2.74 2.753c-.15.15-.178.178-.178.274a.284.284 0 0 0 .275.274c.109 0 .136-.027.3-.192l2.726-2.725 2.834 2.835a.493.493 0 0 0 .206.082.267.267 0 0 0 .274-.259v-.015a.273.273 0 0 0-.042-.15c-.013-.027-2.19-2.178-2.875-2.877l2.506-2.505c.069-.083.274-.26.342-.343a.32.32 0 0 0 .069-.178.267.267 0 0 0-.26-.274h-.014c-.11 0-.165.055-.315.206l-2.711 2.71z"/>
    <g data-name="s">
      <path data-name="e" d="M459.198 173.607c0-3.452-1.05-5.157-3.438-5.157-2.347 0-3.424 1.652-3.424 5.17 0 3.507 1.05 5.157 3.424 5.157 2.346 0 3.438-1.609 3.438-5.17zm-1.35 0c0 3.016-.547 4.08-2.088 4.08-1.556 0-2.074-1.05-2.074-4.067s.532-4.064 2.074-4.064 2.087 1.063 2.087 4.05z"/>
    </g>
    <g data-name="t">
      <path data-name="d" d="M463.372 178.573v-1.897h-1.583v1.897z"/>
    </g>
    <g data-name="x">
      <path data-name="f" d="M472.28 178.573v-1.01h-2.017v-8.935h-1.037c-.055.968-.737 1.377-2.305 1.377v.901h2.06v6.657h-2.061v1.01z"/>
    </g>
    <g data-name="r">
      <path data-name="c" d="M486.552 174.766v-1.063h-3.628v-3.644h-1.106v3.643h-3.629v1.064h3.63v3.629h1.105v-3.63h3.628z"/>
    </g>
    <g data-name="s">
      <path data-name="e" d="M498.764 173.607c0-3.452-1.05-5.157-3.438-5.157-2.346 0-3.424 1.652-3.424 5.17 0 3.507 1.05 5.157 3.424 5.157 2.346 0 3.438-1.609 3.438-5.17zm-1.35 0c0 3.016-.546 4.08-2.088 4.08-1.556 0-2.073-1.05-2.073-4.067s.531-4.064 2.073-4.064 2.088 1.063 2.088 4.05z"/>
    </g>
    <g data-name="t">
      <path data-name="d" d="M502.939 178.573v-1.897h-1.583v1.897z"/>
    </g>
    <g data-name="y">
      <path data-name="h" d="M512.284 175.64a2.348 2.348 0 0 0-2.169-2.483v-.095a2.38 2.38 0 0 0 1.95-2.225c0-.927-.518-2.387-3.246-2.387a7.111 7.111 0 0 0-2.783.627v1.392h.054a5.138 5.138 0 0 1 2.701-.874c1.241 0 1.925.506 1.925 1.379 0 1.174-.806 1.664-2.675 1.664v1.105c2.21 0 2.879.368 2.879 1.788a2.011 2.011 0 0 1-2.265 2.1 5.418 5.418 0 0 1-2.81-.873h-.096v1.392a7.602 7.602 0 0 0 2.934.627c2.21 0 3.601-1.295 3.601-3.137z"/>
    </g>
    <g data-name="u">
      <path data-name="g" d="M521.097 178.573v-1.132h-5.334c3.834-3.26 4.912-4.366 4.912-6.262 0-1.679-1.228-2.73-3.261-2.73a7.107 7.107 0 0 0-2.784.615v1.405h.069a5.079 5.079 0 0 1 2.687-.874c1.215 0 1.925.615 1.925 1.652 0 1.487-.874 2.456-4.926 5.934v1.392z"/>
    </g>
    <path data-name="w" d="M530.355 174.766l-2.74-2.725c-.164-.164-.192-.192-.3-.192a.284.284 0 0 0-.275.274c0 .096.028.124.179.274l2.739 2.752-2.74 2.753c-.15.15-.178.178-.178.274a.284.284 0 0 0 .275.274c.109 0 .136-.027.3-.192l2.726-2.725 2.834 2.835a.493.493 0 0 0 .206.082.267.267 0 0 0 .274-.259v-.015a.273.273 0 0 0-.041-.15c-.014-.027-2.192-2.178-2.876-2.877l2.506-2.505c.069-.083.274-.26.342-.343a.32.32 0 0 0 .069-.178.267.267 0 0 0-.26-.274h-.014c-.11 0-.164.055-.315.206l-2.711 2.71z"/>
    <g data-name="s">
      <path data-name="e" d="M546.459 173.607c0-3.452-1.05-5.157-3.438-5.157-2.347 0-3.424 1.652-3.424 5.17 0 3.507 1.05 5.157 3.424 5.157 2.346 0 3.438-1.609 3.438-5.17zm-1.35 0c0 3.016-.547 4.08-2.088 4.08-1.556 0-2.074-1.05-2.074-4.067s.532-4.064 2.074-4.064 2.087 1.063 2.087 4.05z"/>
    </g>
    <g data-name="t">
      <path data-name="d" d="M550.633 178.573v-1.897h-1.583v1.897z"/>
    </g>
    <g data-name="x">
      <path data-name="f" d="M559.542 178.573v-1.01h-2.018v-8.935h-1.037c-.054.968-.737 1.377-2.305 1.377v.901h2.06v6.657h-2.061v1.01z"/>
    </g>
    <g data-name="r">
      <path data-name="c" d="M573.813 174.766v-1.063h-3.628v-3.644h-1.105v3.643h-3.63v1.064h3.63v3.629h1.105v-3.63h3.629z"/>
    </g>
    <g data-name="s">
      <path data-name="e" d="M586.025 173.607c0-3.452-1.05-5.157-3.438-5.157-2.346 0-3.424 1.652-3.424 5.17 0 3.507 1.05 5.157 3.424 5.157 2.347 0 3.438-1.609 3.438-5.17zm-1.35 0c0 3.016-.546 4.08-2.088 4.08-1.556 0-2.073-1.05-2.073-4.067s.531-4.064 2.073-4.064 2.088 1.063 2.088 4.05z"/>
    </g>
    <g data-name="t">
      <path data-name="d" d="M590.2 178.573v-1.897h-1.583v1.897z"/>
    </g>
    <g data-name="y">
      <path data-name="h" d="M599.545 175.64a2.348 2.348 0 0 0-2.168-2.483v-.095a2.38 2.38 0 0 0 1.95-2.225c0-.927-.519-2.387-3.247-2.387a7.111 7.111 0 0 0-2.783.627v1.392h.054a5.138 5.138 0 0 1 2.702-.874c1.24 0 1.924.506 1.924 1.379 0 1.174-.806 1.664-2.675 1.664v1.105c2.211 0 2.88.368 2.88 1.788a2.011 2.011 0 0 1-2.266 2.1 5.418 5.418 0 0 1-2.81-.873h-.095v1.392a7.602 7.602 0 0 0 2.933.627c2.21 0 3.601-1.295 3.601-3.137z"/>
    </g>
    <g data-name="z">
      <path data-name="j" d="M608.427 175.804a2.59 2.59 0 0 0-1.91-2.47v-.04a2.655 2.655 0 0 0 1.65-2.348c0-1.46-1.283-2.524-3.261-2.524-1.897 0-3.26 1.12-3.26 2.62a2.371 2.371 0 0 0 1.568 2.197v.04a2.808 2.808 0 0 0-1.827 2.552c0 1.732 1.364 2.974 3.52 2.974 2.018 0 3.52-1.283 3.52-3.001zm-1.582-4.843a2.189 2.189 0 0 1-1.16 2.004c-1.884-.531-2.702-1.159-2.702-2.073s.792-1.487 1.91-1.487c1.146 0 1.952.614 1.952 1.556zm.217 4.98a1.881 1.881 0 0 1-2.14 1.869 2.07 2.07 0 0 1-2.196-2.075 2.449 2.449 0 0 1 1.323-2.155c2.455.9 3.014 1.105 3.014 2.36z"/>
    </g>
    <path data-name="w" d="M617.616 174.766l-2.74-2.725c-.164-.164-.192-.192-.3-.192a.284.284 0 0 0-.275.274c0 .096.028.124.179.274l2.739 2.752-2.74 2.753c-.15.15-.178.178-.178.274a.284.284 0 0 0 .275.274c.11 0 .136-.027.3-.192l2.726-2.725 2.835 2.835a.493.493 0 0 0 .205.082.267.267 0 0 0 .274-.259v-.015a.273.273 0 0 0-.041-.15c-.014-.027-2.191-2.178-2.876-2.877l2.506-2.505c.069-.083.274-.26.342-.343a.32.32 0 0 0 .069-.178.267.267 0 0 0-.26-.274h-.014c-.11 0-.164.055-.315.206l-2.711 2.71z"/>
    <g data-name="A">
      <path data-name="a" d="M631.155 181.754v-.07a8.832 8.832 0 0 1 0-12.974v-.067h-1.515a9.854 9.854 0 0 0 0 13.11h1.515z"/>
    </g>
    <path data-name="B" d="M641.185 175.424c.232 0 .479 0 .479-.275s-.247-.273-.48-.273h-7.408c-.233 0-.48 0-.48.273s.247.275.48.275z"/>
    <g data-name="s">
      <path data-name="e" d="M650.548 173.607c0-3.452-1.05-5.157-3.438-5.157-2.347 0-3.424 1.652-3.424 5.17 0 3.507 1.05 5.157 3.424 5.157 2.346 0 3.438-1.609 3.438-5.17zm-1.35 0c0 3.016-.547 4.08-2.088 4.08-1.556 0-2.073-1.05-2.073-4.067s.531-4.064 2.073-4.064 2.087 1.063 2.087 4.05z"/>
    </g>
    <g data-name="t">
      <path data-name="d" d="M654.722 178.573v-1.897h-1.582v1.897z"/>
    </g>
    <path data-name="g" d="M664.205 178.573v-1.132h-5.334c3.834-3.26 4.911-4.366 4.911-6.262 0-1.679-1.227-2.73-3.26-2.73a7.107 7.107 0 0 0-2.784.615v1.405h.069a5.079 5.079 0 0 1 2.687-.874c1.215 0 1.924.615 1.924 1.652 0 1.487-.873 2.456-4.925 5.934v1.392z"/>
    <path data-name="b" d="M670.085 175.204a9.564 9.564 0 0 0-2.483-6.561h-1.527v.068a8.836 8.836 0 0 1-.002 12.975v.067h1.528a9.514 9.514 0 0 0 2.485-6.548z"/>
    <path d="M398.299 191.849v-1.064h-7.898v1.064h7.9-.002z"/>
    <path data-name="l" d="M398.299 194.646v-1.065H390.4v1.065h7.898z"/>
    <path data-name="B" d="M412.751 193.911c.232 0 .48 0 .48-.274s-.247-.274-.48-.274h-7.409c-.232 0-.479 0-.479.274s.247.274.48.274z"/>
    <path d="M422.115 192.094c0-3.451-1.05-5.156-3.439-5.156-2.346 0-3.424 1.651-3.424 5.17 0 3.507 1.05 5.157 3.424 5.157 2.347 0 3.439-1.61 3.439-5.17z"/>
    <path data-name="e" d="M420.764 192.094c0 3.017-.546 4.08-2.088 4.08-1.555 0-2.073-1.05-2.073-4.066s.532-4.065 2.073-4.065 2.088 1.063 2.088 4.051z" fill="#fff"/>
    <path data-name="d" d="M426.289 197.06v-1.896h-1.583v1.897z"/>
    <path d="M435.757 192.094c0-3.451-1.05-5.156-3.438-5.156-2.346 0-3.424 1.651-3.424 5.17 0 3.507 1.05 5.157 3.424 5.157 2.346 0 3.438-1.61 3.438-5.17z"/>
    <path data-name="e" d="M434.407 192.094c0 3.017-.546 4.08-2.088 4.08-1.556 0-2.073-1.05-2.073-4.066s.532-4.065 2.073-4.065 2.088 1.063 2.088 4.051z" fill="#fff"/>
    <path data-name="f" d="M443.874 197.06v-1.01h-2.018v-8.935h-1.037c-.054.968-.736 1.378-2.305 1.378v.9h2.06v6.658h-2.06v1.01z"/>
    <path data-name="i" d="M453.043 193.909c0-2.005-1.24-3.015-3.643-3.015a11.045 11.045 0 0 0-1.105.055v-2.647h4.68v-1.16h-5.962v5.103a11.498 11.498 0 0 1 2.06-.232c1.76 0 2.62.613 2.62 1.895a2.065 2.065 0 0 1-2.306 2.211 5.565 5.565 0 0 1-2.715-.832h-.095v1.405a7.309 7.309 0 0 0 2.837.573 3.293 3.293 0 0 0 3.63-3.356z"/>
    <path data-name="g1-119" d="M117.359 82.599h-.862l-1.608 3.74-.48-3.74h-.675l-1.981 3.74-.125-3.74h-.835l.302 4.842h.755l2-3.74.488 3.74h.764z"/>
    <path data-name="g4-40" d="M119.716 84.364v-.03a3.994 3.994 0 0 1 0-5.867v-.031h-.685a4.456 4.456 0 0 0 0 5.928z"/>
    <path data-name="g4-49" d="M123.434 82.926v-.457h-.913v-4.04h-.469c-.025.438-.333.623-1.042.623v.407h.931v3.01h-.931v.456z"/>
    <path data-name="g4-41" d="M126.352 81.403a4.324 4.324 0 0 0-1.123-2.967h-.69v.03a3.994 3.994 0 0 1 0 5.867v.03h.69a4.309 4.309 0 0 0 1.123-2.96z"/>
    <path data-name="g4-49" d="M120.489 90.312v-.456h-.913v-4.04h-.469c-.024.438-.333.623-1.042.623v.407h.931v3.01h-.931v.457z"/>
    <path data-name="g4-44" d="M122.882 89.455h-.765l-.524 1.974h.438z"/>
    <path data-name="g4-49" d="M126.68 90.312v-.456h-.912v-4.04h-.469c-.025.438-.333.623-1.042.623v.407h.931v3.01h-.931v.457z"/>
    <g data-name="g6-50">
      <path data-name="g4-50" d="M153.75 87.44v-.737h-3.473c2.496-2.124 3.198-2.843 3.198-4.078 0-1.093-.8-1.777-2.123-1.777a4.628 4.628 0 0 0-1.813.4v.915h.045a3.305 3.305 0 0 1 1.75-.569c.79 0 1.252.4 1.252 1.075 0 .969-.568 1.6-3.207 3.865v.906z"/>
    </g>
    <g data-name="g6-46">
      <path data-name="g4-46" d="M147.575 87.44v-1.235h-1.03v1.235z"/>
    </g>
    <g data-name="g6-48">
      <path data-name="g4-48" d="M144.857 84.206c0-2.248-.684-3.358-2.239-3.358-1.528 0-2.23 1.075-2.23 3.367 0 2.283.684 3.359 2.23 3.359 1.528 0 2.24-1.049 2.24-3.368zm-.88 0c0 1.964-.355 2.657-1.36 2.657-1.012 0-1.35-.684-1.35-2.648s.347-2.648 1.35-2.648 1.36.694 1.36 2.64z"/>
    </g>
    <g data-name="g6-61">
      <path data-name="g4-61" d="M136.258 84.046v-.693h-5.144v.693zm0 1.822v-.693h-5.144v.693z"/>
    </g>
    <path data-name="g1-119" d="M193.43 96.436h-.856l-1.6 3.719-.476-3.719h-.671l-1.97 3.719-.124-3.719h-.83l.3 4.814h.75l1.988-3.718.486 3.718h.76z"/>
    <path data-name="g4-40" d="M195.773 98.192v-.031a3.97 3.97 0 0 1 0-5.832v-.03h-.68a4.43 4.43 0 0 0 0 5.893z"/>
    <path data-name="g4-49" d="M199.47 96.762v-.453h-.908v-4.017h-.467c-.024.435-.33.62-1.036.62v.404h.926v2.993h-.926v.454z"/>
    <path data-name="g4-41" d="M202.37 95.249a4.299 4.299 0 0 0-1.116-2.95h-.687v.03a3.97 3.97 0 0 1 0 5.832v.03h.687a4.284 4.284 0 0 0 1.116-2.942z"/>
    <path data-name="g4-50" d="M196.8 104.182v-.51H194.4c1.724-1.465 2.208-1.962 2.208-2.814 0-.754-.552-1.226-1.466-1.226a3.194 3.194 0 0 0-1.25.276v.631h.03a2.281 2.281 0 0 1 1.208-.392c.546 0 .865.276.865.742 0 .668-.393 1.104-2.214 2.667v.626z"/>
    <path data-name="g4-44" d="M198.921 103.33h-.76l-.521 1.962h.435z"/>
    <path data-name="g4-49" d="M202.697 104.182v-.454h-.908v-4.017h-.466c-.024.436-.33.62-1.036.62v.404h.926v2.993h-.926v.454z"/>
    <g data-name="g6-61">
      <path data-name="g4-61" d="M212.218 97.876v-.689h-5.114v.69zm0 1.81v-.688h-5.114v.689z"/>
    </g>
    <g data-name="g6-48">
      <path data-name="g4-48" d="M220.766 98.035c0-2.234-.68-3.338-2.226-3.338-1.519 0-2.217 1.068-2.217 3.347 0 2.27.68 3.338 2.217 3.338 1.52 0 2.226-1.042 2.226-3.347zm-.874 0c0 1.952-.354 2.64-1.352 2.64-1.007 0-1.342-.68-1.342-2.631s.344-2.632 1.342-2.632 1.352.689 1.352 2.623z"/>
    </g>
    <g data-name="g6-46">
      <path data-name="g4-46" d="M223.469 101.25v-1.228h-1.025v1.228z"/>
    </g>
    <g data-name="g6-51">
      <path data-name="g4-51" d="M229.518 99.351a1.52 1.52 0 0 0-1.404-1.607v-.062a1.54 1.54 0 0 0 1.263-1.44c0-.6-.335-1.546-2.102-1.546a4.596 4.596 0 0 0-1.802.406v.901h.036a3.326 3.326 0 0 1 1.748-.565c.804 0 1.246.327 1.246.892 0 .76-.521 1.078-1.731 1.078v.715c1.43 0 1.863.238 1.863 1.157a1.302 1.302 0 0 1-1.466 1.36 3.509 3.509 0 0 1-1.82-.565h-.061v.9a4.922 4.922 0 0 0 1.899.407 2.072 2.072 0 0 0 2.331-2.03z"/>
    </g>
    <path data-name="g1-119" d="M162.388 130.865h-.857l-1.598 3.718-.477-3.718h-.671l-1.97 3.718-.124-3.718h-.83l.3 4.813h.75l1.988-3.718.486 3.718h.76z"/>
    <path data-name="g4-40" d="M164.731 132.62v-.031a3.97 3.97 0 0 1 0-5.832v-.03h-.68a4.43 4.43 0 0 0 0 5.892z"/>
    <path data-name="g4-49" d="M168.427 131.19v-.454h-.908v-4.016h-.466c-.024.435-.33.62-1.036.62v.404h.926v2.992h-.926v.454z"/>
    <path data-name="g4-41" d="M171.327 129.676a4.299 4.299 0 0 0-1.116-2.95h-.687v.031a3.97 3.97 0 0 1 0 5.832v.03h.687a4.283 4.283 0 0 0 1.116-2.943z"/>
    <path data-name="g4-49" d="M165.5 138.61v-.454h-.908v-4.016h-.466c-.025.435-.331.62-1.037.62v.404h.927v2.992h-.926v.454z"/>
    <path data-name="g4-44" d="M167.879 137.758h-.76l-.521 1.962h.435z"/>
    <path data-name="g4-50" d="M171.912 138.61v-.509h-2.398c1.724-1.466 2.208-1.962 2.208-2.815 0-.754-.552-1.226-1.466-1.226a3.195 3.195 0 0 0-1.25.276v.631h.03a2.282 2.282 0 0 1 1.208-.392c.546 0 .865.276.865.742 0 .668-.393 1.104-2.214 2.667v.626z"/>
    <g data-name="g6-61">
      <path data-name="g4-61" d="M181.175 132.304v-.689h-5.114v.69zm0 1.81v-.689h-5.114v.69z"/>
    </g>
    <g data-name="g6-48">
      <path data-name="g4-48" d="M189.723 132.463c0-2.234-.68-3.338-2.226-3.338-1.519 0-2.217 1.068-2.217 3.347 0 2.27.68 3.338 2.217 3.338 1.52 0 2.226-1.041 2.226-3.347zm-.875 0c0 1.952-.353 2.64-1.35 2.64-1.008 0-1.343-.68-1.343-2.631s.344-2.632 1.342-2.632 1.351.689 1.351 2.623z"/>
    </g>
    <g data-name="g6-46">
      <path data-name="g4-46" d="M192.425 135.678v-1.228h-1.024v1.228z"/>
    </g>
    <g data-name="g6-49">
      <path data-name="g4-49" d="M198.193 135.678v-.654h-1.308v-5.785h-.67c-.036.627-.478.892-1.494.892v.583h1.334v4.31h-1.333v.654z"/>
    </g>
    <path data-name="g1-119" d="M163.964 173.261h-.857l-1.598 3.719-.477-3.719h-.671l-1.97 3.719-.124-3.719h-.83l.3 4.814h.75l1.988-3.719.486 3.719h.76z"/>
    <path data-name="g4-40" d="M166.307 175.016v-.03a3.97 3.97 0 0 1 0-5.832v-.03h-.68a4.43 4.43 0 0 0 0 5.892z"/>
    <path data-name="g4-49" d="M170.003 173.587v-.454h-.908v-4.016h-.466c-.024.435-.33.619-1.036.619v.405h.926v2.992h-.926v.454z"/>
    <path data-name="g4-41" d="M172.903 172.073a4.299 4.299 0 0 0-1.116-2.95h-.687v.03a3.97 3.97 0 0 1 0 5.832v.031h.687a4.283 4.283 0 0 0 1.116-2.943z"/>
    <path data-name="g4-50" d="M167.333 181.007v-.51h-2.398c1.724-1.465 2.208-1.962 2.208-2.814 0-.754-.552-1.226-1.466-1.226a3.195 3.195 0 0 0-1.25.276v.631h.03a2.281 2.281 0 0 1 1.208-.392c.546 0 .865.276.865.742 0 .668-.393 1.104-2.214 2.667v.626z"/>
    <path data-name="g4-44" d="M169.455 180.154h-.76l-.521 1.963h.435z"/>
    <path data-name="g4-50" d="M173.488 181.007v-.51h-2.398c1.724-1.465 2.208-1.962 2.208-2.814 0-.754-.552-1.226-1.466-1.226a3.195 3.195 0 0 0-1.25.276v.631h.03a2.281 2.281 0 0 1 1.208-.392c.546 0 .865.276.865.742 0 .668-.393 1.104-2.214 2.667v.626z"/>
    <g data-name="g6-61">
      <path data-name="g4-61" d="M182.751 174.7v-.688h-5.114v.689zm0 1.811v-.689h-5.114v.69z"/>
    </g>
    <g data-name="g6-48">
      <path data-name="g4-48" d="M191.299 174.86c0-2.235-.68-3.339-2.226-3.339-1.519 0-2.217 1.069-2.217 3.348 0 2.27.68 3.338 2.217 3.338 1.52 0 2.226-1.042 2.226-3.347zm-.875 0c0 1.952-.353 2.64-1.35 2.64-1.008 0-1.343-.68-1.343-2.631s.344-2.632 1.342-2.632 1.351.689 1.351 2.623z"/>
    </g>
    <g data-name="g6-46">
      <path data-name="g4-46" d="M194.001 178.075v-1.228h-1.024v1.228z"/>
    </g>
    <g data-name="g6-53">
      <path data-name="g4-53" d="M200.087 176.035c0-1.299-.804-1.952-2.359-1.952a7.152 7.152 0 0 0-.715.035v-1.713h3.03v-.751h-3.86v3.303a7.442 7.442 0 0 1 1.333-.15c1.14 0 1.696.398 1.696 1.228a1.337 1.337 0 0 1-1.493 1.43 3.606 3.606 0 0 1-1.757-.538h-.062v.91a4.736 4.736 0 0 0 1.837.37 2.132 2.132 0 0 0 2.35-2.172z"/>
    </g>
    <path data-name="g1-119" d="M195.605 208.435h-.856l-1.599 3.718-.477-3.718h-.671l-1.97 3.718-.123-3.718h-.83l.3 4.813h.75l1.987-3.718.486 3.718h.76z"/>
    <path data-name="g4-40" d="M197.948 210.19v-.031a3.97 3.97 0 0 1 0-5.832v-.03h-.68a4.43 4.43 0 0 0 0 5.892z"/>
    <path data-name="g4-49" d="M201.644 208.76v-.454h-.908v-4.016h-.466c-.025.435-.331.62-1.036.62v.404h.926v2.992h-.926v.454z"/>
    <path data-name="g4-41" d="M204.544 207.246a4.299 4.299 0 0 0-1.116-2.95h-.687v.031a3.97 3.97 0 0 1 0 5.832v.03h.687a4.283 4.283 0 0 0 1.116-2.943z"/>
    <path data-name="g4-49" d="M198.716 216.18v-.454h-.907v-4.016h-.466c-.025.435-.332.62-1.037.62v.404h.926v2.992h-.926v.454z"/>
    <path data-name="g4-44" d="M201.095 215.328h-.76l-.52 1.962h.435z"/>
    <path data-name="g4-51" d="M205.068 214.862a1.056 1.056 0 0 0-.976-1.116v-.043a1.07 1.07 0 0 0 .877-1c0-.417-.233-1.073-1.459-1.073a3.19 3.19 0 0 0-1.25.282v.625h.024a2.309 2.309 0 0 1 1.214-.392c.558 0 .864.227.864.62 0 .527-.361.747-1.201.747v.497c.993 0 1.293.166 1.293.803a.904.904 0 0 1-1.018.945 2.436 2.436 0 0 1-1.263-.393h-.043v.626a3.419 3.419 0 0 0 1.319.282 1.439 1.439 0 0 0 1.619-1.41z"/>
    <g data-name="g6-61">
      <path data-name="g4-61" d="M214.392 209.874v-.689h-5.114v.69zm0 1.81v-.689h-5.114v.69z"/>
    </g>
    <g data-name="g6-48">
      <path data-name="g4-48" d="M222.94 210.033c0-2.234-.68-3.338-2.226-3.338-1.519 0-2.217 1.068-2.217 3.347 0 2.27.68 3.338 2.217 3.338 1.52 0 2.226-1.041 2.226-3.347zm-.875 0c0 1.952-.353 2.64-1.35 2.64-1.008 0-1.343-.68-1.343-2.631s.344-2.632 1.342-2.632 1.351.689 1.351 2.623z"/>
    </g>
    <g data-name="g6-52">
      <path data-name="g4-52" d="M231.922 211.437v-.688h-.954v-3.922h-.786l-3.11 3.621v.99h3.074v1.81h.822v-1.81zm-1.776-.689h-2.49l2.49-2.896z"/>
    </g>
    <path data-name="g1-119" d="M115.985 223.996h-.856l-1.599 3.718-.477-3.718h-.671l-1.97 3.718-.124-3.718h-.83l.3 4.813h.75l1.988-3.718.486 3.718h.76z"/>
    <path data-name="g4-40" d="M118.328 225.752v-.031a3.97 3.97 0 0 1 0-5.832v-.03h-.681a4.43 4.43 0 0 0 0 5.893z"/>
    <path data-name="g4-49" d="M122.024 224.322v-.454h-.908v-4.017h-.466c-.025.436-.331.62-1.036.62v.404h.926v2.993h-.926v.454z"/>
    <path data-name="g4-41" d="M124.924 222.809a4.299 4.299 0 0 0-1.116-2.95h-.687v.03a3.97 3.97 0 0 1 0 5.832v.03h.687a4.283 4.283 0 0 0 1.116-2.942z"/>
    <path data-name="g4-50" d="M119.354 231.742v-.51h-2.398c1.723-1.465 2.208-1.962 2.208-2.814 0-.754-.552-1.227-1.466-1.227a3.195 3.195 0 0 0-1.25.276v.632h.03a2.28 2.28 0 0 1 1.208-.392c.545 0 .864.275.864.741 0 .669-.392 1.104-2.213 2.668v.625z"/>
    <path data-name="g4-44" d="M121.475 230.889h-.76l-.52 1.962h.435z"/>
    <path data-name="g4-51" d="M125.447 230.423a1.056 1.056 0 0 0-.975-1.116v-.043a1.07 1.07 0 0 0 .877-1c0-.416-.233-1.073-1.46-1.073a3.191 3.191 0 0 0-1.25.282v.626h.025a2.31 2.31 0 0 1 1.214-.392c.558 0 .864.226.864.619 0 .527-.362.748-1.202.748v.497c.994 0 1.294.165 1.294.803a.904.904 0 0 1-1.018.944 2.436 2.436 0 0 1-1.263-.392h-.043v.625a3.419 3.419 0 0 0 1.319.282 1.439 1.439 0 0 0 1.618-1.41z"/>
    <g data-name="g6-61">
      <path data-name="g4-61" d="M134.772 225.436v-.69h-5.114v.69zm0 1.81v-.689h-5.114v.69z"/>
    </g>
    <g data-name="g6-48">
      <path data-name="g4-48" d="M143.32 225.595c0-2.235-.68-3.339-2.226-3.339-1.52 0-2.217 1.069-2.217 3.347 0 2.27.68 3.339 2.217 3.339 1.52 0 2.226-1.042 2.226-3.347zm-.875 0c0 1.951-.353 2.64-1.351 2.64-1.007 0-1.343-.68-1.343-2.632s.345-2.632 1.343-2.632 1.351.69 1.351 2.624z"/>
    </g>
    <g data-name="g6-46">
      <path data-name="g4-46" d="M146.022 228.81v-1.228h-1.024v1.227z"/>
    </g>
    <g data-name="g6-50">
      <path data-name="g4-50" d="M152.16 228.81v-.734h-3.453c2.482-2.11 3.18-2.826 3.18-4.054 0-1.086-.795-1.766-2.11-1.766a4.6 4.6 0 0 0-1.803.398v.91h.045a3.285 3.285 0 0 1 1.74-.566c.786 0 1.245.398 1.245 1.069 0 .963-.565 1.59-3.188 3.842v.9z"/>
    </g>
    <g data-name="g6-61">
      <path fill="none" d="M404.573 56.868h8.185v1.103h-8.185z"/>
      <path data-name="g4-61" d="M412.758 60.869v-1.103h-8.185v1.103z"/>
    </g>
    <path d="M427.112 58.225c0-3.576-1.088-5.343-3.562-5.343-2.432 0-3.549 1.71-3.549 5.357 0 3.633 1.089 5.344 3.549 5.344 2.431 0 3.562-1.668 3.562-5.358z"/>
    <path data-name="g4-48" d="M425.712 58.225c0 3.124-.565 4.227-2.162 4.227-1.612 0-2.15-1.089-2.15-4.213s.552-4.212 2.15-4.212 2.162 1.102 2.162 4.198z" fill="#fff"/>
    <path data-name="g4-46" d="M431.438 63.37v-1.964h-1.64v1.965z"/>
    <path data-name="g4-49" d="M440.669 63.37v-1.045h-2.092v-9.26h-1.075c-.056 1.003-.763 1.428-2.389 1.428v.932h2.135v6.9h-2.135v1.046z"/>
    <path d="M450.479 60.473V59.37h-1.526v-6.277h-1.259l-4.976 5.796v1.584h4.92v2.898h1.315v-2.898h1.526z"/>
    <path data-name="g4-43" d="M464.716 59.427v-1.103h-3.76V54.55h-1.145v3.774h-3.76v1.103h3.76v3.76h1.145v-3.76z"/>
    <path d="M508.009 56.868h8.185v1.103h-8.185z"/>
    <path data-name="g4-61" d="M516.194 60.869v-1.103h-8.185v1.103z"/>
    <path data-name="g1-97" d="M257.728 59.3l-.508 2.177a4.647 4.647 0 0 1-2.503.947c-.947 0-1.385-.354-1.385-1.018 0-1.4 1.202-1.98 4.396-2.107zm-.749 3.25l-.198.82h1.287l1.215-5.23a3.908 3.908 0 0 0 .1-.791c0-1.301-.962-1.88-2.87-1.88a12.585 12.585 0 0 0-2.616.367l-.254 1.3h.07a8.575 8.575 0 0 1 2.56-.565c1.243 0 1.78.325 1.78 1.089a3.534 3.534 0 0 1-.099.622c-4.24.127-5.994 1.117-5.994 3.364a1.899 1.899 0 0 0 2.064 1.937 4.719 4.719 0 0 0 2.955-1.032z"/>
    <path data-name="g4-49" d="M265.38 65.67v-.726h-1.452v-6.429h-.746c-.04.697-.53.992-1.659.992v.648h1.482v4.79h-1.482v.726zM271.623 65.67v-.726h-1.453v-6.429h-.746c-.039.697-.53.992-1.658.992v.648h1.482v4.79h-1.483v.726z"/>
    <g data-name="g6-61">
      <path data-name="g4-61" d="M287.557 57.97v-1.102h-8.185v1.103zm0 2.899v-1.103h-8.185v1.103z"/>
    </g>
    <path data-name="g1-120" d="M297.345 59.469l-3.972 3.901h1.597l2.898-2.954 1.584 2.954h1.47l-2.163-3.83 3.944-3.874h-1.598l-2.87 2.94-1.597-2.94h-1.456z"/>
    <path data-name="g4-49" d="M307.415 65.67v-.726h-1.453v-6.429h-.746c-.039.697-.53.992-1.658.992v.648h1.482v4.79h-1.482v.726z"/>
    <path data-name="g1-119" d="M320.606 55.666h-1.37l-2.56 5.952-.763-5.952h-1.074l-3.153 5.952-.197-5.952h-1.33l.481 7.705h1.202l3.18-5.952.778 5.952h1.215z"/>
    <path data-name="g4-40" d="M324.356 58.476v-.049a6.355 6.355 0 0 1 0-9.334v-.049h-1.089a7.09 7.09 0 0 0 0 9.432z"/>
    <path data-name="g4-49" d="M330.272 56.189v-.727h-1.453v-6.429h-.746c-.039.697-.53.991-1.658.991v.648h1.482v4.79h-1.482v.727z"/>
    <path data-name="g4-41" d="M334.914 53.765a6.88 6.88 0 0 0-1.786-4.721h-1.1v.05a6.355 6.355 0 0 1 0 9.333v.05h1.1a6.856 6.856 0 0 0 1.786-4.712z"/>
    <path data-name="g4-49" d="M325.586 67.94v-.725h-1.452v-6.43h-.746c-.04.698-.53.992-1.659.992v.648h1.482v4.79h-1.482v.726z"/>
    <path data-name="g4-44" d="M329.395 66.577h-1.217l-.835 3.14h.697z"/>
    <path data-name="g4-49" d="M335.438 67.94v-.725h-1.453v-6.43h-.746c-.039.698-.53.992-1.658.992v.648h1.482v4.79h-1.482v.726z"/>
    <g data-name="g6-43">
      <path data-name="g4-43" d="M350.398 59.427v-1.103h-3.76V54.55h-1.145v3.774h-3.76v1.103h3.76v3.76h1.145v-3.76z"/>
    </g>
    <path data-name="g1-120" d="M358.754 59.469l-3.973 3.901h1.598l2.898-2.954 1.583 2.954h1.47l-2.163-3.83 3.944-3.874h-1.597l-2.87 2.94-1.597-2.94h-1.457z"/>
    <path data-name="g4-50" d="M369.235 65.793v-.814h-3.838c2.758-2.346 3.534-3.141 3.534-4.506 0-1.207-.884-1.963-2.346-1.963a5.112 5.112 0 0 0-2.002.442v1.011h.049a3.651 3.651 0 0 1 1.933-.628c.874 0 1.384.442 1.384 1.188 0 1.07-.628 1.766-3.543 4.27v1z"/>
    <path data-name="g1-119" d="M382.015 55.666h-1.372l-2.558 5.952-.764-5.952h-1.074l-3.153 5.952-.197-5.952h-1.33l.481 7.705h1.202l3.18-5.952.778 5.952h1.216z"/>
    <path data-name="g4-40" d="M385.764 58.476v-.049a6.355 6.355 0 0 1 0-9.334v-.049h-1.089a7.09 7.09 0 0 0 0 9.432z"/>
    <path data-name="g4-49" d="M391.68 56.189v-.727h-1.452v-6.429h-.746c-.04.697-.53.991-1.659.991v.648h1.482v4.79h-1.482v.727z"/>
    <path data-name="g4-41" d="M396.323 53.765a6.88 6.88 0 0 0-1.786-4.721h-1.1v.05a6.355 6.355 0 0 1 0 9.333v.05h1.1a6.856 6.856 0 0 0 1.786-4.712z"/>
    <path data-name="g4-50" d="M387.407 68.064v-.815h-3.837c2.758-2.346 3.533-3.14 3.533-4.505 0-1.207-.884-1.963-2.346-1.963a5.112 5.112 0 0 0-2.002.442v1.01h.049a3.65 3.65 0 0 1 1.934-.627c.873 0 1.383.441 1.383 1.187 0 1.07-.628 1.767-3.543 4.27v1.001z"/>
    <path data-name="g4-44" d="M390.803 66.7h-1.217l-.834 3.14h.697z"/>
    <path data-name="g4-49" d="M396.847 68.064v-.726h-1.453v-6.43h-.746c-.04.698-.53.992-1.659.992v.648h1.483v4.79h-1.483v.726z"/>
    <path data-name="g4-52" d="M447.638 59.37h-3.987l3.987-4.637z" fill="#fff"/>
    <path data-name="g4-46" d="M481.964 63.37v-1.964h-1.64v1.965z"/>
    <path data-name="g4-49" d="M491.195 63.37v-1.045h-2.092v-9.26h-1.074c-.057 1.003-.764 1.428-2.39 1.428v.932h2.135v6.9h-2.134v1.046z"/>
    <path data-name="g4-53" d="M500.695 60.105c0-2.078-1.286-3.124-3.774-3.124a11.453 11.453 0 0 0-1.145.057v-2.743h4.849v-1.202h-6.178v5.288a11.904 11.904 0 0 1 2.135-.24c1.823 0 2.714.636 2.714 1.965a2.14 2.14 0 0 1-2.39 2.29 5.773 5.773 0 0 1-2.812-.863h-.1v1.456a7.581 7.581 0 0 0 2.94.593c2.277 0 3.761-1.385 3.761-3.477z"/>
    <path d="M477.638 58.225c0-3.576-1.089-5.343-3.562-5.343-2.432 0-3.549 1.71-3.549 5.357 0 3.633 1.089 5.344 3.549 5.344 2.431 0 3.562-1.668 3.562-5.358z"/>
    <path data-name="g4-48" d="M476.238 58.225c0 3.124-.565 4.227-2.162 4.227-1.612 0-2.15-1.089-2.15-4.213s.552-4.212 2.15-4.212 2.162 1.102 2.162 4.198z" fill="#fff"/>
    <path d="M528.944 58.292c0-3.576-1.088-5.343-3.562-5.343-2.431 0-3.548 1.71-3.548 5.358 0 3.633 1.088 5.343 3.548 5.343 2.432 0 3.562-1.668 3.562-5.358z"/>
    <path data-name="g4-46" d="M533.27 63.438v-1.965h-1.64v1.965z"/>
    <path data-name="g4-50" d="M543.095 63.438v-1.173h-5.527c3.972-3.379 5.09-4.524 5.09-6.489 0-1.739-1.273-2.827-3.38-2.827a7.364 7.364 0 0 0-2.883.636v1.456h.07a5.258 5.258 0 0 1 2.785-.905c1.258 0 1.993.636 1.993 1.71 0 1.541-.904 2.545-5.103 6.15v1.442z"/>
    <path d="M552.072 57.685c0-3.153-1.372-4.736-3.718-4.736a3.467 3.467 0 0 0-3.563 3.548c0 2.036 1.273 3.237 3.407 3.237a4.456 4.456 0 0 0 2.446-.72c-.184 2.148-1.371 3.435-3.393 3.435a3.409 3.409 0 0 1-1.385-.283h-.07v1.315a3.981 3.981 0 0 0 1.243.155c3.365 0 5.033-2.333 5.033-5.951z"/>
    <path data-name="g4-57" d="M550.658 57.388v.65a4.423 4.423 0 0 1-2.134.565c-1.57 0-2.333-.693-2.333-2.163a2.076 2.076 0 0 1 2.149-2.36c1.512 0 2.318 1.145 2.318 3.308z" fill="#fff"/>
    <path data-name="g4-48" d="M527.545 58.292c0 3.125-.565 4.227-2.163 4.227-1.611 0-2.148-1.088-2.148-4.212s.551-4.213 2.148-4.213 2.163 1.103 2.163 4.198z" fill="#fff"/>
    <path data-name="g1-97" d="M207.63 128.8l-.153.635h.997l.941-4.05a3.03 3.03 0 0 0 .077-.614c0-1.007-.745-1.456-2.223-1.456a9.746 9.746 0 0 0-2.025.285l-.197 1.007h.054a6.644 6.644 0 0 1 1.982-.438c.964 0 1.38.252 1.38.843a2.73 2.73 0 0 1-.077.482c-3.284.098-4.642.865-4.642 2.606a1.47 1.47 0 0 0 1.599 1.5 3.654 3.654 0 0 0 2.288-.8z"/>
    <path d="M208.21 126.282l-.393 1.686a3.6 3.6 0 0 1-1.938.734c-.734 0-1.073-.274-1.073-.789 0-1.083.93-1.532 3.405-1.63z" fill="#fff"/>
    <path data-name="g4-49" d="M214.137 131.312v-.563h-1.125v-4.979h-.578c-.03.54-.41.768-1.284.768v.502h1.147v3.71h-1.147v.562z"/>
    <path data-name="g4-50" d="M219.29 131.312v-.631h-2.971c2.136-1.817 2.736-2.433 2.736-3.49 0-.934-.684-1.52-1.816-1.52a3.96 3.96 0 0 0-1.551.343v.783h.038a2.827 2.827 0 0 1 1.497-.487c.677 0 1.072.342 1.072.92 0 .829-.486 1.369-2.744 3.307v.775z"/>
    <path d="M224.452 124.399h6.339v.854h-6.339z"/>
    <path data-name="g4-61" d="M230.792 127.498v-.855h-6.34v.855z"/>
    <path d="M241.388 125.45c0-2.77-.843-4.138-2.76-4.138-1.882 0-2.747 1.324-2.747 4.15 0 2.813.843 4.137 2.748 4.137 1.883 0 2.759-1.291 2.759-4.149z"/>
    <path data-name="g4-48" d="M240.304 125.45c0 2.42-.438 3.274-1.675 3.274-1.248 0-1.665-.843-1.665-3.263s.427-3.263 1.665-3.263 1.675.854 1.675 3.252z" fill="#fff"/>
    <path data-name="g4-46" d="M244.738 129.435v-1.522h-1.27v1.522z"/>
    <path data-name="g4-51" d="M252.237 127.081a1.885 1.885 0 0 0-1.74-1.992v-.077a1.91 1.91 0 0 0 1.565-1.784c0-.745-.416-1.916-2.606-1.916a5.697 5.697 0 0 0-2.233.503v1.117h.044a4.123 4.123 0 0 1 2.168-.7c.996 0 1.543.404 1.543 1.105 0 .942-.646 1.336-2.146 1.336v.887c1.774 0 2.31.295 2.31 1.434a1.615 1.615 0 0 1-1.817 1.686 4.35 4.35 0 0 1-2.255-.7h-.077v1.116a6.102 6.102 0 0 0 2.354.503c1.774 0 2.89-1.04 2.89-2.518z"/>
    <path data-name="g4-50" d="M259.31 129.435v-.908h-4.28c3.075-2.617 3.94-3.504 3.94-5.026 0-1.346-.985-2.19-2.616-2.19a5.701 5.701 0 0 0-2.234.493v1.128h.055a4.073 4.073 0 0 1 2.157-.701c.974 0 1.544.493 1.544 1.325 0 1.193-.701 1.97-3.953 4.762v1.117z"/>
    <path data-name="g1-97" d="M256.945 252.381l-.196.815h1.277l1.208-5.196a3.883 3.883 0 0 0 .098-.786c0-1.292-.954-1.868-2.85-1.868a12.502 12.502 0 0 0-2.598.366l-.253 1.291h.07a8.518 8.518 0 0 1 2.542-.561c1.236 0 1.77.323 1.77 1.081a3.511 3.511 0 0 1-.099.618c-4.213.126-5.954 1.11-5.954 3.342a1.886 1.886 0 0 0 2.05 1.924 4.687 4.687 0 0 0 2.935-1.026z"/>
    <path d="M257.69 249.152l-.506 2.162a4.615 4.615 0 0 1-2.485.941c-.94 0-1.376-.35-1.376-1.01 0-1.391 1.193-1.966 4.367-2.093z" fill="#fff"/>
    <path data-name="g4-49" d="M265.29 255.602v-.721h-1.442v-6.386h-.741c-.04.692-.527.985-1.648.985v.643h1.472v4.758h-1.472v.722z"/>
    <path data-name="g4-51" d="M271.803 253.506a1.678 1.678 0 0 0-1.55-1.774v-.068a1.7 1.7 0 0 0 1.394-1.59c0-.662-.37-1.706-2.32-1.706a5.072 5.072 0 0 0-1.988.449v.994h.039a3.671 3.671 0 0 1 1.93-.624c.887 0 1.374.361 1.374.985 0 .839-.575 1.19-1.91 1.19v.79c1.579 0 2.056.263 2.056 1.277a1.438 1.438 0 0 1-1.618 1.501 3.873 3.873 0 0 1-2.008-.624h-.069v.995a5.435 5.435 0 0 0 2.097.448 2.288 2.288 0 0 0 2.573-2.243z"/>
    <path d="M278.521 246.737h8.13v1.095h-8.13z"/>
    <path data-name="g4-61" d="M286.651 250.71v-1.095h-8.13v1.095z"/>
    <path d="M300.241 248.085c0-3.553-1.081-5.308-3.538-5.308-2.416 0-3.525 1.699-3.525 5.322 0 3.608 1.081 5.308 3.525 5.308 2.415 0 3.538-1.657 3.538-5.322z"/>
    <path data-name="g4-48" d="M298.851 248.085c0 3.103-.562 4.198-2.148 4.198-1.601 0-2.135-1.081-2.135-4.184s.548-4.185 2.135-4.185 2.148 1.095 2.148 4.17z" fill="#fff"/>
    <path data-name="g4-46" d="M304.538 253.196v-1.952h-1.629v1.952z"/>
    <path data-name="g4-51" d="M314.157 250.177a2.417 2.417 0 0 0-2.233-2.556v-.098a2.45 2.45 0 0 0 2.008-2.289c0-.955-.533-2.457-3.342-2.457a7.305 7.305 0 0 0-2.864.646v1.432h.056a5.287 5.287 0 0 1 2.78-.899c1.278 0 1.98.52 1.98 1.419 0 1.207-.829 1.713-2.753 1.713v1.137c2.275 0 2.963.38 2.963 1.84a2.07 2.07 0 0 1-2.33 2.163 5.579 5.579 0 0 1-2.893-.9h-.099v1.433a7.826 7.826 0 0 0 3.02.646c2.275 0 3.707-1.334 3.707-3.23z"/>
    <path d="M323.298 250.345a2.666 2.666 0 0 0-1.966-2.541v-.042a2.732 2.732 0 0 0 1.7-2.415c0-1.503-1.32-2.598-3.357-2.598-1.952 0-3.356 1.151-3.356 2.696a2.439 2.439 0 0 0 1.615 2.26v.043a2.889 2.889 0 0 0-1.882 2.626c0 1.783 1.404 3.06 3.623 3.06 2.078 0 3.623-1.32 3.623-3.089z"/>
    <path d="M321.67 245.36a2.256 2.256 0 0 1-1.194 2.065c-1.938-.548-2.78-1.194-2.78-2.135s.814-1.53 1.965-1.53c1.18 0 2.008.632 2.008 1.6z" fill="#fff"/>
    <path data-name="g4-56" d="M321.894 250.486a1.936 1.936 0 0 1-2.205 1.924 2.13 2.13 0 0 1-2.26-2.135 2.52 2.52 0 0 1 1.362-2.218c2.527.926 3.103 1.137 3.103 2.429z" fill="#fff"/>
    <path data-name="g1-119" d="M297.338 96.515h-.856l-1.599 3.718-.477-3.718h-.67l-1.97 3.718-.123-3.718h-.83l.3 4.813h.75l1.986-3.718.486 3.718h.76z"/>
    <path data-name="g4-40" d="M299.68 98.27v-.03a3.97 3.97 0 0 1 0-5.831v-.03H299a4.429 4.429 0 0 0 0 5.891z"/>
    <path data-name="g4-50" d="M303.633 96.84v-.508h-2.397c1.723-1.465 2.207-1.962 2.207-2.814 0-.754-.552-1.226-1.465-1.226a3.194 3.194 0 0 0-1.25.276v.631h.03a2.28 2.28 0 0 1 1.208-.392c.545 0 .864.276.864.742 0 .668-.392 1.103-2.213 2.666v.626z"/>
    <path data-name="g4-41" d="M306.275 95.327a4.298 4.298 0 0 0-1.115-2.949h-.687v.03a3.97 3.97 0 0 1 0 5.831v.031h.687a4.282 4.282 0 0 0 1.115-2.943z"/>
    <path data-name="g4-49" d="M300.449 104.182v-.453h-.907v-4.016h-.466c-.025.435-.331.62-1.037.62v.404h.926v2.992h-.925v.453zM306.603 104.182v-.453h-.908v-4.016h-.466c-.024.435-.33.62-1.036.62v.404h.926v2.992h-.926v.453z"/>
    <path d="M311.009 97.266h5.113v.689h-5.113z"/>
    <path data-name="g4-61" d="M316.122 99.765v-.689h-5.113v.689z"/>
    <path d="M324.668 98.114c0-2.235-.68-3.338-2.225-3.338-1.52 0-2.217 1.068-2.217 3.346 0 2.27.68 3.338 2.217 3.338 1.518 0 2.225-1.041 2.225-3.346z"/>
    <path data-name="g4-48" d="M323.794 98.114c0 1.951-.354 2.64-1.351 2.64-1.007 0-1.343-.68-1.343-2.632s.345-2.631 1.343-2.631 1.35.689 1.35 2.623z" fill="#fff"/>
    <path data-name="g4-46" d="M327.37 101.328V100.1h-1.025v1.228z"/>
    <path data-name="g4-49" d="M333.136 101.328v-.654h-1.307V94.89h-.671c-.036.627-.477.892-1.493.892v.583H331v4.31h-1.334v.653z"/>
    <path data-name="g4-44" d="M302.828 103.33h-.76l-.521 1.962h.435z"/>
    <path data-name="g1-119" d="M261.23 141.8h-1.216l-2.27 5.28-.677-5.28h-.954l-2.797 5.28-.176-5.28h-1.179l.427 6.836h1.066l2.822-5.28.69 5.28h1.079z"/>
    <path data-name="g4-40" d="M264.558 144.293v-.044a5.64 5.64 0 0 1 0-8.283v-.043h-.966a6.291 6.291 0 0 0 0 8.37z"/>
    <path data-name="g4-50" d="M270.173 142.262v-.723h-3.405c2.447-2.081 3.135-2.787 3.135-3.997 0-1.071-.784-1.742-2.081-1.742a4.538 4.538 0 0 0-1.777.392v.897h.044a3.239 3.239 0 0 1 1.715-.557c.776 0 1.228.392 1.228 1.053 0 .95-.557 1.568-3.144 3.789v.888z"/>
    <path data-name="g4-41" d="M273.927 140.112a6.105 6.105 0 0 0-1.585-4.189h-.975v.044a5.64 5.64 0 0 1 0 8.282v.044h.975a6.083 6.083 0 0 0 1.585-4.18z"/>
    <path data-name="g4-50" d="M266.015 152.8v-.723h-3.405c2.447-2.081 3.135-2.787 3.135-3.997 0-1.072-.783-1.742-2.081-1.742a4.536 4.536 0 0 0-1.777.392v.897h.044a3.24 3.24 0 0 1 1.715-.558c.776 0 1.228.392 1.228 1.054 0 .95-.557 1.568-3.144 3.789v.888z"/>
    <path data-name="g4-49" d="M274.392 152.8v-.644h-1.29v-5.705h-.661c-.035.618-.47.88-1.472.88v.575h1.315v4.25h-1.315v.644z"/>
    <path d="M280.651 142.866h7.263v.978h-7.263z"/>
    <path data-name="g4-61" d="M287.914 146.416v-.978h-7.263v.978z"/>
    <path d="M300.054 144.07c0-3.173-.966-4.741-3.161-4.741-2.157 0-3.148 1.518-3.148 4.754 0 3.224.965 4.741 3.148 4.741 2.158 0 3.161-1.48 3.161-4.754z"/>
    <path data-name="g4-48" d="M298.812 144.07c0 2.773-.502 3.751-1.919 3.751-1.43 0-1.907-.966-1.907-3.738s.49-3.738 1.907-3.738 1.92.978 1.92 3.725z" fill="#fff"/>
    <path data-name="g4-46" d="M303.892 148.636v-1.743h-1.455v1.743z"/>
    <path data-name="g4-49" d="M312.084 148.636v-.928h-1.857v-8.216h-.953c-.05.89-.678 1.267-2.12 1.267v.828h1.894v6.121h-1.894v.928z"/>
    <path data-name="g1-119" d="M293.826 208.489h-.852l-1.588 3.695-.475-3.695h-.667l-1.957 3.695-.123-3.695h-.825l.298 4.784h.746l1.975-3.696.483 3.696h.755z"/>
    <path data-name="g4-40" d="M296.155 210.233v-.03a3.947 3.947 0 0 1 0-5.796v-.03h-.677a4.402 4.402 0 0 0 0 5.857z"/>
    <path data-name="g4-50" d="M300.084 208.812v-.506h-2.383c1.713-1.456 2.194-1.95 2.194-2.797 0-.75-.548-1.22-1.457-1.22a3.174 3.174 0 0 0-1.243.275v.628h.03a2.267 2.267 0 0 1 1.2-.39c.543 0 .86.274.86.738 0 .664-.39 1.097-2.2 2.65v.622z"/>
    <path data-name="g4-41" d="M302.711 207.308a4.273 4.273 0 0 0-1.11-2.932h-.682v.03a3.947 3.947 0 0 1 0 5.796v.03h.683a4.258 4.258 0 0 0 1.109-2.924z"/>
    <path data-name="g4-51" d="M297.113 214.876a1.05 1.05 0 0 0-.969-1.109v-.043a1.063 1.063 0 0 0 .872-.993c0-.415-.232-1.067-1.45-1.067a3.171 3.171 0 0 0-1.243.28v.622h.024a2.295 2.295 0 0 1 1.207-.39c.554 0 .86.226.86.616 0 .524-.36.743-1.196.743v.494c.988 0 1.286.164 1.286.798a.899.899 0 0 1-1.011.939 2.421 2.421 0 0 1-1.256-.39h-.043v.622a3.397 3.397 0 0 0 1.31.28 1.43 1.43 0 0 0 1.61-1.402z"/>
    <path data-name="g4-44" d="M299.283 215.34h-.756l-.518 1.95h.433z"/>
    <path data-name="g4-49" d="M303.036 216.187v-.451h-.902v-3.992h-.463c-.024.432-.33.615-1.03.615v.402h.92v2.975h-.92v.45z"/>
    <path d="M307.416 209.235h5.083v.685h-5.083z"/>
    <path data-name="g4-61" d="M312.499 211.719v-.685h-5.083v.685z"/>
    <path data-name="g2-0" d="M321.798 211.246c.15 0 .308 0 .308-.176s-.158-.176-.308-.176h-4.767c-.15 0-.308 0-.308.176s.158.176.308.176z"/>
    <path d="M327.822 210.078c0-2.221-.676-3.319-2.212-3.319-1.51 0-2.203 1.063-2.203 3.327 0 2.256.676 3.319 2.203 3.319 1.51 0 2.212-1.036 2.212-3.327z"/>
    <path data-name="g4-48" d="M326.953 210.106c-.04 1.94-.406 2.616-1.397 2.596-1-.021-1.32-.704-1.28-2.644s.397-2.608 1.389-2.587 1.328.713 1.288 2.635z" fill="#fff"/>
    <path data-name="g4-46" d="M330.509 213.273v-1.22h-1.019v1.22z"/>
    <path data-name="g4-50" d="M336.61 213.273v-.729h-3.433c2.467-2.098 3.16-2.809 3.16-4.029 0-1.08-.79-1.756-2.098-1.756a4.571 4.571 0 0 0-1.79.395v.905h.044a3.266 3.266 0 0 1 1.729-.562c.781 0 1.238.395 1.238 1.062 0 .957-.562 1.58-3.17 3.818v.896z"/>
  </g>
</svg>
