<svg data-name="神经网络" xmlns="http://www.w3.org/2000/svg" viewBox="0 0 263.143 158.201">
  <path d="M.19 36.952c8.834 3.625 21.674 10.402 31.482 23.333 17.288 22.796 7.409 41.32 24.666 67.334 3.098 4.669 20.125 30.335 43.852 30.08 21.156-.227 36.27-20.94 41.482-28.08 20.284-27.796 10.758-49.232 31.333-72.667A75.568 75.568 0 0 1 200.19 37.62M173.005 56.952L144.11 90.605" fill="none" stroke="#000" stroke-miterlimit="10"/>
  <path d="M143.196 87.209l-4.858 10.117 9.267-6.332-4.409-3.785z"/>
  <path fill="none" stroke="#000" stroke-miterlimit="10" d="M173.005 56.952l.707-.707"/>
  <path fill="none" stroke="#000" stroke-miterlimit="10" stroke-dasharray="2.0488 2.0488" d="M175.161 54.796l31.148-31.148"/>
  <path fill="none" stroke="#000" stroke-miterlimit="10" d="M207.033 22.924l.707-.707"/>
  <path d="M208.394 25.672l5.611-9.72-9.72 5.611 4.109 4.109zM172.076 3.01c-.036.468-.06 1.02-.06 1.907v3.766c0 1.32-.108 3.754-3.238 3.754a4.297 4.297 0 0 1-2.087-.48l.311-1.08a3.61 3.61 0 0 0 1.787.468c1.08 0 1.848-.6 1.848-2.098V8.61h-.024a2.074 2.074 0 0 1-1.835.971c-1.56 0-2.627-1.379-2.627-3.226 0-2.243 1.355-3.49 2.795-3.49a1.918 1.918 0 0 1 1.81 1.032h.025l.06-.888zm-1.451 2.555a1.481 1.481 0 0 0-1.427-1.595c-.96 0-1.631.911-1.631 2.326 0 1.296.587 2.22 1.619 2.22a1.49 1.49 0 0 0 1.439-1.656zM177.117 4.233a2.058 2.058 0 0 0-.408-.035c-.935 0-1.523.767-1.523 1.919v3.502h-1.39V5.025c0-.767-.013-1.403-.049-2.015h1.211l.048 1.212h.049a1.899 1.899 0 0 1 1.714-1.356 1.631 1.631 0 0 1 .348.036zM182.829 8.047a8.974 8.974 0 0 0 .095 1.572h-1.26l-.095-.768h-.036a2.237 2.237 0 0 1-1.847.9 1.866 1.866 0 0 1-1.943-1.931c0-1.643 1.427-2.46 3.694-2.46 0-.49 0-1.474-1.331-1.474a3.042 3.042 0 0 0-1.607.456l-.288-.924a4.125 4.125 0 0 1 2.135-.552c1.943 0 2.483 1.283 2.483 2.687zm-1.356-1.75c-1.091 0-2.35.203-2.35 1.379a.943.943 0 0 0 .971 1.055 1.349 1.349 0 0 0 1.379-1.343zM190.1 7.855c0 .6.024 1.308.048 1.764h-1.223l-.072-1.032h-.036a2.2 2.2 0 0 1-2.003 1.163c-1.5 0-2.639-1.33-2.639-3.37 0-2.242 1.284-3.514 2.759-3.514a1.939 1.939 0 0 1 1.75.888h.025V0h1.391zm-1.391-2.17a1.542 1.542 0 0 0-1.463-1.715c-1.068 0-1.655 1.055-1.655 2.362 0 1.296.575 2.29 1.63 2.29a1.577 1.577 0 0 0 1.488-1.714zM192.575 1.99a.81.81 0 1 1 .815-.802.781.781 0 0 1-.815.803zm.695 7.629h-1.39V2.998h1.39zM199.892 9.355a5.167 5.167 0 0 1-2.1.395 3.011 3.011 0 0 1-3.142-3.346c0-1.967 1.104-3.538 2.975-3.538 1.859 0 2.603 1.547 2.603 3.178a4.108 4.108 0 0 1-.037.588h-4.197a1.877 1.877 0 0 0 2.003 2.051 4.119 4.119 0 0 0 1.667-.312zm-.984-3.718c.012-.792-.311-1.775-1.379-1.775-1.02 0-1.451 1.007-1.523 1.775zM207.032 9.619h-1.391V5.745c0-.936-.312-1.728-1.26-1.728a1.489 1.489 0 0 0-1.415 1.62v3.982h-1.39v-4.75c0-.731-.025-1.295-.05-1.859h1.212l.072.984h.036a2.267 2.267 0 0 1 2.003-1.128c1.032 0 2.183.672 2.183 2.71zM209.063 1.811l1.379-.432V3.01h1.571v1.044h-1.571V7.4c0 .815.252 1.211.84 1.211a2.028 2.028 0 0 0 .611-.084l.048 1.068a3.076 3.076 0 0 1-1.08.155 1.714 1.714 0 0 1-1.307-.503 2.494 2.494 0 0 1-.491-1.775V4.054h-.936V3.01h.936zM221.42 7.855c0 .6.024 1.308.048 1.764h-1.224l-.072-1.032h-.036a2.2 2.2 0 0 1-2.003 1.163c-1.499 0-2.639-1.33-2.639-3.37 0-2.242 1.284-3.514 2.76-3.514a1.939 1.939 0 0 1 1.75.888h.024V0h1.391zm-1.392-2.17a1.542 1.542 0 0 0-1.463-1.715c-1.068 0-1.655 1.055-1.655 2.362 0 1.296.576 2.29 1.63 2.29a1.577 1.577 0 0 0 1.488-1.714zM223.894 1.99a.81.81 0 1 1 .815-.802.781.781 0 0 1-.815.803zm.696 7.629h-1.391V2.998h1.39zM229.7 4.233a2.058 2.058 0 0 0-.407-.035c-.936 0-1.523.767-1.523 1.919v3.502h-1.391V5.025c0-.767-.012-1.403-.048-2.015h1.21l.048 1.212h.049a1.899 1.899 0 0 1 1.715-1.356 1.631 1.631 0 0 1 .347.036zM235.616 9.355a5.166 5.166 0 0 1-2.099.395 3.011 3.011 0 0 1-3.143-3.346c0-1.967 1.104-3.538 2.975-3.538 1.859 0 2.603 1.547 2.603 3.178a4.108 4.108 0 0 1-.037.588h-4.197a1.877 1.877 0 0 0 2.003 2.051 4.12 4.12 0 0 0 1.667-.312zm-.984-3.718c.012-.792-.311-1.775-1.379-1.775-1.02 0-1.451 1.007-1.523 1.775zM241.748 9.414a4.278 4.278 0 0 1-1.703.336 3.058 3.058 0 0 1-3.154-3.37 3.292 3.292 0 0 1 3.418-3.514 3.55 3.55 0 0 1 1.475.3l-.276 1.068a2.588 2.588 0 0 0-1.187-.264 2.09 2.09 0 0 0-2.015 2.35 2.05 2.05 0 0 0 2.003 2.315 3.01 3.01 0 0 0 1.247-.264zM243.274 1.811l1.38-.432V3.01h1.57v1.044h-1.57V7.4c0 .815.251 1.211.84 1.211a2.028 2.028 0 0 0 .61-.084l.049 1.068a3.076 3.076 0 0 1-1.08.155 1.714 1.714 0 0 1-1.307-.503 2.495 2.495 0 0 1-.492-1.775V4.054h-.935V3.01h.935zM248.122 1.99a.81.81 0 1 1 .815-.802.781.781 0 0 1-.815.803zm.695 7.629h-1.39V2.998h1.39zM256.303 6.26c0 2.47-1.607 3.49-3.094 3.49-1.715 0-3.023-1.258-3.023-3.393 0-2.231 1.368-3.49 3.119-3.49 1.81 0 2.998 1.366 2.998 3.394zm-3.046-2.35c-1.188 0-1.643 1.271-1.643 2.41 0 1.296.612 2.387 1.63 2.387 1.008 0 1.632-1.091 1.632-2.41 0-1.092-.456-2.387-1.62-2.387zM263.143 9.619h-1.391V5.745c0-.936-.312-1.728-1.26-1.728a1.489 1.489 0 0 0-1.415 1.62v3.982h-1.39v-4.75c0-.731-.025-1.295-.05-1.859h1.212l.073.984h.035a2.267 2.267 0 0 1 2.003-1.128c1.032 0 2.183.672 2.183 2.71z"/>
</svg>
