<svg height="8.998" viewBox="-0.239 -0.26 79.62 6.749" width="106.16" xmlns="http://www.w3.org/2000/svg" xmlns:xlink="http://www.w3.org/1999/xlink">
  <defs>
    <path d="M1.395-.69H.779L.357.898H.71L1.395-.69z" id="a"/>
    <path d="M1.191 0v-.69H.615V0h.576z" id="b"/>
    <path d="M2.829-1.806c0-1.256-.382-1.876-1.25-1.876-.854 0-1.246.6-1.246 1.88C.333-.525.715.075 1.578.075c.854 0 1.25-.585 1.25-1.88zm-.492 0c0 1.096-.198 1.483-.759 1.483-.566 0-.754-.382-.754-1.478s.193-1.48.754-1.48.76.388.76 1.475z" id="c"/>
    <path d="M2.625 0v-.367h-.734v-3.25h-.377c-.02.352-.268.5-.84.5v.328h.75v2.422h-.75V0h1.951z" id="j"/>
    <path d="M2.834 0v-.412H.894C2.287-1.598 2.68-2 2.68-2.69c0-.61-.447-.992-1.186-.992-.358 0-.784.109-1.013.223v.511h.025c.323-.213.685-.317.978-.317.442 0 .7.223.7.6 0 .541-.318.893-1.792 2.159V0h2.442z" id="d"/>
    <path d="M2.784-1.067c0-.496-.283-.824-.789-.903v-.035c.382-.08.71-.407.71-.809 0-.337-.189-.868-1.181-.868-.358 0-.785.114-1.013.228v.506h.02c.308-.203.675-.317.983-.317.451 0 .7.183.7.5 0 .428-.293.606-.973.606v.402c.804 0 1.047.134 1.047.65 0 .482-.313.765-.824.765-.347 0-.75-.134-1.022-.318H.407v.506c.248.114.665.228 1.067.228.804 0 1.31-.471 1.31-1.141z" id="e"/>
    <path d="M2.859-1.007c0-.437-.244-.705-.695-.899v-.015c.392-.178.6-.526.6-.853 0-.531-.466-.918-1.186-.918-.69 0-1.186.407-1.186.953 0 .367.184.59.57.799v.014c-.421.189-.664.531-.664.928 0 .63.496 1.082 1.28 1.082.735 0 1.28-.466 1.28-1.091zM2.283-2.77c0 .303-.104.516-.422.73-.685-.194-.983-.422-.983-.755s.288-.54.695-.54c.417 0 .71.222.71.565zm.08 1.811c0 .422-.308.68-.78.68-.461 0-.799-.318-.799-.754a.89.89 0 0 1 .481-.784c.894.327 1.097.402 1.097.858z" id="f"/>
    <path d="M3.469-1.896v-.387H.596v.387h2.873zm0 1.018v-.387H.596v.387h2.873z" id="g"/>
    <path d="M2.55 0v-1.836c0-.645-.366-.938-1.175-.938-.328 0-.705.08-.884.124v.466h.025c.313-.124.615-.188.854-.188.54 0 .73.149.73.585C.684-1.717.252-1.489.252-.784c0 .501.387.858.874.858.406 0 .536-.064.972-.362V0h.452zM2.1-.665c-.23.174-.487.318-.81.318-.382 0-.565-.16-.565-.472 0-.432.317-.54 1.374-.6v.754z" id="h"/>
    <use id="p" transform="scale(1.2)" xlink:href="#a"/>
    <use id="m" transform="scale(1.2)" xlink:href="#b"/>
    <use id="l" transform="scale(1.2)" xlink:href="#c"/>
    <use id="o" transform="scale(1.2)" xlink:href="#d"/>
    <use id="n" transform="scale(1.2)" xlink:href="#e"/>
    <use id="q" transform="scale(1.2)" xlink:href="#f"/>
    <use id="k" transform="scale(1.2)" xlink:href="#g"/>
    <use id="i" transform="scale(1.2)" xlink:href="#h"/>
  </defs>
  <g transform="matrix(1.13 0 0 1.13 -63.986 -69.674)">
    <use x="56.413" xlink:href="#i" y="65.753"/>
    <use x="60.006" xlink:href="#j" y="67.391"/>
    <use x="63.162" xlink:href="#d" y="67.391"/>
    <use x="68.962" xlink:href="#k" y="65.753"/>
    <use x="75.955" xlink:href="#l" y="65.753"/>
    <use x="79.742" xlink:href="#m" y="65.753"/>
    <use x="81.91" xlink:href="#n" y="65.753"/>
    <use x="85.698" xlink:href="#o" y="65.753"/>
    <use x="89.485" xlink:href="#p" y="65.753"/>
    <use x="93.757" xlink:href="#i" y="65.753"/>
    <use x="97.408" xlink:href="#j" y="67.391"/>
    <use x="100.565" xlink:href="#e" y="67.391"/>
    <use x="106.364" xlink:href="#k" y="65.753"/>
    <use x="113.357" xlink:href="#l" y="65.753"/>
    <use x="117.145" xlink:href="#m" y="65.753"/>
    <use x="119.313" xlink:href="#n" y="65.753"/>
    <use x="123.1" xlink:href="#q" y="65.753"/>
  </g>
</svg>
