<svg height="16.049" viewBox="-0.239 -0.249 154.091 12.037" width="205.455" xmlns="http://www.w3.org/2000/svg" xmlns:xlink="http://www.w3.org/1999/xlink">
  <defs>
    <path d="M1.896.998V.973A3.2 3.2 0 0 1 .864-1.385c0-.898.387-1.776 1.032-2.362v-.025h-.551C.769-3.117.437-2.357.437-1.385S.769.342 1.345.998h.55z" id="q"/>
    <path d="M1.816-1.385c0-.972-.332-1.732-.903-2.387H.357v.025A3.208 3.208 0 0 1 1.39-1.385C1.39-.48 1.007.392.357.973v.025h.556c.57-.656.903-1.41.903-2.383z" id="r"/>
    <path d="M3.553-1.385v-.387h-1.32v-1.325h-.402v1.325H.511v.387h1.32v1.32h.402v-1.32h1.32z" id="a"/>
    <path d="M1.395-.69H.779L.357.898H.71L1.395-.69z" id="s"/>
    <path d="M1.191 0v-.69H.615V0h.576z" id="b"/>
    <path d="M2.829-1.806c0-1.256-.382-1.876-1.25-1.876-.854 0-1.246.6-1.246 1.88C.333-.525.715.075 1.578.075c.854 0 1.25-.585 1.25-1.88zm-.492 0c0 1.096-.198 1.483-.759 1.483-.566 0-.754-.382-.754-1.478s.193-1.48.754-1.48.76.388.76 1.475z" id="c"/>
    <path d="M2.625 0v-.367h-.734v-3.25h-.377c-.02.352-.268.5-.84.5v.328h.75v2.422h-.75V0h1.951z" id="d"/>
    <path d="M2.834 0v-.412H.894C2.287-1.598 2.68-2 2.68-2.69c0-.61-.447-.992-1.186-.992-.358 0-.784.109-1.013.223v.511h.025c.323-.213.685-.317.978-.317.442 0 .7.223.7.6 0 .541-.318.893-1.792 2.159V0h2.442z" id="e"/>
    <path d="M2.913-1.017v-.387h-.536v-2.204h-.442L.19-1.573v.556h1.727V0h.461v-1.017h.536zm-.997-.387h-1.4l1.4-1.628v1.628z" id="f"/>
    <path d="M2.804-1.146c0-.73-.452-1.097-1.325-1.097-.11 0-.263.005-.402.02v-.963h1.702v-.422H.61v1.856a4.18 4.18 0 0 1 .75-.084c.64 0 .953.223.953.69 0 .506-.308.804-.84.804-.342 0-.719-.14-.987-.303H.452v.511c.253.114.64.208 1.032.208.799 0 1.32-.486 1.32-1.22z" id="g"/>
    <path d="M2.829-2.02c0-1.107-.482-1.662-1.305-1.662-.695 0-1.251.51-1.251 1.245C.273-1.722.72-1.3 1.469-1.3c.313 0 .556-.075.859-.253C2.263-.8 1.846-.347 1.136-.347c-.213 0-.392-.055-.486-.1H.625v.462c.114.04.268.054.437.054 1.181 0 1.767-.818 1.767-2.089zm-.497-.104v.228a1.553 1.553 0 0 1-.749.199c-.55 0-.819-.243-.819-.76 0-.526.288-.828.755-.828.53 0 .813.402.813 1.161z" id="h"/>
    <path d="M3.469-1.896v-.387H.596v.387h2.873zm0 1.018v-.387H.596v.387h2.873z" id="i"/>
    <path d="M2.55 0v-1.836c0-.645-.366-.938-1.175-.938-.328 0-.705.08-.884.124v.466h.025c.313-.124.615-.188.854-.188.54 0 .73.149.73.585C.684-1.717.252-1.489.252-.784c0 .501.387.858.874.858.406 0 .536-.064.972-.362V0h.452zM2.1-.665c-.23.174-.487.318-.81.318-.382 0-.565-.16-.565-.472 0-.432.317-.54 1.374-.6v.754z" id="j"/>
    <path d="M3.851-2.705h-.457L2.923-.61l-.69-2.095h-.377L1.181-.61.685-2.705H.208L.923 0h.417l.69-2.084L2.725 0h.421l.705-2.705z" id="k"/>
    <path d="M2.794 0L1.727-1.375l1.067-1.33h-.536l-.764 1.023L.73-2.705H.154L1.2-1.35.144 0h.53l.775-1.037L2.22 0h.575z" id="l"/>
    <use id="t" transform="scale(1.2)" xlink:href="#a"/>
    <use id="v" transform="scale(1.2)" xlink:href="#b"/>
    <use id="u" transform="scale(1.2)" xlink:href="#c"/>
    <use id="w" transform="scale(1.2)" xlink:href="#d"/>
    <use id="z" transform="scale(1.2)" xlink:href="#e"/>
    <use id="x" transform="scale(1.2)" xlink:href="#f"/>
    <use id="y" transform="scale(1.2)" xlink:href="#g"/>
    <use id="A" transform="scale(1.2)" xlink:href="#h"/>
    <use id="n" transform="scale(1.2)" xlink:href="#i"/>
    <use id="m" transform="scale(1.2)" xlink:href="#j"/>
    <use id="p" transform="scale(1.2)" xlink:href="#k"/>
    <use id="o" transform="scale(1.2)" xlink:href="#l"/>
  </defs>
  <g transform="matrix(1.13 0 0 1.13 -63.986 -66.76)">
    <use x="56.413" xlink:href="#m" y="65.753"/>
    <use x="60.006" xlink:href="#d" y="67.328"/>
    <use x="63.162" xlink:href="#d" y="67.328"/>
    <use x="68.962" xlink:href="#n" y="65.753"/>
    <use x="75.955" xlink:href="#o" y="65.753"/>
    <use x="79.493" xlink:href="#d" y="67.328"/>
    <use x="83.16" xlink:href="#p" y="65.753"/>
    <use x="88.049" xlink:href="#q" y="62.693"/>
    <use x="90.311" xlink:href="#d" y="62.534"/>
    <use x="93.467" xlink:href="#r" y="62.693"/>
    <use x="88.049" xlink:href="#d" y="68.49"/>
    <use x="91.206" xlink:href="#s" y="68.49"/>
    <use x="93.031" xlink:href="#d" y="68.49"/>
    <use x="98.394" xlink:href="#t" y="65.753"/>
    <use x="104.963" xlink:href="#o" y="65.753"/>
    <use x="108.502" xlink:href="#e" y="67.391"/>
    <use x="112.168" xlink:href="#p" y="65.753"/>
    <use x="117.058" xlink:href="#q" y="62.693"/>
    <use x="119.319" xlink:href="#d" y="62.534"/>
    <use x="122.475" xlink:href="#r" y="62.693"/>
    <use x="117.058" xlink:href="#d" y="68.552"/>
    <use x="120.214" xlink:href="#s" y="68.552"/>
    <use x="122.039" xlink:href="#e" y="68.552"/>
    <use x="127.827" xlink:href="#n" y="65.753"/>
    <use x="134.82" xlink:href="#u" y="65.753"/>
    <use x="138.607" xlink:href="#v" y="65.753"/>
    <use x="140.775" xlink:href="#w" y="65.753"/>
    <use x="144.563" xlink:href="#x" y="65.753"/>
    <use x="150.047" xlink:href="#t" y="65.753"/>
    <use x="156.616" xlink:href="#u" y="65.753"/>
    <use x="160.404" xlink:href="#v" y="65.753"/>
    <use x="162.571" xlink:href="#w" y="65.753"/>
    <use x="166.359" xlink:href="#y" y="65.753"/>
    <use x="172.268" xlink:href="#n" y="65.753"/>
    <use x="179.261" xlink:href="#u" y="65.753"/>
    <use x="183.049" xlink:href="#v" y="65.753"/>
    <use x="185.216" xlink:href="#z" y="65.753"/>
    <use x="189.004" xlink:href="#A" y="65.753"/>
  </g>
</svg>
