<svg height="12.717" viewBox="-0.3 -0.256 7.885 9.537" width="10.514" xmlns="http://www.w3.org/2000/svg" xmlns:xlink="http://www.w3.org/1999/xlink">
  <defs>
    <path d="M1.967-4.63a.867.867 0 0 0 .028-.112c0-.035-.028-.098-.112-.098-.14 0-.718.056-.893.07-.049.007-.146.014-.146.16 0 .098.097.098.174.098.335 0 .335.049.335.105 0 .048-.014.09-.028.153L.46-.81a.767.767 0 0 0-.028.216c0 .447.398.663.733.663.167 0 .376-.056.558-.37.146-.258.244-.67.244-.697 0-.09-.091-.09-.112-.09-.098 0-.112.04-.14.166-.09.35-.223.795-.522.795-.189 0-.238-.174-.238-.341 0-.077.021-.21.042-.286l.97-3.878z" id="b"/>
    <path d="M3.885-3.995c.09-.11.09-.13.09-.17 0-.129-.08-.129-.259-.129H.528L.418-2.69h.25c.06-1.016.249-1.385 1.344-1.385h1.136L.368-.319c-.089.11-.089.13-.089.18C.279 0 .349 0 .538 0h3.288l.169-1.863h-.249C3.656-.687 3.447-.249 2.291-.249H1.116l2.77-3.746z" id="a"/>
  </defs>
  <g transform="matrix(1.13 0 0 1.13 -80.23 -68.397)">
    <use x="70.735" xlink:href="#a" y="68.742"/>
    <use x="75.163" xlink:href="#b" y="65.127"/>
  </g>
</svg>
