<svg height="12.717" viewBox="-0.3 -0.256 10.098 9.537" width="13.464" xmlns="http://www.w3.org/2000/svg" xmlns:xlink="http://www.w3.org/1999/xlink">
  <defs>
    <path d="M4.752-2.351c0-1.564-.926-2.052-1.664-2.052-1.364 0-2.68 1.424-2.68 2.829C.408-.648 1.006.11 2.022.11c.628 0 1.345-.23 2.103-.837.13.528.458.837.906.837.528 0 .837-.548.837-.708 0-.07-.06-.1-.12-.1-.07 0-.1.03-.13.1-.178.488-.537.488-.557.488-.309 0-.309-.777-.309-1.016 0-.209 0-.229.1-.348.936-1.176 1.146-2.332 1.146-2.342 0-.02-.01-.1-.12-.1-.1 0-.1.03-.15.21-.179.628-.508 1.385-.976 1.972v-.617zM4.085-.986C3.208-.22 2.44-.11 2.042-.11c-.597 0-.896-.448-.896-1.086 0-.488.259-1.564.578-2.072.468-.727 1.006-.916 1.354-.916.987 0 .987 1.305.987 2.082 0 .368 0 .946.02 1.116z" id="a"/>
    <path d="M1.967-4.63a.867.867 0 0 0 .028-.112c0-.035-.028-.098-.112-.098-.14 0-.718.056-.893.07-.049.007-.146.014-.146.16 0 .098.097.098.174.098.335 0 .335.049.335.105 0 .048-.014.09-.028.153L.46-.81a.767.767 0 0 0-.028.216c0 .447.398.663.733.663.167 0 .376-.056.558-.37.146-.258.244-.67.244-.697 0-.09-.091-.09-.112-.09-.098 0-.112.04-.14.166-.09.35-.223.795-.522.795-.189 0-.238-.174-.238-.341 0-.077.021-.21.042-.286l.97-3.878z" id="b"/>
  </defs>
  <g transform="matrix(1.13 0 0 1.13 -80.23 -68.397)">
    <use x="70.735" xlink:href="#a" y="68.742"/>
    <use x="77.121" xlink:href="#b" y="65.127"/>
  </g>
</svg>
