<svg height="12.717" viewBox="-0.3 -0.256 8.293 9.537" width="11.057" xmlns="http://www.w3.org/2000/svg" xmlns:xlink="http://www.w3.org/1999/xlink">
  <defs>
    <path d="M2.63-4.354c-1.245.3-2.212 1.594-2.212 2.8C.418-.598 1.056.12 1.993.12c1.165 0 1.992-1.565 1.992-2.94 0-.906-.398-1.404-.737-1.852-.359-.449-.947-1.196-.947-1.634 0-.22.2-.459.548-.459.3 0 .498.13.708.27.199.119.398.248.548.248.249 0 .398-.239.398-.398 0-.22-.16-.25-.518-.329-.518-.11-.657-.11-.817-.11-.777 0-1.136.429-1.136 1.027 0 .538.29 1.096.598 1.703zm.12.22c.249.458.548.996.548 1.713 0 .658-.379 2.321-1.305 2.321-.548 0-.957-.418-.957-1.175 0-.628.369-2.5 1.714-2.86z" id="a"/>
    <path d="M1.967-4.63a.867.867 0 0 0 .028-.112c0-.035-.028-.098-.112-.098-.14 0-.718.056-.893.07-.049.007-.146.014-.146.16 0 .098.097.098.174.098.335 0 .335.049.335.105 0 .048-.014.09-.028.153L.46-.81a.767.767 0 0 0-.028.216c0 .447.398.663.733.663.167 0 .376-.056.558-.37.146-.258.244-.67.244-.697 0-.09-.091-.09-.112-.09-.098 0-.112.04-.14.166-.09.35-.223.795-.522.795-.189 0-.238-.174-.238-.341 0-.077.021-.21.042-.286l.97-3.878z" id="b"/>
  </defs>
  <g transform="matrix(1.13 0 0 1.13 -80.23 -68.397)">
    <use x="70.735" xlink:href="#a" y="68.742"/>
    <use x="75.523" xlink:href="#b" y="65.127"/>
  </g>
</svg>
