<svg height="16.165" viewBox="-0.239 -0.249 16.719 12.124" width="22.292" xmlns="http://www.w3.org/2000/svg" xmlns:xlink="http://www.w3.org/1999/xlink">
  <defs>
    <path d="M1.499-.953H.56L.084.898h.541L1.5-.952z" id="g"/>
    <path d="M5.44-3.608H4.49l-.58 2.481-.63-2.48h-.929l-.665 2.48-.556-2.48H.16L1.13 0h1.033l.63-2.352L3.439 0h1.027l.973-3.608z" id="a"/>
    <path d="M1.285 0v-2.72H.412V0h.873zm.025-3.107v-.665H.387v.665h.923z" id="f"/>
    <path d="M1.588.05v-2.77H.203v.591H.72v1.88C.72.209.615.398.283.398c-.084 0-.258-.03-.357-.06H-.14v.626c.12.03.397.064.715.064.595 0 1.012-.367 1.012-.977zm0-3.157v-.665H.66v.665h.928z" id="h"/>
    <path d="M3.146 0v-1.772c0-.68-.352-1.022-.938-1.022-.347 0-.615.129-.923.372v-.298H.412V0h.873v-1.93c.189-.11.348-.16.507-.16.387 0 .476.13.476.74V0h.878z" id="d"/>
    <use id="b" transform="scale(1.2)" xlink:href="#a"/>
    <path d="M1.896.998V.973A3.2 3.2 0 0 1 .864-1.385c0-.898.387-1.776 1.032-2.362v-.025h-.551C.769-3.117.437-2.357.437-1.385S.769.342 1.345.998h.55z" id="c"/>
    <path d="M1.816-1.385c0-.972-.332-1.732-.903-2.387H.357v.025A3.208 3.208 0 0 1 1.39-1.385C1.39-.48 1.007.392.357.973v.025h.556c.57-.656.903-1.41.903-2.383z" id="e"/>
  </defs>
  <g transform="matrix(1.13 0 0 1.13 -63.986 -66.76)">
    <use x="56.413" xlink:href="#b" y="65.753"/>
    <use x="63.156" xlink:href="#c" y="62.693"/>
    <use x="65.418" xlink:href="#d" y="62.534"/>
    <use x="68.964" xlink:href="#e" y="62.693"/>
    <use x="63.156" xlink:href="#f" y="68.602"/>
    <use x="64.853" xlink:href="#g" y="68.602"/>
    <use x="66.645" xlink:href="#h" y="68.602"/>
  </g>
</svg>
