<svg height="16.375" viewBox="-0.3 -0.257 40.328 12.281" width="53.77" xmlns="http://www.w3.org/2000/svg" xmlns:xlink="http://www.w3.org/1999/xlink">
  <defs>
    <path d="M7.19-2.51c.185 0 .38 0 .38-.217s-.195-.218-.38-.218H1.286c-.185 0-.382 0-.382.218s.197.218.382.218H7.19z" id="d"/>
    <path d="M4.964-5.455c0-.72-.197-2.236-1.31-2.236C2.139-7.69.459-4.615.459-2.116.458-1.091.775.12 1.768.12c1.537 0 3.196-3.13 3.196-5.575zM1.614-3.96c.186-.698.404-1.57.84-2.345.295-.535.699-1.146 1.19-1.146.534 0 .6.698.6 1.32 0 .535-.088 1.091-.35 2.171h-2.28zm2.182.35c-.12.5-.349 1.428-.763 2.214C2.65-.655 2.236-.12 1.767-.12c-.36 0-.589-.316-.589-1.33 0-.46.066-1.092.35-2.16h2.268z" id="b"/>
    <path d="M3.61 2.618c0-.033 0-.054-.185-.24-1.363-1.374-1.712-3.436-1.712-5.105 0-1.898.414-3.797 1.756-5.16.142-.131.142-.153.142-.186 0-.076-.044-.109-.11-.109-.108 0-1.09.742-1.734 2.127-.556 1.2-.687 2.411-.687 3.328 0 .85.12 2.17.72 3.403.655 1.342 1.593 2.051 1.702 2.051.065 0 .109-.032.109-.109z" id="a"/>
    <path d="M3.153-2.727c0-.851-.12-2.171-.72-3.404C1.778-7.473.84-8.18.73-8.18c-.066 0-.11.043-.11.108 0 .033 0 .055.208.251C1.9-6.742 2.52-5.007 2.52-2.727c0 1.865-.404 3.785-1.756 5.16-.142.13-.142.152-.142.185 0 .066.043.11.109.11.109 0 1.09-.743 1.734-2.128.557-1.2.688-2.41.688-3.327z" id="f"/>
    <path d="M3.207-6.982c0-.262 0-.283-.25-.283-.677.698-1.637.698-1.986.698v.338c.218 0 .862 0 1.429-.284v5.651c0 .393-.033.524-1.015.524h-.349V0c.382-.033 1.331-.033 1.768-.033s1.385 0 1.767.033v-.338h-.35c-.981 0-1.014-.12-1.014-.524v-6.12z" id="e"/>
    <path d="M2.375-4.973c0-.176-.127-.303-.31-.303-.208 0-.44.191-.44.43 0 .176.128.303.312.303.207 0 .438-.191.438-.43zM1.211-2.048l-.43 1.1c-.04.12-.08.215-.08.35 0 .39.303.678.726.678.773 0 1.1-1.116 1.1-1.22 0-.08-.064-.103-.12-.103-.096 0-.112.055-.136.135-.183.638-.51.965-.828.965-.096 0-.192-.04-.192-.256 0-.19.056-.334.16-.581.08-.216.16-.43.247-.646l.247-.645c.072-.184.167-.43.167-.566 0-.399-.319-.678-.725-.678-.773 0-1.108 1.116-1.108 1.22 0 .071.056.103.12.103.103 0 .111-.048.135-.127.223-.757.59-.973.829-.973.112 0 .191.04.191.263 0 .08-.008.192-.087.43l-.216.55z" id="c"/>
  </defs>
  <g transform="matrix(1.13 0 0 1.13 -80.23 -68.725)">
    <use x="70.735" xlink:href="#a" y="68.742"/>
    <use x="74.977" xlink:href="#b" y="68.742"/>
    <use x="80.079" xlink:href="#c" y="70.379"/>
    <use x="85.885" xlink:href="#d" y="68.742"/>
    <use x="96.762" xlink:href="#e" y="68.742"/>
    <use x="102.196" xlink:href="#f" y="68.742"/>
  </g>
</svg>
