<svg height="12.717" viewBox="-0.3 -0.256 9.113 9.537" width="12.15" xmlns="http://www.w3.org/2000/svg" xmlns:xlink="http://www.w3.org/1999/xlink">
  <defs>
    <path d="M1.967-4.63a.867.867 0 0 0 .028-.112c0-.035-.028-.098-.112-.098-.14 0-.718.056-.893.07-.049.007-.146.014-.146.16 0 .098.097.098.174.098.335 0 .335.049.335.105 0 .048-.014.09-.028.153L.46-.81a.767.767 0 0 0-.028.216c0 .447.398.663.733.663.167 0 .376-.056.558-.37.146-.258.244-.67.244-.697 0-.09-.091-.09-.112-.09-.098 0-.112.04-.14.166-.09.35-.223.795-.522.795-.189 0-.238-.174-.238-.341 0-.077.021-.21.042-.286l.97-3.878z" id="b"/>
    <path d="M1.714-3.756v-3.158l-1.435.11v.308c.697 0 .777.07.777.558V0h.25c.01-.01.089-.15.358-.618.15.23.568.728 1.305.728C4.154.11 5.19-.867 5.19-2.152c0-1.265-.977-2.251-2.113-2.251-.777 0-1.205.468-1.364.647zm.03 2.62v-2.052c0-.19 0-.2.11-.359a1.438 1.438 0 0 1 1.175-.637c.448 0 .807.259 1.046.637.259.409.289.977.289 1.385 0 .369-.02.966-.31 1.415-.208.309-.587.637-1.125.637-.448 0-.807-.239-1.046-.607-.14-.21-.14-.24-.14-.419z" id="a"/>
  </defs>
  <g transform="matrix(1.13 0 0 1.13 -80.23 -68.397)">
    <use x="70.735" xlink:href="#a" y="68.742"/>
    <use x="76.249" xlink:href="#b" y="65.127"/>
  </g>
</svg>
