<svg height="12.717" viewBox="-0.3 -0.256 10.982 9.537" width="14.643" xmlns="http://www.w3.org/2000/svg" xmlns:xlink="http://www.w3.org/1999/xlink">
  <defs>
    <path d="M1.967-4.63a.867.867 0 0 0 .028-.112c0-.035-.028-.098-.112-.098-.14 0-.718.056-.893.07-.049.007-.146.014-.146.16 0 .098.097.098.174.098.335 0 .335.049.335.105 0 .048-.014.09-.028.153L.46-.81a.767.767 0 0 0-.028.216c0 .447.398.663.733.663.167 0 .376-.056.558-.37.146-.258.244-.67.244-.697 0-.09-.091-.09-.112-.09-.098 0-.112.04-.14.166-.09.35-.223.795-.522.795-.189 0-.238-.174-.238-.341 0-.077.021-.21.042-.286l.97-3.878z" id="b"/>
    <path d="M6.167-3.347c.18-.499.488-.628.837-.638v-.309c-.22.02-.508.03-.728.03-.288 0-.737-.02-.926-.03v.309c.359.01.578.19.578.478 0 .06 0 .08-.05.21l-.907 2.55-.986-2.78c-.04-.12-.05-.14-.05-.19 0-.268.389-.268.588-.268v-.309c-.289.01-.797.03-1.036.03-.299 0-.588-.01-.887-.03v.309c.369 0 .528.02.628.15.05.06.16.358.229.547L2.6-.877l-.946-2.66c-.05-.12-.05-.14-.05-.18 0-.268.389-.268.588-.268v-.309c-.3.01-.857.03-1.086.03-.04 0-.568-.01-.927-.03v.309c.498 0 .618.03.738.349L2.172-.11c.05.14.08.22.21.22s.149-.06.198-.2l1.007-2.82L4.603-.08c.04.11.07.19.199.19s.16-.09.2-.19l1.165-3.267z" id="a"/>
  </defs>
  <g transform="matrix(1.13 0 0 1.13 -80.23 -68.397)">
    <use x="70.735" xlink:href="#a" y="68.742"/>
    <use x="77.903" xlink:href="#b" y="65.127"/>
  </g>
</svg>
