<svg height="14.961" viewBox="-0.239 -0.237 15.607 11.221" width="20.81" xmlns="http://www.w3.org/2000/svg" xmlns:xlink="http://www.w3.org/1999/xlink">
  <defs>
    <path d="M3.092-4.822c.072-.27.088-.359.821-.359.223 0 .303 0 .303-.151 0-.016-.016-.112-.135-.112-.168 0-.407.016-.574.024h-.574c-.829 0-1.02-.024-1.076-.024-.032 0-.16 0-.16.152 0 .111.104.111.232.111.263 0 .494 0 .494.128 0 .032-.008.04-.032.143L1.323-.63c-.072.303-.088.367-.677.367-.152 0-.247 0-.247.151C.399 0 .502 0 .638 0h3.85c.198 0 .206-.008.27-.16.08-.223.662-1.72.662-1.8 0-.072-.064-.112-.12-.112-.088 0-.103.056-.16.175-.286.741-.629 1.634-2.056 1.634H2.072c-.071-.016-.095-.016-.095-.072 0-.064.016-.127.031-.175l1.084-4.312z" id="b"/>
    <path d="M5.04-3.698c.055-.24.164-.644.164-.71 0-.196-.153-.294-.317-.294a.446.446 0 0 0-.403.306c-.033.076-.546 2.16-.622 2.443a2.984 2.984 0 0 0-.098.72c0 .12 0 .142.01.197-.25.578-.578.916-1.003.916-.873 0-.873-.807-.873-.993 0-.349.055-.774.567-2.116.12-.327.186-.48.186-.698 0-.491-.36-.895-.895-.895-1.036 0-1.44 1.582-1.44 1.68 0 .11.11.11.131.11.11 0 .12-.023.175-.197.294-1.015.72-1.353 1.102-1.353.098 0 .272.011.272.36 0 .273-.12.578-.196.764-.48 1.287-.61 1.789-.61 2.203C1.19-.262 1.92.12 2.737.12c.186 0 .698 0 1.135-.764.283.699 1.036.764 1.363.764.819 0 1.299-.687 1.582-1.342.371-.85.72-2.313.72-2.836 0-.6-.294-.764-.48-.764-.273 0-.545.284-.545.524 0 .142.065.207.163.294.12.12.393.404.393.928 0 .37-.316 1.44-.6 1.996-.284.578-.665.96-1.2.96-.513 0-.807-.327-.807-.95 0-.305.076-.643.12-.795l.458-1.833z" id="a"/>
  </defs>
  <g transform="matrix(1.13 0 0 1.13 -63.986 -63.317)">
    <use x="56.413" xlink:href="#a" y="65.753"/>
    <use x="64.488" xlink:href="#b" y="61.249"/>
  </g>
</svg>
