<svg height="14.961" viewBox="-0.239 -0.237 11.754 11.221" width="15.672" xmlns="http://www.w3.org/2000/svg" xmlns:xlink="http://www.w3.org/1999/xlink">
  <defs>
    <path d="M3.092-4.822c.072-.27.088-.359.821-.359.223 0 .303 0 .303-.151 0-.016-.016-.112-.135-.112-.168 0-.407.016-.574.024h-.574c-.829 0-1.02-.024-1.076-.024-.032 0-.16 0-.16.152 0 .111.104.111.232.111.263 0 .494 0 .494.128 0 .032-.008.04-.032.143L1.323-.63c-.072.303-.088.367-.677.367-.152 0-.247 0-.247.151C.399 0 .502 0 .638 0h3.85c.198 0 .206-.008.27-.16.08-.223.662-1.72.662-1.8 0-.072-.064-.112-.12-.112-.088 0-.103.056-.16.175-.286.741-.629 1.634-2.056 1.634H2.072c-.071-.016-.095-.016-.095-.072 0-.064.016-.127.031-.175l1.084-4.312z" id="b"/>
    <path d="M2.607-7.45c0-.012 0-.12-.142-.12-.25 0-1.047.086-1.33.108-.088.011-.208.022-.208.218 0 .131.098.131.262.131.524 0 .546.077.546.186 0 .076-.099.447-.153.676L.687-2.695c-.13.546-.174.72-.174 1.102C.513-.556 1.09.12 1.898.12c1.287 0 2.63-1.625 2.63-3.196 0-.993-.579-1.746-1.452-1.746-.501 0-.949.317-1.276.655l.807-3.284zM1.582-3.328c.065-.24.065-.262.163-.382.535-.71 1.026-.873 1.31-.873.392 0 .687.327.687 1.026 0 .643-.36 1.898-.557 2.312-.36.731-.861 1.124-1.287 1.124-.37 0-.73-.295-.73-1.102 0-.207 0-.414.174-1.102l.24-1.003z" id="a"/>
  </defs>
  <g transform="matrix(1.13 0 0 1.13 -63.986 -63.317)">
    <use x="56.413" xlink:href="#a" y="65.753"/>
    <use x="61.078" xlink:href="#b" y="61.249"/>
  </g>
</svg>
