<svg height="14.991" viewBox="-0.3 -0.249 23.256 11.243" width="31.008" xmlns="http://www.w3.org/2000/svg" xmlns:xlink="http://www.w3.org/1999/xlink">
  <defs>
    <path d="M2.654 1.397v-.035C1.751.549 1.21-.674 1.21-1.938c0-1.258.542-2.488 1.445-3.308v-.034h-.771C1.077-4.363.61-3.3.61-1.938S1.077.479 1.883 1.397h.771z" id="c"/>
    <path d="M2.543-1.938c0-1.362-.466-2.425-1.265-3.342H.5v.034c.91.82 1.445 2.05 1.445 3.308C1.945-.674 1.41.549.5 1.362v.035h.778c.8-.918 1.265-1.974 1.265-3.335z" id="e"/>
    <path d="M3.967 0v-.577H1.251c1.952-1.66 2.5-2.223 2.5-3.189 0-.854-.624-1.39-1.66-1.39-.5 0-1.097.154-1.417.313v.716h.035c.451-.299.958-.445 1.368-.445.619 0 .98.313.98.841 0 .757-.445 1.25-2.508 3.022V0h3.418z" id="d"/>
    <path d="M6.559-5.051h-.66L4.843-.813 3.787-5.05h-.681L2.063-.855 1-5.05H.313L1.647 0h.743l1.035-4.196L4.488 0h.758l1.313-5.051z" id="a"/>
    <use id="b" transform="scale(1.42857)" xlink:href="#a"/>
  </defs>
  <g transform="matrix(1.13 0 0 1.13 -80.23 -66.685)">
    <use x="70.735" xlink:href="#b" y="68.742"/>
    <use x="80.588" xlink:href="#c" y="64.161"/>
    <use x="83.754" xlink:href="#d" y="63.937"/>
    <use x="88.173" xlink:href="#e" y="64.161"/>
  </g>
</svg>
